G04 #@! TF.GenerationSoftware,KiCad,Pcbnew,7.0.7*
G04 #@! TF.CreationDate,2023-08-24T22:47:44-04:00*
G04 #@! TF.ProjectId,40-pin header to breadboard adaptor,34302d70-696e-4206-9865-616465722074,rev?*
G04 #@! TF.SameCoordinates,Original*
G04 #@! TF.FileFunction,Legend,Bot*
G04 #@! TF.FilePolarity,Positive*
%FSLAX46Y46*%
G04 Gerber Fmt 4.6, Leading zero omitted, Abs format (unit mm)*
G04 Created by KiCad (PCBNEW 7.0.7) date 2023-08-24 22:47:44*
%MOMM*%
%LPD*%
G01*
G04 APERTURE LIST*
%ADD10C,0.220000*%
%ADD11C,0.120000*%
%ADD12R,1.700000X1.700000*%
%ADD13O,1.700000X1.700000*%
G04 APERTURE END LIST*
D10*
X110307488Y-76914476D02*
X110307488Y-77533523D01*
X110307488Y-77533523D02*
X110878917Y-77200190D01*
X110878917Y-77200190D02*
X110878917Y-77343047D01*
X110878917Y-77343047D02*
X110950345Y-77438285D01*
X110950345Y-77438285D02*
X111021774Y-77485904D01*
X111021774Y-77485904D02*
X111164631Y-77533523D01*
X111164631Y-77533523D02*
X111521774Y-77533523D01*
X111521774Y-77533523D02*
X111664631Y-77485904D01*
X111664631Y-77485904D02*
X111736060Y-77438285D01*
X111736060Y-77438285D02*
X111807488Y-77343047D01*
X111807488Y-77343047D02*
X111807488Y-77057333D01*
X111807488Y-77057333D02*
X111736060Y-76962095D01*
X111736060Y-76962095D02*
X111664631Y-76914476D01*
X110307488Y-77866857D02*
X110307488Y-78533523D01*
X110307488Y-78533523D02*
X111807488Y-78104952D01*
X110807488Y-69818285D02*
X111807488Y-69818285D01*
X110236060Y-69580190D02*
X111307488Y-69342095D01*
X111307488Y-69342095D02*
X111307488Y-69961142D01*
X110307488Y-70532571D02*
X110307488Y-70627809D01*
X110307488Y-70627809D02*
X110378917Y-70723047D01*
X110378917Y-70723047D02*
X110450345Y-70770666D01*
X110450345Y-70770666D02*
X110593202Y-70818285D01*
X110593202Y-70818285D02*
X110878917Y-70865904D01*
X110878917Y-70865904D02*
X111236060Y-70865904D01*
X111236060Y-70865904D02*
X111521774Y-70818285D01*
X111521774Y-70818285D02*
X111664631Y-70770666D01*
X111664631Y-70770666D02*
X111736060Y-70723047D01*
X111736060Y-70723047D02*
X111807488Y-70627809D01*
X111807488Y-70627809D02*
X111807488Y-70532571D01*
X111807488Y-70532571D02*
X111736060Y-70437333D01*
X111736060Y-70437333D02*
X111664631Y-70389714D01*
X111664631Y-70389714D02*
X111521774Y-70342095D01*
X111521774Y-70342095D02*
X111236060Y-70294476D01*
X111236060Y-70294476D02*
X110878917Y-70294476D01*
X110878917Y-70294476D02*
X110593202Y-70342095D01*
X110593202Y-70342095D02*
X110450345Y-70389714D01*
X110450345Y-70389714D02*
X110378917Y-70437333D01*
X110378917Y-70437333D02*
X110307488Y-70532571D01*
X110307488Y-71834476D02*
X110307488Y-72453523D01*
X110307488Y-72453523D02*
X110878917Y-72120190D01*
X110878917Y-72120190D02*
X110878917Y-72263047D01*
X110878917Y-72263047D02*
X110950345Y-72358285D01*
X110950345Y-72358285D02*
X111021774Y-72405904D01*
X111021774Y-72405904D02*
X111164631Y-72453523D01*
X111164631Y-72453523D02*
X111521774Y-72453523D01*
X111521774Y-72453523D02*
X111664631Y-72405904D01*
X111664631Y-72405904D02*
X111736060Y-72358285D01*
X111736060Y-72358285D02*
X111807488Y-72263047D01*
X111807488Y-72263047D02*
X111807488Y-71977333D01*
X111807488Y-71977333D02*
X111736060Y-71882095D01*
X111736060Y-71882095D02*
X111664631Y-71834476D01*
X111807488Y-72929714D02*
X111807488Y-73120190D01*
X111807488Y-73120190D02*
X111736060Y-73215428D01*
X111736060Y-73215428D02*
X111664631Y-73263047D01*
X111664631Y-73263047D02*
X111450345Y-73358285D01*
X111450345Y-73358285D02*
X111164631Y-73405904D01*
X111164631Y-73405904D02*
X110593202Y-73405904D01*
X110593202Y-73405904D02*
X110450345Y-73358285D01*
X110450345Y-73358285D02*
X110378917Y-73310666D01*
X110378917Y-73310666D02*
X110307488Y-73215428D01*
X110307488Y-73215428D02*
X110307488Y-73024952D01*
X110307488Y-73024952D02*
X110378917Y-72929714D01*
X110378917Y-72929714D02*
X110450345Y-72882095D01*
X110450345Y-72882095D02*
X110593202Y-72834476D01*
X110593202Y-72834476D02*
X110950345Y-72834476D01*
X110950345Y-72834476D02*
X111093202Y-72882095D01*
X111093202Y-72882095D02*
X111164631Y-72929714D01*
X111164631Y-72929714D02*
X111236060Y-73024952D01*
X111236060Y-73024952D02*
X111236060Y-73215428D01*
X111236060Y-73215428D02*
X111164631Y-73310666D01*
X111164631Y-73310666D02*
X111093202Y-73358285D01*
X111093202Y-73358285D02*
X110950345Y-73405904D01*
X110307488Y-79454476D02*
X110307488Y-80073523D01*
X110307488Y-80073523D02*
X110878917Y-79740190D01*
X110878917Y-79740190D02*
X110878917Y-79883047D01*
X110878917Y-79883047D02*
X110950345Y-79978285D01*
X110950345Y-79978285D02*
X111021774Y-80025904D01*
X111021774Y-80025904D02*
X111164631Y-80073523D01*
X111164631Y-80073523D02*
X111521774Y-80073523D01*
X111521774Y-80073523D02*
X111664631Y-80025904D01*
X111664631Y-80025904D02*
X111736060Y-79978285D01*
X111736060Y-79978285D02*
X111807488Y-79883047D01*
X111807488Y-79883047D02*
X111807488Y-79597333D01*
X111807488Y-79597333D02*
X111736060Y-79502095D01*
X111736060Y-79502095D02*
X111664631Y-79454476D01*
X110307488Y-80930666D02*
X110307488Y-80740190D01*
X110307488Y-80740190D02*
X110378917Y-80644952D01*
X110378917Y-80644952D02*
X110450345Y-80597333D01*
X110450345Y-80597333D02*
X110664631Y-80502095D01*
X110664631Y-80502095D02*
X110950345Y-80454476D01*
X110950345Y-80454476D02*
X111521774Y-80454476D01*
X111521774Y-80454476D02*
X111664631Y-80502095D01*
X111664631Y-80502095D02*
X111736060Y-80549714D01*
X111736060Y-80549714D02*
X111807488Y-80644952D01*
X111807488Y-80644952D02*
X111807488Y-80835428D01*
X111807488Y-80835428D02*
X111736060Y-80930666D01*
X111736060Y-80930666D02*
X111664631Y-80978285D01*
X111664631Y-80978285D02*
X111521774Y-81025904D01*
X111521774Y-81025904D02*
X111164631Y-81025904D01*
X111164631Y-81025904D02*
X111021774Y-80978285D01*
X111021774Y-80978285D02*
X110950345Y-80930666D01*
X110950345Y-80930666D02*
X110878917Y-80835428D01*
X110878917Y-80835428D02*
X110878917Y-80644952D01*
X110878917Y-80644952D02*
X110950345Y-80549714D01*
X110950345Y-80549714D02*
X111021774Y-80502095D01*
X111021774Y-80502095D02*
X111164631Y-80454476D01*
X110307488Y-74374476D02*
X110307488Y-74993523D01*
X110307488Y-74993523D02*
X110878917Y-74660190D01*
X110878917Y-74660190D02*
X110878917Y-74803047D01*
X110878917Y-74803047D02*
X110950345Y-74898285D01*
X110950345Y-74898285D02*
X111021774Y-74945904D01*
X111021774Y-74945904D02*
X111164631Y-74993523D01*
X111164631Y-74993523D02*
X111521774Y-74993523D01*
X111521774Y-74993523D02*
X111664631Y-74945904D01*
X111664631Y-74945904D02*
X111736060Y-74898285D01*
X111736060Y-74898285D02*
X111807488Y-74803047D01*
X111807488Y-74803047D02*
X111807488Y-74517333D01*
X111807488Y-74517333D02*
X111736060Y-74422095D01*
X111736060Y-74422095D02*
X111664631Y-74374476D01*
X110950345Y-75564952D02*
X110878917Y-75469714D01*
X110878917Y-75469714D02*
X110807488Y-75422095D01*
X110807488Y-75422095D02*
X110664631Y-75374476D01*
X110664631Y-75374476D02*
X110593202Y-75374476D01*
X110593202Y-75374476D02*
X110450345Y-75422095D01*
X110450345Y-75422095D02*
X110378917Y-75469714D01*
X110378917Y-75469714D02*
X110307488Y-75564952D01*
X110307488Y-75564952D02*
X110307488Y-75755428D01*
X110307488Y-75755428D02*
X110378917Y-75850666D01*
X110378917Y-75850666D02*
X110450345Y-75898285D01*
X110450345Y-75898285D02*
X110593202Y-75945904D01*
X110593202Y-75945904D02*
X110664631Y-75945904D01*
X110664631Y-75945904D02*
X110807488Y-75898285D01*
X110807488Y-75898285D02*
X110878917Y-75850666D01*
X110878917Y-75850666D02*
X110950345Y-75755428D01*
X110950345Y-75755428D02*
X110950345Y-75564952D01*
X110950345Y-75564952D02*
X111021774Y-75469714D01*
X111021774Y-75469714D02*
X111093202Y-75422095D01*
X111093202Y-75422095D02*
X111236060Y-75374476D01*
X111236060Y-75374476D02*
X111521774Y-75374476D01*
X111521774Y-75374476D02*
X111664631Y-75422095D01*
X111664631Y-75422095D02*
X111736060Y-75469714D01*
X111736060Y-75469714D02*
X111807488Y-75564952D01*
X111807488Y-75564952D02*
X111807488Y-75755428D01*
X111807488Y-75755428D02*
X111736060Y-75850666D01*
X111736060Y-75850666D02*
X111664631Y-75898285D01*
X111664631Y-75898285D02*
X111521774Y-75945904D01*
X111521774Y-75945904D02*
X111236060Y-75945904D01*
X111236060Y-75945904D02*
X111093202Y-75898285D01*
X111093202Y-75898285D02*
X111021774Y-75850666D01*
X111021774Y-75850666D02*
X110950345Y-75755428D01*
X110307488Y-89614476D02*
X110307488Y-90233523D01*
X110307488Y-90233523D02*
X110878917Y-89900190D01*
X110878917Y-89900190D02*
X110878917Y-90043047D01*
X110878917Y-90043047D02*
X110950345Y-90138285D01*
X110950345Y-90138285D02*
X111021774Y-90185904D01*
X111021774Y-90185904D02*
X111164631Y-90233523D01*
X111164631Y-90233523D02*
X111521774Y-90233523D01*
X111521774Y-90233523D02*
X111664631Y-90185904D01*
X111664631Y-90185904D02*
X111736060Y-90138285D01*
X111736060Y-90138285D02*
X111807488Y-90043047D01*
X111807488Y-90043047D02*
X111807488Y-89757333D01*
X111807488Y-89757333D02*
X111736060Y-89662095D01*
X111736060Y-89662095D02*
X111664631Y-89614476D01*
X110450345Y-90614476D02*
X110378917Y-90662095D01*
X110378917Y-90662095D02*
X110307488Y-90757333D01*
X110307488Y-90757333D02*
X110307488Y-90995428D01*
X110307488Y-90995428D02*
X110378917Y-91090666D01*
X110378917Y-91090666D02*
X110450345Y-91138285D01*
X110450345Y-91138285D02*
X110593202Y-91185904D01*
X110593202Y-91185904D02*
X110736060Y-91185904D01*
X110736060Y-91185904D02*
X110950345Y-91138285D01*
X110950345Y-91138285D02*
X111807488Y-90566857D01*
X111807488Y-90566857D02*
X111807488Y-91185904D01*
X110307488Y-81994476D02*
X110307488Y-82613523D01*
X110307488Y-82613523D02*
X110878917Y-82280190D01*
X110878917Y-82280190D02*
X110878917Y-82423047D01*
X110878917Y-82423047D02*
X110950345Y-82518285D01*
X110950345Y-82518285D02*
X111021774Y-82565904D01*
X111021774Y-82565904D02*
X111164631Y-82613523D01*
X111164631Y-82613523D02*
X111521774Y-82613523D01*
X111521774Y-82613523D02*
X111664631Y-82565904D01*
X111664631Y-82565904D02*
X111736060Y-82518285D01*
X111736060Y-82518285D02*
X111807488Y-82423047D01*
X111807488Y-82423047D02*
X111807488Y-82137333D01*
X111807488Y-82137333D02*
X111736060Y-82042095D01*
X111736060Y-82042095D02*
X111664631Y-81994476D01*
X110307488Y-83518285D02*
X110307488Y-83042095D01*
X110307488Y-83042095D02*
X111021774Y-82994476D01*
X111021774Y-82994476D02*
X110950345Y-83042095D01*
X110950345Y-83042095D02*
X110878917Y-83137333D01*
X110878917Y-83137333D02*
X110878917Y-83375428D01*
X110878917Y-83375428D02*
X110950345Y-83470666D01*
X110950345Y-83470666D02*
X111021774Y-83518285D01*
X111021774Y-83518285D02*
X111164631Y-83565904D01*
X111164631Y-83565904D02*
X111521774Y-83565904D01*
X111521774Y-83565904D02*
X111664631Y-83518285D01*
X111664631Y-83518285D02*
X111736060Y-83470666D01*
X111736060Y-83470666D02*
X111807488Y-83375428D01*
X111807488Y-83375428D02*
X111807488Y-83137333D01*
X111807488Y-83137333D02*
X111736060Y-83042095D01*
X111736060Y-83042095D02*
X111664631Y-82994476D01*
X110307488Y-84534476D02*
X110307488Y-85153523D01*
X110307488Y-85153523D02*
X110878917Y-84820190D01*
X110878917Y-84820190D02*
X110878917Y-84963047D01*
X110878917Y-84963047D02*
X110950345Y-85058285D01*
X110950345Y-85058285D02*
X111021774Y-85105904D01*
X111021774Y-85105904D02*
X111164631Y-85153523D01*
X111164631Y-85153523D02*
X111521774Y-85153523D01*
X111521774Y-85153523D02*
X111664631Y-85105904D01*
X111664631Y-85105904D02*
X111736060Y-85058285D01*
X111736060Y-85058285D02*
X111807488Y-84963047D01*
X111807488Y-84963047D02*
X111807488Y-84677333D01*
X111807488Y-84677333D02*
X111736060Y-84582095D01*
X111736060Y-84582095D02*
X111664631Y-84534476D01*
X110807488Y-86010666D02*
X111807488Y-86010666D01*
X110236060Y-85772571D02*
X111307488Y-85534476D01*
X111307488Y-85534476D02*
X111307488Y-86153523D01*
X110307488Y-92154476D02*
X110307488Y-92773523D01*
X110307488Y-92773523D02*
X110878917Y-92440190D01*
X110878917Y-92440190D02*
X110878917Y-92583047D01*
X110878917Y-92583047D02*
X110950345Y-92678285D01*
X110950345Y-92678285D02*
X111021774Y-92725904D01*
X111021774Y-92725904D02*
X111164631Y-92773523D01*
X111164631Y-92773523D02*
X111521774Y-92773523D01*
X111521774Y-92773523D02*
X111664631Y-92725904D01*
X111664631Y-92725904D02*
X111736060Y-92678285D01*
X111736060Y-92678285D02*
X111807488Y-92583047D01*
X111807488Y-92583047D02*
X111807488Y-92297333D01*
X111807488Y-92297333D02*
X111736060Y-92202095D01*
X111736060Y-92202095D02*
X111664631Y-92154476D01*
X111807488Y-93725904D02*
X111807488Y-93154476D01*
X111807488Y-93440190D02*
X110307488Y-93440190D01*
X110307488Y-93440190D02*
X110521774Y-93344952D01*
X110521774Y-93344952D02*
X110664631Y-93249714D01*
X110664631Y-93249714D02*
X110736060Y-93154476D01*
X110307488Y-87074476D02*
X110307488Y-87693523D01*
X110307488Y-87693523D02*
X110878917Y-87360190D01*
X110878917Y-87360190D02*
X110878917Y-87503047D01*
X110878917Y-87503047D02*
X110950345Y-87598285D01*
X110950345Y-87598285D02*
X111021774Y-87645904D01*
X111021774Y-87645904D02*
X111164631Y-87693523D01*
X111164631Y-87693523D02*
X111521774Y-87693523D01*
X111521774Y-87693523D02*
X111664631Y-87645904D01*
X111664631Y-87645904D02*
X111736060Y-87598285D01*
X111736060Y-87598285D02*
X111807488Y-87503047D01*
X111807488Y-87503047D02*
X111807488Y-87217333D01*
X111807488Y-87217333D02*
X111736060Y-87122095D01*
X111736060Y-87122095D02*
X111664631Y-87074476D01*
X110307488Y-88026857D02*
X110307488Y-88645904D01*
X110307488Y-88645904D02*
X110878917Y-88312571D01*
X110878917Y-88312571D02*
X110878917Y-88455428D01*
X110878917Y-88455428D02*
X110950345Y-88550666D01*
X110950345Y-88550666D02*
X111021774Y-88598285D01*
X111021774Y-88598285D02*
X111164631Y-88645904D01*
X111164631Y-88645904D02*
X111521774Y-88645904D01*
X111521774Y-88645904D02*
X111664631Y-88598285D01*
X111664631Y-88598285D02*
X111736060Y-88550666D01*
X111736060Y-88550666D02*
X111807488Y-88455428D01*
X111807488Y-88455428D02*
X111807488Y-88169714D01*
X111807488Y-88169714D02*
X111736060Y-88074476D01*
X111736060Y-88074476D02*
X111664631Y-88026857D01*
X110450345Y-102362095D02*
X110378917Y-102409714D01*
X110378917Y-102409714D02*
X110307488Y-102504952D01*
X110307488Y-102504952D02*
X110307488Y-102743047D01*
X110307488Y-102743047D02*
X110378917Y-102838285D01*
X110378917Y-102838285D02*
X110450345Y-102885904D01*
X110450345Y-102885904D02*
X110593202Y-102933523D01*
X110593202Y-102933523D02*
X110736060Y-102933523D01*
X110736060Y-102933523D02*
X110950345Y-102885904D01*
X110950345Y-102885904D02*
X111807488Y-102314476D01*
X111807488Y-102314476D02*
X111807488Y-102933523D01*
X110307488Y-103266857D02*
X110307488Y-103933523D01*
X110307488Y-103933523D02*
X111807488Y-103504952D01*
X110307488Y-94694476D02*
X110307488Y-95313523D01*
X110307488Y-95313523D02*
X110878917Y-94980190D01*
X110878917Y-94980190D02*
X110878917Y-95123047D01*
X110878917Y-95123047D02*
X110950345Y-95218285D01*
X110950345Y-95218285D02*
X111021774Y-95265904D01*
X111021774Y-95265904D02*
X111164631Y-95313523D01*
X111164631Y-95313523D02*
X111521774Y-95313523D01*
X111521774Y-95313523D02*
X111664631Y-95265904D01*
X111664631Y-95265904D02*
X111736060Y-95218285D01*
X111736060Y-95218285D02*
X111807488Y-95123047D01*
X111807488Y-95123047D02*
X111807488Y-94837333D01*
X111807488Y-94837333D02*
X111736060Y-94742095D01*
X111736060Y-94742095D02*
X111664631Y-94694476D01*
X110307488Y-95932571D02*
X110307488Y-96027809D01*
X110307488Y-96027809D02*
X110378917Y-96123047D01*
X110378917Y-96123047D02*
X110450345Y-96170666D01*
X110450345Y-96170666D02*
X110593202Y-96218285D01*
X110593202Y-96218285D02*
X110878917Y-96265904D01*
X110878917Y-96265904D02*
X111236060Y-96265904D01*
X111236060Y-96265904D02*
X111521774Y-96218285D01*
X111521774Y-96218285D02*
X111664631Y-96170666D01*
X111664631Y-96170666D02*
X111736060Y-96123047D01*
X111736060Y-96123047D02*
X111807488Y-96027809D01*
X111807488Y-96027809D02*
X111807488Y-95932571D01*
X111807488Y-95932571D02*
X111736060Y-95837333D01*
X111736060Y-95837333D02*
X111664631Y-95789714D01*
X111664631Y-95789714D02*
X111521774Y-95742095D01*
X111521774Y-95742095D02*
X111236060Y-95694476D01*
X111236060Y-95694476D02*
X110878917Y-95694476D01*
X110878917Y-95694476D02*
X110593202Y-95742095D01*
X110593202Y-95742095D02*
X110450345Y-95789714D01*
X110450345Y-95789714D02*
X110378917Y-95837333D01*
X110378917Y-95837333D02*
X110307488Y-95932571D01*
X110450345Y-97282095D02*
X110378917Y-97329714D01*
X110378917Y-97329714D02*
X110307488Y-97424952D01*
X110307488Y-97424952D02*
X110307488Y-97663047D01*
X110307488Y-97663047D02*
X110378917Y-97758285D01*
X110378917Y-97758285D02*
X110450345Y-97805904D01*
X110450345Y-97805904D02*
X110593202Y-97853523D01*
X110593202Y-97853523D02*
X110736060Y-97853523D01*
X110736060Y-97853523D02*
X110950345Y-97805904D01*
X110950345Y-97805904D02*
X111807488Y-97234476D01*
X111807488Y-97234476D02*
X111807488Y-97853523D01*
X111807488Y-98329714D02*
X111807488Y-98520190D01*
X111807488Y-98520190D02*
X111736060Y-98615428D01*
X111736060Y-98615428D02*
X111664631Y-98663047D01*
X111664631Y-98663047D02*
X111450345Y-98758285D01*
X111450345Y-98758285D02*
X111164631Y-98805904D01*
X111164631Y-98805904D02*
X110593202Y-98805904D01*
X110593202Y-98805904D02*
X110450345Y-98758285D01*
X110450345Y-98758285D02*
X110378917Y-98710666D01*
X110378917Y-98710666D02*
X110307488Y-98615428D01*
X110307488Y-98615428D02*
X110307488Y-98424952D01*
X110307488Y-98424952D02*
X110378917Y-98329714D01*
X110378917Y-98329714D02*
X110450345Y-98282095D01*
X110450345Y-98282095D02*
X110593202Y-98234476D01*
X110593202Y-98234476D02*
X110950345Y-98234476D01*
X110950345Y-98234476D02*
X111093202Y-98282095D01*
X111093202Y-98282095D02*
X111164631Y-98329714D01*
X111164631Y-98329714D02*
X111236060Y-98424952D01*
X111236060Y-98424952D02*
X111236060Y-98615428D01*
X111236060Y-98615428D02*
X111164631Y-98710666D01*
X111164631Y-98710666D02*
X111093202Y-98758285D01*
X111093202Y-98758285D02*
X110950345Y-98805904D01*
X110450345Y-104902095D02*
X110378917Y-104949714D01*
X110378917Y-104949714D02*
X110307488Y-105044952D01*
X110307488Y-105044952D02*
X110307488Y-105283047D01*
X110307488Y-105283047D02*
X110378917Y-105378285D01*
X110378917Y-105378285D02*
X110450345Y-105425904D01*
X110450345Y-105425904D02*
X110593202Y-105473523D01*
X110593202Y-105473523D02*
X110736060Y-105473523D01*
X110736060Y-105473523D02*
X110950345Y-105425904D01*
X110950345Y-105425904D02*
X111807488Y-104854476D01*
X111807488Y-104854476D02*
X111807488Y-105473523D01*
X110307488Y-106330666D02*
X110307488Y-106140190D01*
X110307488Y-106140190D02*
X110378917Y-106044952D01*
X110378917Y-106044952D02*
X110450345Y-105997333D01*
X110450345Y-105997333D02*
X110664631Y-105902095D01*
X110664631Y-105902095D02*
X110950345Y-105854476D01*
X110950345Y-105854476D02*
X111521774Y-105854476D01*
X111521774Y-105854476D02*
X111664631Y-105902095D01*
X111664631Y-105902095D02*
X111736060Y-105949714D01*
X111736060Y-105949714D02*
X111807488Y-106044952D01*
X111807488Y-106044952D02*
X111807488Y-106235428D01*
X111807488Y-106235428D02*
X111736060Y-106330666D01*
X111736060Y-106330666D02*
X111664631Y-106378285D01*
X111664631Y-106378285D02*
X111521774Y-106425904D01*
X111521774Y-106425904D02*
X111164631Y-106425904D01*
X111164631Y-106425904D02*
X111021774Y-106378285D01*
X111021774Y-106378285D02*
X110950345Y-106330666D01*
X110950345Y-106330666D02*
X110878917Y-106235428D01*
X110878917Y-106235428D02*
X110878917Y-106044952D01*
X110878917Y-106044952D02*
X110950345Y-105949714D01*
X110950345Y-105949714D02*
X111021774Y-105902095D01*
X111021774Y-105902095D02*
X111164631Y-105854476D01*
X110450345Y-99822095D02*
X110378917Y-99869714D01*
X110378917Y-99869714D02*
X110307488Y-99964952D01*
X110307488Y-99964952D02*
X110307488Y-100203047D01*
X110307488Y-100203047D02*
X110378917Y-100298285D01*
X110378917Y-100298285D02*
X110450345Y-100345904D01*
X110450345Y-100345904D02*
X110593202Y-100393523D01*
X110593202Y-100393523D02*
X110736060Y-100393523D01*
X110736060Y-100393523D02*
X110950345Y-100345904D01*
X110950345Y-100345904D02*
X111807488Y-99774476D01*
X111807488Y-99774476D02*
X111807488Y-100393523D01*
X110950345Y-100964952D02*
X110878917Y-100869714D01*
X110878917Y-100869714D02*
X110807488Y-100822095D01*
X110807488Y-100822095D02*
X110664631Y-100774476D01*
X110664631Y-100774476D02*
X110593202Y-100774476D01*
X110593202Y-100774476D02*
X110450345Y-100822095D01*
X110450345Y-100822095D02*
X110378917Y-100869714D01*
X110378917Y-100869714D02*
X110307488Y-100964952D01*
X110307488Y-100964952D02*
X110307488Y-101155428D01*
X110307488Y-101155428D02*
X110378917Y-101250666D01*
X110378917Y-101250666D02*
X110450345Y-101298285D01*
X110450345Y-101298285D02*
X110593202Y-101345904D01*
X110593202Y-101345904D02*
X110664631Y-101345904D01*
X110664631Y-101345904D02*
X110807488Y-101298285D01*
X110807488Y-101298285D02*
X110878917Y-101250666D01*
X110878917Y-101250666D02*
X110950345Y-101155428D01*
X110950345Y-101155428D02*
X110950345Y-100964952D01*
X110950345Y-100964952D02*
X111021774Y-100869714D01*
X111021774Y-100869714D02*
X111093202Y-100822095D01*
X111093202Y-100822095D02*
X111236060Y-100774476D01*
X111236060Y-100774476D02*
X111521774Y-100774476D01*
X111521774Y-100774476D02*
X111664631Y-100822095D01*
X111664631Y-100822095D02*
X111736060Y-100869714D01*
X111736060Y-100869714D02*
X111807488Y-100964952D01*
X111807488Y-100964952D02*
X111807488Y-101155428D01*
X111807488Y-101155428D02*
X111736060Y-101250666D01*
X111736060Y-101250666D02*
X111664631Y-101298285D01*
X111664631Y-101298285D02*
X111521774Y-101345904D01*
X111521774Y-101345904D02*
X111236060Y-101345904D01*
X111236060Y-101345904D02*
X111093202Y-101298285D01*
X111093202Y-101298285D02*
X111021774Y-101250666D01*
X111021774Y-101250666D02*
X110950345Y-101155428D01*
X110450345Y-115062095D02*
X110378917Y-115109714D01*
X110378917Y-115109714D02*
X110307488Y-115204952D01*
X110307488Y-115204952D02*
X110307488Y-115443047D01*
X110307488Y-115443047D02*
X110378917Y-115538285D01*
X110378917Y-115538285D02*
X110450345Y-115585904D01*
X110450345Y-115585904D02*
X110593202Y-115633523D01*
X110593202Y-115633523D02*
X110736060Y-115633523D01*
X110736060Y-115633523D02*
X110950345Y-115585904D01*
X110950345Y-115585904D02*
X111807488Y-115014476D01*
X111807488Y-115014476D02*
X111807488Y-115633523D01*
X110450345Y-116014476D02*
X110378917Y-116062095D01*
X110378917Y-116062095D02*
X110307488Y-116157333D01*
X110307488Y-116157333D02*
X110307488Y-116395428D01*
X110307488Y-116395428D02*
X110378917Y-116490666D01*
X110378917Y-116490666D02*
X110450345Y-116538285D01*
X110450345Y-116538285D02*
X110593202Y-116585904D01*
X110593202Y-116585904D02*
X110736060Y-116585904D01*
X110736060Y-116585904D02*
X110950345Y-116538285D01*
X110950345Y-116538285D02*
X111807488Y-115966857D01*
X111807488Y-115966857D02*
X111807488Y-116585904D01*
X110450345Y-107442095D02*
X110378917Y-107489714D01*
X110378917Y-107489714D02*
X110307488Y-107584952D01*
X110307488Y-107584952D02*
X110307488Y-107823047D01*
X110307488Y-107823047D02*
X110378917Y-107918285D01*
X110378917Y-107918285D02*
X110450345Y-107965904D01*
X110450345Y-107965904D02*
X110593202Y-108013523D01*
X110593202Y-108013523D02*
X110736060Y-108013523D01*
X110736060Y-108013523D02*
X110950345Y-107965904D01*
X110950345Y-107965904D02*
X111807488Y-107394476D01*
X111807488Y-107394476D02*
X111807488Y-108013523D01*
X110307488Y-108918285D02*
X110307488Y-108442095D01*
X110307488Y-108442095D02*
X111021774Y-108394476D01*
X111021774Y-108394476D02*
X110950345Y-108442095D01*
X110950345Y-108442095D02*
X110878917Y-108537333D01*
X110878917Y-108537333D02*
X110878917Y-108775428D01*
X110878917Y-108775428D02*
X110950345Y-108870666D01*
X110950345Y-108870666D02*
X111021774Y-108918285D01*
X111021774Y-108918285D02*
X111164631Y-108965904D01*
X111164631Y-108965904D02*
X111521774Y-108965904D01*
X111521774Y-108965904D02*
X111664631Y-108918285D01*
X111664631Y-108918285D02*
X111736060Y-108870666D01*
X111736060Y-108870666D02*
X111807488Y-108775428D01*
X111807488Y-108775428D02*
X111807488Y-108537333D01*
X111807488Y-108537333D02*
X111736060Y-108442095D01*
X111736060Y-108442095D02*
X111664631Y-108394476D01*
X110450345Y-109982095D02*
X110378917Y-110029714D01*
X110378917Y-110029714D02*
X110307488Y-110124952D01*
X110307488Y-110124952D02*
X110307488Y-110363047D01*
X110307488Y-110363047D02*
X110378917Y-110458285D01*
X110378917Y-110458285D02*
X110450345Y-110505904D01*
X110450345Y-110505904D02*
X110593202Y-110553523D01*
X110593202Y-110553523D02*
X110736060Y-110553523D01*
X110736060Y-110553523D02*
X110950345Y-110505904D01*
X110950345Y-110505904D02*
X111807488Y-109934476D01*
X111807488Y-109934476D02*
X111807488Y-110553523D01*
X110807488Y-111410666D02*
X111807488Y-111410666D01*
X110236060Y-111172571D02*
X111307488Y-110934476D01*
X111307488Y-110934476D02*
X111307488Y-111553523D01*
X110450345Y-117602095D02*
X110378917Y-117649714D01*
X110378917Y-117649714D02*
X110307488Y-117744952D01*
X110307488Y-117744952D02*
X110307488Y-117983047D01*
X110307488Y-117983047D02*
X110378917Y-118078285D01*
X110378917Y-118078285D02*
X110450345Y-118125904D01*
X110450345Y-118125904D02*
X110593202Y-118173523D01*
X110593202Y-118173523D02*
X110736060Y-118173523D01*
X110736060Y-118173523D02*
X110950345Y-118125904D01*
X110950345Y-118125904D02*
X111807488Y-117554476D01*
X111807488Y-117554476D02*
X111807488Y-118173523D01*
X111807488Y-119125904D02*
X111807488Y-118554476D01*
X111807488Y-118840190D02*
X110307488Y-118840190D01*
X110307488Y-118840190D02*
X110521774Y-118744952D01*
X110521774Y-118744952D02*
X110664631Y-118649714D01*
X110664631Y-118649714D02*
X110736060Y-118554476D01*
X110450345Y-112522095D02*
X110378917Y-112569714D01*
X110378917Y-112569714D02*
X110307488Y-112664952D01*
X110307488Y-112664952D02*
X110307488Y-112903047D01*
X110307488Y-112903047D02*
X110378917Y-112998285D01*
X110378917Y-112998285D02*
X110450345Y-113045904D01*
X110450345Y-113045904D02*
X110593202Y-113093523D01*
X110593202Y-113093523D02*
X110736060Y-113093523D01*
X110736060Y-113093523D02*
X110950345Y-113045904D01*
X110950345Y-113045904D02*
X111807488Y-112474476D01*
X111807488Y-112474476D02*
X111807488Y-113093523D01*
X110307488Y-113426857D02*
X110307488Y-114045904D01*
X110307488Y-114045904D02*
X110878917Y-113712571D01*
X110878917Y-113712571D02*
X110878917Y-113855428D01*
X110878917Y-113855428D02*
X110950345Y-113950666D01*
X110950345Y-113950666D02*
X111021774Y-113998285D01*
X111021774Y-113998285D02*
X111164631Y-114045904D01*
X111164631Y-114045904D02*
X111521774Y-114045904D01*
X111521774Y-114045904D02*
X111664631Y-113998285D01*
X111664631Y-113998285D02*
X111736060Y-113950666D01*
X111736060Y-113950666D02*
X111807488Y-113855428D01*
X111807488Y-113855428D02*
X111807488Y-113569714D01*
X111807488Y-113569714D02*
X111736060Y-113474476D01*
X111736060Y-113474476D02*
X111664631Y-113426857D01*
X119427488Y-115633523D02*
X119427488Y-115062095D01*
X119427488Y-115347809D02*
X117927488Y-115347809D01*
X117927488Y-115347809D02*
X118141774Y-115252571D01*
X118141774Y-115252571D02*
X118284631Y-115157333D01*
X118284631Y-115157333D02*
X118356060Y-115062095D01*
X119427488Y-116109714D02*
X119427488Y-116300190D01*
X119427488Y-116300190D02*
X119356060Y-116395428D01*
X119356060Y-116395428D02*
X119284631Y-116443047D01*
X119284631Y-116443047D02*
X119070345Y-116538285D01*
X119070345Y-116538285D02*
X118784631Y-116585904D01*
X118784631Y-116585904D02*
X118213202Y-116585904D01*
X118213202Y-116585904D02*
X118070345Y-116538285D01*
X118070345Y-116538285D02*
X117998917Y-116490666D01*
X117998917Y-116490666D02*
X117927488Y-116395428D01*
X117927488Y-116395428D02*
X117927488Y-116204952D01*
X117927488Y-116204952D02*
X117998917Y-116109714D01*
X117998917Y-116109714D02*
X118070345Y-116062095D01*
X118070345Y-116062095D02*
X118213202Y-116014476D01*
X118213202Y-116014476D02*
X118570345Y-116014476D01*
X118570345Y-116014476D02*
X118713202Y-116062095D01*
X118713202Y-116062095D02*
X118784631Y-116109714D01*
X118784631Y-116109714D02*
X118856060Y-116204952D01*
X118856060Y-116204952D02*
X118856060Y-116395428D01*
X118856060Y-116395428D02*
X118784631Y-116490666D01*
X118784631Y-116490666D02*
X118713202Y-116538285D01*
X118713202Y-116538285D02*
X118570345Y-116585904D01*
X119427488Y-108013523D02*
X119427488Y-107442095D01*
X119427488Y-107727809D02*
X117927488Y-107727809D01*
X117927488Y-107727809D02*
X118141774Y-107632571D01*
X118141774Y-107632571D02*
X118284631Y-107537333D01*
X118284631Y-107537333D02*
X118356060Y-107442095D01*
X117927488Y-108870666D02*
X117927488Y-108680190D01*
X117927488Y-108680190D02*
X117998917Y-108584952D01*
X117998917Y-108584952D02*
X118070345Y-108537333D01*
X118070345Y-108537333D02*
X118284631Y-108442095D01*
X118284631Y-108442095D02*
X118570345Y-108394476D01*
X118570345Y-108394476D02*
X119141774Y-108394476D01*
X119141774Y-108394476D02*
X119284631Y-108442095D01*
X119284631Y-108442095D02*
X119356060Y-108489714D01*
X119356060Y-108489714D02*
X119427488Y-108584952D01*
X119427488Y-108584952D02*
X119427488Y-108775428D01*
X119427488Y-108775428D02*
X119356060Y-108870666D01*
X119356060Y-108870666D02*
X119284631Y-108918285D01*
X119284631Y-108918285D02*
X119141774Y-108965904D01*
X119141774Y-108965904D02*
X118784631Y-108965904D01*
X118784631Y-108965904D02*
X118641774Y-108918285D01*
X118641774Y-108918285D02*
X118570345Y-108870666D01*
X118570345Y-108870666D02*
X118498917Y-108775428D01*
X118498917Y-108775428D02*
X118498917Y-108584952D01*
X118498917Y-108584952D02*
X118570345Y-108489714D01*
X118570345Y-108489714D02*
X118641774Y-108442095D01*
X118641774Y-108442095D02*
X118784631Y-108394476D01*
X119427488Y-110553523D02*
X119427488Y-109982095D01*
X119427488Y-110267809D02*
X117927488Y-110267809D01*
X117927488Y-110267809D02*
X118141774Y-110172571D01*
X118141774Y-110172571D02*
X118284631Y-110077333D01*
X118284631Y-110077333D02*
X118356060Y-109982095D01*
X117927488Y-110886857D02*
X117927488Y-111553523D01*
X117927488Y-111553523D02*
X119427488Y-111124952D01*
X118070345Y-117602095D02*
X117998917Y-117649714D01*
X117998917Y-117649714D02*
X117927488Y-117744952D01*
X117927488Y-117744952D02*
X117927488Y-117983047D01*
X117927488Y-117983047D02*
X117998917Y-118078285D01*
X117998917Y-118078285D02*
X118070345Y-118125904D01*
X118070345Y-118125904D02*
X118213202Y-118173523D01*
X118213202Y-118173523D02*
X118356060Y-118173523D01*
X118356060Y-118173523D02*
X118570345Y-118125904D01*
X118570345Y-118125904D02*
X119427488Y-117554476D01*
X119427488Y-117554476D02*
X119427488Y-118173523D01*
X117927488Y-118792571D02*
X117927488Y-118887809D01*
X117927488Y-118887809D02*
X117998917Y-118983047D01*
X117998917Y-118983047D02*
X118070345Y-119030666D01*
X118070345Y-119030666D02*
X118213202Y-119078285D01*
X118213202Y-119078285D02*
X118498917Y-119125904D01*
X118498917Y-119125904D02*
X118856060Y-119125904D01*
X118856060Y-119125904D02*
X119141774Y-119078285D01*
X119141774Y-119078285D02*
X119284631Y-119030666D01*
X119284631Y-119030666D02*
X119356060Y-118983047D01*
X119356060Y-118983047D02*
X119427488Y-118887809D01*
X119427488Y-118887809D02*
X119427488Y-118792571D01*
X119427488Y-118792571D02*
X119356060Y-118697333D01*
X119356060Y-118697333D02*
X119284631Y-118649714D01*
X119284631Y-118649714D02*
X119141774Y-118602095D01*
X119141774Y-118602095D02*
X118856060Y-118554476D01*
X118856060Y-118554476D02*
X118498917Y-118554476D01*
X118498917Y-118554476D02*
X118213202Y-118602095D01*
X118213202Y-118602095D02*
X118070345Y-118649714D01*
X118070345Y-118649714D02*
X117998917Y-118697333D01*
X117998917Y-118697333D02*
X117927488Y-118792571D01*
X119427488Y-113093523D02*
X119427488Y-112522095D01*
X119427488Y-112807809D02*
X117927488Y-112807809D01*
X117927488Y-112807809D02*
X118141774Y-112712571D01*
X118141774Y-112712571D02*
X118284631Y-112617333D01*
X118284631Y-112617333D02*
X118356060Y-112522095D01*
X118570345Y-113664952D02*
X118498917Y-113569714D01*
X118498917Y-113569714D02*
X118427488Y-113522095D01*
X118427488Y-113522095D02*
X118284631Y-113474476D01*
X118284631Y-113474476D02*
X118213202Y-113474476D01*
X118213202Y-113474476D02*
X118070345Y-113522095D01*
X118070345Y-113522095D02*
X117998917Y-113569714D01*
X117998917Y-113569714D02*
X117927488Y-113664952D01*
X117927488Y-113664952D02*
X117927488Y-113855428D01*
X117927488Y-113855428D02*
X117998917Y-113950666D01*
X117998917Y-113950666D02*
X118070345Y-113998285D01*
X118070345Y-113998285D02*
X118213202Y-114045904D01*
X118213202Y-114045904D02*
X118284631Y-114045904D01*
X118284631Y-114045904D02*
X118427488Y-113998285D01*
X118427488Y-113998285D02*
X118498917Y-113950666D01*
X118498917Y-113950666D02*
X118570345Y-113855428D01*
X118570345Y-113855428D02*
X118570345Y-113664952D01*
X118570345Y-113664952D02*
X118641774Y-113569714D01*
X118641774Y-113569714D02*
X118713202Y-113522095D01*
X118713202Y-113522095D02*
X118856060Y-113474476D01*
X118856060Y-113474476D02*
X119141774Y-113474476D01*
X119141774Y-113474476D02*
X119284631Y-113522095D01*
X119284631Y-113522095D02*
X119356060Y-113569714D01*
X119356060Y-113569714D02*
X119427488Y-113664952D01*
X119427488Y-113664952D02*
X119427488Y-113855428D01*
X119427488Y-113855428D02*
X119356060Y-113950666D01*
X119356060Y-113950666D02*
X119284631Y-113998285D01*
X119284631Y-113998285D02*
X119141774Y-114045904D01*
X119141774Y-114045904D02*
X118856060Y-114045904D01*
X118856060Y-114045904D02*
X118713202Y-113998285D01*
X118713202Y-113998285D02*
X118641774Y-113950666D01*
X118641774Y-113950666D02*
X118570345Y-113855428D01*
X119427488Y-102933523D02*
X119427488Y-102362095D01*
X119427488Y-102647809D02*
X117927488Y-102647809D01*
X117927488Y-102647809D02*
X118141774Y-102552571D01*
X118141774Y-102552571D02*
X118284631Y-102457333D01*
X118284631Y-102457333D02*
X118356060Y-102362095D01*
X118427488Y-103790666D02*
X119427488Y-103790666D01*
X117856060Y-103552571D02*
X118927488Y-103314476D01*
X118927488Y-103314476D02*
X118927488Y-103933523D01*
X119427488Y-95313523D02*
X119427488Y-94742095D01*
X119427488Y-95027809D02*
X117927488Y-95027809D01*
X117927488Y-95027809D02*
X118141774Y-94932571D01*
X118141774Y-94932571D02*
X118284631Y-94837333D01*
X118284631Y-94837333D02*
X118356060Y-94742095D01*
X119427488Y-96265904D02*
X119427488Y-95694476D01*
X119427488Y-95980190D02*
X117927488Y-95980190D01*
X117927488Y-95980190D02*
X118141774Y-95884952D01*
X118141774Y-95884952D02*
X118284631Y-95789714D01*
X118284631Y-95789714D02*
X118356060Y-95694476D01*
X119427488Y-97853523D02*
X119427488Y-97282095D01*
X119427488Y-97567809D02*
X117927488Y-97567809D01*
X117927488Y-97567809D02*
X118141774Y-97472571D01*
X118141774Y-97472571D02*
X118284631Y-97377333D01*
X118284631Y-97377333D02*
X118356060Y-97282095D01*
X118070345Y-98234476D02*
X117998917Y-98282095D01*
X117998917Y-98282095D02*
X117927488Y-98377333D01*
X117927488Y-98377333D02*
X117927488Y-98615428D01*
X117927488Y-98615428D02*
X117998917Y-98710666D01*
X117998917Y-98710666D02*
X118070345Y-98758285D01*
X118070345Y-98758285D02*
X118213202Y-98805904D01*
X118213202Y-98805904D02*
X118356060Y-98805904D01*
X118356060Y-98805904D02*
X118570345Y-98758285D01*
X118570345Y-98758285D02*
X119427488Y-98186857D01*
X119427488Y-98186857D02*
X119427488Y-98805904D01*
X119427488Y-105473523D02*
X119427488Y-104902095D01*
X119427488Y-105187809D02*
X117927488Y-105187809D01*
X117927488Y-105187809D02*
X118141774Y-105092571D01*
X118141774Y-105092571D02*
X118284631Y-104997333D01*
X118284631Y-104997333D02*
X118356060Y-104902095D01*
X117927488Y-106378285D02*
X117927488Y-105902095D01*
X117927488Y-105902095D02*
X118641774Y-105854476D01*
X118641774Y-105854476D02*
X118570345Y-105902095D01*
X118570345Y-105902095D02*
X118498917Y-105997333D01*
X118498917Y-105997333D02*
X118498917Y-106235428D01*
X118498917Y-106235428D02*
X118570345Y-106330666D01*
X118570345Y-106330666D02*
X118641774Y-106378285D01*
X118641774Y-106378285D02*
X118784631Y-106425904D01*
X118784631Y-106425904D02*
X119141774Y-106425904D01*
X119141774Y-106425904D02*
X119284631Y-106378285D01*
X119284631Y-106378285D02*
X119356060Y-106330666D01*
X119356060Y-106330666D02*
X119427488Y-106235428D01*
X119427488Y-106235428D02*
X119427488Y-105997333D01*
X119427488Y-105997333D02*
X119356060Y-105902095D01*
X119356060Y-105902095D02*
X119284631Y-105854476D01*
X119427488Y-100393523D02*
X119427488Y-99822095D01*
X119427488Y-100107809D02*
X117927488Y-100107809D01*
X117927488Y-100107809D02*
X118141774Y-100012571D01*
X118141774Y-100012571D02*
X118284631Y-99917333D01*
X118284631Y-99917333D02*
X118356060Y-99822095D01*
X117927488Y-100726857D02*
X117927488Y-101345904D01*
X117927488Y-101345904D02*
X118498917Y-101012571D01*
X118498917Y-101012571D02*
X118498917Y-101155428D01*
X118498917Y-101155428D02*
X118570345Y-101250666D01*
X118570345Y-101250666D02*
X118641774Y-101298285D01*
X118641774Y-101298285D02*
X118784631Y-101345904D01*
X118784631Y-101345904D02*
X119141774Y-101345904D01*
X119141774Y-101345904D02*
X119284631Y-101298285D01*
X119284631Y-101298285D02*
X119356060Y-101250666D01*
X119356060Y-101250666D02*
X119427488Y-101155428D01*
X119427488Y-101155428D02*
X119427488Y-100869714D01*
X119427488Y-100869714D02*
X119356060Y-100774476D01*
X119356060Y-100774476D02*
X119284631Y-100726857D01*
X119427488Y-90233524D02*
X119427488Y-90424000D01*
X119427488Y-90424000D02*
X119356060Y-90519238D01*
X119356060Y-90519238D02*
X119284631Y-90566857D01*
X119284631Y-90566857D02*
X119070345Y-90662095D01*
X119070345Y-90662095D02*
X118784631Y-90709714D01*
X118784631Y-90709714D02*
X118213202Y-90709714D01*
X118213202Y-90709714D02*
X118070345Y-90662095D01*
X118070345Y-90662095D02*
X117998917Y-90614476D01*
X117998917Y-90614476D02*
X117927488Y-90519238D01*
X117927488Y-90519238D02*
X117927488Y-90328762D01*
X117927488Y-90328762D02*
X117998917Y-90233524D01*
X117998917Y-90233524D02*
X118070345Y-90185905D01*
X118070345Y-90185905D02*
X118213202Y-90138286D01*
X118213202Y-90138286D02*
X118570345Y-90138286D01*
X118570345Y-90138286D02*
X118713202Y-90185905D01*
X118713202Y-90185905D02*
X118784631Y-90233524D01*
X118784631Y-90233524D02*
X118856060Y-90328762D01*
X118856060Y-90328762D02*
X118856060Y-90519238D01*
X118856060Y-90519238D02*
X118784631Y-90614476D01*
X118784631Y-90614476D02*
X118713202Y-90662095D01*
X118713202Y-90662095D02*
X118570345Y-90709714D01*
X117927488Y-82994476D02*
X117927488Y-82804000D01*
X117927488Y-82804000D02*
X117998917Y-82708762D01*
X117998917Y-82708762D02*
X118070345Y-82661143D01*
X118070345Y-82661143D02*
X118284631Y-82565905D01*
X118284631Y-82565905D02*
X118570345Y-82518286D01*
X118570345Y-82518286D02*
X119141774Y-82518286D01*
X119141774Y-82518286D02*
X119284631Y-82565905D01*
X119284631Y-82565905D02*
X119356060Y-82613524D01*
X119356060Y-82613524D02*
X119427488Y-82708762D01*
X119427488Y-82708762D02*
X119427488Y-82899238D01*
X119427488Y-82899238D02*
X119356060Y-82994476D01*
X119356060Y-82994476D02*
X119284631Y-83042095D01*
X119284631Y-83042095D02*
X119141774Y-83089714D01*
X119141774Y-83089714D02*
X118784631Y-83089714D01*
X118784631Y-83089714D02*
X118641774Y-83042095D01*
X118641774Y-83042095D02*
X118570345Y-82994476D01*
X118570345Y-82994476D02*
X118498917Y-82899238D01*
X118498917Y-82899238D02*
X118498917Y-82708762D01*
X118498917Y-82708762D02*
X118570345Y-82613524D01*
X118570345Y-82613524D02*
X118641774Y-82565905D01*
X118641774Y-82565905D02*
X118784631Y-82518286D01*
X117927488Y-85010667D02*
X117927488Y-85677333D01*
X117927488Y-85677333D02*
X119427488Y-85248762D01*
X119427488Y-92773523D02*
X119427488Y-92202095D01*
X119427488Y-92487809D02*
X117927488Y-92487809D01*
X117927488Y-92487809D02*
X118141774Y-92392571D01*
X118141774Y-92392571D02*
X118284631Y-92297333D01*
X118284631Y-92297333D02*
X118356060Y-92202095D01*
X117927488Y-93392571D02*
X117927488Y-93487809D01*
X117927488Y-93487809D02*
X117998917Y-93583047D01*
X117998917Y-93583047D02*
X118070345Y-93630666D01*
X118070345Y-93630666D02*
X118213202Y-93678285D01*
X118213202Y-93678285D02*
X118498917Y-93725904D01*
X118498917Y-93725904D02*
X118856060Y-93725904D01*
X118856060Y-93725904D02*
X119141774Y-93678285D01*
X119141774Y-93678285D02*
X119284631Y-93630666D01*
X119284631Y-93630666D02*
X119356060Y-93583047D01*
X119356060Y-93583047D02*
X119427488Y-93487809D01*
X119427488Y-93487809D02*
X119427488Y-93392571D01*
X119427488Y-93392571D02*
X119356060Y-93297333D01*
X119356060Y-93297333D02*
X119284631Y-93249714D01*
X119284631Y-93249714D02*
X119141774Y-93202095D01*
X119141774Y-93202095D02*
X118856060Y-93154476D01*
X118856060Y-93154476D02*
X118498917Y-93154476D01*
X118498917Y-93154476D02*
X118213202Y-93202095D01*
X118213202Y-93202095D02*
X118070345Y-93249714D01*
X118070345Y-93249714D02*
X117998917Y-93297333D01*
X117998917Y-93297333D02*
X117927488Y-93392571D01*
X118570345Y-87788762D02*
X118498917Y-87693524D01*
X118498917Y-87693524D02*
X118427488Y-87645905D01*
X118427488Y-87645905D02*
X118284631Y-87598286D01*
X118284631Y-87598286D02*
X118213202Y-87598286D01*
X118213202Y-87598286D02*
X118070345Y-87645905D01*
X118070345Y-87645905D02*
X117998917Y-87693524D01*
X117998917Y-87693524D02*
X117927488Y-87788762D01*
X117927488Y-87788762D02*
X117927488Y-87979238D01*
X117927488Y-87979238D02*
X117998917Y-88074476D01*
X117998917Y-88074476D02*
X118070345Y-88122095D01*
X118070345Y-88122095D02*
X118213202Y-88169714D01*
X118213202Y-88169714D02*
X118284631Y-88169714D01*
X118284631Y-88169714D02*
X118427488Y-88122095D01*
X118427488Y-88122095D02*
X118498917Y-88074476D01*
X118498917Y-88074476D02*
X118570345Y-87979238D01*
X118570345Y-87979238D02*
X118570345Y-87788762D01*
X118570345Y-87788762D02*
X118641774Y-87693524D01*
X118641774Y-87693524D02*
X118713202Y-87645905D01*
X118713202Y-87645905D02*
X118856060Y-87598286D01*
X118856060Y-87598286D02*
X119141774Y-87598286D01*
X119141774Y-87598286D02*
X119284631Y-87645905D01*
X119284631Y-87645905D02*
X119356060Y-87693524D01*
X119356060Y-87693524D02*
X119427488Y-87788762D01*
X119427488Y-87788762D02*
X119427488Y-87979238D01*
X119427488Y-87979238D02*
X119356060Y-88074476D01*
X119356060Y-88074476D02*
X119284631Y-88122095D01*
X119284631Y-88122095D02*
X119141774Y-88169714D01*
X119141774Y-88169714D02*
X118856060Y-88169714D01*
X118856060Y-88169714D02*
X118713202Y-88122095D01*
X118713202Y-88122095D02*
X118641774Y-88074476D01*
X118641774Y-88074476D02*
X118570345Y-87979238D01*
X117927488Y-80502095D02*
X117927488Y-80025905D01*
X117927488Y-80025905D02*
X118641774Y-79978286D01*
X118641774Y-79978286D02*
X118570345Y-80025905D01*
X118570345Y-80025905D02*
X118498917Y-80121143D01*
X118498917Y-80121143D02*
X118498917Y-80359238D01*
X118498917Y-80359238D02*
X118570345Y-80454476D01*
X118570345Y-80454476D02*
X118641774Y-80502095D01*
X118641774Y-80502095D02*
X118784631Y-80549714D01*
X118784631Y-80549714D02*
X119141774Y-80549714D01*
X119141774Y-80549714D02*
X119284631Y-80502095D01*
X119284631Y-80502095D02*
X119356060Y-80454476D01*
X119356060Y-80454476D02*
X119427488Y-80359238D01*
X119427488Y-80359238D02*
X119427488Y-80121143D01*
X119427488Y-80121143D02*
X119356060Y-80025905D01*
X119356060Y-80025905D02*
X119284631Y-79978286D01*
X118427488Y-77914476D02*
X119427488Y-77914476D01*
X117856060Y-77676381D02*
X118927488Y-77438286D01*
X118927488Y-77438286D02*
X118927488Y-78057333D01*
X117927488Y-74850667D02*
X117927488Y-75469714D01*
X117927488Y-75469714D02*
X118498917Y-75136381D01*
X118498917Y-75136381D02*
X118498917Y-75279238D01*
X118498917Y-75279238D02*
X118570345Y-75374476D01*
X118570345Y-75374476D02*
X118641774Y-75422095D01*
X118641774Y-75422095D02*
X118784631Y-75469714D01*
X118784631Y-75469714D02*
X119141774Y-75469714D01*
X119141774Y-75469714D02*
X119284631Y-75422095D01*
X119284631Y-75422095D02*
X119356060Y-75374476D01*
X119356060Y-75374476D02*
X119427488Y-75279238D01*
X119427488Y-75279238D02*
X119427488Y-74993524D01*
X119427488Y-74993524D02*
X119356060Y-74898286D01*
X119356060Y-74898286D02*
X119284631Y-74850667D01*
X118070345Y-72358286D02*
X117998917Y-72405905D01*
X117998917Y-72405905D02*
X117927488Y-72501143D01*
X117927488Y-72501143D02*
X117927488Y-72739238D01*
X117927488Y-72739238D02*
X117998917Y-72834476D01*
X117998917Y-72834476D02*
X118070345Y-72882095D01*
X118070345Y-72882095D02*
X118213202Y-72929714D01*
X118213202Y-72929714D02*
X118356060Y-72929714D01*
X118356060Y-72929714D02*
X118570345Y-72882095D01*
X118570345Y-72882095D02*
X119427488Y-72310667D01*
X119427488Y-72310667D02*
X119427488Y-72929714D01*
X119427488Y-70389714D02*
X119427488Y-69818286D01*
X119427488Y-70104000D02*
X117927488Y-70104000D01*
X117927488Y-70104000D02*
X118141774Y-70008762D01*
X118141774Y-70008762D02*
X118284631Y-69913524D01*
X118284631Y-69913524D02*
X118356060Y-69818286D01*
D11*
X120015000Y-68834000D02*
X122555000Y-68834000D01*
X122555000Y-119634000D01*
X120015000Y-119634000D01*
X120015000Y-68834000D01*
X107315000Y-68834000D02*
X109855000Y-68834000D01*
X109855000Y-119634000D01*
X107315000Y-119634000D01*
X107315000Y-68834000D01*
X112395000Y-68834000D02*
X117475000Y-68834000D01*
X117475000Y-119634000D01*
X112395000Y-119634000D01*
X112395000Y-68834000D01*
X114935000Y-68834000D02*
X117475000Y-68834000D01*
X117475000Y-71374000D01*
X114935000Y-71374000D01*
X114935000Y-68834000D01*
G36*
X114935000Y-68834000D02*
G01*
X117475000Y-68834000D01*
X117475000Y-71374000D01*
X114935000Y-71374000D01*
X114935000Y-68834000D01*
G37*
X120015000Y-68834000D02*
X122555000Y-68834000D01*
X122555000Y-71374000D01*
X120015000Y-71374000D01*
X120015000Y-68834000D01*
G36*
X120015000Y-68834000D02*
G01*
X122555000Y-68834000D01*
X122555000Y-71374000D01*
X120015000Y-71374000D01*
X120015000Y-68834000D01*
G37*
%LPC*%
D12*
X108585000Y-70104000D03*
D13*
X108585000Y-72644000D03*
X108585000Y-75184000D03*
X108585000Y-77724000D03*
X108585000Y-80264000D03*
X108585000Y-82804000D03*
X108585000Y-85344000D03*
X108585000Y-87884000D03*
X108585000Y-90424000D03*
X108585000Y-92964000D03*
X108585000Y-95504000D03*
X108585000Y-98044000D03*
X108585000Y-100584000D03*
X108585000Y-103124000D03*
X108585000Y-105664000D03*
X108585000Y-108204000D03*
X108585000Y-110744000D03*
X108585000Y-113284000D03*
X108585000Y-115824000D03*
X108585000Y-118364000D03*
D12*
X121285000Y-70104000D03*
D13*
X121285000Y-72644000D03*
X121285000Y-75184000D03*
X121285000Y-77724000D03*
X121285000Y-80264000D03*
X121285000Y-82804000D03*
X121285000Y-85344000D03*
X121285000Y-87884000D03*
X121285000Y-90424000D03*
X121285000Y-92964000D03*
X121285000Y-95504000D03*
X121285000Y-98044000D03*
X121285000Y-100584000D03*
X121285000Y-103124000D03*
X121285000Y-105664000D03*
X121285000Y-108204000D03*
X121285000Y-110744000D03*
X121285000Y-113284000D03*
X121285000Y-115824000D03*
X121285000Y-118364000D03*
D12*
X113665000Y-70104000D03*
D13*
X116205000Y-70104000D03*
X113665000Y-72644000D03*
X116205000Y-72644000D03*
X113665000Y-75184000D03*
X116205000Y-75184000D03*
X113665000Y-77724000D03*
X116205000Y-77724000D03*
X113665000Y-80264000D03*
X116205000Y-80264000D03*
X113665000Y-82804000D03*
X116205000Y-82804000D03*
X113665000Y-85344000D03*
X116205000Y-85344000D03*
X113665000Y-87884000D03*
X116205000Y-87884000D03*
X113665000Y-90424000D03*
X116205000Y-90424000D03*
X113665000Y-92964000D03*
X116205000Y-92964000D03*
X113665000Y-95504000D03*
X116205000Y-95504000D03*
X113665000Y-98044000D03*
X116205000Y-98044000D03*
X113665000Y-100584000D03*
X116205000Y-100584000D03*
X113665000Y-103124000D03*
X116205000Y-103124000D03*
X113665000Y-105664000D03*
X116205000Y-105664000D03*
X113665000Y-108204000D03*
X116205000Y-108204000D03*
X113665000Y-110744000D03*
X116205000Y-110744000D03*
X113665000Y-113284000D03*
X116205000Y-113284000D03*
X113665000Y-115824000D03*
X116205000Y-115824000D03*
X113665000Y-118364000D03*
X116205000Y-118364000D03*
%LPD*%
M02*
