G04 #@! TF.GenerationSoftware,KiCad,Pcbnew,7.0.7*
G04 #@! TF.CreationDate,2023-08-24T22:47:44-04:00*
G04 #@! TF.ProjectId,40-pin header to breadboard adaptor,34302d70-696e-4206-9865-616465722074,rev?*
G04 #@! TF.SameCoordinates,Original*
G04 #@! TF.FileFunction,Soldermask,Bot*
G04 #@! TF.FilePolarity,Negative*
%FSLAX46Y46*%
G04 Gerber Fmt 4.6, Leading zero omitted, Abs format (unit mm)*
G04 Created by KiCad (PCBNEW 7.0.7) date 2023-08-24 22:47:44*
%MOMM*%
%LPD*%
G01*
G04 APERTURE LIST*
%ADD10R,1.700000X1.700000*%
%ADD11O,1.700000X1.700000*%
G04 APERTURE END LIST*
D10*
X108585000Y-70104000D03*
D11*
X108585000Y-72644000D03*
X108585000Y-75184000D03*
X108585000Y-77724000D03*
X108585000Y-80264000D03*
X108585000Y-82804000D03*
X108585000Y-85344000D03*
X108585000Y-87884000D03*
X108585000Y-90424000D03*
X108585000Y-92964000D03*
X108585000Y-95504000D03*
X108585000Y-98044000D03*
X108585000Y-100584000D03*
X108585000Y-103124000D03*
X108585000Y-105664000D03*
X108585000Y-108204000D03*
X108585000Y-110744000D03*
X108585000Y-113284000D03*
X108585000Y-115824000D03*
X108585000Y-118364000D03*
D10*
X121285000Y-70104000D03*
D11*
X121285000Y-72644000D03*
X121285000Y-75184000D03*
X121285000Y-77724000D03*
X121285000Y-80264000D03*
X121285000Y-82804000D03*
X121285000Y-85344000D03*
X121285000Y-87884000D03*
X121285000Y-90424000D03*
X121285000Y-92964000D03*
X121285000Y-95504000D03*
X121285000Y-98044000D03*
X121285000Y-100584000D03*
X121285000Y-103124000D03*
X121285000Y-105664000D03*
X121285000Y-108204000D03*
X121285000Y-110744000D03*
X121285000Y-113284000D03*
X121285000Y-115824000D03*
X121285000Y-118364000D03*
D10*
X113665000Y-70104000D03*
D11*
X116205000Y-70104000D03*
X113665000Y-72644000D03*
X116205000Y-72644000D03*
X113665000Y-75184000D03*
X116205000Y-75184000D03*
X113665000Y-77724000D03*
X116205000Y-77724000D03*
X113665000Y-80264000D03*
X116205000Y-80264000D03*
X113665000Y-82804000D03*
X116205000Y-82804000D03*
X113665000Y-85344000D03*
X116205000Y-85344000D03*
X113665000Y-87884000D03*
X116205000Y-87884000D03*
X113665000Y-90424000D03*
X116205000Y-90424000D03*
X113665000Y-92964000D03*
X116205000Y-92964000D03*
X113665000Y-95504000D03*
X116205000Y-95504000D03*
X113665000Y-98044000D03*
X116205000Y-98044000D03*
X113665000Y-100584000D03*
X116205000Y-100584000D03*
X113665000Y-103124000D03*
X116205000Y-103124000D03*
X113665000Y-105664000D03*
X116205000Y-105664000D03*
X113665000Y-108204000D03*
X116205000Y-108204000D03*
X113665000Y-110744000D03*
X116205000Y-110744000D03*
X113665000Y-113284000D03*
X116205000Y-113284000D03*
X113665000Y-115824000D03*
X116205000Y-115824000D03*
X113665000Y-118364000D03*
X116205000Y-118364000D03*
M02*
