%TF.GenerationSoftware,KiCad,Pcbnew,7.0.7*%
%TF.CreationDate,2023-08-24T22:48:06-04:00*%
%TF.ProjectId,40-pin header to breadboard adaptor,34302d70-696e-4206-9865-616465722074,rev?*%
%TF.SameCoordinates,Original*%
%TF.FileFunction,Drillmap*%
%TF.FilePolarity,Positive*%
%FSLAX45Y45*%
G04 Gerber Fmt 4.5, Leading zero omitted, Abs format (unit mm)*
G04 Created by KiCad (PCBNEW 7.0.7) date 2023-08-24 22:48:06*
%MOMM*%
%LPD*%
G01*
G04 APERTURE LIST*
%ADD10C,0.100000*%
%ADD11C,0.200000*%
G04 APERTURE END LIST*
D10*
X10668000Y-6819900D02*
X12319000Y-6819900D01*
X12319000Y-12026900D01*
X10668000Y-12026900D01*
X10668000Y-6819900D01*
D11*
X10923777Y-12343384D02*
X10923777Y-12143384D01*
X10923777Y-12143384D02*
X10971396Y-12143384D01*
X10971396Y-12143384D02*
X10999967Y-12152908D01*
X10999967Y-12152908D02*
X11019015Y-12171955D01*
X11019015Y-12171955D02*
X11028539Y-12191003D01*
X11028539Y-12191003D02*
X11038063Y-12229098D01*
X11038063Y-12229098D02*
X11038063Y-12257669D01*
X11038063Y-12257669D02*
X11028539Y-12295765D01*
X11028539Y-12295765D02*
X11019015Y-12314812D01*
X11019015Y-12314812D02*
X10999967Y-12333860D01*
X10999967Y-12333860D02*
X10971396Y-12343384D01*
X10971396Y-12343384D02*
X10923777Y-12343384D01*
X11123777Y-12343384D02*
X11123777Y-12210050D01*
X11123777Y-12248146D02*
X11133301Y-12229098D01*
X11133301Y-12229098D02*
X11142824Y-12219574D01*
X11142824Y-12219574D02*
X11161872Y-12210050D01*
X11161872Y-12210050D02*
X11180920Y-12210050D01*
X11247586Y-12343384D02*
X11247586Y-12210050D01*
X11247586Y-12143384D02*
X11238062Y-12152908D01*
X11238062Y-12152908D02*
X11247586Y-12162431D01*
X11247586Y-12162431D02*
X11257110Y-12152908D01*
X11257110Y-12152908D02*
X11247586Y-12143384D01*
X11247586Y-12143384D02*
X11247586Y-12162431D01*
X11371396Y-12343384D02*
X11352348Y-12333860D01*
X11352348Y-12333860D02*
X11342824Y-12314812D01*
X11342824Y-12314812D02*
X11342824Y-12143384D01*
X11476158Y-12343384D02*
X11457110Y-12333860D01*
X11457110Y-12333860D02*
X11447586Y-12314812D01*
X11447586Y-12314812D02*
X11447586Y-12143384D01*
X11704729Y-12343384D02*
X11704729Y-12143384D01*
X11704729Y-12143384D02*
X11771396Y-12286241D01*
X11771396Y-12286241D02*
X11838062Y-12143384D01*
X11838062Y-12143384D02*
X11838062Y-12343384D01*
X12019015Y-12343384D02*
X12019015Y-12238622D01*
X12019015Y-12238622D02*
X12009491Y-12219574D01*
X12009491Y-12219574D02*
X11990443Y-12210050D01*
X11990443Y-12210050D02*
X11952348Y-12210050D01*
X11952348Y-12210050D02*
X11933301Y-12219574D01*
X12019015Y-12333860D02*
X11999967Y-12343384D01*
X11999967Y-12343384D02*
X11952348Y-12343384D01*
X11952348Y-12343384D02*
X11933301Y-12333860D01*
X11933301Y-12333860D02*
X11923777Y-12314812D01*
X11923777Y-12314812D02*
X11923777Y-12295765D01*
X11923777Y-12295765D02*
X11933301Y-12276717D01*
X11933301Y-12276717D02*
X11952348Y-12267193D01*
X11952348Y-12267193D02*
X11999967Y-12267193D01*
X11999967Y-12267193D02*
X12019015Y-12257669D01*
X12114253Y-12210050D02*
X12114253Y-12410050D01*
X12114253Y-12219574D02*
X12133301Y-12210050D01*
X12133301Y-12210050D02*
X12171396Y-12210050D01*
X12171396Y-12210050D02*
X12190443Y-12219574D01*
X12190443Y-12219574D02*
X12199967Y-12229098D01*
X12199967Y-12229098D02*
X12209491Y-12248146D01*
X12209491Y-12248146D02*
X12209491Y-12305288D01*
X12209491Y-12305288D02*
X12199967Y-12324336D01*
X12199967Y-12324336D02*
X12190443Y-12333860D01*
X12190443Y-12333860D02*
X12171396Y-12343384D01*
X12171396Y-12343384D02*
X12133301Y-12343384D01*
X12133301Y-12343384D02*
X12114253Y-12333860D01*
X12295205Y-12324336D02*
X12304729Y-12333860D01*
X12304729Y-12333860D02*
X12295205Y-12343384D01*
X12295205Y-12343384D02*
X12285682Y-12333860D01*
X12285682Y-12333860D02*
X12295205Y-12324336D01*
X12295205Y-12324336D02*
X12295205Y-12343384D01*
X12295205Y-12219574D02*
X12304729Y-12229098D01*
X12304729Y-12229098D02*
X12295205Y-12238622D01*
X12295205Y-12238622D02*
X12285682Y-12229098D01*
X12285682Y-12229098D02*
X12295205Y-12219574D01*
X12295205Y-12219574D02*
X12295205Y-12238622D01*
M02*
