G04 #@! TF.GenerationSoftware,KiCad,Pcbnew,7.0.7*
G04 #@! TF.CreationDate,2023-08-24T22:47:44-04:00*
G04 #@! TF.ProjectId,40-pin header to breadboard adaptor,34302d70-696e-4206-9865-616465722074,rev?*
G04 #@! TF.SameCoordinates,Original*
G04 #@! TF.FileFunction,Legend,Top*
G04 #@! TF.FilePolarity,Positive*
%FSLAX46Y46*%
G04 Gerber Fmt 4.6, Leading zero omitted, Abs format (unit mm)*
G04 Created by KiCad (PCBNEW 7.0.7) date 2023-08-24 22:47:44*
%MOMM*%
%LPD*%
G01*
G04 APERTURE LIST*
%ADD10C,0.120000*%
%ADD11C,0.220000*%
%ADD12C,0.150000*%
%ADD13R,1.700000X1.700000*%
%ADD14O,1.700000X1.700000*%
G04 APERTURE END LIST*
D10*
X112335000Y-68774000D02*
X114935000Y-68774000D01*
X114935000Y-71374000D01*
X112335000Y-71374000D01*
X112335000Y-68774000D01*
G36*
X112335000Y-68774000D02*
G01*
X114935000Y-68774000D01*
X114935000Y-71374000D01*
X112335000Y-71374000D01*
X112335000Y-68774000D01*
G37*
D11*
X119562511Y-75374476D02*
X119562511Y-75184000D01*
X119562511Y-75184000D02*
X119491082Y-75088762D01*
X119491082Y-75088762D02*
X119419654Y-75041143D01*
X119419654Y-75041143D02*
X119205368Y-74945905D01*
X119205368Y-74945905D02*
X118919654Y-74898286D01*
X118919654Y-74898286D02*
X118348225Y-74898286D01*
X118348225Y-74898286D02*
X118205368Y-74945905D01*
X118205368Y-74945905D02*
X118133940Y-74993524D01*
X118133940Y-74993524D02*
X118062511Y-75088762D01*
X118062511Y-75088762D02*
X118062511Y-75279238D01*
X118062511Y-75279238D02*
X118133940Y-75374476D01*
X118133940Y-75374476D02*
X118205368Y-75422095D01*
X118205368Y-75422095D02*
X118348225Y-75469714D01*
X118348225Y-75469714D02*
X118705368Y-75469714D01*
X118705368Y-75469714D02*
X118848225Y-75422095D01*
X118848225Y-75422095D02*
X118919654Y-75374476D01*
X118919654Y-75374476D02*
X118991082Y-75279238D01*
X118991082Y-75279238D02*
X118991082Y-75088762D01*
X118991082Y-75088762D02*
X118919654Y-74993524D01*
X118919654Y-74993524D02*
X118848225Y-74945905D01*
X118848225Y-74945905D02*
X118705368Y-74898286D01*
X118919654Y-77628762D02*
X118991082Y-77533524D01*
X118991082Y-77533524D02*
X119062511Y-77485905D01*
X119062511Y-77485905D02*
X119205368Y-77438286D01*
X119205368Y-77438286D02*
X119276797Y-77438286D01*
X119276797Y-77438286D02*
X119419654Y-77485905D01*
X119419654Y-77485905D02*
X119491082Y-77533524D01*
X119491082Y-77533524D02*
X119562511Y-77628762D01*
X119562511Y-77628762D02*
X119562511Y-77819238D01*
X119562511Y-77819238D02*
X119491082Y-77914476D01*
X119491082Y-77914476D02*
X119419654Y-77962095D01*
X119419654Y-77962095D02*
X119276797Y-78009714D01*
X119276797Y-78009714D02*
X119205368Y-78009714D01*
X119205368Y-78009714D02*
X119062511Y-77962095D01*
X119062511Y-77962095D02*
X118991082Y-77914476D01*
X118991082Y-77914476D02*
X118919654Y-77819238D01*
X118919654Y-77819238D02*
X118919654Y-77628762D01*
X118919654Y-77628762D02*
X118848225Y-77533524D01*
X118848225Y-77533524D02*
X118776797Y-77485905D01*
X118776797Y-77485905D02*
X118633940Y-77438286D01*
X118633940Y-77438286D02*
X118348225Y-77438286D01*
X118348225Y-77438286D02*
X118205368Y-77485905D01*
X118205368Y-77485905D02*
X118133940Y-77533524D01*
X118133940Y-77533524D02*
X118062511Y-77628762D01*
X118062511Y-77628762D02*
X118062511Y-77819238D01*
X118062511Y-77819238D02*
X118133940Y-77914476D01*
X118133940Y-77914476D02*
X118205368Y-77962095D01*
X118205368Y-77962095D02*
X118348225Y-78009714D01*
X118348225Y-78009714D02*
X118633940Y-78009714D01*
X118633940Y-78009714D02*
X118776797Y-77962095D01*
X118776797Y-77962095D02*
X118848225Y-77914476D01*
X118848225Y-77914476D02*
X118919654Y-77819238D01*
X119419654Y-69818286D02*
X119491082Y-69865905D01*
X119491082Y-69865905D02*
X119562511Y-69961143D01*
X119562511Y-69961143D02*
X119562511Y-70199238D01*
X119562511Y-70199238D02*
X119491082Y-70294476D01*
X119491082Y-70294476D02*
X119419654Y-70342095D01*
X119419654Y-70342095D02*
X119276797Y-70389714D01*
X119276797Y-70389714D02*
X119133940Y-70389714D01*
X119133940Y-70389714D02*
X118919654Y-70342095D01*
X118919654Y-70342095D02*
X118062511Y-69770667D01*
X118062511Y-69770667D02*
X118062511Y-70389714D01*
X119062511Y-72834476D02*
X118062511Y-72834476D01*
X119633940Y-72596381D02*
X118562511Y-72358286D01*
X118562511Y-72358286D02*
X118562511Y-72977333D01*
X118062511Y-80073523D02*
X118062511Y-79502095D01*
X118062511Y-79787809D02*
X119562511Y-79787809D01*
X119562511Y-79787809D02*
X119348225Y-79692571D01*
X119348225Y-79692571D02*
X119205368Y-79597333D01*
X119205368Y-79597333D02*
X119133940Y-79502095D01*
X119562511Y-80692571D02*
X119562511Y-80787809D01*
X119562511Y-80787809D02*
X119491082Y-80883047D01*
X119491082Y-80883047D02*
X119419654Y-80930666D01*
X119419654Y-80930666D02*
X119276797Y-80978285D01*
X119276797Y-80978285D02*
X118991082Y-81025904D01*
X118991082Y-81025904D02*
X118633940Y-81025904D01*
X118633940Y-81025904D02*
X118348225Y-80978285D01*
X118348225Y-80978285D02*
X118205368Y-80930666D01*
X118205368Y-80930666D02*
X118133940Y-80883047D01*
X118133940Y-80883047D02*
X118062511Y-80787809D01*
X118062511Y-80787809D02*
X118062511Y-80692571D01*
X118062511Y-80692571D02*
X118133940Y-80597333D01*
X118133940Y-80597333D02*
X118205368Y-80549714D01*
X118205368Y-80549714D02*
X118348225Y-80502095D01*
X118348225Y-80502095D02*
X118633940Y-80454476D01*
X118633940Y-80454476D02*
X118991082Y-80454476D01*
X118991082Y-80454476D02*
X119276797Y-80502095D01*
X119276797Y-80502095D02*
X119419654Y-80549714D01*
X119419654Y-80549714D02*
X119491082Y-80597333D01*
X119491082Y-80597333D02*
X119562511Y-80692571D01*
X118062511Y-87693523D02*
X118062511Y-87122095D01*
X118062511Y-87407809D02*
X119562511Y-87407809D01*
X119562511Y-87407809D02*
X119348225Y-87312571D01*
X119348225Y-87312571D02*
X119205368Y-87217333D01*
X119205368Y-87217333D02*
X119133940Y-87122095D01*
X119562511Y-88550666D02*
X119562511Y-88360190D01*
X119562511Y-88360190D02*
X119491082Y-88264952D01*
X119491082Y-88264952D02*
X119419654Y-88217333D01*
X119419654Y-88217333D02*
X119205368Y-88122095D01*
X119205368Y-88122095D02*
X118919654Y-88074476D01*
X118919654Y-88074476D02*
X118348225Y-88074476D01*
X118348225Y-88074476D02*
X118205368Y-88122095D01*
X118205368Y-88122095D02*
X118133940Y-88169714D01*
X118133940Y-88169714D02*
X118062511Y-88264952D01*
X118062511Y-88264952D02*
X118062511Y-88455428D01*
X118062511Y-88455428D02*
X118133940Y-88550666D01*
X118133940Y-88550666D02*
X118205368Y-88598285D01*
X118205368Y-88598285D02*
X118348225Y-88645904D01*
X118348225Y-88645904D02*
X118705368Y-88645904D01*
X118705368Y-88645904D02*
X118848225Y-88598285D01*
X118848225Y-88598285D02*
X118919654Y-88550666D01*
X118919654Y-88550666D02*
X118991082Y-88455428D01*
X118991082Y-88455428D02*
X118991082Y-88264952D01*
X118991082Y-88264952D02*
X118919654Y-88169714D01*
X118919654Y-88169714D02*
X118848225Y-88122095D01*
X118848225Y-88122095D02*
X118705368Y-88074476D01*
X118062511Y-90233523D02*
X118062511Y-89662095D01*
X118062511Y-89947809D02*
X119562511Y-89947809D01*
X119562511Y-89947809D02*
X119348225Y-89852571D01*
X119348225Y-89852571D02*
X119205368Y-89757333D01*
X119205368Y-89757333D02*
X119133940Y-89662095D01*
X118919654Y-90804952D02*
X118991082Y-90709714D01*
X118991082Y-90709714D02*
X119062511Y-90662095D01*
X119062511Y-90662095D02*
X119205368Y-90614476D01*
X119205368Y-90614476D02*
X119276797Y-90614476D01*
X119276797Y-90614476D02*
X119419654Y-90662095D01*
X119419654Y-90662095D02*
X119491082Y-90709714D01*
X119491082Y-90709714D02*
X119562511Y-90804952D01*
X119562511Y-90804952D02*
X119562511Y-90995428D01*
X119562511Y-90995428D02*
X119491082Y-91090666D01*
X119491082Y-91090666D02*
X119419654Y-91138285D01*
X119419654Y-91138285D02*
X119276797Y-91185904D01*
X119276797Y-91185904D02*
X119205368Y-91185904D01*
X119205368Y-91185904D02*
X119062511Y-91138285D01*
X119062511Y-91138285D02*
X118991082Y-91090666D01*
X118991082Y-91090666D02*
X118919654Y-90995428D01*
X118919654Y-90995428D02*
X118919654Y-90804952D01*
X118919654Y-90804952D02*
X118848225Y-90709714D01*
X118848225Y-90709714D02*
X118776797Y-90662095D01*
X118776797Y-90662095D02*
X118633940Y-90614476D01*
X118633940Y-90614476D02*
X118348225Y-90614476D01*
X118348225Y-90614476D02*
X118205368Y-90662095D01*
X118205368Y-90662095D02*
X118133940Y-90709714D01*
X118133940Y-90709714D02*
X118062511Y-90804952D01*
X118062511Y-90804952D02*
X118062511Y-90995428D01*
X118062511Y-90995428D02*
X118133940Y-91090666D01*
X118133940Y-91090666D02*
X118205368Y-91138285D01*
X118205368Y-91138285D02*
X118348225Y-91185904D01*
X118348225Y-91185904D02*
X118633940Y-91185904D01*
X118633940Y-91185904D02*
X118776797Y-91138285D01*
X118776797Y-91138285D02*
X118848225Y-91090666D01*
X118848225Y-91090666D02*
X118919654Y-90995428D01*
X118062511Y-82613523D02*
X118062511Y-82042095D01*
X118062511Y-82327809D02*
X119562511Y-82327809D01*
X119562511Y-82327809D02*
X119348225Y-82232571D01*
X119348225Y-82232571D02*
X119205368Y-82137333D01*
X119205368Y-82137333D02*
X119133940Y-82042095D01*
X119419654Y-82994476D02*
X119491082Y-83042095D01*
X119491082Y-83042095D02*
X119562511Y-83137333D01*
X119562511Y-83137333D02*
X119562511Y-83375428D01*
X119562511Y-83375428D02*
X119491082Y-83470666D01*
X119491082Y-83470666D02*
X119419654Y-83518285D01*
X119419654Y-83518285D02*
X119276797Y-83565904D01*
X119276797Y-83565904D02*
X119133940Y-83565904D01*
X119133940Y-83565904D02*
X118919654Y-83518285D01*
X118919654Y-83518285D02*
X118062511Y-82946857D01*
X118062511Y-82946857D02*
X118062511Y-83565904D01*
X118062511Y-85153523D02*
X118062511Y-84582095D01*
X118062511Y-84867809D02*
X119562511Y-84867809D01*
X119562511Y-84867809D02*
X119348225Y-84772571D01*
X119348225Y-84772571D02*
X119205368Y-84677333D01*
X119205368Y-84677333D02*
X119133940Y-84582095D01*
X119062511Y-86010666D02*
X118062511Y-86010666D01*
X119633940Y-85772571D02*
X118562511Y-85534476D01*
X118562511Y-85534476D02*
X118562511Y-86153523D01*
X119419654Y-92202095D02*
X119491082Y-92249714D01*
X119491082Y-92249714D02*
X119562511Y-92344952D01*
X119562511Y-92344952D02*
X119562511Y-92583047D01*
X119562511Y-92583047D02*
X119491082Y-92678285D01*
X119491082Y-92678285D02*
X119419654Y-92725904D01*
X119419654Y-92725904D02*
X119276797Y-92773523D01*
X119276797Y-92773523D02*
X119133940Y-92773523D01*
X119133940Y-92773523D02*
X118919654Y-92725904D01*
X118919654Y-92725904D02*
X118062511Y-92154476D01*
X118062511Y-92154476D02*
X118062511Y-92773523D01*
X119562511Y-93392571D02*
X119562511Y-93487809D01*
X119562511Y-93487809D02*
X119491082Y-93583047D01*
X119491082Y-93583047D02*
X119419654Y-93630666D01*
X119419654Y-93630666D02*
X119276797Y-93678285D01*
X119276797Y-93678285D02*
X118991082Y-93725904D01*
X118991082Y-93725904D02*
X118633940Y-93725904D01*
X118633940Y-93725904D02*
X118348225Y-93678285D01*
X118348225Y-93678285D02*
X118205368Y-93630666D01*
X118205368Y-93630666D02*
X118133940Y-93583047D01*
X118133940Y-93583047D02*
X118062511Y-93487809D01*
X118062511Y-93487809D02*
X118062511Y-93392571D01*
X118062511Y-93392571D02*
X118133940Y-93297333D01*
X118133940Y-93297333D02*
X118205368Y-93249714D01*
X118205368Y-93249714D02*
X118348225Y-93202095D01*
X118348225Y-93202095D02*
X118633940Y-93154476D01*
X118633940Y-93154476D02*
X118991082Y-93154476D01*
X118991082Y-93154476D02*
X119276797Y-93202095D01*
X119276797Y-93202095D02*
X119419654Y-93249714D01*
X119419654Y-93249714D02*
X119491082Y-93297333D01*
X119491082Y-93297333D02*
X119562511Y-93392571D01*
X119419654Y-99822095D02*
X119491082Y-99869714D01*
X119491082Y-99869714D02*
X119562511Y-99964952D01*
X119562511Y-99964952D02*
X119562511Y-100203047D01*
X119562511Y-100203047D02*
X119491082Y-100298285D01*
X119491082Y-100298285D02*
X119419654Y-100345904D01*
X119419654Y-100345904D02*
X119276797Y-100393523D01*
X119276797Y-100393523D02*
X119133940Y-100393523D01*
X119133940Y-100393523D02*
X118919654Y-100345904D01*
X118919654Y-100345904D02*
X118062511Y-99774476D01*
X118062511Y-99774476D02*
X118062511Y-100393523D01*
X119562511Y-101250666D02*
X119562511Y-101060190D01*
X119562511Y-101060190D02*
X119491082Y-100964952D01*
X119491082Y-100964952D02*
X119419654Y-100917333D01*
X119419654Y-100917333D02*
X119205368Y-100822095D01*
X119205368Y-100822095D02*
X118919654Y-100774476D01*
X118919654Y-100774476D02*
X118348225Y-100774476D01*
X118348225Y-100774476D02*
X118205368Y-100822095D01*
X118205368Y-100822095D02*
X118133940Y-100869714D01*
X118133940Y-100869714D02*
X118062511Y-100964952D01*
X118062511Y-100964952D02*
X118062511Y-101155428D01*
X118062511Y-101155428D02*
X118133940Y-101250666D01*
X118133940Y-101250666D02*
X118205368Y-101298285D01*
X118205368Y-101298285D02*
X118348225Y-101345904D01*
X118348225Y-101345904D02*
X118705368Y-101345904D01*
X118705368Y-101345904D02*
X118848225Y-101298285D01*
X118848225Y-101298285D02*
X118919654Y-101250666D01*
X118919654Y-101250666D02*
X118991082Y-101155428D01*
X118991082Y-101155428D02*
X118991082Y-100964952D01*
X118991082Y-100964952D02*
X118919654Y-100869714D01*
X118919654Y-100869714D02*
X118848225Y-100822095D01*
X118848225Y-100822095D02*
X118705368Y-100774476D01*
X119419654Y-102362095D02*
X119491082Y-102409714D01*
X119491082Y-102409714D02*
X119562511Y-102504952D01*
X119562511Y-102504952D02*
X119562511Y-102743047D01*
X119562511Y-102743047D02*
X119491082Y-102838285D01*
X119491082Y-102838285D02*
X119419654Y-102885904D01*
X119419654Y-102885904D02*
X119276797Y-102933523D01*
X119276797Y-102933523D02*
X119133940Y-102933523D01*
X119133940Y-102933523D02*
X118919654Y-102885904D01*
X118919654Y-102885904D02*
X118062511Y-102314476D01*
X118062511Y-102314476D02*
X118062511Y-102933523D01*
X118919654Y-103504952D02*
X118991082Y-103409714D01*
X118991082Y-103409714D02*
X119062511Y-103362095D01*
X119062511Y-103362095D02*
X119205368Y-103314476D01*
X119205368Y-103314476D02*
X119276797Y-103314476D01*
X119276797Y-103314476D02*
X119419654Y-103362095D01*
X119419654Y-103362095D02*
X119491082Y-103409714D01*
X119491082Y-103409714D02*
X119562511Y-103504952D01*
X119562511Y-103504952D02*
X119562511Y-103695428D01*
X119562511Y-103695428D02*
X119491082Y-103790666D01*
X119491082Y-103790666D02*
X119419654Y-103838285D01*
X119419654Y-103838285D02*
X119276797Y-103885904D01*
X119276797Y-103885904D02*
X119205368Y-103885904D01*
X119205368Y-103885904D02*
X119062511Y-103838285D01*
X119062511Y-103838285D02*
X118991082Y-103790666D01*
X118991082Y-103790666D02*
X118919654Y-103695428D01*
X118919654Y-103695428D02*
X118919654Y-103504952D01*
X118919654Y-103504952D02*
X118848225Y-103409714D01*
X118848225Y-103409714D02*
X118776797Y-103362095D01*
X118776797Y-103362095D02*
X118633940Y-103314476D01*
X118633940Y-103314476D02*
X118348225Y-103314476D01*
X118348225Y-103314476D02*
X118205368Y-103362095D01*
X118205368Y-103362095D02*
X118133940Y-103409714D01*
X118133940Y-103409714D02*
X118062511Y-103504952D01*
X118062511Y-103504952D02*
X118062511Y-103695428D01*
X118062511Y-103695428D02*
X118133940Y-103790666D01*
X118133940Y-103790666D02*
X118205368Y-103838285D01*
X118205368Y-103838285D02*
X118348225Y-103885904D01*
X118348225Y-103885904D02*
X118633940Y-103885904D01*
X118633940Y-103885904D02*
X118776797Y-103838285D01*
X118776797Y-103838285D02*
X118848225Y-103790666D01*
X118848225Y-103790666D02*
X118919654Y-103695428D01*
X119419654Y-94742095D02*
X119491082Y-94789714D01*
X119491082Y-94789714D02*
X119562511Y-94884952D01*
X119562511Y-94884952D02*
X119562511Y-95123047D01*
X119562511Y-95123047D02*
X119491082Y-95218285D01*
X119491082Y-95218285D02*
X119419654Y-95265904D01*
X119419654Y-95265904D02*
X119276797Y-95313523D01*
X119276797Y-95313523D02*
X119133940Y-95313523D01*
X119133940Y-95313523D02*
X118919654Y-95265904D01*
X118919654Y-95265904D02*
X118062511Y-94694476D01*
X118062511Y-94694476D02*
X118062511Y-95313523D01*
X119419654Y-95694476D02*
X119491082Y-95742095D01*
X119491082Y-95742095D02*
X119562511Y-95837333D01*
X119562511Y-95837333D02*
X119562511Y-96075428D01*
X119562511Y-96075428D02*
X119491082Y-96170666D01*
X119491082Y-96170666D02*
X119419654Y-96218285D01*
X119419654Y-96218285D02*
X119276797Y-96265904D01*
X119276797Y-96265904D02*
X119133940Y-96265904D01*
X119133940Y-96265904D02*
X118919654Y-96218285D01*
X118919654Y-96218285D02*
X118062511Y-95646857D01*
X118062511Y-95646857D02*
X118062511Y-96265904D01*
X119419654Y-97282095D02*
X119491082Y-97329714D01*
X119491082Y-97329714D02*
X119562511Y-97424952D01*
X119562511Y-97424952D02*
X119562511Y-97663047D01*
X119562511Y-97663047D02*
X119491082Y-97758285D01*
X119491082Y-97758285D02*
X119419654Y-97805904D01*
X119419654Y-97805904D02*
X119276797Y-97853523D01*
X119276797Y-97853523D02*
X119133940Y-97853523D01*
X119133940Y-97853523D02*
X118919654Y-97805904D01*
X118919654Y-97805904D02*
X118062511Y-97234476D01*
X118062511Y-97234476D02*
X118062511Y-97853523D01*
X119062511Y-98710666D02*
X118062511Y-98710666D01*
X119633940Y-98472571D02*
X118562511Y-98234476D01*
X118562511Y-98234476D02*
X118562511Y-98853523D01*
X119562511Y-104854476D02*
X119562511Y-105473523D01*
X119562511Y-105473523D02*
X118991082Y-105140190D01*
X118991082Y-105140190D02*
X118991082Y-105283047D01*
X118991082Y-105283047D02*
X118919654Y-105378285D01*
X118919654Y-105378285D02*
X118848225Y-105425904D01*
X118848225Y-105425904D02*
X118705368Y-105473523D01*
X118705368Y-105473523D02*
X118348225Y-105473523D01*
X118348225Y-105473523D02*
X118205368Y-105425904D01*
X118205368Y-105425904D02*
X118133940Y-105378285D01*
X118133940Y-105378285D02*
X118062511Y-105283047D01*
X118062511Y-105283047D02*
X118062511Y-104997333D01*
X118062511Y-104997333D02*
X118133940Y-104902095D01*
X118133940Y-104902095D02*
X118205368Y-104854476D01*
X119562511Y-106092571D02*
X119562511Y-106187809D01*
X119562511Y-106187809D02*
X119491082Y-106283047D01*
X119491082Y-106283047D02*
X119419654Y-106330666D01*
X119419654Y-106330666D02*
X119276797Y-106378285D01*
X119276797Y-106378285D02*
X118991082Y-106425904D01*
X118991082Y-106425904D02*
X118633940Y-106425904D01*
X118633940Y-106425904D02*
X118348225Y-106378285D01*
X118348225Y-106378285D02*
X118205368Y-106330666D01*
X118205368Y-106330666D02*
X118133940Y-106283047D01*
X118133940Y-106283047D02*
X118062511Y-106187809D01*
X118062511Y-106187809D02*
X118062511Y-106092571D01*
X118062511Y-106092571D02*
X118133940Y-105997333D01*
X118133940Y-105997333D02*
X118205368Y-105949714D01*
X118205368Y-105949714D02*
X118348225Y-105902095D01*
X118348225Y-105902095D02*
X118633940Y-105854476D01*
X118633940Y-105854476D02*
X118991082Y-105854476D01*
X118991082Y-105854476D02*
X119276797Y-105902095D01*
X119276797Y-105902095D02*
X119419654Y-105949714D01*
X119419654Y-105949714D02*
X119491082Y-105997333D01*
X119491082Y-105997333D02*
X119562511Y-106092571D01*
X119562511Y-112474476D02*
X119562511Y-113093523D01*
X119562511Y-113093523D02*
X118991082Y-112760190D01*
X118991082Y-112760190D02*
X118991082Y-112903047D01*
X118991082Y-112903047D02*
X118919654Y-112998285D01*
X118919654Y-112998285D02*
X118848225Y-113045904D01*
X118848225Y-113045904D02*
X118705368Y-113093523D01*
X118705368Y-113093523D02*
X118348225Y-113093523D01*
X118348225Y-113093523D02*
X118205368Y-113045904D01*
X118205368Y-113045904D02*
X118133940Y-112998285D01*
X118133940Y-112998285D02*
X118062511Y-112903047D01*
X118062511Y-112903047D02*
X118062511Y-112617333D01*
X118062511Y-112617333D02*
X118133940Y-112522095D01*
X118133940Y-112522095D02*
X118205368Y-112474476D01*
X119562511Y-113950666D02*
X119562511Y-113760190D01*
X119562511Y-113760190D02*
X119491082Y-113664952D01*
X119491082Y-113664952D02*
X119419654Y-113617333D01*
X119419654Y-113617333D02*
X119205368Y-113522095D01*
X119205368Y-113522095D02*
X118919654Y-113474476D01*
X118919654Y-113474476D02*
X118348225Y-113474476D01*
X118348225Y-113474476D02*
X118205368Y-113522095D01*
X118205368Y-113522095D02*
X118133940Y-113569714D01*
X118133940Y-113569714D02*
X118062511Y-113664952D01*
X118062511Y-113664952D02*
X118062511Y-113855428D01*
X118062511Y-113855428D02*
X118133940Y-113950666D01*
X118133940Y-113950666D02*
X118205368Y-113998285D01*
X118205368Y-113998285D02*
X118348225Y-114045904D01*
X118348225Y-114045904D02*
X118705368Y-114045904D01*
X118705368Y-114045904D02*
X118848225Y-113998285D01*
X118848225Y-113998285D02*
X118919654Y-113950666D01*
X118919654Y-113950666D02*
X118991082Y-113855428D01*
X118991082Y-113855428D02*
X118991082Y-113664952D01*
X118991082Y-113664952D02*
X118919654Y-113569714D01*
X118919654Y-113569714D02*
X118848225Y-113522095D01*
X118848225Y-113522095D02*
X118705368Y-113474476D01*
X119562511Y-115014476D02*
X119562511Y-115633523D01*
X119562511Y-115633523D02*
X118991082Y-115300190D01*
X118991082Y-115300190D02*
X118991082Y-115443047D01*
X118991082Y-115443047D02*
X118919654Y-115538285D01*
X118919654Y-115538285D02*
X118848225Y-115585904D01*
X118848225Y-115585904D02*
X118705368Y-115633523D01*
X118705368Y-115633523D02*
X118348225Y-115633523D01*
X118348225Y-115633523D02*
X118205368Y-115585904D01*
X118205368Y-115585904D02*
X118133940Y-115538285D01*
X118133940Y-115538285D02*
X118062511Y-115443047D01*
X118062511Y-115443047D02*
X118062511Y-115157333D01*
X118062511Y-115157333D02*
X118133940Y-115062095D01*
X118133940Y-115062095D02*
X118205368Y-115014476D01*
X118919654Y-116204952D02*
X118991082Y-116109714D01*
X118991082Y-116109714D02*
X119062511Y-116062095D01*
X119062511Y-116062095D02*
X119205368Y-116014476D01*
X119205368Y-116014476D02*
X119276797Y-116014476D01*
X119276797Y-116014476D02*
X119419654Y-116062095D01*
X119419654Y-116062095D02*
X119491082Y-116109714D01*
X119491082Y-116109714D02*
X119562511Y-116204952D01*
X119562511Y-116204952D02*
X119562511Y-116395428D01*
X119562511Y-116395428D02*
X119491082Y-116490666D01*
X119491082Y-116490666D02*
X119419654Y-116538285D01*
X119419654Y-116538285D02*
X119276797Y-116585904D01*
X119276797Y-116585904D02*
X119205368Y-116585904D01*
X119205368Y-116585904D02*
X119062511Y-116538285D01*
X119062511Y-116538285D02*
X118991082Y-116490666D01*
X118991082Y-116490666D02*
X118919654Y-116395428D01*
X118919654Y-116395428D02*
X118919654Y-116204952D01*
X118919654Y-116204952D02*
X118848225Y-116109714D01*
X118848225Y-116109714D02*
X118776797Y-116062095D01*
X118776797Y-116062095D02*
X118633940Y-116014476D01*
X118633940Y-116014476D02*
X118348225Y-116014476D01*
X118348225Y-116014476D02*
X118205368Y-116062095D01*
X118205368Y-116062095D02*
X118133940Y-116109714D01*
X118133940Y-116109714D02*
X118062511Y-116204952D01*
X118062511Y-116204952D02*
X118062511Y-116395428D01*
X118062511Y-116395428D02*
X118133940Y-116490666D01*
X118133940Y-116490666D02*
X118205368Y-116538285D01*
X118205368Y-116538285D02*
X118348225Y-116585904D01*
X118348225Y-116585904D02*
X118633940Y-116585904D01*
X118633940Y-116585904D02*
X118776797Y-116538285D01*
X118776797Y-116538285D02*
X118848225Y-116490666D01*
X118848225Y-116490666D02*
X118919654Y-116395428D01*
X119562511Y-107394476D02*
X119562511Y-108013523D01*
X119562511Y-108013523D02*
X118991082Y-107680190D01*
X118991082Y-107680190D02*
X118991082Y-107823047D01*
X118991082Y-107823047D02*
X118919654Y-107918285D01*
X118919654Y-107918285D02*
X118848225Y-107965904D01*
X118848225Y-107965904D02*
X118705368Y-108013523D01*
X118705368Y-108013523D02*
X118348225Y-108013523D01*
X118348225Y-108013523D02*
X118205368Y-107965904D01*
X118205368Y-107965904D02*
X118133940Y-107918285D01*
X118133940Y-107918285D02*
X118062511Y-107823047D01*
X118062511Y-107823047D02*
X118062511Y-107537333D01*
X118062511Y-107537333D02*
X118133940Y-107442095D01*
X118133940Y-107442095D02*
X118205368Y-107394476D01*
X119419654Y-108394476D02*
X119491082Y-108442095D01*
X119491082Y-108442095D02*
X119562511Y-108537333D01*
X119562511Y-108537333D02*
X119562511Y-108775428D01*
X119562511Y-108775428D02*
X119491082Y-108870666D01*
X119491082Y-108870666D02*
X119419654Y-108918285D01*
X119419654Y-108918285D02*
X119276797Y-108965904D01*
X119276797Y-108965904D02*
X119133940Y-108965904D01*
X119133940Y-108965904D02*
X118919654Y-108918285D01*
X118919654Y-108918285D02*
X118062511Y-108346857D01*
X118062511Y-108346857D02*
X118062511Y-108965904D01*
X119562511Y-109934476D02*
X119562511Y-110553523D01*
X119562511Y-110553523D02*
X118991082Y-110220190D01*
X118991082Y-110220190D02*
X118991082Y-110363047D01*
X118991082Y-110363047D02*
X118919654Y-110458285D01*
X118919654Y-110458285D02*
X118848225Y-110505904D01*
X118848225Y-110505904D02*
X118705368Y-110553523D01*
X118705368Y-110553523D02*
X118348225Y-110553523D01*
X118348225Y-110553523D02*
X118205368Y-110505904D01*
X118205368Y-110505904D02*
X118133940Y-110458285D01*
X118133940Y-110458285D02*
X118062511Y-110363047D01*
X118062511Y-110363047D02*
X118062511Y-110077333D01*
X118062511Y-110077333D02*
X118133940Y-109982095D01*
X118133940Y-109982095D02*
X118205368Y-109934476D01*
X119062511Y-111410666D02*
X118062511Y-111410666D01*
X119633940Y-111172571D02*
X118562511Y-110934476D01*
X118562511Y-110934476D02*
X118562511Y-111553523D01*
X119062511Y-118078285D02*
X118062511Y-118078285D01*
X119633940Y-117840190D02*
X118562511Y-117602095D01*
X118562511Y-117602095D02*
X118562511Y-118221142D01*
X119562511Y-118792571D02*
X119562511Y-118887809D01*
X119562511Y-118887809D02*
X119491082Y-118983047D01*
X119491082Y-118983047D02*
X119419654Y-119030666D01*
X119419654Y-119030666D02*
X119276797Y-119078285D01*
X119276797Y-119078285D02*
X118991082Y-119125904D01*
X118991082Y-119125904D02*
X118633940Y-119125904D01*
X118633940Y-119125904D02*
X118348225Y-119078285D01*
X118348225Y-119078285D02*
X118205368Y-119030666D01*
X118205368Y-119030666D02*
X118133940Y-118983047D01*
X118133940Y-118983047D02*
X118062511Y-118887809D01*
X118062511Y-118887809D02*
X118062511Y-118792571D01*
X118062511Y-118792571D02*
X118133940Y-118697333D01*
X118133940Y-118697333D02*
X118205368Y-118649714D01*
X118205368Y-118649714D02*
X118348225Y-118602095D01*
X118348225Y-118602095D02*
X118633940Y-118554476D01*
X118633940Y-118554476D02*
X118991082Y-118554476D01*
X118991082Y-118554476D02*
X119276797Y-118602095D01*
X119276797Y-118602095D02*
X119419654Y-118649714D01*
X119419654Y-118649714D02*
X119491082Y-118697333D01*
X119491082Y-118697333D02*
X119562511Y-118792571D01*
X111942511Y-112474476D02*
X111942511Y-113093523D01*
X111942511Y-113093523D02*
X111371082Y-112760190D01*
X111371082Y-112760190D02*
X111371082Y-112903047D01*
X111371082Y-112903047D02*
X111299654Y-112998285D01*
X111299654Y-112998285D02*
X111228225Y-113045904D01*
X111228225Y-113045904D02*
X111085368Y-113093523D01*
X111085368Y-113093523D02*
X110728225Y-113093523D01*
X110728225Y-113093523D02*
X110585368Y-113045904D01*
X110585368Y-113045904D02*
X110513940Y-112998285D01*
X110513940Y-112998285D02*
X110442511Y-112903047D01*
X110442511Y-112903047D02*
X110442511Y-112617333D01*
X110442511Y-112617333D02*
X110513940Y-112522095D01*
X110513940Y-112522095D02*
X110585368Y-112474476D01*
X111942511Y-113998285D02*
X111942511Y-113522095D01*
X111942511Y-113522095D02*
X111228225Y-113474476D01*
X111228225Y-113474476D02*
X111299654Y-113522095D01*
X111299654Y-113522095D02*
X111371082Y-113617333D01*
X111371082Y-113617333D02*
X111371082Y-113855428D01*
X111371082Y-113855428D02*
X111299654Y-113950666D01*
X111299654Y-113950666D02*
X111228225Y-113998285D01*
X111228225Y-113998285D02*
X111085368Y-114045904D01*
X111085368Y-114045904D02*
X110728225Y-114045904D01*
X110728225Y-114045904D02*
X110585368Y-113998285D01*
X110585368Y-113998285D02*
X110513940Y-113950666D01*
X110513940Y-113950666D02*
X110442511Y-113855428D01*
X110442511Y-113855428D02*
X110442511Y-113617333D01*
X110442511Y-113617333D02*
X110513940Y-113522095D01*
X110513940Y-113522095D02*
X110585368Y-113474476D01*
X111942511Y-115014476D02*
X111942511Y-115633523D01*
X111942511Y-115633523D02*
X111371082Y-115300190D01*
X111371082Y-115300190D02*
X111371082Y-115443047D01*
X111371082Y-115443047D02*
X111299654Y-115538285D01*
X111299654Y-115538285D02*
X111228225Y-115585904D01*
X111228225Y-115585904D02*
X111085368Y-115633523D01*
X111085368Y-115633523D02*
X110728225Y-115633523D01*
X110728225Y-115633523D02*
X110585368Y-115585904D01*
X110585368Y-115585904D02*
X110513940Y-115538285D01*
X110513940Y-115538285D02*
X110442511Y-115443047D01*
X110442511Y-115443047D02*
X110442511Y-115157333D01*
X110442511Y-115157333D02*
X110513940Y-115062095D01*
X110513940Y-115062095D02*
X110585368Y-115014476D01*
X111942511Y-115966857D02*
X111942511Y-116633523D01*
X111942511Y-116633523D02*
X110442511Y-116204952D01*
X111942511Y-107394476D02*
X111942511Y-108013523D01*
X111942511Y-108013523D02*
X111371082Y-107680190D01*
X111371082Y-107680190D02*
X111371082Y-107823047D01*
X111371082Y-107823047D02*
X111299654Y-107918285D01*
X111299654Y-107918285D02*
X111228225Y-107965904D01*
X111228225Y-107965904D02*
X111085368Y-108013523D01*
X111085368Y-108013523D02*
X110728225Y-108013523D01*
X110728225Y-108013523D02*
X110585368Y-107965904D01*
X110585368Y-107965904D02*
X110513940Y-107918285D01*
X110513940Y-107918285D02*
X110442511Y-107823047D01*
X110442511Y-107823047D02*
X110442511Y-107537333D01*
X110442511Y-107537333D02*
X110513940Y-107442095D01*
X110513940Y-107442095D02*
X110585368Y-107394476D01*
X110442511Y-108965904D02*
X110442511Y-108394476D01*
X110442511Y-108680190D02*
X111942511Y-108680190D01*
X111942511Y-108680190D02*
X111728225Y-108584952D01*
X111728225Y-108584952D02*
X111585368Y-108489714D01*
X111585368Y-108489714D02*
X111513940Y-108394476D01*
X111942511Y-109934476D02*
X111942511Y-110553523D01*
X111942511Y-110553523D02*
X111371082Y-110220190D01*
X111371082Y-110220190D02*
X111371082Y-110363047D01*
X111371082Y-110363047D02*
X111299654Y-110458285D01*
X111299654Y-110458285D02*
X111228225Y-110505904D01*
X111228225Y-110505904D02*
X111085368Y-110553523D01*
X111085368Y-110553523D02*
X110728225Y-110553523D01*
X110728225Y-110553523D02*
X110585368Y-110505904D01*
X110585368Y-110505904D02*
X110513940Y-110458285D01*
X110513940Y-110458285D02*
X110442511Y-110363047D01*
X110442511Y-110363047D02*
X110442511Y-110077333D01*
X110442511Y-110077333D02*
X110513940Y-109982095D01*
X110513940Y-109982095D02*
X110585368Y-109934476D01*
X111942511Y-110886857D02*
X111942511Y-111505904D01*
X111942511Y-111505904D02*
X111371082Y-111172571D01*
X111371082Y-111172571D02*
X111371082Y-111315428D01*
X111371082Y-111315428D02*
X111299654Y-111410666D01*
X111299654Y-111410666D02*
X111228225Y-111458285D01*
X111228225Y-111458285D02*
X111085368Y-111505904D01*
X111085368Y-111505904D02*
X110728225Y-111505904D01*
X110728225Y-111505904D02*
X110585368Y-111458285D01*
X110585368Y-111458285D02*
X110513940Y-111410666D01*
X110513940Y-111410666D02*
X110442511Y-111315428D01*
X110442511Y-111315428D02*
X110442511Y-111029714D01*
X110442511Y-111029714D02*
X110513940Y-110934476D01*
X110513940Y-110934476D02*
X110585368Y-110886857D01*
X111942511Y-117554476D02*
X111942511Y-118173523D01*
X111942511Y-118173523D02*
X111371082Y-117840190D01*
X111371082Y-117840190D02*
X111371082Y-117983047D01*
X111371082Y-117983047D02*
X111299654Y-118078285D01*
X111299654Y-118078285D02*
X111228225Y-118125904D01*
X111228225Y-118125904D02*
X111085368Y-118173523D01*
X111085368Y-118173523D02*
X110728225Y-118173523D01*
X110728225Y-118173523D02*
X110585368Y-118125904D01*
X110585368Y-118125904D02*
X110513940Y-118078285D01*
X110513940Y-118078285D02*
X110442511Y-117983047D01*
X110442511Y-117983047D02*
X110442511Y-117697333D01*
X110442511Y-117697333D02*
X110513940Y-117602095D01*
X110513940Y-117602095D02*
X110585368Y-117554476D01*
X110442511Y-118649714D02*
X110442511Y-118840190D01*
X110442511Y-118840190D02*
X110513940Y-118935428D01*
X110513940Y-118935428D02*
X110585368Y-118983047D01*
X110585368Y-118983047D02*
X110799654Y-119078285D01*
X110799654Y-119078285D02*
X111085368Y-119125904D01*
X111085368Y-119125904D02*
X111656797Y-119125904D01*
X111656797Y-119125904D02*
X111799654Y-119078285D01*
X111799654Y-119078285D02*
X111871082Y-119030666D01*
X111871082Y-119030666D02*
X111942511Y-118935428D01*
X111942511Y-118935428D02*
X111942511Y-118744952D01*
X111942511Y-118744952D02*
X111871082Y-118649714D01*
X111871082Y-118649714D02*
X111799654Y-118602095D01*
X111799654Y-118602095D02*
X111656797Y-118554476D01*
X111656797Y-118554476D02*
X111299654Y-118554476D01*
X111299654Y-118554476D02*
X111156797Y-118602095D01*
X111156797Y-118602095D02*
X111085368Y-118649714D01*
X111085368Y-118649714D02*
X111013940Y-118744952D01*
X111013940Y-118744952D02*
X111013940Y-118935428D01*
X111013940Y-118935428D02*
X111085368Y-119030666D01*
X111085368Y-119030666D02*
X111156797Y-119078285D01*
X111156797Y-119078285D02*
X111299654Y-119125904D01*
X111799654Y-99822095D02*
X111871082Y-99869714D01*
X111871082Y-99869714D02*
X111942511Y-99964952D01*
X111942511Y-99964952D02*
X111942511Y-100203047D01*
X111942511Y-100203047D02*
X111871082Y-100298285D01*
X111871082Y-100298285D02*
X111799654Y-100345904D01*
X111799654Y-100345904D02*
X111656797Y-100393523D01*
X111656797Y-100393523D02*
X111513940Y-100393523D01*
X111513940Y-100393523D02*
X111299654Y-100345904D01*
X111299654Y-100345904D02*
X110442511Y-99774476D01*
X110442511Y-99774476D02*
X110442511Y-100393523D01*
X111942511Y-101298285D02*
X111942511Y-100822095D01*
X111942511Y-100822095D02*
X111228225Y-100774476D01*
X111228225Y-100774476D02*
X111299654Y-100822095D01*
X111299654Y-100822095D02*
X111371082Y-100917333D01*
X111371082Y-100917333D02*
X111371082Y-101155428D01*
X111371082Y-101155428D02*
X111299654Y-101250666D01*
X111299654Y-101250666D02*
X111228225Y-101298285D01*
X111228225Y-101298285D02*
X111085368Y-101345904D01*
X111085368Y-101345904D02*
X110728225Y-101345904D01*
X110728225Y-101345904D02*
X110585368Y-101298285D01*
X110585368Y-101298285D02*
X110513940Y-101250666D01*
X110513940Y-101250666D02*
X110442511Y-101155428D01*
X110442511Y-101155428D02*
X110442511Y-100917333D01*
X110442511Y-100917333D02*
X110513940Y-100822095D01*
X110513940Y-100822095D02*
X110585368Y-100774476D01*
X111799654Y-102362095D02*
X111871082Y-102409714D01*
X111871082Y-102409714D02*
X111942511Y-102504952D01*
X111942511Y-102504952D02*
X111942511Y-102743047D01*
X111942511Y-102743047D02*
X111871082Y-102838285D01*
X111871082Y-102838285D02*
X111799654Y-102885904D01*
X111799654Y-102885904D02*
X111656797Y-102933523D01*
X111656797Y-102933523D02*
X111513940Y-102933523D01*
X111513940Y-102933523D02*
X111299654Y-102885904D01*
X111299654Y-102885904D02*
X110442511Y-102314476D01*
X110442511Y-102314476D02*
X110442511Y-102933523D01*
X111942511Y-103266857D02*
X111942511Y-103933523D01*
X111942511Y-103933523D02*
X110442511Y-103504952D01*
X111799654Y-94742095D02*
X111871082Y-94789714D01*
X111871082Y-94789714D02*
X111942511Y-94884952D01*
X111942511Y-94884952D02*
X111942511Y-95123047D01*
X111942511Y-95123047D02*
X111871082Y-95218285D01*
X111871082Y-95218285D02*
X111799654Y-95265904D01*
X111799654Y-95265904D02*
X111656797Y-95313523D01*
X111656797Y-95313523D02*
X111513940Y-95313523D01*
X111513940Y-95313523D02*
X111299654Y-95265904D01*
X111299654Y-95265904D02*
X110442511Y-94694476D01*
X110442511Y-94694476D02*
X110442511Y-95313523D01*
X110442511Y-96265904D02*
X110442511Y-95694476D01*
X110442511Y-95980190D02*
X111942511Y-95980190D01*
X111942511Y-95980190D02*
X111728225Y-95884952D01*
X111728225Y-95884952D02*
X111585368Y-95789714D01*
X111585368Y-95789714D02*
X111513940Y-95694476D01*
X111799654Y-97282095D02*
X111871082Y-97329714D01*
X111871082Y-97329714D02*
X111942511Y-97424952D01*
X111942511Y-97424952D02*
X111942511Y-97663047D01*
X111942511Y-97663047D02*
X111871082Y-97758285D01*
X111871082Y-97758285D02*
X111799654Y-97805904D01*
X111799654Y-97805904D02*
X111656797Y-97853523D01*
X111656797Y-97853523D02*
X111513940Y-97853523D01*
X111513940Y-97853523D02*
X111299654Y-97805904D01*
X111299654Y-97805904D02*
X110442511Y-97234476D01*
X110442511Y-97234476D02*
X110442511Y-97853523D01*
X111942511Y-98186857D02*
X111942511Y-98805904D01*
X111942511Y-98805904D02*
X111371082Y-98472571D01*
X111371082Y-98472571D02*
X111371082Y-98615428D01*
X111371082Y-98615428D02*
X111299654Y-98710666D01*
X111299654Y-98710666D02*
X111228225Y-98758285D01*
X111228225Y-98758285D02*
X111085368Y-98805904D01*
X111085368Y-98805904D02*
X110728225Y-98805904D01*
X110728225Y-98805904D02*
X110585368Y-98758285D01*
X110585368Y-98758285D02*
X110513940Y-98710666D01*
X110513940Y-98710666D02*
X110442511Y-98615428D01*
X110442511Y-98615428D02*
X110442511Y-98329714D01*
X110442511Y-98329714D02*
X110513940Y-98234476D01*
X110513940Y-98234476D02*
X110585368Y-98186857D01*
X111799654Y-104902095D02*
X111871082Y-104949714D01*
X111871082Y-104949714D02*
X111942511Y-105044952D01*
X111942511Y-105044952D02*
X111942511Y-105283047D01*
X111942511Y-105283047D02*
X111871082Y-105378285D01*
X111871082Y-105378285D02*
X111799654Y-105425904D01*
X111799654Y-105425904D02*
X111656797Y-105473523D01*
X111656797Y-105473523D02*
X111513940Y-105473523D01*
X111513940Y-105473523D02*
X111299654Y-105425904D01*
X111299654Y-105425904D02*
X110442511Y-104854476D01*
X110442511Y-104854476D02*
X110442511Y-105473523D01*
X110442511Y-105949714D02*
X110442511Y-106140190D01*
X110442511Y-106140190D02*
X110513940Y-106235428D01*
X110513940Y-106235428D02*
X110585368Y-106283047D01*
X110585368Y-106283047D02*
X110799654Y-106378285D01*
X110799654Y-106378285D02*
X111085368Y-106425904D01*
X111085368Y-106425904D02*
X111656797Y-106425904D01*
X111656797Y-106425904D02*
X111799654Y-106378285D01*
X111799654Y-106378285D02*
X111871082Y-106330666D01*
X111871082Y-106330666D02*
X111942511Y-106235428D01*
X111942511Y-106235428D02*
X111942511Y-106044952D01*
X111942511Y-106044952D02*
X111871082Y-105949714D01*
X111871082Y-105949714D02*
X111799654Y-105902095D01*
X111799654Y-105902095D02*
X111656797Y-105854476D01*
X111656797Y-105854476D02*
X111299654Y-105854476D01*
X111299654Y-105854476D02*
X111156797Y-105902095D01*
X111156797Y-105902095D02*
X111085368Y-105949714D01*
X111085368Y-105949714D02*
X111013940Y-106044952D01*
X111013940Y-106044952D02*
X111013940Y-106235428D01*
X111013940Y-106235428D02*
X111085368Y-106330666D01*
X111085368Y-106330666D02*
X111156797Y-106378285D01*
X111156797Y-106378285D02*
X111299654Y-106425904D01*
X110442511Y-87693523D02*
X110442511Y-87122095D01*
X110442511Y-87407809D02*
X111942511Y-87407809D01*
X111942511Y-87407809D02*
X111728225Y-87312571D01*
X111728225Y-87312571D02*
X111585368Y-87217333D01*
X111585368Y-87217333D02*
X111513940Y-87122095D01*
X111942511Y-88598285D02*
X111942511Y-88122095D01*
X111942511Y-88122095D02*
X111228225Y-88074476D01*
X111228225Y-88074476D02*
X111299654Y-88122095D01*
X111299654Y-88122095D02*
X111371082Y-88217333D01*
X111371082Y-88217333D02*
X111371082Y-88455428D01*
X111371082Y-88455428D02*
X111299654Y-88550666D01*
X111299654Y-88550666D02*
X111228225Y-88598285D01*
X111228225Y-88598285D02*
X111085368Y-88645904D01*
X111085368Y-88645904D02*
X110728225Y-88645904D01*
X110728225Y-88645904D02*
X110585368Y-88598285D01*
X110585368Y-88598285D02*
X110513940Y-88550666D01*
X110513940Y-88550666D02*
X110442511Y-88455428D01*
X110442511Y-88455428D02*
X110442511Y-88217333D01*
X110442511Y-88217333D02*
X110513940Y-88122095D01*
X110513940Y-88122095D02*
X110585368Y-88074476D01*
X110442511Y-90233523D02*
X110442511Y-89662095D01*
X110442511Y-89947809D02*
X111942511Y-89947809D01*
X111942511Y-89947809D02*
X111728225Y-89852571D01*
X111728225Y-89852571D02*
X111585368Y-89757333D01*
X111585368Y-89757333D02*
X111513940Y-89662095D01*
X111942511Y-90566857D02*
X111942511Y-91233523D01*
X111942511Y-91233523D02*
X110442511Y-90804952D01*
X110442511Y-82613523D02*
X110442511Y-82042095D01*
X110442511Y-82327809D02*
X111942511Y-82327809D01*
X111942511Y-82327809D02*
X111728225Y-82232571D01*
X111728225Y-82232571D02*
X111585368Y-82137333D01*
X111585368Y-82137333D02*
X111513940Y-82042095D01*
X110442511Y-83565904D02*
X110442511Y-82994476D01*
X110442511Y-83280190D02*
X111942511Y-83280190D01*
X111942511Y-83280190D02*
X111728225Y-83184952D01*
X111728225Y-83184952D02*
X111585368Y-83089714D01*
X111585368Y-83089714D02*
X111513940Y-82994476D01*
X110442511Y-85153523D02*
X110442511Y-84582095D01*
X110442511Y-84867809D02*
X111942511Y-84867809D01*
X111942511Y-84867809D02*
X111728225Y-84772571D01*
X111728225Y-84772571D02*
X111585368Y-84677333D01*
X111585368Y-84677333D02*
X111513940Y-84582095D01*
X111942511Y-85486857D02*
X111942511Y-86105904D01*
X111942511Y-86105904D02*
X111371082Y-85772571D01*
X111371082Y-85772571D02*
X111371082Y-85915428D01*
X111371082Y-85915428D02*
X111299654Y-86010666D01*
X111299654Y-86010666D02*
X111228225Y-86058285D01*
X111228225Y-86058285D02*
X111085368Y-86105904D01*
X111085368Y-86105904D02*
X110728225Y-86105904D01*
X110728225Y-86105904D02*
X110585368Y-86058285D01*
X110585368Y-86058285D02*
X110513940Y-86010666D01*
X110513940Y-86010666D02*
X110442511Y-85915428D01*
X110442511Y-85915428D02*
X110442511Y-85629714D01*
X110442511Y-85629714D02*
X110513940Y-85534476D01*
X110513940Y-85534476D02*
X110585368Y-85486857D01*
X110442511Y-92773523D02*
X110442511Y-92202095D01*
X110442511Y-92487809D02*
X111942511Y-92487809D01*
X111942511Y-92487809D02*
X111728225Y-92392571D01*
X111728225Y-92392571D02*
X111585368Y-92297333D01*
X111585368Y-92297333D02*
X111513940Y-92202095D01*
X110442511Y-93249714D02*
X110442511Y-93440190D01*
X110442511Y-93440190D02*
X110513940Y-93535428D01*
X110513940Y-93535428D02*
X110585368Y-93583047D01*
X110585368Y-93583047D02*
X110799654Y-93678285D01*
X110799654Y-93678285D02*
X111085368Y-93725904D01*
X111085368Y-93725904D02*
X111656797Y-93725904D01*
X111656797Y-93725904D02*
X111799654Y-93678285D01*
X111799654Y-93678285D02*
X111871082Y-93630666D01*
X111871082Y-93630666D02*
X111942511Y-93535428D01*
X111942511Y-93535428D02*
X111942511Y-93344952D01*
X111942511Y-93344952D02*
X111871082Y-93249714D01*
X111871082Y-93249714D02*
X111799654Y-93202095D01*
X111799654Y-93202095D02*
X111656797Y-93154476D01*
X111656797Y-93154476D02*
X111299654Y-93154476D01*
X111299654Y-93154476D02*
X111156797Y-93202095D01*
X111156797Y-93202095D02*
X111085368Y-93249714D01*
X111085368Y-93249714D02*
X111013940Y-93344952D01*
X111013940Y-93344952D02*
X111013940Y-93535428D01*
X111013940Y-93535428D02*
X111085368Y-93630666D01*
X111085368Y-93630666D02*
X111156797Y-93678285D01*
X111156797Y-93678285D02*
X111299654Y-93725904D01*
X110442511Y-80073524D02*
X110442511Y-80264000D01*
X110442511Y-80264000D02*
X110513940Y-80359238D01*
X110513940Y-80359238D02*
X110585368Y-80406857D01*
X110585368Y-80406857D02*
X110799654Y-80502095D01*
X110799654Y-80502095D02*
X111085368Y-80549714D01*
X111085368Y-80549714D02*
X111656797Y-80549714D01*
X111656797Y-80549714D02*
X111799654Y-80502095D01*
X111799654Y-80502095D02*
X111871082Y-80454476D01*
X111871082Y-80454476D02*
X111942511Y-80359238D01*
X111942511Y-80359238D02*
X111942511Y-80168762D01*
X111942511Y-80168762D02*
X111871082Y-80073524D01*
X111871082Y-80073524D02*
X111799654Y-80025905D01*
X111799654Y-80025905D02*
X111656797Y-79978286D01*
X111656797Y-79978286D02*
X111299654Y-79978286D01*
X111299654Y-79978286D02*
X111156797Y-80025905D01*
X111156797Y-80025905D02*
X111085368Y-80073524D01*
X111085368Y-80073524D02*
X111013940Y-80168762D01*
X111013940Y-80168762D02*
X111013940Y-80359238D01*
X111013940Y-80359238D02*
X111085368Y-80454476D01*
X111085368Y-80454476D02*
X111156797Y-80502095D01*
X111156797Y-80502095D02*
X111299654Y-80549714D01*
X111942511Y-77390667D02*
X111942511Y-78057333D01*
X111942511Y-78057333D02*
X110442511Y-77628762D01*
X111942511Y-75422095D02*
X111942511Y-74945905D01*
X111942511Y-74945905D02*
X111228225Y-74898286D01*
X111228225Y-74898286D02*
X111299654Y-74945905D01*
X111299654Y-74945905D02*
X111371082Y-75041143D01*
X111371082Y-75041143D02*
X111371082Y-75279238D01*
X111371082Y-75279238D02*
X111299654Y-75374476D01*
X111299654Y-75374476D02*
X111228225Y-75422095D01*
X111228225Y-75422095D02*
X111085368Y-75469714D01*
X111085368Y-75469714D02*
X110728225Y-75469714D01*
X110728225Y-75469714D02*
X110585368Y-75422095D01*
X110585368Y-75422095D02*
X110513940Y-75374476D01*
X110513940Y-75374476D02*
X110442511Y-75279238D01*
X110442511Y-75279238D02*
X110442511Y-75041143D01*
X110442511Y-75041143D02*
X110513940Y-74945905D01*
X110513940Y-74945905D02*
X110585368Y-74898286D01*
X111942511Y-72310667D02*
X111942511Y-72929714D01*
X111942511Y-72929714D02*
X111371082Y-72596381D01*
X111371082Y-72596381D02*
X111371082Y-72739238D01*
X111371082Y-72739238D02*
X111299654Y-72834476D01*
X111299654Y-72834476D02*
X111228225Y-72882095D01*
X111228225Y-72882095D02*
X111085368Y-72929714D01*
X111085368Y-72929714D02*
X110728225Y-72929714D01*
X110728225Y-72929714D02*
X110585368Y-72882095D01*
X110585368Y-72882095D02*
X110513940Y-72834476D01*
X110513940Y-72834476D02*
X110442511Y-72739238D01*
X110442511Y-72739238D02*
X110442511Y-72453524D01*
X110442511Y-72453524D02*
X110513940Y-72358286D01*
X110513940Y-72358286D02*
X110585368Y-72310667D01*
X110442511Y-70389714D02*
X110442511Y-69818286D01*
X110442511Y-70104000D02*
X111942511Y-70104000D01*
X111942511Y-70104000D02*
X111728225Y-70008762D01*
X111728225Y-70008762D02*
X111585368Y-69913524D01*
X111585368Y-69913524D02*
X111513940Y-69818286D01*
D12*
X122555000Y-78994000D02*
X122555000Y-81534000D01*
X122555000Y-73914000D02*
X122555000Y-76454000D01*
D10*
X119955000Y-68774000D02*
X122615000Y-68774000D01*
X122615000Y-71374000D01*
X119955000Y-71374000D01*
X119955000Y-68774000D01*
X107255000Y-68774000D02*
X109915000Y-68774000D01*
X109915000Y-71374000D01*
X107255000Y-71374000D01*
X107255000Y-68774000D01*
G36*
X107255000Y-68774000D02*
G01*
X109915000Y-68774000D01*
X109915000Y-71374000D01*
X107255000Y-71374000D01*
X107255000Y-68774000D01*
G37*
X107255000Y-70104000D02*
X107255000Y-68774000D01*
X109915000Y-71374000D02*
X109915000Y-119694000D01*
X107255000Y-119694000D02*
X109915000Y-119694000D01*
X107255000Y-71374000D02*
X107255000Y-119694000D01*
X107255000Y-68774000D02*
X108585000Y-68774000D01*
X107255000Y-71374000D02*
X109915000Y-71374000D01*
X119955000Y-70104000D02*
X119955000Y-68774000D01*
X122615000Y-71374000D02*
X122615000Y-119694000D01*
X119955000Y-119694000D02*
X122615000Y-119694000D01*
X119955000Y-71374000D02*
X119955000Y-119694000D01*
X119955000Y-68774000D02*
X121285000Y-68774000D01*
X119955000Y-71374000D02*
X122615000Y-71374000D01*
X114935000Y-68774000D02*
X117535000Y-68774000D01*
X112335000Y-68774000D02*
X113665000Y-68774000D01*
X112335000Y-71374000D02*
X112335000Y-119694000D01*
X112335000Y-70104000D02*
X112335000Y-68774000D01*
X112335000Y-71374000D02*
X114935000Y-71374000D01*
X112335000Y-119694000D02*
X117535000Y-119694000D01*
X117535000Y-68774000D02*
X117535000Y-119694000D01*
X114935000Y-71374000D02*
X114935000Y-68774000D01*
%LPC*%
D13*
X108585000Y-70104000D03*
D14*
X108585000Y-72644000D03*
X108585000Y-75184000D03*
X108585000Y-77724000D03*
X108585000Y-80264000D03*
X108585000Y-82804000D03*
X108585000Y-85344000D03*
X108585000Y-87884000D03*
X108585000Y-90424000D03*
X108585000Y-92964000D03*
X108585000Y-95504000D03*
X108585000Y-98044000D03*
X108585000Y-100584000D03*
X108585000Y-103124000D03*
X108585000Y-105664000D03*
X108585000Y-108204000D03*
X108585000Y-110744000D03*
X108585000Y-113284000D03*
X108585000Y-115824000D03*
X108585000Y-118364000D03*
D13*
X121285000Y-70104000D03*
D14*
X121285000Y-72644000D03*
X121285000Y-75184000D03*
X121285000Y-77724000D03*
X121285000Y-80264000D03*
X121285000Y-82804000D03*
X121285000Y-85344000D03*
X121285000Y-87884000D03*
X121285000Y-90424000D03*
X121285000Y-92964000D03*
X121285000Y-95504000D03*
X121285000Y-98044000D03*
X121285000Y-100584000D03*
X121285000Y-103124000D03*
X121285000Y-105664000D03*
X121285000Y-108204000D03*
X121285000Y-110744000D03*
X121285000Y-113284000D03*
X121285000Y-115824000D03*
X121285000Y-118364000D03*
D13*
X113665000Y-70104000D03*
D14*
X116205000Y-70104000D03*
X113665000Y-72644000D03*
X116205000Y-72644000D03*
X113665000Y-75184000D03*
X116205000Y-75184000D03*
X113665000Y-77724000D03*
X116205000Y-77724000D03*
X113665000Y-80264000D03*
X116205000Y-80264000D03*
X113665000Y-82804000D03*
X116205000Y-82804000D03*
X113665000Y-85344000D03*
X116205000Y-85344000D03*
X113665000Y-87884000D03*
X116205000Y-87884000D03*
X113665000Y-90424000D03*
X116205000Y-90424000D03*
X113665000Y-92964000D03*
X116205000Y-92964000D03*
X113665000Y-95504000D03*
X116205000Y-95504000D03*
X113665000Y-98044000D03*
X116205000Y-98044000D03*
X113665000Y-100584000D03*
X116205000Y-100584000D03*
X113665000Y-103124000D03*
X116205000Y-103124000D03*
X113665000Y-105664000D03*
X116205000Y-105664000D03*
X113665000Y-108204000D03*
X116205000Y-108204000D03*
X113665000Y-110744000D03*
X116205000Y-110744000D03*
X113665000Y-113284000D03*
X116205000Y-113284000D03*
X113665000Y-115824000D03*
X116205000Y-115824000D03*
X113665000Y-118364000D03*
X116205000Y-118364000D03*
%LPD*%
M02*
