M48
; DRILL file {KiCad 7.0.7} date Thu Aug 24 22:48:04 2023
; FORMAT={-:-/ absolute / metric / decimal}
; #@! TF.CreationDate,2023-08-24T22:48:04-04:00
; #@! TF.GenerationSoftware,Kicad,Pcbnew,7.0.7
; #@! TF.FileFunction,Plated,1,2,PTH
FMAT,2
METRIC
; #@! TA.AperFunction,Plated,PTH,ComponentDrill
T1C1.000
%
G90
G05
T1
X108.585Y-70.104
X108.585Y-72.644
X108.585Y-75.184
X108.585Y-77.724
X108.585Y-80.264
X108.585Y-82.804
X108.585Y-85.344
X108.585Y-87.884
X108.585Y-90.424
X108.585Y-92.964
X108.585Y-95.504
X108.585Y-98.044
X108.585Y-100.584
X108.585Y-103.124
X108.585Y-105.664
X108.585Y-108.204
X108.585Y-110.744
X108.585Y-113.284
X108.585Y-115.824
X108.585Y-118.364
X113.665Y-70.104
X113.665Y-72.644
X113.665Y-75.184
X113.665Y-77.724
X113.665Y-80.264
X113.665Y-82.804
X113.665Y-85.344
X113.665Y-87.884
X113.665Y-90.424
X113.665Y-92.964
X113.665Y-95.504
X113.665Y-98.044
X113.665Y-100.584
X113.665Y-103.124
X113.665Y-105.664
X113.665Y-108.204
X113.665Y-110.744
X113.665Y-113.284
X113.665Y-115.824
X113.665Y-118.364
X116.205Y-70.104
X116.205Y-72.644
X116.205Y-75.184
X116.205Y-77.724
X116.205Y-80.264
X116.205Y-82.804
X116.205Y-85.344
X116.205Y-87.884
X116.205Y-90.424
X116.205Y-92.964
X116.205Y-95.504
X116.205Y-98.044
X116.205Y-100.584
X116.205Y-103.124
X116.205Y-105.664
X116.205Y-108.204
X116.205Y-110.744
X116.205Y-113.284
X116.205Y-115.824
X116.205Y-118.364
X121.285Y-70.104
X121.285Y-72.644
X121.285Y-75.184
X121.285Y-77.724
X121.285Y-80.264
X121.285Y-82.804
X121.285Y-85.344
X121.285Y-87.884
X121.285Y-90.424
X121.285Y-92.964
X121.285Y-95.504
X121.285Y-98.044
X121.285Y-100.584
X121.285Y-103.124
X121.285Y-105.664
X121.285Y-108.204
X121.285Y-110.744
X121.285Y-113.284
X121.285Y-115.824
X121.285Y-118.364
T0
M30
