G04 #@! TF.GenerationSoftware,KiCad,Pcbnew,7.0.7*
G04 #@! TF.CreationDate,2023-08-26T15:25:03-04:00*
G04 #@! TF.ProjectId,68-pin 1.778mm to 2.54mm adaptor,36382d70-696e-4203-912e-3737386d6d20,1*
G04 #@! TF.SameCoordinates,Original*
G04 #@! TF.FileFunction,Soldermask,Top*
G04 #@! TF.FilePolarity,Negative*
%FSLAX46Y46*%
G04 Gerber Fmt 4.6, Leading zero omitted, Abs format (unit mm)*
G04 Created by KiCad (PCBNEW 7.0.7) date 2023-08-26 15:25:03*
%MOMM*%
%LPD*%
G01*
G04 APERTURE LIST*
%ADD10R,2.540000X1.016000*%
%ADD11O,2.540000X1.016000*%
%ADD12R,1.700000X1.700000*%
%ADD13O,1.700000X1.700000*%
G04 APERTURE END LIST*
D10*
X118110000Y-57150000D03*
D11*
X118110000Y-58928000D03*
X118110000Y-60706000D03*
X118110000Y-62484000D03*
X118110000Y-64262000D03*
X118110000Y-66040000D03*
X118110000Y-67818000D03*
X118110000Y-69596000D03*
X118110000Y-71374000D03*
X118110000Y-73152000D03*
X118110000Y-74930000D03*
X118110000Y-76708000D03*
X118110000Y-78486000D03*
X118110000Y-80264000D03*
X118110000Y-82042000D03*
X118110000Y-83820000D03*
X118110000Y-85598000D03*
X118110000Y-87376000D03*
X118110000Y-89154000D03*
X118110000Y-90932000D03*
X118110000Y-92710000D03*
X118110000Y-94488000D03*
X118110000Y-96266000D03*
X118110000Y-98044000D03*
X118110000Y-99822000D03*
X118110000Y-101600000D03*
X118110000Y-103378000D03*
X118110000Y-105156000D03*
X118110000Y-106934000D03*
X118110000Y-108712000D03*
X118110000Y-110490000D03*
X118110000Y-112268000D03*
X137160000Y-112268000D03*
X137160000Y-110490000D03*
X137160000Y-108712000D03*
X137160000Y-106934000D03*
X137160000Y-105156000D03*
X137160000Y-103378000D03*
X137160000Y-101600000D03*
X137160000Y-99822000D03*
X137160000Y-98044000D03*
X137160000Y-96266000D03*
X137160000Y-94488000D03*
X137160000Y-92710000D03*
X137160000Y-90932000D03*
X137160000Y-89154000D03*
X137160000Y-87376000D03*
X137160000Y-85598000D03*
X137160000Y-83820000D03*
X137160000Y-82042000D03*
X137160000Y-80264000D03*
X137160000Y-78486000D03*
X137160000Y-76708000D03*
X137160000Y-74930000D03*
X137160000Y-73152000D03*
X137160000Y-71374000D03*
X137160000Y-69596000D03*
X137160000Y-67818000D03*
X137160000Y-66040000D03*
X137160000Y-64262000D03*
X137160000Y-62484000D03*
X137160000Y-60706000D03*
X137160000Y-58928000D03*
X137160000Y-57150000D03*
D12*
X143510000Y-45720000D03*
D13*
X143510000Y-48260000D03*
X143510000Y-50800000D03*
X143510000Y-53340000D03*
X143510000Y-55880000D03*
X143510000Y-58420000D03*
X143510000Y-60960000D03*
X143510000Y-63500000D03*
X143510000Y-66040000D03*
X143510000Y-68580000D03*
X143510000Y-71120000D03*
X143510000Y-73660000D03*
X143510000Y-76200000D03*
X143510000Y-78740000D03*
X143510000Y-81280000D03*
X143510000Y-83820000D03*
X143510000Y-86360000D03*
X143510000Y-88900000D03*
X143510000Y-91440000D03*
X143510000Y-93980000D03*
X143510000Y-96520000D03*
X143510000Y-99060000D03*
X143510000Y-101600000D03*
X143510000Y-104140000D03*
X143510000Y-106680000D03*
X143510000Y-109220000D03*
X143510000Y-111760000D03*
X143510000Y-114300000D03*
X143510000Y-116840000D03*
X143510000Y-119380000D03*
X143510000Y-121920000D03*
X143510000Y-124460000D03*
D12*
X111760000Y-45720000D03*
D13*
X111760000Y-48260000D03*
X111760000Y-50800000D03*
X111760000Y-53340000D03*
X111760000Y-55880000D03*
X111760000Y-58420000D03*
X111760000Y-60960000D03*
X111760000Y-63500000D03*
X111760000Y-66040000D03*
X111760000Y-68580000D03*
X111760000Y-71120000D03*
X111760000Y-73660000D03*
X111760000Y-76200000D03*
X111760000Y-78740000D03*
X111760000Y-81280000D03*
X111760000Y-83820000D03*
X111760000Y-86360000D03*
X111760000Y-88900000D03*
X111760000Y-91440000D03*
X111760000Y-93980000D03*
X111760000Y-96520000D03*
X111760000Y-99060000D03*
X111760000Y-101600000D03*
X111760000Y-104140000D03*
X111760000Y-106680000D03*
X111760000Y-109220000D03*
X111760000Y-111760000D03*
X111760000Y-114300000D03*
X111760000Y-116840000D03*
X111760000Y-119380000D03*
X111760000Y-121920000D03*
X111760000Y-124460000D03*
M02*
