M48
; DRILL file {KiCad 7.0.7} date Sat Aug 26 15:25:11 2023
; FORMAT={-:-/ absolute / metric / decimal}
; #@! TF.CreationDate,2023-08-26T15:25:11-04:00
; #@! TF.GenerationSoftware,Kicad,Pcbnew,7.0.7
; #@! TF.FileFunction,Plated,1,2,PTH
FMAT,2
METRIC
; #@! TA.AperFunction,Plated,PTH,ComponentDrill
T1C0.762
; #@! TA.AperFunction,Plated,PTH,ComponentDrill
T2C1.000
%
G90
G05
T1
X118.11Y-57.15
X118.11Y-58.928
X118.11Y-60.706
X118.11Y-62.484
X118.11Y-64.262
X118.11Y-66.04
X118.11Y-67.818
X118.11Y-69.596
X118.11Y-71.374
X118.11Y-73.152
X118.11Y-74.93
X118.11Y-76.708
X118.11Y-78.486
X118.11Y-80.264
X118.11Y-82.042
X118.11Y-83.82
X118.11Y-85.598
X118.11Y-87.376
X118.11Y-89.154
X118.11Y-90.932
X118.11Y-92.71
X118.11Y-94.488
X118.11Y-96.266
X118.11Y-98.044
X118.11Y-99.822
X118.11Y-101.6
X118.11Y-103.378
X118.11Y-105.156
X118.11Y-106.934
X118.11Y-108.712
X118.11Y-110.49
X118.11Y-112.268
X137.16Y-57.15
X137.16Y-58.928
X137.16Y-60.706
X137.16Y-62.484
X137.16Y-64.262
X137.16Y-66.04
X137.16Y-67.818
X137.16Y-69.596
X137.16Y-71.374
X137.16Y-73.152
X137.16Y-74.93
X137.16Y-76.708
X137.16Y-78.486
X137.16Y-80.264
X137.16Y-82.042
X137.16Y-83.82
X137.16Y-85.598
X137.16Y-87.376
X137.16Y-89.154
X137.16Y-90.932
X137.16Y-92.71
X137.16Y-94.488
X137.16Y-96.266
X137.16Y-98.044
X137.16Y-99.822
X137.16Y-101.6
X137.16Y-103.378
X137.16Y-105.156
X137.16Y-106.934
X137.16Y-108.712
X137.16Y-110.49
X137.16Y-112.268
T2
X111.76Y-45.72
X111.76Y-48.26
X111.76Y-50.8
X111.76Y-53.34
X111.76Y-55.88
X111.76Y-58.42
X111.76Y-60.96
X111.76Y-63.5
X111.76Y-66.04
X111.76Y-68.58
X111.76Y-71.12
X111.76Y-73.66
X111.76Y-76.2
X111.76Y-78.74
X111.76Y-81.28
X111.76Y-83.82
X111.76Y-86.36
X111.76Y-88.9
X111.76Y-91.44
X111.76Y-93.98
X111.76Y-96.52
X111.76Y-99.06
X111.76Y-101.6
X111.76Y-104.14
X111.76Y-106.68
X111.76Y-109.22
X111.76Y-111.76
X111.76Y-114.3
X111.76Y-116.84
X111.76Y-119.38
X111.76Y-121.92
X111.76Y-124.46
X143.51Y-45.72
X143.51Y-48.26
X143.51Y-50.8
X143.51Y-53.34
X143.51Y-55.88
X143.51Y-58.42
X143.51Y-60.96
X143.51Y-63.5
X143.51Y-66.04
X143.51Y-68.58
X143.51Y-71.12
X143.51Y-73.66
X143.51Y-76.2
X143.51Y-78.74
X143.51Y-81.28
X143.51Y-83.82
X143.51Y-86.36
X143.51Y-88.9
X143.51Y-91.44
X143.51Y-93.98
X143.51Y-96.52
X143.51Y-99.06
X143.51Y-101.6
X143.51Y-104.14
X143.51Y-106.68
X143.51Y-109.22
X143.51Y-111.76
X143.51Y-114.3
X143.51Y-116.84
X143.51Y-119.38
X143.51Y-121.92
X143.51Y-124.46
T0
M30
