G04 #@! TF.GenerationSoftware,KiCad,Pcbnew,7.0.7*
G04 #@! TF.CreationDate,2023-09-11T08:48:11-04:00*
G04 #@! TF.ProjectId,Breadboard supply rail,42726561-6462-46f6-9172-642073757070,rev?*
G04 #@! TF.SameCoordinates,Original*
G04 #@! TF.FileFunction,Copper,L2,Bot*
G04 #@! TF.FilePolarity,Positive*
%FSLAX46Y46*%
G04 Gerber Fmt 4.6, Leading zero omitted, Abs format (unit mm)*
G04 Created by KiCad (PCBNEW 7.0.7) date 2023-09-11 08:48:11*
%MOMM*%
%LPD*%
G01*
G04 APERTURE LIST*
G04 Aperture macros list*
%AMRoundRect*
0 Rectangle with rounded corners*
0 $1 Rounding radius*
0 $2 $3 $4 $5 $6 $7 $8 $9 X,Y pos of 4 corners*
0 Add a 4 corners polygon primitive as box body*
4,1,4,$2,$3,$4,$5,$6,$7,$8,$9,$2,$3,0*
0 Add four circle primitives for the rounded corners*
1,1,$1+$1,$2,$3*
1,1,$1+$1,$4,$5*
1,1,$1+$1,$6,$7*
1,1,$1+$1,$8,$9*
0 Add four rect primitives between the rounded corners*
20,1,$1+$1,$2,$3,$4,$5,0*
20,1,$1+$1,$4,$5,$6,$7,0*
20,1,$1+$1,$6,$7,$8,$9,0*
20,1,$1+$1,$8,$9,$2,$3,0*%
G04 Aperture macros list end*
G04 #@! TA.AperFunction,ComponentPad*
%ADD10R,1.600000X1.600000*%
G04 #@! TD*
G04 #@! TA.AperFunction,ComponentPad*
%ADD11C,1.600000*%
G04 #@! TD*
G04 #@! TA.AperFunction,ComponentPad*
%ADD12C,2.600000*%
G04 #@! TD*
G04 #@! TA.AperFunction,ComponentPad*
%ADD13R,1.700000X1.700000*%
G04 #@! TD*
G04 #@! TA.AperFunction,ComponentPad*
%ADD14O,1.700000X1.700000*%
G04 #@! TD*
G04 #@! TA.AperFunction,ComponentPad*
%ADD15R,1.635000X1.635000*%
G04 #@! TD*
G04 #@! TA.AperFunction,ComponentPad*
%ADD16C,1.635000*%
G04 #@! TD*
G04 #@! TA.AperFunction,ComponentPad*
%ADD17O,1.600000X1.600000*%
G04 #@! TD*
G04 #@! TA.AperFunction,ComponentPad*
%ADD18R,1.800000X1.800000*%
G04 #@! TD*
G04 #@! TA.AperFunction,ComponentPad*
%ADD19C,1.800000*%
G04 #@! TD*
G04 #@! TA.AperFunction,ComponentPad*
%ADD20R,3.500000X3.500000*%
G04 #@! TD*
G04 #@! TA.AperFunction,ComponentPad*
%ADD21RoundRect,0.750000X0.750000X1.000000X-0.750000X1.000000X-0.750000X-1.000000X0.750000X-1.000000X0*%
G04 #@! TD*
G04 #@! TA.AperFunction,ComponentPad*
%ADD22RoundRect,0.875000X0.875000X0.875000X-0.875000X0.875000X-0.875000X-0.875000X0.875000X-0.875000X0*%
G04 #@! TD*
G04 #@! TA.AperFunction,Conductor*
%ADD23C,2.540000*%
G04 #@! TD*
G04 APERTURE END LIST*
D10*
X161925000Y-68250000D03*
D11*
X161925000Y-70750000D03*
D10*
X135392800Y-69469000D03*
D11*
X132892800Y-69469000D03*
D12*
X156995400Y-118058200D03*
X156995400Y-122758200D03*
X156995400Y-127458200D03*
D11*
X135514400Y-108102400D03*
X133014400Y-108102400D03*
D13*
X135382000Y-64135000D03*
D14*
X132842000Y-64135000D03*
D13*
X163830000Y-64135000D03*
D14*
X161290000Y-64135000D03*
X158750000Y-64135000D03*
X156210000Y-64135000D03*
D11*
X135514400Y-84429600D03*
X133014400Y-84429600D03*
D13*
X135387000Y-138677800D03*
D14*
X132847000Y-138677800D03*
D11*
X160020000Y-89662000D03*
X160020000Y-87162000D03*
D15*
X149860000Y-55875000D03*
D16*
X149860000Y-58415000D03*
X147320000Y-55875000D03*
X147320000Y-58415000D03*
D11*
X135514400Y-88906000D03*
X133014400Y-88906000D03*
D13*
X163830000Y-138684000D03*
D14*
X161290000Y-138684000D03*
X158750000Y-138684000D03*
X156210000Y-138684000D03*
D10*
X135509000Y-101600000D03*
D11*
X133009000Y-101600000D03*
X154920000Y-83480000D03*
D17*
X165080000Y-83480000D03*
D10*
X135382000Y-133350000D03*
D11*
X132882000Y-133350000D03*
D18*
X160000000Y-79675000D03*
D19*
X160000000Y-77135000D03*
D11*
X154940000Y-132100000D03*
X154940000Y-134600000D03*
D15*
X149860000Y-100330000D03*
D16*
X149860000Y-102870000D03*
X147320000Y-100330000D03*
X147320000Y-102870000D03*
D15*
X143002000Y-100330000D03*
D16*
X143002000Y-102870000D03*
X140462000Y-100330000D03*
X140462000Y-102870000D03*
D11*
X154940000Y-68250000D03*
X154940000Y-70750000D03*
X154940000Y-100350000D03*
X154940000Y-102850000D03*
X155575000Y-89662000D03*
X155575000Y-87162000D03*
X135412800Y-126695200D03*
X132912800Y-126695200D03*
D15*
X143002000Y-55880000D03*
D16*
X143002000Y-58420000D03*
X140462000Y-55880000D03*
X140462000Y-58420000D03*
D11*
X164465000Y-89662000D03*
X164465000Y-87162000D03*
D20*
X154655000Y-111125000D03*
D21*
X160655000Y-111125000D03*
D22*
X157655000Y-106425000D03*
D10*
X161925000Y-132120000D03*
D11*
X161925000Y-134620000D03*
D10*
X161925000Y-100370000D03*
D11*
X161925000Y-102870000D03*
X135514400Y-93370400D03*
X133014400Y-93370400D03*
X135463600Y-76149200D03*
X132963600Y-76149200D03*
D23*
X154655000Y-115717800D02*
X156995400Y-118058200D01*
X154655000Y-111125000D02*
X154655000Y-115717800D01*
G04 #@! TA.AperFunction,Conductor*
G36*
X144922469Y-53995185D02*
G01*
X144943111Y-54011819D01*
X145022085Y-54090793D01*
X145055570Y-54152116D01*
X145050586Y-54221808D01*
X145022085Y-54266155D01*
X145019934Y-54268306D01*
X145001146Y-54283725D01*
X144977516Y-54299514D01*
X144977514Y-54299516D01*
X144961725Y-54323146D01*
X144948858Y-54338825D01*
X144946614Y-54342183D01*
X144937056Y-54360066D01*
X144921267Y-54383696D01*
X144921266Y-54383700D01*
X144915721Y-54411573D01*
X144909833Y-54430985D01*
X144909045Y-54434948D01*
X144907058Y-54455127D01*
X144901514Y-54483000D01*
X144907057Y-54510866D01*
X144909045Y-54531057D01*
X144909833Y-54535016D01*
X144915721Y-54554426D01*
X144920225Y-54577066D01*
X144921266Y-54582301D01*
X144937054Y-54605930D01*
X144946614Y-54623816D01*
X144948863Y-54627181D01*
X144961727Y-54642856D01*
X144977514Y-54666482D01*
X144977516Y-54666484D01*
X145001142Y-54682271D01*
X145016817Y-54695135D01*
X145018500Y-54696259D01*
X145018503Y-54696262D01*
X145018505Y-54696263D01*
X145020188Y-54697387D01*
X145038075Y-54706949D01*
X145061697Y-54722733D01*
X145061699Y-54722734D01*
X145089575Y-54728278D01*
X145108974Y-54734164D01*
X145110959Y-54734559D01*
X145110962Y-54734560D01*
X145110965Y-54734560D01*
X145112945Y-54734954D01*
X145133131Y-54736942D01*
X145158035Y-54741896D01*
X145160482Y-54742383D01*
X145160964Y-54742635D01*
X145161518Y-54742383D01*
X145166411Y-54741409D01*
X145188867Y-54736942D01*
X145209057Y-54734954D01*
X145211035Y-54734560D01*
X145211038Y-54734560D01*
X145211040Y-54734559D01*
X145213024Y-54734164D01*
X145232427Y-54728278D01*
X145260301Y-54722734D01*
X145283929Y-54706945D01*
X145301812Y-54697387D01*
X145303494Y-54696263D01*
X145303497Y-54696262D01*
X145303499Y-54696259D01*
X145305183Y-54695135D01*
X145320851Y-54682274D01*
X145344484Y-54666484D01*
X145360274Y-54642851D01*
X145373135Y-54627183D01*
X145374259Y-54625499D01*
X145374262Y-54625497D01*
X145374263Y-54625494D01*
X145375387Y-54623812D01*
X145384945Y-54605929D01*
X145400734Y-54582301D01*
X145406278Y-54554426D01*
X145411971Y-54535661D01*
X145412559Y-54533041D01*
X145412559Y-54533040D01*
X145412560Y-54533038D01*
X145412771Y-54528699D01*
X145415006Y-54510548D01*
X145420486Y-54483000D01*
X145415005Y-54455445D01*
X145412771Y-54437295D01*
X145412560Y-54432960D01*
X145411971Y-54430335D01*
X145406278Y-54411568D01*
X145400735Y-54383701D01*
X145400733Y-54383697D01*
X145384949Y-54360075D01*
X145375387Y-54342188D01*
X145374263Y-54340505D01*
X145374262Y-54340503D01*
X145374259Y-54340500D01*
X145373135Y-54338817D01*
X145360271Y-54323142D01*
X145344484Y-54299516D01*
X145344482Y-54299514D01*
X145320856Y-54283727D01*
X145302068Y-54268308D01*
X145299914Y-54266154D01*
X145266429Y-54204831D01*
X145271413Y-54135139D01*
X145299910Y-54090796D01*
X145378890Y-54011816D01*
X145440212Y-53978334D01*
X145466569Y-53975500D01*
X167515500Y-53975500D01*
X167582539Y-53995185D01*
X167628294Y-54047989D01*
X167639500Y-54099500D01*
X167639500Y-142750500D01*
X167619815Y-142817539D01*
X167567011Y-142863294D01*
X167515500Y-142874500D01*
X152524500Y-142874500D01*
X152457461Y-142854815D01*
X152411706Y-142802011D01*
X152400500Y-142750500D01*
X152400500Y-138684000D01*
X159934341Y-138684000D01*
X159954936Y-138919403D01*
X159954938Y-138919413D01*
X160016094Y-139147655D01*
X160016096Y-139147659D01*
X160016097Y-139147663D01*
X160100499Y-139328663D01*
X160115965Y-139361830D01*
X160115967Y-139361834D01*
X160224281Y-139516521D01*
X160251505Y-139555401D01*
X160418599Y-139722495D01*
X160515384Y-139790264D01*
X160612165Y-139858032D01*
X160612167Y-139858033D01*
X160612170Y-139858035D01*
X160826337Y-139957903D01*
X161054592Y-140019063D01*
X161231034Y-140034500D01*
X161289999Y-140039659D01*
X161290000Y-140039659D01*
X161290001Y-140039659D01*
X161348966Y-140034500D01*
X161525408Y-140019063D01*
X161753663Y-139957903D01*
X161967830Y-139858035D01*
X162161401Y-139722495D01*
X162283329Y-139600566D01*
X162344648Y-139567084D01*
X162414340Y-139572068D01*
X162470274Y-139613939D01*
X162487189Y-139644917D01*
X162536202Y-139776328D01*
X162536206Y-139776335D01*
X162622452Y-139891544D01*
X162622455Y-139891547D01*
X162737664Y-139977793D01*
X162737671Y-139977797D01*
X162872517Y-140028091D01*
X162872516Y-140028091D01*
X162879444Y-140028835D01*
X162932127Y-140034500D01*
X164727872Y-140034499D01*
X164787483Y-140028091D01*
X164922331Y-139977796D01*
X165037546Y-139891546D01*
X165123796Y-139776331D01*
X165174091Y-139641483D01*
X165180500Y-139581873D01*
X165180499Y-137786128D01*
X165174091Y-137726517D01*
X165172810Y-137723083D01*
X165123797Y-137591671D01*
X165123793Y-137591664D01*
X165037547Y-137476455D01*
X165037544Y-137476452D01*
X164922335Y-137390206D01*
X164922328Y-137390202D01*
X164787482Y-137339908D01*
X164787483Y-137339908D01*
X164727883Y-137333501D01*
X164727881Y-137333500D01*
X164727873Y-137333500D01*
X164727864Y-137333500D01*
X162932129Y-137333500D01*
X162932123Y-137333501D01*
X162872516Y-137339908D01*
X162737671Y-137390202D01*
X162737664Y-137390206D01*
X162622455Y-137476452D01*
X162622452Y-137476455D01*
X162536206Y-137591664D01*
X162536203Y-137591669D01*
X162487189Y-137723083D01*
X162445317Y-137779016D01*
X162379853Y-137803433D01*
X162311580Y-137788581D01*
X162283326Y-137767430D01*
X162161402Y-137645506D01*
X162161395Y-137645501D01*
X161967834Y-137509967D01*
X161967830Y-137509965D01*
X161967828Y-137509964D01*
X161753663Y-137410097D01*
X161753659Y-137410096D01*
X161753655Y-137410094D01*
X161525413Y-137348938D01*
X161525403Y-137348936D01*
X161290001Y-137328341D01*
X161289999Y-137328341D01*
X161054596Y-137348936D01*
X161054586Y-137348938D01*
X160826344Y-137410094D01*
X160826335Y-137410098D01*
X160612171Y-137509964D01*
X160612169Y-137509965D01*
X160418597Y-137645505D01*
X160251505Y-137812597D01*
X160115965Y-138006169D01*
X160115964Y-138006171D01*
X160016098Y-138220335D01*
X160016094Y-138220344D01*
X159954938Y-138448586D01*
X159954936Y-138448596D01*
X159934341Y-138683999D01*
X159934341Y-138684000D01*
X152400500Y-138684000D01*
X152400500Y-132100001D01*
X153634532Y-132100001D01*
X153654364Y-132326686D01*
X153654366Y-132326697D01*
X153713258Y-132546488D01*
X153713261Y-132546497D01*
X153809431Y-132752732D01*
X153809432Y-132752734D01*
X153939954Y-132939141D01*
X154100858Y-133100045D01*
X154100861Y-133100047D01*
X154287266Y-133230568D01*
X154493504Y-133326739D01*
X154713308Y-133385635D01*
X154875230Y-133399801D01*
X154939998Y-133405468D01*
X154940000Y-133405468D01*
X154940002Y-133405468D01*
X154996673Y-133400509D01*
X155166692Y-133385635D01*
X155386496Y-133326739D01*
X155592734Y-133230568D01*
X155779139Y-133100047D01*
X155911316Y-132967870D01*
X160624500Y-132967870D01*
X160624501Y-132967876D01*
X160630908Y-133027483D01*
X160681202Y-133162328D01*
X160681206Y-133162335D01*
X160767452Y-133277544D01*
X160767455Y-133277547D01*
X160882664Y-133363793D01*
X160882671Y-133363797D01*
X161017517Y-133414091D01*
X161017516Y-133414091D01*
X161024444Y-133414835D01*
X161077127Y-133420500D01*
X162772872Y-133420499D01*
X162832483Y-133414091D01*
X162967331Y-133363796D01*
X163082546Y-133277546D01*
X163168796Y-133162331D01*
X163219091Y-133027483D01*
X163225500Y-132967873D01*
X163225499Y-131272128D01*
X163219091Y-131212517D01*
X163177107Y-131099953D01*
X163168797Y-131077671D01*
X163168793Y-131077664D01*
X163082547Y-130962455D01*
X163082544Y-130962452D01*
X162967335Y-130876206D01*
X162967328Y-130876202D01*
X162832482Y-130825908D01*
X162832483Y-130825908D01*
X162772883Y-130819501D01*
X162772881Y-130819500D01*
X162772873Y-130819500D01*
X162772864Y-130819500D01*
X161077129Y-130819500D01*
X161077123Y-130819501D01*
X161017516Y-130825908D01*
X160882671Y-130876202D01*
X160882664Y-130876206D01*
X160767455Y-130962452D01*
X160767452Y-130962455D01*
X160681206Y-131077664D01*
X160681202Y-131077671D01*
X160630908Y-131212517D01*
X160625711Y-131260861D01*
X160624501Y-131272123D01*
X160624500Y-131272135D01*
X160624500Y-132967870D01*
X155911316Y-132967870D01*
X155940047Y-132939139D01*
X156070568Y-132752734D01*
X156166739Y-132546496D01*
X156225635Y-132326692D01*
X156245468Y-132100000D01*
X156241610Y-132055908D01*
X156225635Y-131873313D01*
X156225635Y-131873308D01*
X156166739Y-131653504D01*
X156070568Y-131447266D01*
X155947936Y-131272128D01*
X155940045Y-131260858D01*
X155779141Y-131099954D01*
X155592734Y-130969432D01*
X155592732Y-130969431D01*
X155386497Y-130873261D01*
X155386488Y-130873258D01*
X155166697Y-130814366D01*
X155166693Y-130814365D01*
X155166692Y-130814365D01*
X155166691Y-130814364D01*
X155166686Y-130814364D01*
X154940002Y-130794532D01*
X154939998Y-130794532D01*
X154713313Y-130814364D01*
X154713302Y-130814366D01*
X154493511Y-130873258D01*
X154493502Y-130873261D01*
X154287267Y-130969431D01*
X154287265Y-130969432D01*
X154100858Y-131099954D01*
X153939954Y-131260858D01*
X153809432Y-131447265D01*
X153809431Y-131447267D01*
X153713261Y-131653502D01*
X153713258Y-131653511D01*
X153654366Y-131873302D01*
X153654364Y-131873313D01*
X153634532Y-132099998D01*
X153634532Y-132100001D01*
X152400500Y-132100001D01*
X152400500Y-127458204D01*
X155189851Y-127458204D01*
X155210016Y-127727301D01*
X155267884Y-127980835D01*
X155270066Y-127990395D01*
X155368657Y-128241598D01*
X155503585Y-128475302D01*
X155639480Y-128645709D01*
X155671842Y-128686289D01*
X155858583Y-128859558D01*
X155869659Y-128869835D01*
X156092626Y-129021851D01*
X156335759Y-129138938D01*
X156593628Y-129218480D01*
X156593629Y-129218480D01*
X156593632Y-129218481D01*
X156860463Y-129258699D01*
X156860468Y-129258699D01*
X156860471Y-129258700D01*
X156860472Y-129258700D01*
X157130328Y-129258700D01*
X157130329Y-129258700D01*
X157130336Y-129258699D01*
X157397167Y-129218481D01*
X157397168Y-129218480D01*
X157397172Y-129218480D01*
X157655041Y-129138938D01*
X157898175Y-129021851D01*
X158121141Y-128869835D01*
X158318961Y-128686285D01*
X158487215Y-128475302D01*
X158622143Y-128241598D01*
X158720734Y-127990395D01*
X158780783Y-127727303D01*
X158800949Y-127458200D01*
X158780783Y-127189097D01*
X158720734Y-126926005D01*
X158622143Y-126674802D01*
X158487215Y-126441098D01*
X158318961Y-126230115D01*
X158318960Y-126230114D01*
X158318957Y-126230110D01*
X158121141Y-126046565D01*
X158115127Y-126042465D01*
X157898175Y-125894549D01*
X157898169Y-125894546D01*
X157898168Y-125894545D01*
X157898167Y-125894544D01*
X157655043Y-125777463D01*
X157655045Y-125777463D01*
X157397173Y-125697920D01*
X157397167Y-125697918D01*
X157130336Y-125657700D01*
X157130329Y-125657700D01*
X156860471Y-125657700D01*
X156860463Y-125657700D01*
X156593632Y-125697918D01*
X156593626Y-125697920D01*
X156335758Y-125777462D01*
X156092630Y-125894546D01*
X155869658Y-126046565D01*
X155671842Y-126230110D01*
X155503585Y-126441098D01*
X155368658Y-126674799D01*
X155368656Y-126674803D01*
X155270066Y-126926004D01*
X155270064Y-126926011D01*
X155210016Y-127189098D01*
X155189851Y-127458195D01*
X155189851Y-127458204D01*
X152400500Y-127458204D01*
X152400500Y-122758204D01*
X155189851Y-122758204D01*
X155210016Y-123027301D01*
X155270064Y-123290388D01*
X155270066Y-123290395D01*
X155368657Y-123541598D01*
X155503585Y-123775302D01*
X155639480Y-123945709D01*
X155671842Y-123986289D01*
X155858583Y-124159558D01*
X155869659Y-124169835D01*
X156092626Y-124321851D01*
X156335759Y-124438938D01*
X156593628Y-124518480D01*
X156593629Y-124518480D01*
X156593632Y-124518481D01*
X156860463Y-124558699D01*
X156860468Y-124558699D01*
X156860471Y-124558700D01*
X156860472Y-124558700D01*
X157130328Y-124558700D01*
X157130329Y-124558700D01*
X157130336Y-124558699D01*
X157397167Y-124518481D01*
X157397168Y-124518480D01*
X157397172Y-124518480D01*
X157655041Y-124438938D01*
X157898175Y-124321851D01*
X158121141Y-124169835D01*
X158318961Y-123986285D01*
X158487215Y-123775302D01*
X158622143Y-123541598D01*
X158720734Y-123290395D01*
X158780783Y-123027303D01*
X158800949Y-122758200D01*
X158780783Y-122489097D01*
X158720734Y-122226005D01*
X158622143Y-121974802D01*
X158487215Y-121741098D01*
X158318961Y-121530115D01*
X158318960Y-121530114D01*
X158318957Y-121530110D01*
X158121141Y-121346565D01*
X158121140Y-121346565D01*
X157898175Y-121194549D01*
X157898169Y-121194546D01*
X157898168Y-121194545D01*
X157898167Y-121194544D01*
X157655043Y-121077463D01*
X157655045Y-121077463D01*
X157397173Y-120997920D01*
X157397167Y-120997918D01*
X157130336Y-120957700D01*
X157130329Y-120957700D01*
X156860471Y-120957700D01*
X156860463Y-120957700D01*
X156593632Y-120997918D01*
X156593626Y-120997920D01*
X156335758Y-121077462D01*
X156092630Y-121194546D01*
X155869658Y-121346565D01*
X155671842Y-121530110D01*
X155503585Y-121741098D01*
X155368658Y-121974799D01*
X155368656Y-121974803D01*
X155270066Y-122226004D01*
X155270064Y-122226011D01*
X155210016Y-122489098D01*
X155189851Y-122758195D01*
X155189851Y-122758204D01*
X152400500Y-122758204D01*
X152400500Y-113370258D01*
X152420185Y-113303219D01*
X152472989Y-113257464D01*
X152542147Y-113247520D01*
X152598810Y-113270991D01*
X152662669Y-113318796D01*
X152662670Y-113318796D01*
X152662673Y-113318798D01*
X152747214Y-113350329D01*
X152797517Y-113369091D01*
X152797518Y-113369091D01*
X152803832Y-113371446D01*
X152859766Y-113413316D01*
X152884184Y-113478781D01*
X152884500Y-113487628D01*
X152884500Y-115684669D01*
X152880775Y-115784186D01*
X152891924Y-115883128D01*
X152899364Y-115982417D01*
X152905989Y-116011443D01*
X152907155Y-116018302D01*
X152910487Y-116047877D01*
X152910488Y-116047880D01*
X152936257Y-116144052D01*
X152958414Y-116241127D01*
X152958416Y-116241132D01*
X152969286Y-116268828D01*
X152971461Y-116275438D01*
X152979167Y-116304197D01*
X153018986Y-116395463D01*
X153055362Y-116488147D01*
X153070242Y-116513920D01*
X153073377Y-116520130D01*
X153085281Y-116547413D01*
X153085286Y-116547423D01*
X153138259Y-116631729D01*
X153188043Y-116717956D01*
X153206601Y-116741228D01*
X153210626Y-116746902D01*
X153226464Y-116772107D01*
X153226465Y-116772108D01*
X153291416Y-116847582D01*
X153353492Y-116925423D01*
X153426488Y-116993153D01*
X155485139Y-119051804D01*
X155500484Y-119071798D01*
X155500970Y-119071467D01*
X155503581Y-119075296D01*
X155503582Y-119075298D01*
X155503585Y-119075302D01*
X155639060Y-119245182D01*
X155671842Y-119286289D01*
X155858583Y-119459558D01*
X155869659Y-119469835D01*
X156092626Y-119621851D01*
X156335759Y-119738938D01*
X156593628Y-119818480D01*
X156593629Y-119818480D01*
X156593632Y-119818481D01*
X156860463Y-119858699D01*
X156860468Y-119858699D01*
X156860471Y-119858700D01*
X156860472Y-119858700D01*
X157130328Y-119858700D01*
X157130329Y-119858700D01*
X157130336Y-119858699D01*
X157397167Y-119818481D01*
X157397168Y-119818480D01*
X157397172Y-119818480D01*
X157655041Y-119738938D01*
X157898175Y-119621851D01*
X158121141Y-119469835D01*
X158318961Y-119286285D01*
X158487215Y-119075302D01*
X158622143Y-118841598D01*
X158720734Y-118590395D01*
X158780783Y-118327303D01*
X158800949Y-118058200D01*
X158780783Y-117789097D01*
X158720734Y-117526005D01*
X158622143Y-117274802D01*
X158487215Y-117041098D01*
X158318961Y-116830115D01*
X158318960Y-116830114D01*
X158318957Y-116830110D01*
X158121137Y-116646561D01*
X158025433Y-116581311D01*
X158007604Y-116566539D01*
X156461819Y-115020754D01*
X156428334Y-114959431D01*
X156425500Y-114933073D01*
X156425500Y-113487628D01*
X156445185Y-113420589D01*
X156497989Y-113374834D01*
X156506168Y-113371446D01*
X156512481Y-113369091D01*
X156512483Y-113369091D01*
X156647331Y-113318796D01*
X156762546Y-113232546D01*
X156848796Y-113117331D01*
X156899091Y-112982483D01*
X156905500Y-112922873D01*
X156905499Y-109327128D01*
X156899091Y-109267517D01*
X156848796Y-109132669D01*
X156848795Y-109132668D01*
X156848793Y-109132664D01*
X156762547Y-109017455D01*
X156762544Y-109017452D01*
X156647335Y-108931206D01*
X156647328Y-108931202D01*
X156512482Y-108880908D01*
X156512483Y-108880908D01*
X156452883Y-108874501D01*
X156452881Y-108874500D01*
X156452873Y-108874500D01*
X156452864Y-108874500D01*
X152857129Y-108874500D01*
X152857123Y-108874501D01*
X152797516Y-108880908D01*
X152662671Y-108931202D01*
X152662668Y-108931204D01*
X152598811Y-108979008D01*
X152533347Y-109003425D01*
X152465074Y-108988573D01*
X152415668Y-108939168D01*
X152400500Y-108879741D01*
X152400500Y-104799759D01*
X152400528Y-104799616D01*
X152400524Y-104799616D01*
X152400539Y-104775002D01*
X152400541Y-104775000D01*
X152400462Y-104774808D01*
X152400384Y-104774618D01*
X152400382Y-104774616D01*
X152400099Y-104774500D01*
X152400000Y-104774459D01*
X152375446Y-104774459D01*
X152375240Y-104774500D01*
X145466569Y-104774500D01*
X145399530Y-104754815D01*
X145378888Y-104738181D01*
X145299914Y-104659207D01*
X145266429Y-104597884D01*
X145271413Y-104528192D01*
X145299914Y-104483845D01*
X145302069Y-104481690D01*
X145320851Y-104466274D01*
X145344484Y-104450484D01*
X145360274Y-104426851D01*
X145373135Y-104411183D01*
X145374259Y-104409499D01*
X145374262Y-104409497D01*
X145374263Y-104409494D01*
X145375387Y-104407812D01*
X145384945Y-104389929D01*
X145400734Y-104366301D01*
X145406278Y-104338426D01*
X145411971Y-104319661D01*
X145412559Y-104317041D01*
X145412559Y-104317040D01*
X145412560Y-104317038D01*
X145412771Y-104312699D01*
X145415006Y-104294548D01*
X145420486Y-104267000D01*
X145415005Y-104239445D01*
X145412771Y-104221295D01*
X145412560Y-104216960D01*
X145411971Y-104214335D01*
X145406278Y-104195568D01*
X145400735Y-104167701D01*
X145400733Y-104167697D01*
X145384949Y-104144075D01*
X145375387Y-104126188D01*
X145374263Y-104124505D01*
X145374262Y-104124503D01*
X145374259Y-104124500D01*
X145373135Y-104122817D01*
X145360271Y-104107142D01*
X145344484Y-104083516D01*
X145344482Y-104083514D01*
X145320856Y-104067727D01*
X145305181Y-104054863D01*
X145301816Y-104052614D01*
X145283930Y-104043054D01*
X145260301Y-104027266D01*
X145260300Y-104027265D01*
X145232426Y-104021721D01*
X145213016Y-104015833D01*
X145209057Y-104015045D01*
X145188867Y-104013057D01*
X145161518Y-104007617D01*
X145161035Y-104007364D01*
X145160481Y-104007617D01*
X145133131Y-104013057D01*
X145112945Y-104015045D01*
X145108985Y-104015833D01*
X145089573Y-104021721D01*
X145068892Y-104025835D01*
X145061699Y-104027266D01*
X145061698Y-104027266D01*
X145061696Y-104027267D01*
X145038066Y-104043056D01*
X145020183Y-104052614D01*
X145016825Y-104054858D01*
X145001146Y-104067725D01*
X144977516Y-104083514D01*
X144977514Y-104083516D01*
X144961725Y-104107146D01*
X144948858Y-104122825D01*
X144946614Y-104126183D01*
X144937056Y-104144066D01*
X144921267Y-104167696D01*
X144921266Y-104167700D01*
X144915721Y-104195573D01*
X144909833Y-104214985D01*
X144909045Y-104218948D01*
X144907058Y-104239127D01*
X144901514Y-104267000D01*
X144907057Y-104294866D01*
X144909045Y-104315057D01*
X144909833Y-104319016D01*
X144915721Y-104338426D01*
X144921266Y-104366301D01*
X144937054Y-104389930D01*
X144946614Y-104407816D01*
X144948863Y-104411181D01*
X144961727Y-104426856D01*
X144977514Y-104450482D01*
X144977516Y-104450484D01*
X145001142Y-104466271D01*
X145019911Y-104481670D01*
X145022065Y-104483823D01*
X145055564Y-104545139D01*
X145050596Y-104614832D01*
X145022086Y-104659205D01*
X144943109Y-104738182D01*
X144881789Y-104771666D01*
X144855430Y-104774500D01*
X137946760Y-104774500D01*
X137946554Y-104774459D01*
X137922000Y-104774459D01*
X137921901Y-104774500D01*
X137921617Y-104774616D01*
X137921615Y-104774618D01*
X137921459Y-104774999D01*
X137921476Y-104799616D01*
X137921471Y-104799616D01*
X137921500Y-104799759D01*
X137921500Y-142750500D01*
X137901815Y-142817539D01*
X137849011Y-142863294D01*
X137797500Y-142874500D01*
X130426500Y-142874500D01*
X130359461Y-142854815D01*
X130313706Y-142802011D01*
X130302500Y-142750500D01*
X130302500Y-139575670D01*
X134036500Y-139575670D01*
X134036501Y-139575676D01*
X134042908Y-139635283D01*
X134093202Y-139770128D01*
X134093206Y-139770135D01*
X134179452Y-139885344D01*
X134179455Y-139885347D01*
X134294664Y-139971593D01*
X134294671Y-139971597D01*
X134429517Y-140021891D01*
X134429516Y-140021891D01*
X134436444Y-140022635D01*
X134489127Y-140028300D01*
X136284872Y-140028299D01*
X136344483Y-140021891D01*
X136479331Y-139971596D01*
X136594546Y-139885346D01*
X136680796Y-139770131D01*
X136731091Y-139635283D01*
X136737500Y-139575673D01*
X136737499Y-137779928D01*
X136732299Y-137731557D01*
X136731091Y-137720316D01*
X136680797Y-137585471D01*
X136680793Y-137585464D01*
X136594547Y-137470255D01*
X136594544Y-137470252D01*
X136479335Y-137384006D01*
X136479328Y-137384002D01*
X136344482Y-137333708D01*
X136344483Y-137333708D01*
X136284883Y-137327301D01*
X136284881Y-137327300D01*
X136284873Y-137327300D01*
X136284864Y-137327300D01*
X134489129Y-137327300D01*
X134489123Y-137327301D01*
X134429516Y-137333708D01*
X134294671Y-137384002D01*
X134294664Y-137384006D01*
X134179455Y-137470252D01*
X134179452Y-137470255D01*
X134093206Y-137585464D01*
X134093202Y-137585471D01*
X134042908Y-137720317D01*
X134036598Y-137779016D01*
X134036501Y-137779923D01*
X134036500Y-137779935D01*
X134036500Y-139575670D01*
X130302500Y-139575670D01*
X130302500Y-134197870D01*
X134081500Y-134197870D01*
X134081501Y-134197876D01*
X134087908Y-134257483D01*
X134138202Y-134392328D01*
X134138206Y-134392335D01*
X134224452Y-134507544D01*
X134224455Y-134507547D01*
X134339664Y-134593793D01*
X134339671Y-134593797D01*
X134474517Y-134644091D01*
X134474516Y-134644091D01*
X134481444Y-134644835D01*
X134534127Y-134650500D01*
X136229872Y-134650499D01*
X136289483Y-134644091D01*
X136424331Y-134593796D01*
X136539546Y-134507546D01*
X136625796Y-134392331D01*
X136676091Y-134257483D01*
X136682500Y-134197873D01*
X136682499Y-132502128D01*
X136676091Y-132442517D01*
X136625796Y-132307669D01*
X136625795Y-132307668D01*
X136625793Y-132307664D01*
X136539547Y-132192455D01*
X136539544Y-132192452D01*
X136424335Y-132106206D01*
X136424328Y-132106202D01*
X136289482Y-132055908D01*
X136289483Y-132055908D01*
X136229883Y-132049501D01*
X136229881Y-132049500D01*
X136229873Y-132049500D01*
X136229864Y-132049500D01*
X134534129Y-132049500D01*
X134534123Y-132049501D01*
X134474516Y-132055908D01*
X134339671Y-132106202D01*
X134339664Y-132106206D01*
X134224455Y-132192452D01*
X134224452Y-132192455D01*
X134138206Y-132307664D01*
X134138202Y-132307671D01*
X134087908Y-132442517D01*
X134081501Y-132502116D01*
X134081501Y-132502123D01*
X134081500Y-132502135D01*
X134081500Y-134197870D01*
X130302500Y-134197870D01*
X130302500Y-126695201D01*
X134107332Y-126695201D01*
X134127164Y-126921886D01*
X134127166Y-126921897D01*
X134186058Y-127141688D01*
X134186061Y-127141697D01*
X134282231Y-127347932D01*
X134282232Y-127347934D01*
X134412754Y-127534341D01*
X134573658Y-127695245D01*
X134573661Y-127695247D01*
X134760066Y-127825768D01*
X134966304Y-127921939D01*
X135186108Y-127980835D01*
X135348030Y-127995001D01*
X135412798Y-128000668D01*
X135412800Y-128000668D01*
X135412802Y-128000668D01*
X135469473Y-127995709D01*
X135639492Y-127980835D01*
X135859296Y-127921939D01*
X136065534Y-127825768D01*
X136251939Y-127695247D01*
X136412847Y-127534339D01*
X136543368Y-127347934D01*
X136639539Y-127141696D01*
X136698435Y-126921892D01*
X136718268Y-126695200D01*
X136716483Y-126674803D01*
X136698435Y-126468513D01*
X136698435Y-126468508D01*
X136639539Y-126248704D01*
X136543368Y-126042466D01*
X136412847Y-125856061D01*
X136412845Y-125856058D01*
X136251941Y-125695154D01*
X136065534Y-125564632D01*
X136065532Y-125564631D01*
X135859297Y-125468461D01*
X135859288Y-125468458D01*
X135639497Y-125409566D01*
X135639493Y-125409565D01*
X135639492Y-125409565D01*
X135639491Y-125409564D01*
X135639486Y-125409564D01*
X135412802Y-125389732D01*
X135412798Y-125389732D01*
X135186113Y-125409564D01*
X135186102Y-125409566D01*
X134966311Y-125468458D01*
X134966302Y-125468461D01*
X134760067Y-125564631D01*
X134760065Y-125564632D01*
X134573658Y-125695154D01*
X134412754Y-125856058D01*
X134282232Y-126042465D01*
X134282231Y-126042467D01*
X134186061Y-126248702D01*
X134186058Y-126248711D01*
X134127166Y-126468502D01*
X134127164Y-126468513D01*
X134107332Y-126695198D01*
X134107332Y-126695201D01*
X130302500Y-126695201D01*
X130302500Y-108102401D01*
X134208932Y-108102401D01*
X134228764Y-108329086D01*
X134228766Y-108329097D01*
X134287658Y-108548888D01*
X134287661Y-108548897D01*
X134383831Y-108755132D01*
X134383832Y-108755134D01*
X134514354Y-108941541D01*
X134675258Y-109102445D01*
X134675261Y-109102447D01*
X134861666Y-109232968D01*
X135067904Y-109329139D01*
X135287708Y-109388035D01*
X135449630Y-109402201D01*
X135514398Y-109407868D01*
X135514400Y-109407868D01*
X135514402Y-109407868D01*
X135571073Y-109402909D01*
X135741092Y-109388035D01*
X135960896Y-109329139D01*
X136167134Y-109232968D01*
X136353539Y-109102447D01*
X136514447Y-108941539D01*
X136644968Y-108755134D01*
X136741139Y-108548896D01*
X136800035Y-108329092D01*
X136819868Y-108102400D01*
X136800035Y-107875708D01*
X136741139Y-107655904D01*
X136644968Y-107449666D01*
X136514447Y-107263261D01*
X136514445Y-107263258D01*
X136353541Y-107102354D01*
X136167134Y-106971832D01*
X136167132Y-106971831D01*
X135960897Y-106875661D01*
X135960888Y-106875658D01*
X135741097Y-106816766D01*
X135741093Y-106816765D01*
X135741092Y-106816765D01*
X135741091Y-106816764D01*
X135741086Y-106816764D01*
X135514402Y-106796932D01*
X135514398Y-106796932D01*
X135287713Y-106816764D01*
X135287702Y-106816766D01*
X135067911Y-106875658D01*
X135067902Y-106875661D01*
X134861667Y-106971831D01*
X134861665Y-106971832D01*
X134675258Y-107102354D01*
X134514354Y-107263258D01*
X134383832Y-107449665D01*
X134383831Y-107449667D01*
X134287661Y-107655902D01*
X134287658Y-107655911D01*
X134228766Y-107875702D01*
X134228764Y-107875713D01*
X134208932Y-108102398D01*
X134208932Y-108102401D01*
X130302500Y-108102401D01*
X130302500Y-103505000D01*
X144901514Y-103505000D01*
X144907057Y-103532866D01*
X144909045Y-103553057D01*
X144909833Y-103557016D01*
X144915721Y-103576426D01*
X144921266Y-103604301D01*
X144937054Y-103627930D01*
X144946614Y-103645816D01*
X144948863Y-103649181D01*
X144961727Y-103664856D01*
X144977514Y-103688482D01*
X144977516Y-103688484D01*
X145001142Y-103704271D01*
X145016817Y-103717135D01*
X145018500Y-103718259D01*
X145018503Y-103718262D01*
X145018505Y-103718263D01*
X145020188Y-103719387D01*
X145038075Y-103728949D01*
X145061697Y-103744733D01*
X145061699Y-103744734D01*
X145089575Y-103750278D01*
X145108974Y-103756164D01*
X145110959Y-103756559D01*
X145110962Y-103756560D01*
X145110965Y-103756560D01*
X145112945Y-103756954D01*
X145133131Y-103758942D01*
X145158035Y-103763896D01*
X145160482Y-103764383D01*
X145160964Y-103764635D01*
X145161518Y-103764383D01*
X145166411Y-103763409D01*
X145188867Y-103758942D01*
X145209057Y-103756954D01*
X145211035Y-103756560D01*
X145211038Y-103756560D01*
X145211040Y-103756559D01*
X145213024Y-103756164D01*
X145232427Y-103750278D01*
X145260301Y-103744734D01*
X145283929Y-103728945D01*
X145301812Y-103719387D01*
X145303494Y-103718263D01*
X145303497Y-103718262D01*
X145303499Y-103718259D01*
X145305183Y-103717135D01*
X145320851Y-103704274D01*
X145344484Y-103688484D01*
X145360274Y-103664851D01*
X145373135Y-103649183D01*
X145374259Y-103647499D01*
X145374262Y-103647497D01*
X145374263Y-103647494D01*
X145375387Y-103645812D01*
X145384945Y-103627929D01*
X145400734Y-103604301D01*
X145406278Y-103576426D01*
X145411971Y-103557661D01*
X145412559Y-103555041D01*
X145412559Y-103555040D01*
X145412560Y-103555038D01*
X145412771Y-103550699D01*
X145415006Y-103532548D01*
X145420486Y-103505000D01*
X145415005Y-103477445D01*
X145412771Y-103459295D01*
X145412560Y-103454960D01*
X145411971Y-103452335D01*
X145406278Y-103433568D01*
X145400735Y-103405701D01*
X145400733Y-103405697D01*
X145384949Y-103382075D01*
X145375387Y-103364188D01*
X145374263Y-103362505D01*
X145374262Y-103362503D01*
X145374259Y-103362500D01*
X145373135Y-103360817D01*
X145360271Y-103345142D01*
X145344484Y-103321516D01*
X145344482Y-103321514D01*
X145320856Y-103305727D01*
X145305181Y-103292863D01*
X145301816Y-103290614D01*
X145283930Y-103281054D01*
X145260301Y-103265266D01*
X145260301Y-103265265D01*
X145232426Y-103259721D01*
X145213016Y-103253833D01*
X145209057Y-103253045D01*
X145188867Y-103251057D01*
X145161518Y-103245617D01*
X145161035Y-103245364D01*
X145160481Y-103245617D01*
X145133131Y-103251057D01*
X145112945Y-103253045D01*
X145108985Y-103253833D01*
X145089573Y-103259721D01*
X145068892Y-103263835D01*
X145061699Y-103265266D01*
X145061698Y-103265266D01*
X145061696Y-103265267D01*
X145038066Y-103281056D01*
X145020183Y-103290614D01*
X145016825Y-103292858D01*
X145001146Y-103305725D01*
X144977516Y-103321514D01*
X144977514Y-103321516D01*
X144961725Y-103345146D01*
X144948858Y-103360825D01*
X144946614Y-103364183D01*
X144937056Y-103382066D01*
X144921267Y-103405696D01*
X144921266Y-103405700D01*
X144915721Y-103433573D01*
X144909833Y-103452985D01*
X144909045Y-103456948D01*
X144907058Y-103477127D01*
X144901514Y-103505000D01*
X130302500Y-103505000D01*
X130302500Y-102447870D01*
X134208500Y-102447870D01*
X134208501Y-102447876D01*
X134214908Y-102507483D01*
X134265202Y-102642328D01*
X134265206Y-102642335D01*
X134351452Y-102757544D01*
X134351455Y-102757547D01*
X134466664Y-102843793D01*
X134466671Y-102843797D01*
X134601517Y-102894091D01*
X134601516Y-102894091D01*
X134608444Y-102894835D01*
X134661127Y-102900500D01*
X136356872Y-102900499D01*
X136416483Y-102894091D01*
X136551331Y-102843796D01*
X136666546Y-102757546D01*
X136677435Y-102743000D01*
X144901514Y-102743000D01*
X144907057Y-102770866D01*
X144909045Y-102791057D01*
X144909833Y-102795016D01*
X144915721Y-102814426D01*
X144921266Y-102842301D01*
X144937054Y-102865930D01*
X144946614Y-102883816D01*
X144948863Y-102887181D01*
X144961727Y-102902856D01*
X144977514Y-102926482D01*
X144977516Y-102926484D01*
X145001142Y-102942271D01*
X145016817Y-102955135D01*
X145018500Y-102956259D01*
X145018503Y-102956262D01*
X145018505Y-102956263D01*
X145020188Y-102957387D01*
X145038075Y-102966949D01*
X145061697Y-102982733D01*
X145061699Y-102982734D01*
X145089575Y-102988278D01*
X145108974Y-102994164D01*
X145110959Y-102994559D01*
X145110962Y-102994560D01*
X145110965Y-102994560D01*
X145112945Y-102994954D01*
X145133131Y-102996942D01*
X145158035Y-103001896D01*
X145160482Y-103002383D01*
X145160964Y-103002635D01*
X145161518Y-103002383D01*
X145166411Y-103001409D01*
X145188867Y-102996942D01*
X145209057Y-102994954D01*
X145211035Y-102994560D01*
X145211038Y-102994560D01*
X145211040Y-102994559D01*
X145213024Y-102994164D01*
X145232427Y-102988278D01*
X145260301Y-102982734D01*
X145283929Y-102966945D01*
X145301812Y-102957387D01*
X145303494Y-102956263D01*
X145303497Y-102956262D01*
X145303499Y-102956259D01*
X145305183Y-102955135D01*
X145320851Y-102942274D01*
X145344484Y-102926484D01*
X145360274Y-102902851D01*
X145373135Y-102887183D01*
X145374259Y-102885499D01*
X145374262Y-102885497D01*
X145374263Y-102885494D01*
X145375387Y-102883812D01*
X145384945Y-102865929D01*
X145400734Y-102842301D01*
X145406278Y-102814426D01*
X145411971Y-102795661D01*
X145412559Y-102793041D01*
X145412559Y-102793040D01*
X145412560Y-102793038D01*
X145412771Y-102788699D01*
X145415006Y-102770548D01*
X145420486Y-102743000D01*
X145415005Y-102715445D01*
X145412771Y-102697295D01*
X145412560Y-102692960D01*
X145411971Y-102690335D01*
X145406278Y-102671568D01*
X145400735Y-102643701D01*
X145400733Y-102643697D01*
X145384949Y-102620075D01*
X145375387Y-102602188D01*
X145374263Y-102600505D01*
X145374262Y-102600503D01*
X145374259Y-102600500D01*
X145373135Y-102598817D01*
X145360271Y-102583142D01*
X145344484Y-102559516D01*
X145344482Y-102559514D01*
X145320856Y-102543727D01*
X145305181Y-102530863D01*
X145301816Y-102528614D01*
X145283930Y-102519054D01*
X145260301Y-102503266D01*
X145260300Y-102503265D01*
X145232426Y-102497721D01*
X145213016Y-102491833D01*
X145209057Y-102491045D01*
X145188867Y-102489057D01*
X145161518Y-102483617D01*
X145161035Y-102483364D01*
X145160481Y-102483617D01*
X145133131Y-102489057D01*
X145112945Y-102491045D01*
X145108985Y-102491833D01*
X145089573Y-102497721D01*
X145068892Y-102501835D01*
X145061699Y-102503266D01*
X145061698Y-102503266D01*
X145061696Y-102503267D01*
X145038066Y-102519056D01*
X145020183Y-102528614D01*
X145016825Y-102530858D01*
X145001146Y-102543725D01*
X144977516Y-102559514D01*
X144977514Y-102559516D01*
X144961725Y-102583146D01*
X144948858Y-102598825D01*
X144946614Y-102602183D01*
X144937056Y-102620066D01*
X144921267Y-102643696D01*
X144921266Y-102643700D01*
X144915721Y-102671573D01*
X144909833Y-102690985D01*
X144909045Y-102694948D01*
X144907058Y-102715127D01*
X144901514Y-102743000D01*
X136677435Y-102743000D01*
X136752796Y-102642331D01*
X136803091Y-102507483D01*
X136809500Y-102447873D01*
X136809500Y-101981000D01*
X144901514Y-101981000D01*
X144907057Y-102008866D01*
X144909045Y-102029057D01*
X144909833Y-102033016D01*
X144915721Y-102052426D01*
X144921266Y-102080301D01*
X144937054Y-102103930D01*
X144946614Y-102121816D01*
X144948863Y-102125181D01*
X144961727Y-102140856D01*
X144977514Y-102164482D01*
X144977516Y-102164484D01*
X145001142Y-102180271D01*
X145016817Y-102193135D01*
X145018500Y-102194259D01*
X145018503Y-102194262D01*
X145018505Y-102194263D01*
X145020188Y-102195387D01*
X145038075Y-102204949D01*
X145061697Y-102220733D01*
X145061699Y-102220734D01*
X145089575Y-102226278D01*
X145108974Y-102232164D01*
X145110959Y-102232559D01*
X145110962Y-102232560D01*
X145110965Y-102232560D01*
X145112945Y-102232954D01*
X145133131Y-102234942D01*
X145158035Y-102239896D01*
X145160482Y-102240383D01*
X145160964Y-102240635D01*
X145161518Y-102240383D01*
X145166411Y-102239409D01*
X145188867Y-102234942D01*
X145209057Y-102232954D01*
X145211035Y-102232560D01*
X145211038Y-102232560D01*
X145211040Y-102232559D01*
X145213024Y-102232164D01*
X145232427Y-102226278D01*
X145260301Y-102220734D01*
X145283929Y-102204945D01*
X145301812Y-102195387D01*
X145303494Y-102194263D01*
X145303497Y-102194262D01*
X145303499Y-102194259D01*
X145305183Y-102193135D01*
X145320851Y-102180274D01*
X145344484Y-102164484D01*
X145360274Y-102140851D01*
X145373135Y-102125183D01*
X145374259Y-102123499D01*
X145374262Y-102123497D01*
X145374263Y-102123494D01*
X145375387Y-102121812D01*
X145384945Y-102103929D01*
X145400734Y-102080301D01*
X145406278Y-102052426D01*
X145411971Y-102033661D01*
X145412559Y-102031041D01*
X145412559Y-102031040D01*
X145412560Y-102031038D01*
X145412771Y-102026699D01*
X145415006Y-102008548D01*
X145420486Y-101981000D01*
X145415005Y-101953445D01*
X145412771Y-101935295D01*
X145412560Y-101930960D01*
X145411971Y-101928335D01*
X145406278Y-101909568D01*
X145400735Y-101881701D01*
X145400733Y-101881697D01*
X145384949Y-101858075D01*
X145375387Y-101840188D01*
X145374263Y-101838505D01*
X145374262Y-101838503D01*
X145374259Y-101838500D01*
X145373135Y-101836817D01*
X145360271Y-101821142D01*
X145344484Y-101797516D01*
X145344482Y-101797514D01*
X145320856Y-101781727D01*
X145305181Y-101768863D01*
X145301816Y-101766614D01*
X145283930Y-101757054D01*
X145260301Y-101741266D01*
X145260301Y-101741265D01*
X145232426Y-101735721D01*
X145213016Y-101729833D01*
X145209057Y-101729045D01*
X145188867Y-101727057D01*
X145161518Y-101721617D01*
X145161035Y-101721364D01*
X145160481Y-101721617D01*
X145133131Y-101727057D01*
X145112945Y-101729045D01*
X145108985Y-101729833D01*
X145089573Y-101735721D01*
X145068892Y-101739835D01*
X145061699Y-101741266D01*
X145061698Y-101741266D01*
X145061696Y-101741267D01*
X145038066Y-101757056D01*
X145020183Y-101766614D01*
X145016825Y-101768858D01*
X145001146Y-101781725D01*
X144977516Y-101797514D01*
X144977514Y-101797516D01*
X144961725Y-101821146D01*
X144948858Y-101836825D01*
X144946614Y-101840183D01*
X144937056Y-101858066D01*
X144921267Y-101881696D01*
X144921266Y-101881700D01*
X144915721Y-101909573D01*
X144909833Y-101928985D01*
X144909045Y-101932948D01*
X144907058Y-101953127D01*
X144901514Y-101981000D01*
X136809500Y-101981000D01*
X136809499Y-100752128D01*
X136803091Y-100692517D01*
X136798776Y-100680949D01*
X136752797Y-100557671D01*
X136752793Y-100557664D01*
X136666547Y-100442455D01*
X136666544Y-100442452D01*
X136551335Y-100356206D01*
X136551328Y-100356202D01*
X136481079Y-100330001D01*
X139138965Y-100330001D01*
X139159064Y-100559737D01*
X139159066Y-100559748D01*
X139218751Y-100782497D01*
X139218753Y-100782501D01*
X139218754Y-100782505D01*
X139225279Y-100796497D01*
X139316218Y-100991518D01*
X139316220Y-100991522D01*
X139448496Y-101180432D01*
X139611567Y-101343503D01*
X139800477Y-101475779D01*
X139800479Y-101475780D01*
X139800482Y-101475782D01*
X140009495Y-101573246D01*
X140232257Y-101632935D01*
X140396359Y-101647292D01*
X140461998Y-101653035D01*
X140462000Y-101653035D01*
X140462002Y-101653035D01*
X140519573Y-101647998D01*
X140691743Y-101632935D01*
X140914505Y-101573246D01*
X141123518Y-101475782D01*
X141312431Y-101343504D01*
X141475504Y-101180431D01*
X141475504Y-101180430D01*
X141479044Y-101176891D01*
X141540367Y-101143406D01*
X141610058Y-101148390D01*
X141665992Y-101190261D01*
X141688497Y-101247461D01*
X141688624Y-101247432D01*
X141688832Y-101248312D01*
X141690015Y-101251319D01*
X141690408Y-101254983D01*
X141740702Y-101389828D01*
X141740706Y-101389835D01*
X141826952Y-101505044D01*
X141826955Y-101505047D01*
X141942164Y-101591293D01*
X141942171Y-101591297D01*
X142077017Y-101641591D01*
X142077016Y-101641591D01*
X142083944Y-101642335D01*
X142136627Y-101648000D01*
X143867372Y-101647999D01*
X143926983Y-101641591D01*
X144061831Y-101591296D01*
X144177046Y-101505046D01*
X144263296Y-101389831D01*
X144313591Y-101254983D01*
X144317460Y-101219000D01*
X144901514Y-101219000D01*
X144907057Y-101246866D01*
X144909045Y-101267057D01*
X144909833Y-101271016D01*
X144915721Y-101290426D01*
X144921266Y-101318301D01*
X144937054Y-101341930D01*
X144946614Y-101359816D01*
X144948863Y-101363181D01*
X144961727Y-101378856D01*
X144977514Y-101402482D01*
X144977516Y-101402484D01*
X145001142Y-101418271D01*
X145016817Y-101431135D01*
X145018500Y-101432259D01*
X145018503Y-101432262D01*
X145018505Y-101432263D01*
X145020188Y-101433387D01*
X145038075Y-101442949D01*
X145061697Y-101458733D01*
X145061699Y-101458734D01*
X145089575Y-101464278D01*
X145108974Y-101470164D01*
X145110959Y-101470559D01*
X145110962Y-101470560D01*
X145110965Y-101470560D01*
X145112945Y-101470954D01*
X145133131Y-101472942D01*
X145158035Y-101477896D01*
X145160482Y-101478383D01*
X145160964Y-101478635D01*
X145161518Y-101478383D01*
X145174609Y-101475779D01*
X145188867Y-101472942D01*
X145209057Y-101470954D01*
X145211035Y-101470560D01*
X145211038Y-101470560D01*
X145211040Y-101470559D01*
X145213024Y-101470164D01*
X145232427Y-101464278D01*
X145260301Y-101458734D01*
X145283929Y-101442945D01*
X145301812Y-101433387D01*
X145303494Y-101432263D01*
X145303497Y-101432262D01*
X145303499Y-101432259D01*
X145305183Y-101431135D01*
X145320851Y-101418274D01*
X145344484Y-101402484D01*
X145360274Y-101378851D01*
X145373135Y-101363183D01*
X145374259Y-101361499D01*
X145374262Y-101361497D01*
X145374263Y-101361494D01*
X145375387Y-101359812D01*
X145384945Y-101341929D01*
X145400734Y-101318301D01*
X145406278Y-101290426D01*
X145411971Y-101271661D01*
X145412559Y-101269041D01*
X145412559Y-101269040D01*
X145412560Y-101269038D01*
X145412771Y-101264699D01*
X145415006Y-101246548D01*
X145420486Y-101219000D01*
X145415005Y-101191445D01*
X145412771Y-101173295D01*
X145412560Y-101168960D01*
X145411971Y-101166335D01*
X145406278Y-101147568D01*
X145400735Y-101119701D01*
X145400733Y-101119697D01*
X145384949Y-101096075D01*
X145375387Y-101078188D01*
X145374263Y-101076505D01*
X145374262Y-101076503D01*
X145374259Y-101076500D01*
X145373135Y-101074817D01*
X145360271Y-101059142D01*
X145344484Y-101035516D01*
X145344482Y-101035514D01*
X145320856Y-101019727D01*
X145305181Y-101006863D01*
X145301816Y-101004614D01*
X145283930Y-100995054D01*
X145260301Y-100979266D01*
X145260300Y-100979265D01*
X145232426Y-100973721D01*
X145213016Y-100967833D01*
X145209057Y-100967045D01*
X145188867Y-100965057D01*
X145161518Y-100959617D01*
X145161035Y-100959364D01*
X145160481Y-100959617D01*
X145133131Y-100965057D01*
X145112945Y-100967045D01*
X145108985Y-100967833D01*
X145089573Y-100973721D01*
X145068892Y-100977835D01*
X145061699Y-100979266D01*
X145061698Y-100979266D01*
X145061696Y-100979267D01*
X145038066Y-100995056D01*
X145020183Y-101004614D01*
X145016825Y-101006858D01*
X145001146Y-101019725D01*
X144977516Y-101035514D01*
X144977514Y-101035516D01*
X144961725Y-101059146D01*
X144948858Y-101074825D01*
X144946614Y-101078183D01*
X144937056Y-101096066D01*
X144921267Y-101119696D01*
X144921266Y-101119700D01*
X144915721Y-101147573D01*
X144909833Y-101166985D01*
X144909045Y-101170948D01*
X144907058Y-101191127D01*
X144901514Y-101219000D01*
X144317460Y-101219000D01*
X144320000Y-101195373D01*
X144320000Y-100457000D01*
X144901514Y-100457000D01*
X144907057Y-100484866D01*
X144909045Y-100505057D01*
X144909833Y-100509016D01*
X144915721Y-100528426D01*
X144921266Y-100556301D01*
X144937054Y-100579930D01*
X144946614Y-100597816D01*
X144948863Y-100601181D01*
X144961727Y-100616856D01*
X144977514Y-100640482D01*
X144977516Y-100640484D01*
X145001142Y-100656271D01*
X145016817Y-100669135D01*
X145018500Y-100670259D01*
X145018503Y-100670262D01*
X145018505Y-100670263D01*
X145020188Y-100671387D01*
X145038075Y-100680949D01*
X145061697Y-100696733D01*
X145061699Y-100696734D01*
X145089575Y-100702278D01*
X145108974Y-100708164D01*
X145110959Y-100708559D01*
X145110962Y-100708560D01*
X145110965Y-100708560D01*
X145112945Y-100708954D01*
X145133131Y-100710942D01*
X145158035Y-100715896D01*
X145160482Y-100716383D01*
X145160964Y-100716635D01*
X145161518Y-100716383D01*
X145166411Y-100715409D01*
X145188867Y-100710942D01*
X145209057Y-100708954D01*
X145211035Y-100708560D01*
X145211038Y-100708560D01*
X145211040Y-100708559D01*
X145213024Y-100708164D01*
X145232427Y-100702278D01*
X145260301Y-100696734D01*
X145283929Y-100680945D01*
X145301812Y-100671387D01*
X145303494Y-100670263D01*
X145303497Y-100670262D01*
X145303499Y-100670259D01*
X145305183Y-100669135D01*
X145320851Y-100656274D01*
X145344484Y-100640484D01*
X145360274Y-100616851D01*
X145373135Y-100601183D01*
X145374259Y-100599499D01*
X145374262Y-100599497D01*
X145374263Y-100599494D01*
X145375387Y-100597812D01*
X145384945Y-100579929D01*
X145400734Y-100556301D01*
X145406278Y-100528426D01*
X145411971Y-100509661D01*
X145412559Y-100507041D01*
X145412559Y-100507040D01*
X145412560Y-100507038D01*
X145412771Y-100502699D01*
X145415006Y-100484548D01*
X145420486Y-100457000D01*
X145415005Y-100429445D01*
X145412771Y-100411295D01*
X145412560Y-100406960D01*
X145411971Y-100404335D01*
X145406278Y-100385568D01*
X145400735Y-100357701D01*
X145400733Y-100357697D01*
X145384949Y-100334075D01*
X145382771Y-100330001D01*
X145996965Y-100330001D01*
X146017064Y-100559737D01*
X146017066Y-100559748D01*
X146076751Y-100782497D01*
X146076753Y-100782501D01*
X146076754Y-100782505D01*
X146083279Y-100796497D01*
X146174218Y-100991518D01*
X146174220Y-100991522D01*
X146306496Y-101180432D01*
X146469567Y-101343503D01*
X146658477Y-101475779D01*
X146658479Y-101475780D01*
X146658482Y-101475782D01*
X146867495Y-101573246D01*
X147090257Y-101632935D01*
X147254359Y-101647292D01*
X147319998Y-101653035D01*
X147320000Y-101653035D01*
X147320002Y-101653035D01*
X147377573Y-101647998D01*
X147549743Y-101632935D01*
X147772505Y-101573246D01*
X147981518Y-101475782D01*
X148170431Y-101343504D01*
X148333504Y-101180431D01*
X148333503Y-101180431D01*
X148337044Y-101176891D01*
X148398367Y-101143406D01*
X148468058Y-101148390D01*
X148523992Y-101190261D01*
X148546497Y-101247461D01*
X148546624Y-101247432D01*
X148546832Y-101248312D01*
X148548015Y-101251319D01*
X148548408Y-101254983D01*
X148598702Y-101389828D01*
X148598706Y-101389835D01*
X148684952Y-101505044D01*
X148684955Y-101505047D01*
X148800164Y-101591293D01*
X148800171Y-101591297D01*
X148935017Y-101641591D01*
X148935016Y-101641591D01*
X148941944Y-101642335D01*
X148994627Y-101648000D01*
X150725372Y-101647999D01*
X150784983Y-101641591D01*
X150919831Y-101591296D01*
X151035046Y-101505046D01*
X151121296Y-101389831D01*
X151171591Y-101254983D01*
X151178000Y-101195373D01*
X151178000Y-100350001D01*
X153634532Y-100350001D01*
X153654364Y-100576686D01*
X153654366Y-100576697D01*
X153713258Y-100796488D01*
X153713261Y-100796497D01*
X153809431Y-101002732D01*
X153809432Y-101002734D01*
X153939954Y-101189141D01*
X154100858Y-101350045D01*
X154100861Y-101350047D01*
X154287266Y-101480568D01*
X154493504Y-101576739D01*
X154713308Y-101635635D01*
X154875230Y-101649801D01*
X154939998Y-101655468D01*
X154940000Y-101655468D01*
X154940002Y-101655468D01*
X154996672Y-101650509D01*
X155166692Y-101635635D01*
X155386496Y-101576739D01*
X155592734Y-101480568D01*
X155779139Y-101350047D01*
X155911316Y-101217870D01*
X160624500Y-101217870D01*
X160624501Y-101217876D01*
X160630908Y-101277483D01*
X160681202Y-101412328D01*
X160681206Y-101412335D01*
X160767452Y-101527544D01*
X160767455Y-101527547D01*
X160882664Y-101613793D01*
X160882671Y-101613797D01*
X161017517Y-101664091D01*
X161017516Y-101664091D01*
X161024444Y-101664835D01*
X161077127Y-101670500D01*
X162772872Y-101670499D01*
X162832483Y-101664091D01*
X162967331Y-101613796D01*
X163082546Y-101527546D01*
X163168796Y-101412331D01*
X163219091Y-101277483D01*
X163225500Y-101217873D01*
X163225499Y-99522128D01*
X163220009Y-99471056D01*
X163219091Y-99462516D01*
X163168797Y-99327671D01*
X163168793Y-99327664D01*
X163082547Y-99212455D01*
X163082544Y-99212452D01*
X162967335Y-99126206D01*
X162967328Y-99126202D01*
X162832482Y-99075908D01*
X162832483Y-99075908D01*
X162772883Y-99069501D01*
X162772881Y-99069500D01*
X162772873Y-99069500D01*
X162772864Y-99069500D01*
X161077129Y-99069500D01*
X161077123Y-99069501D01*
X161017516Y-99075908D01*
X160882671Y-99126202D01*
X160882664Y-99126206D01*
X160767455Y-99212452D01*
X160767452Y-99212455D01*
X160681206Y-99327664D01*
X160681202Y-99327671D01*
X160630908Y-99462517D01*
X160625186Y-99515748D01*
X160624501Y-99522123D01*
X160624500Y-99522135D01*
X160624500Y-101217870D01*
X155911316Y-101217870D01*
X155940047Y-101189139D01*
X156070568Y-101002734D01*
X156166739Y-100796496D01*
X156225635Y-100576692D01*
X156245468Y-100350000D01*
X156241610Y-100305908D01*
X156239147Y-100277748D01*
X156225635Y-100123308D01*
X156178276Y-99946560D01*
X156166741Y-99903511D01*
X156166738Y-99903502D01*
X156070568Y-99697266D01*
X155947936Y-99522128D01*
X155940045Y-99510858D01*
X155779141Y-99349954D01*
X155592734Y-99219432D01*
X155592732Y-99219431D01*
X155386497Y-99123261D01*
X155386488Y-99123258D01*
X155166697Y-99064366D01*
X155166693Y-99064365D01*
X155166692Y-99064365D01*
X155166691Y-99064364D01*
X155166686Y-99064364D01*
X154940002Y-99044532D01*
X154939998Y-99044532D01*
X154713313Y-99064364D01*
X154713302Y-99064366D01*
X154493511Y-99123258D01*
X154493502Y-99123261D01*
X154287267Y-99219431D01*
X154287265Y-99219432D01*
X154100858Y-99349954D01*
X153939954Y-99510858D01*
X153809432Y-99697265D01*
X153809431Y-99697267D01*
X153713261Y-99903502D01*
X153713258Y-99903511D01*
X153654366Y-100123302D01*
X153654364Y-100123313D01*
X153634532Y-100349998D01*
X153634532Y-100350001D01*
X151178000Y-100350001D01*
X151177999Y-99464628D01*
X151172397Y-99412515D01*
X151171591Y-99405016D01*
X151121297Y-99270171D01*
X151121293Y-99270164D01*
X151035047Y-99154955D01*
X151035044Y-99154952D01*
X150919835Y-99068706D01*
X150919828Y-99068702D01*
X150784982Y-99018408D01*
X150784983Y-99018408D01*
X150725383Y-99012001D01*
X150725381Y-99012000D01*
X150725373Y-99012000D01*
X150725364Y-99012000D01*
X148994629Y-99012000D01*
X148994623Y-99012001D01*
X148935016Y-99018408D01*
X148800171Y-99068702D01*
X148800164Y-99068706D01*
X148684955Y-99154952D01*
X148684952Y-99154955D01*
X148598706Y-99270164D01*
X148598702Y-99270171D01*
X148548409Y-99405015D01*
X148548014Y-99408690D01*
X148546912Y-99411347D01*
X148546626Y-99412562D01*
X148546429Y-99412515D01*
X148521272Y-99473239D01*
X148463877Y-99513084D01*
X148394051Y-99515573D01*
X148337044Y-99483108D01*
X148170432Y-99316496D01*
X147981522Y-99184220D01*
X147981518Y-99184218D01*
X147945029Y-99167203D01*
X147772505Y-99086754D01*
X147772501Y-99086753D01*
X147772497Y-99086751D01*
X147549748Y-99027066D01*
X147549744Y-99027065D01*
X147549743Y-99027065D01*
X147549742Y-99027064D01*
X147549737Y-99027064D01*
X147320002Y-99006965D01*
X147319998Y-99006965D01*
X147090262Y-99027064D01*
X147090251Y-99027066D01*
X146867502Y-99086751D01*
X146867493Y-99086755D01*
X146658484Y-99184217D01*
X146658482Y-99184218D01*
X146469566Y-99316497D01*
X146306497Y-99479566D01*
X146174218Y-99668482D01*
X146174217Y-99668484D01*
X146076755Y-99877493D01*
X146076751Y-99877502D01*
X146017066Y-100100251D01*
X146017064Y-100100262D01*
X145996965Y-100329998D01*
X145996965Y-100330001D01*
X145382771Y-100330001D01*
X145375387Y-100316188D01*
X145374263Y-100314505D01*
X145374262Y-100314503D01*
X145374259Y-100314500D01*
X145373135Y-100312817D01*
X145360271Y-100297142D01*
X145344484Y-100273516D01*
X145344482Y-100273514D01*
X145320856Y-100257727D01*
X145305181Y-100244863D01*
X145301816Y-100242614D01*
X145283930Y-100233054D01*
X145260301Y-100217266D01*
X145260301Y-100217265D01*
X145232426Y-100211721D01*
X145213016Y-100205833D01*
X145209057Y-100205045D01*
X145188867Y-100203057D01*
X145161518Y-100197617D01*
X145161035Y-100197364D01*
X145160481Y-100197617D01*
X145133131Y-100203057D01*
X145112945Y-100205045D01*
X145108985Y-100205833D01*
X145089573Y-100211721D01*
X145068892Y-100215835D01*
X145061699Y-100217266D01*
X145061698Y-100217266D01*
X145061696Y-100217267D01*
X145038066Y-100233056D01*
X145020183Y-100242614D01*
X145016825Y-100244858D01*
X145001146Y-100257725D01*
X144977516Y-100273514D01*
X144977514Y-100273516D01*
X144961725Y-100297146D01*
X144948858Y-100312825D01*
X144946614Y-100316183D01*
X144937056Y-100334066D01*
X144921267Y-100357696D01*
X144921266Y-100357700D01*
X144915721Y-100385573D01*
X144909833Y-100404985D01*
X144909045Y-100408948D01*
X144907058Y-100429127D01*
X144901514Y-100457000D01*
X144320000Y-100457000D01*
X144319999Y-99695000D01*
X144901514Y-99695000D01*
X144907057Y-99722866D01*
X144909045Y-99743057D01*
X144909833Y-99747016D01*
X144915721Y-99766426D01*
X144921266Y-99794301D01*
X144937054Y-99817930D01*
X144946614Y-99835816D01*
X144948863Y-99839181D01*
X144961727Y-99854856D01*
X144977514Y-99878482D01*
X144977516Y-99878484D01*
X145001142Y-99894271D01*
X145016817Y-99907135D01*
X145018500Y-99908259D01*
X145018503Y-99908262D01*
X145018505Y-99908263D01*
X145020188Y-99909387D01*
X145038075Y-99918949D01*
X145061697Y-99934733D01*
X145061699Y-99934734D01*
X145089575Y-99940278D01*
X145108974Y-99946164D01*
X145110959Y-99946559D01*
X145110962Y-99946560D01*
X145110965Y-99946560D01*
X145112945Y-99946954D01*
X145133131Y-99948942D01*
X145158035Y-99953896D01*
X145160482Y-99954383D01*
X145160964Y-99954635D01*
X145161518Y-99954383D01*
X145166411Y-99953409D01*
X145188867Y-99948942D01*
X145209057Y-99946954D01*
X145211035Y-99946560D01*
X145211038Y-99946560D01*
X145211040Y-99946559D01*
X145213024Y-99946164D01*
X145232427Y-99940278D01*
X145260301Y-99934734D01*
X145283929Y-99918945D01*
X145301812Y-99909387D01*
X145303494Y-99908263D01*
X145303497Y-99908262D01*
X145303499Y-99908259D01*
X145305183Y-99907135D01*
X145320851Y-99894274D01*
X145344484Y-99878484D01*
X145360274Y-99854851D01*
X145373135Y-99839183D01*
X145374259Y-99837499D01*
X145374262Y-99837497D01*
X145374263Y-99837494D01*
X145375387Y-99835812D01*
X145384945Y-99817929D01*
X145400734Y-99794301D01*
X145406278Y-99766426D01*
X145411971Y-99747661D01*
X145412559Y-99745041D01*
X145412559Y-99745040D01*
X145412560Y-99745038D01*
X145412771Y-99740699D01*
X145415006Y-99722548D01*
X145420486Y-99695000D01*
X145415005Y-99667445D01*
X145412771Y-99649295D01*
X145412560Y-99644960D01*
X145411971Y-99642335D01*
X145406278Y-99623568D01*
X145400735Y-99595701D01*
X145400733Y-99595697D01*
X145384949Y-99572075D01*
X145375387Y-99554188D01*
X145374263Y-99552505D01*
X145374262Y-99552503D01*
X145374259Y-99552500D01*
X145373135Y-99550817D01*
X145360271Y-99535142D01*
X145344484Y-99511516D01*
X145344482Y-99511514D01*
X145320856Y-99495727D01*
X145305181Y-99482863D01*
X145301816Y-99480614D01*
X145283930Y-99471054D01*
X145260301Y-99455266D01*
X145260300Y-99455265D01*
X145232426Y-99449721D01*
X145213016Y-99443833D01*
X145209057Y-99443045D01*
X145188867Y-99441057D01*
X145161518Y-99435617D01*
X145161035Y-99435364D01*
X145160481Y-99435617D01*
X145133131Y-99441057D01*
X145112945Y-99443045D01*
X145108985Y-99443833D01*
X145089573Y-99449721D01*
X145068892Y-99453835D01*
X145061699Y-99455266D01*
X145061698Y-99455266D01*
X145061696Y-99455267D01*
X145038066Y-99471056D01*
X145020183Y-99480614D01*
X145016825Y-99482858D01*
X145001146Y-99495725D01*
X144977516Y-99511514D01*
X144977514Y-99511516D01*
X144961725Y-99535146D01*
X144948858Y-99550825D01*
X144946614Y-99554183D01*
X144937056Y-99572066D01*
X144921267Y-99595696D01*
X144921266Y-99595700D01*
X144915721Y-99623573D01*
X144909833Y-99642985D01*
X144909045Y-99646948D01*
X144907058Y-99667127D01*
X144901514Y-99695000D01*
X144319999Y-99695000D01*
X144319999Y-99464628D01*
X144314397Y-99412515D01*
X144313591Y-99405016D01*
X144263297Y-99270171D01*
X144263293Y-99270164D01*
X144177047Y-99154955D01*
X144177044Y-99154952D01*
X144061835Y-99068706D01*
X144061828Y-99068702D01*
X143926982Y-99018408D01*
X143926983Y-99018408D01*
X143867383Y-99012001D01*
X143867381Y-99012000D01*
X143867373Y-99012000D01*
X143867364Y-99012000D01*
X142136629Y-99012000D01*
X142136623Y-99012001D01*
X142077016Y-99018408D01*
X141942171Y-99068702D01*
X141942164Y-99068706D01*
X141826955Y-99154952D01*
X141826952Y-99154955D01*
X141740706Y-99270164D01*
X141740702Y-99270171D01*
X141690409Y-99405015D01*
X141690014Y-99408690D01*
X141688912Y-99411347D01*
X141688626Y-99412562D01*
X141688429Y-99412515D01*
X141663272Y-99473239D01*
X141605877Y-99513084D01*
X141536051Y-99515573D01*
X141479044Y-99483108D01*
X141312432Y-99316496D01*
X141123522Y-99184220D01*
X141123518Y-99184218D01*
X141087029Y-99167203D01*
X140914505Y-99086754D01*
X140914501Y-99086753D01*
X140914497Y-99086751D01*
X140691748Y-99027066D01*
X140691744Y-99027065D01*
X140691743Y-99027065D01*
X140691742Y-99027064D01*
X140691737Y-99027064D01*
X140462002Y-99006965D01*
X140461998Y-99006965D01*
X140232262Y-99027064D01*
X140232251Y-99027066D01*
X140009502Y-99086751D01*
X140009493Y-99086755D01*
X139800484Y-99184217D01*
X139800482Y-99184218D01*
X139611566Y-99316497D01*
X139448497Y-99479566D01*
X139316218Y-99668482D01*
X139316217Y-99668484D01*
X139218755Y-99877493D01*
X139218751Y-99877502D01*
X139159066Y-100100251D01*
X139159064Y-100100262D01*
X139138965Y-100329998D01*
X139138965Y-100330001D01*
X136481079Y-100330001D01*
X136416482Y-100305908D01*
X136416483Y-100305908D01*
X136356883Y-100299501D01*
X136356881Y-100299500D01*
X136356873Y-100299500D01*
X136356864Y-100299500D01*
X134661129Y-100299500D01*
X134661123Y-100299501D01*
X134601516Y-100305908D01*
X134466671Y-100356202D01*
X134466664Y-100356206D01*
X134351455Y-100442452D01*
X134351452Y-100442455D01*
X134265206Y-100557664D01*
X134265202Y-100557671D01*
X134214908Y-100692517D01*
X134208501Y-100752116D01*
X134208501Y-100752123D01*
X134208500Y-100752135D01*
X134208500Y-102447870D01*
X130302500Y-102447870D01*
X130302500Y-98933000D01*
X144901514Y-98933000D01*
X144907057Y-98960866D01*
X144909045Y-98981057D01*
X144909833Y-98985016D01*
X144915721Y-99004426D01*
X144920225Y-99027066D01*
X144921266Y-99032301D01*
X144937054Y-99055930D01*
X144946614Y-99073816D01*
X144948863Y-99077181D01*
X144961727Y-99092856D01*
X144977514Y-99116482D01*
X144977516Y-99116484D01*
X145001142Y-99132271D01*
X145016817Y-99145135D01*
X145018500Y-99146259D01*
X145018503Y-99146262D01*
X145018505Y-99146263D01*
X145020188Y-99147387D01*
X145038075Y-99156949D01*
X145061697Y-99172733D01*
X145061699Y-99172734D01*
X145089575Y-99178278D01*
X145108974Y-99184164D01*
X145110959Y-99184559D01*
X145110962Y-99184560D01*
X145110965Y-99184560D01*
X145112945Y-99184954D01*
X145133131Y-99186942D01*
X145158035Y-99191896D01*
X145160482Y-99192383D01*
X145160964Y-99192635D01*
X145161518Y-99192383D01*
X145166411Y-99191409D01*
X145188867Y-99186942D01*
X145209057Y-99184954D01*
X145211035Y-99184560D01*
X145211038Y-99184560D01*
X145211040Y-99184559D01*
X145213024Y-99184164D01*
X145232427Y-99178278D01*
X145260301Y-99172734D01*
X145283929Y-99156945D01*
X145301812Y-99147387D01*
X145303494Y-99146263D01*
X145303497Y-99146262D01*
X145303499Y-99146259D01*
X145305183Y-99145135D01*
X145320851Y-99132274D01*
X145344484Y-99116484D01*
X145360274Y-99092851D01*
X145373135Y-99077183D01*
X145374259Y-99075499D01*
X145374262Y-99075497D01*
X145374263Y-99075494D01*
X145375387Y-99073812D01*
X145384945Y-99055929D01*
X145400734Y-99032301D01*
X145406278Y-99004426D01*
X145411971Y-98985661D01*
X145412559Y-98983041D01*
X145412559Y-98983040D01*
X145412560Y-98983038D01*
X145412771Y-98978699D01*
X145415006Y-98960548D01*
X145420486Y-98933000D01*
X145415005Y-98905445D01*
X145412771Y-98887295D01*
X145412560Y-98882960D01*
X145411971Y-98880335D01*
X145406278Y-98861568D01*
X145400735Y-98833701D01*
X145400733Y-98833697D01*
X145384949Y-98810075D01*
X145375387Y-98792188D01*
X145374263Y-98790505D01*
X145374262Y-98790503D01*
X145374259Y-98790500D01*
X145373135Y-98788817D01*
X145360271Y-98773142D01*
X145344484Y-98749516D01*
X145344482Y-98749514D01*
X145320856Y-98733727D01*
X145305181Y-98720863D01*
X145301816Y-98718614D01*
X145283930Y-98709054D01*
X145260301Y-98693266D01*
X145260301Y-98693265D01*
X145232426Y-98687721D01*
X145213016Y-98681833D01*
X145209057Y-98681045D01*
X145188867Y-98679057D01*
X145176305Y-98676558D01*
X145161001Y-98673514D01*
X145160999Y-98673514D01*
X145145694Y-98676558D01*
X145133132Y-98679057D01*
X145112945Y-98681045D01*
X145108985Y-98681833D01*
X145089573Y-98687721D01*
X145068892Y-98691835D01*
X145061699Y-98693266D01*
X145061698Y-98693266D01*
X145061696Y-98693267D01*
X145038066Y-98709056D01*
X145020183Y-98718614D01*
X145016825Y-98720858D01*
X145001146Y-98733725D01*
X144977516Y-98749514D01*
X144977514Y-98749516D01*
X144961725Y-98773146D01*
X144948858Y-98788825D01*
X144946614Y-98792183D01*
X144937056Y-98810066D01*
X144921267Y-98833696D01*
X144921266Y-98833700D01*
X144915721Y-98861573D01*
X144909833Y-98880985D01*
X144909045Y-98884948D01*
X144907058Y-98905127D01*
X144901514Y-98933000D01*
X130302500Y-98933000D01*
X130302500Y-98400889D01*
X137921416Y-98400889D01*
X137921459Y-98425001D01*
X137921500Y-98425099D01*
X137921616Y-98425382D01*
X137921618Y-98425384D01*
X137921808Y-98425462D01*
X137922000Y-98425541D01*
X137922002Y-98425539D01*
X137946616Y-98425524D01*
X137946616Y-98425528D01*
X137946760Y-98425500D01*
X152375240Y-98425500D01*
X152375383Y-98425528D01*
X152375384Y-98425524D01*
X152399997Y-98425539D01*
X152400000Y-98425541D01*
X152400383Y-98425383D01*
X152400500Y-98425099D01*
X152400541Y-98425000D01*
X152400540Y-98424997D01*
X152400583Y-98400889D01*
X152400500Y-98400467D01*
X152400500Y-89662001D01*
X154269532Y-89662001D01*
X154289364Y-89888686D01*
X154289366Y-89888697D01*
X154348258Y-90108488D01*
X154348261Y-90108497D01*
X154444431Y-90314732D01*
X154444432Y-90314734D01*
X154574954Y-90501141D01*
X154735858Y-90662045D01*
X154735861Y-90662047D01*
X154922266Y-90792568D01*
X155128504Y-90888739D01*
X155348308Y-90947635D01*
X155510230Y-90961801D01*
X155574998Y-90967468D01*
X155575000Y-90967468D01*
X155575002Y-90967468D01*
X155631673Y-90962509D01*
X155801692Y-90947635D01*
X156021496Y-90888739D01*
X156227734Y-90792568D01*
X156414139Y-90662047D01*
X156575047Y-90501139D01*
X156705568Y-90314734D01*
X156801739Y-90108496D01*
X156860635Y-89888692D01*
X156880468Y-89662001D01*
X158714532Y-89662001D01*
X158734364Y-89888686D01*
X158734366Y-89888697D01*
X158793258Y-90108488D01*
X158793261Y-90108497D01*
X158889431Y-90314732D01*
X158889432Y-90314734D01*
X159019954Y-90501141D01*
X159180858Y-90662045D01*
X159180861Y-90662047D01*
X159367266Y-90792568D01*
X159573504Y-90888739D01*
X159793308Y-90947635D01*
X159955230Y-90961801D01*
X160019998Y-90967468D01*
X160020000Y-90967468D01*
X160020002Y-90967468D01*
X160076673Y-90962509D01*
X160246692Y-90947635D01*
X160466496Y-90888739D01*
X160672734Y-90792568D01*
X160859139Y-90662047D01*
X161020047Y-90501139D01*
X161150568Y-90314734D01*
X161246739Y-90108496D01*
X161305635Y-89888692D01*
X161325468Y-89662001D01*
X163159532Y-89662001D01*
X163179364Y-89888686D01*
X163179366Y-89888697D01*
X163238258Y-90108488D01*
X163238261Y-90108497D01*
X163334431Y-90314732D01*
X163334432Y-90314734D01*
X163464954Y-90501141D01*
X163625858Y-90662045D01*
X163625861Y-90662047D01*
X163812266Y-90792568D01*
X164018504Y-90888739D01*
X164238308Y-90947635D01*
X164400230Y-90961801D01*
X164464998Y-90967468D01*
X164465000Y-90967468D01*
X164465002Y-90967468D01*
X164521672Y-90962509D01*
X164691692Y-90947635D01*
X164911496Y-90888739D01*
X165117734Y-90792568D01*
X165304139Y-90662047D01*
X165465047Y-90501139D01*
X165595568Y-90314734D01*
X165691739Y-90108496D01*
X165750635Y-89888692D01*
X165770468Y-89662000D01*
X165750635Y-89435308D01*
X165691739Y-89215504D01*
X165595568Y-89009266D01*
X165465047Y-88822861D01*
X165465045Y-88822858D01*
X165304141Y-88661954D01*
X165117734Y-88531432D01*
X165117732Y-88531431D01*
X164911497Y-88435261D01*
X164911488Y-88435258D01*
X164691697Y-88376366D01*
X164691693Y-88376365D01*
X164691692Y-88376365D01*
X164691691Y-88376364D01*
X164691686Y-88376364D01*
X164465002Y-88356532D01*
X164464998Y-88356532D01*
X164238313Y-88376364D01*
X164238302Y-88376366D01*
X164018511Y-88435258D01*
X164018502Y-88435261D01*
X163812267Y-88531431D01*
X163812265Y-88531432D01*
X163625858Y-88661954D01*
X163464954Y-88822858D01*
X163334432Y-89009265D01*
X163334431Y-89009267D01*
X163238261Y-89215502D01*
X163238258Y-89215511D01*
X163179366Y-89435302D01*
X163179364Y-89435313D01*
X163159532Y-89661998D01*
X163159532Y-89662001D01*
X161325468Y-89662001D01*
X161325468Y-89662000D01*
X161305635Y-89435308D01*
X161246739Y-89215504D01*
X161150568Y-89009266D01*
X161020047Y-88822861D01*
X161020045Y-88822858D01*
X160859141Y-88661954D01*
X160672734Y-88531432D01*
X160672732Y-88531431D01*
X160466497Y-88435261D01*
X160466488Y-88435258D01*
X160246697Y-88376366D01*
X160246693Y-88376365D01*
X160246692Y-88376365D01*
X160246691Y-88376364D01*
X160246686Y-88376364D01*
X160020002Y-88356532D01*
X160019998Y-88356532D01*
X159793313Y-88376364D01*
X159793302Y-88376366D01*
X159573511Y-88435258D01*
X159573502Y-88435261D01*
X159367267Y-88531431D01*
X159367265Y-88531432D01*
X159180858Y-88661954D01*
X159019954Y-88822858D01*
X158889432Y-89009265D01*
X158889431Y-89009267D01*
X158793261Y-89215502D01*
X158793258Y-89215511D01*
X158734366Y-89435302D01*
X158734364Y-89435313D01*
X158714532Y-89661998D01*
X158714532Y-89662001D01*
X156880468Y-89662001D01*
X156880468Y-89662000D01*
X156860635Y-89435308D01*
X156801739Y-89215504D01*
X156705568Y-89009266D01*
X156575047Y-88822861D01*
X156575045Y-88822858D01*
X156414141Y-88661954D01*
X156227734Y-88531432D01*
X156227732Y-88531431D01*
X156021497Y-88435261D01*
X156021488Y-88435258D01*
X155801697Y-88376366D01*
X155801693Y-88376365D01*
X155801692Y-88376365D01*
X155801691Y-88376364D01*
X155801686Y-88376364D01*
X155575002Y-88356532D01*
X155574998Y-88356532D01*
X155348313Y-88376364D01*
X155348302Y-88376366D01*
X155128511Y-88435258D01*
X155128502Y-88435261D01*
X154922267Y-88531431D01*
X154922265Y-88531432D01*
X154735858Y-88661954D01*
X154574954Y-88822858D01*
X154444432Y-89009265D01*
X154444431Y-89009267D01*
X154348261Y-89215502D01*
X154348258Y-89215511D01*
X154289366Y-89435302D01*
X154289364Y-89435313D01*
X154269532Y-89661998D01*
X154269532Y-89662001D01*
X152400500Y-89662001D01*
X152400500Y-83480001D01*
X153614532Y-83480001D01*
X153634364Y-83706686D01*
X153634366Y-83706697D01*
X153693258Y-83926488D01*
X153693261Y-83926497D01*
X153789431Y-84132732D01*
X153789432Y-84132734D01*
X153919954Y-84319141D01*
X154080858Y-84480045D01*
X154080861Y-84480047D01*
X154267266Y-84610568D01*
X154473504Y-84706739D01*
X154693308Y-84765635D01*
X154855230Y-84779801D01*
X154919998Y-84785468D01*
X154920000Y-84785468D01*
X154920002Y-84785468D01*
X154976672Y-84780509D01*
X155146692Y-84765635D01*
X155366496Y-84706739D01*
X155572734Y-84610568D01*
X155759139Y-84480047D01*
X155920047Y-84319139D01*
X156050568Y-84132734D01*
X156146739Y-83926496D01*
X156205635Y-83706692D01*
X156225468Y-83480001D01*
X163774532Y-83480001D01*
X163794364Y-83706686D01*
X163794366Y-83706697D01*
X163853258Y-83926488D01*
X163853261Y-83926497D01*
X163949431Y-84132732D01*
X163949432Y-84132734D01*
X164079954Y-84319141D01*
X164240858Y-84480045D01*
X164240861Y-84480047D01*
X164427266Y-84610568D01*
X164633504Y-84706739D01*
X164853308Y-84765635D01*
X165015230Y-84779801D01*
X165079998Y-84785468D01*
X165080000Y-84785468D01*
X165080002Y-84785468D01*
X165136673Y-84780509D01*
X165306692Y-84765635D01*
X165526496Y-84706739D01*
X165732734Y-84610568D01*
X165919139Y-84480047D01*
X166080047Y-84319139D01*
X166210568Y-84132734D01*
X166306739Y-83926496D01*
X166365635Y-83706692D01*
X166385468Y-83480000D01*
X166365635Y-83253308D01*
X166306739Y-83033504D01*
X166210568Y-82827266D01*
X166080047Y-82640861D01*
X166080045Y-82640858D01*
X165919141Y-82479954D01*
X165732734Y-82349432D01*
X165732732Y-82349431D01*
X165526497Y-82253261D01*
X165526488Y-82253258D01*
X165306697Y-82194366D01*
X165306693Y-82194365D01*
X165306692Y-82194365D01*
X165306691Y-82194364D01*
X165306686Y-82194364D01*
X165080002Y-82174532D01*
X165079998Y-82174532D01*
X164853313Y-82194364D01*
X164853302Y-82194366D01*
X164633511Y-82253258D01*
X164633502Y-82253261D01*
X164427267Y-82349431D01*
X164427265Y-82349432D01*
X164240858Y-82479954D01*
X164079954Y-82640858D01*
X163949432Y-82827265D01*
X163949431Y-82827267D01*
X163853261Y-83033502D01*
X163853258Y-83033511D01*
X163794366Y-83253302D01*
X163794364Y-83253313D01*
X163774532Y-83479998D01*
X163774532Y-83480001D01*
X156225468Y-83480001D01*
X156225468Y-83480000D01*
X156205635Y-83253308D01*
X156146739Y-83033504D01*
X156050568Y-82827266D01*
X155920047Y-82640861D01*
X155920045Y-82640858D01*
X155759141Y-82479954D01*
X155572734Y-82349432D01*
X155572732Y-82349431D01*
X155366497Y-82253261D01*
X155366488Y-82253258D01*
X155146697Y-82194366D01*
X155146693Y-82194365D01*
X155146692Y-82194365D01*
X155146691Y-82194364D01*
X155146686Y-82194364D01*
X154920002Y-82174532D01*
X154919998Y-82174532D01*
X154693313Y-82194364D01*
X154693302Y-82194366D01*
X154473511Y-82253258D01*
X154473502Y-82253261D01*
X154267267Y-82349431D01*
X154267265Y-82349432D01*
X154080858Y-82479954D01*
X153919954Y-82640858D01*
X153789432Y-82827265D01*
X153789431Y-82827267D01*
X153693261Y-83033502D01*
X153693258Y-83033511D01*
X153634366Y-83253302D01*
X153634364Y-83253313D01*
X153614532Y-83479998D01*
X153614532Y-83480001D01*
X152400500Y-83480001D01*
X152400500Y-77135006D01*
X158594700Y-77135006D01*
X158613864Y-77366297D01*
X158613866Y-77366308D01*
X158670842Y-77591300D01*
X158764075Y-77803848D01*
X158891016Y-77998147D01*
X158891019Y-77998151D01*
X158891021Y-77998153D01*
X159048216Y-78168913D01*
X159048219Y-78168915D01*
X159048222Y-78168918D01*
X159231365Y-78311464D01*
X159231371Y-78311468D01*
X159231374Y-78311470D01*
X159435497Y-78421936D01*
X159549487Y-78461068D01*
X159655015Y-78497297D01*
X159655017Y-78497297D01*
X159655019Y-78497298D01*
X159883951Y-78535500D01*
X159883952Y-78535500D01*
X160116048Y-78535500D01*
X160116049Y-78535500D01*
X160344981Y-78497298D01*
X160564503Y-78421936D01*
X160768626Y-78311470D01*
X160951784Y-78168913D01*
X161108979Y-77998153D01*
X161235924Y-77803849D01*
X161329157Y-77591300D01*
X161386134Y-77366305D01*
X161386135Y-77366297D01*
X161405300Y-77135006D01*
X161405300Y-77134993D01*
X161386135Y-76903702D01*
X161386133Y-76903691D01*
X161329157Y-76678699D01*
X161235924Y-76466151D01*
X161108983Y-76271852D01*
X161108980Y-76271849D01*
X161108979Y-76271847D01*
X160951784Y-76101087D01*
X160951779Y-76101083D01*
X160951777Y-76101081D01*
X160768634Y-75958535D01*
X160768628Y-75958531D01*
X160564504Y-75848064D01*
X160564495Y-75848061D01*
X160344984Y-75772702D01*
X160173281Y-75744050D01*
X160116049Y-75734500D01*
X159883951Y-75734500D01*
X159838164Y-75742140D01*
X159655015Y-75772702D01*
X159435504Y-75848061D01*
X159435495Y-75848064D01*
X159231371Y-75958531D01*
X159231365Y-75958535D01*
X159048222Y-76101081D01*
X159048219Y-76101084D01*
X158891016Y-76271852D01*
X158764075Y-76466151D01*
X158670842Y-76678699D01*
X158613866Y-76903691D01*
X158613864Y-76903702D01*
X158594700Y-77134993D01*
X158594700Y-77135006D01*
X152400500Y-77135006D01*
X152400500Y-68250001D01*
X153634532Y-68250001D01*
X153654364Y-68476686D01*
X153654366Y-68476697D01*
X153713258Y-68696488D01*
X153713261Y-68696497D01*
X153809431Y-68902732D01*
X153809432Y-68902734D01*
X153939954Y-69089141D01*
X154100858Y-69250045D01*
X154100861Y-69250047D01*
X154287266Y-69380568D01*
X154493504Y-69476739D01*
X154713308Y-69535635D01*
X154875230Y-69549801D01*
X154939998Y-69555468D01*
X154940000Y-69555468D01*
X154940002Y-69555468D01*
X154996807Y-69550498D01*
X155166692Y-69535635D01*
X155386496Y-69476739D01*
X155592734Y-69380568D01*
X155779139Y-69250047D01*
X155931316Y-69097870D01*
X160624500Y-69097870D01*
X160624501Y-69097876D01*
X160630908Y-69157483D01*
X160681202Y-69292328D01*
X160681206Y-69292335D01*
X160767452Y-69407544D01*
X160767455Y-69407547D01*
X160882664Y-69493793D01*
X160882671Y-69493797D01*
X161017517Y-69544091D01*
X161017516Y-69544091D01*
X161024444Y-69544835D01*
X161077127Y-69550500D01*
X162772872Y-69550499D01*
X162832483Y-69544091D01*
X162967331Y-69493796D01*
X163082546Y-69407546D01*
X163168796Y-69292331D01*
X163219091Y-69157483D01*
X163225500Y-69097873D01*
X163225499Y-67402128D01*
X163219091Y-67342517D01*
X163184567Y-67249954D01*
X163168797Y-67207671D01*
X163168793Y-67207664D01*
X163082547Y-67092455D01*
X163082544Y-67092452D01*
X162967335Y-67006206D01*
X162967328Y-67006202D01*
X162832482Y-66955908D01*
X162832483Y-66955908D01*
X162772883Y-66949501D01*
X162772881Y-66949500D01*
X162772873Y-66949500D01*
X162772864Y-66949500D01*
X161077129Y-66949500D01*
X161077123Y-66949501D01*
X161017516Y-66955908D01*
X160882671Y-67006202D01*
X160882664Y-67006206D01*
X160767455Y-67092452D01*
X160767452Y-67092455D01*
X160681206Y-67207664D01*
X160681202Y-67207671D01*
X160630908Y-67342517D01*
X160624501Y-67402116D01*
X160624501Y-67402123D01*
X160624500Y-67402135D01*
X160624500Y-69097870D01*
X155931316Y-69097870D01*
X155940047Y-69089139D01*
X156070568Y-68902734D01*
X156166739Y-68696496D01*
X156225635Y-68476692D01*
X156245468Y-68250000D01*
X156243298Y-68225202D01*
X156225635Y-68023313D01*
X156225635Y-68023308D01*
X156166739Y-67803504D01*
X156070568Y-67597266D01*
X155940047Y-67410861D01*
X155940045Y-67410858D01*
X155779141Y-67249954D01*
X155592734Y-67119432D01*
X155592732Y-67119431D01*
X155386497Y-67023261D01*
X155386488Y-67023258D01*
X155166697Y-66964366D01*
X155166693Y-66964365D01*
X155166692Y-66964365D01*
X155166691Y-66964364D01*
X155166686Y-66964364D01*
X154940002Y-66944532D01*
X154939998Y-66944532D01*
X154713313Y-66964364D01*
X154713302Y-66964366D01*
X154493511Y-67023258D01*
X154493502Y-67023261D01*
X154287267Y-67119431D01*
X154287265Y-67119432D01*
X154100858Y-67249954D01*
X153939954Y-67410858D01*
X153809432Y-67597265D01*
X153809431Y-67597267D01*
X153713261Y-67803502D01*
X153713258Y-67803511D01*
X153654366Y-68023302D01*
X153654364Y-68023313D01*
X153634532Y-68249998D01*
X153634532Y-68250001D01*
X152400500Y-68250001D01*
X152400500Y-64135000D01*
X159934341Y-64135000D01*
X159954936Y-64370403D01*
X159954938Y-64370413D01*
X160016094Y-64598655D01*
X160016096Y-64598659D01*
X160016097Y-64598663D01*
X160100499Y-64779663D01*
X160115965Y-64812830D01*
X160115967Y-64812834D01*
X160224281Y-64967521D01*
X160251505Y-65006401D01*
X160418599Y-65173495D01*
X160515384Y-65241265D01*
X160612165Y-65309032D01*
X160612167Y-65309033D01*
X160612170Y-65309035D01*
X160826337Y-65408903D01*
X161054592Y-65470063D01*
X161231034Y-65485500D01*
X161289999Y-65490659D01*
X161290000Y-65490659D01*
X161290001Y-65490659D01*
X161348966Y-65485500D01*
X161525408Y-65470063D01*
X161753663Y-65408903D01*
X161967830Y-65309035D01*
X162161401Y-65173495D01*
X162283329Y-65051566D01*
X162344648Y-65018084D01*
X162414340Y-65023068D01*
X162470274Y-65064939D01*
X162487189Y-65095917D01*
X162536202Y-65227328D01*
X162536206Y-65227335D01*
X162622452Y-65342544D01*
X162622455Y-65342547D01*
X162737664Y-65428793D01*
X162737671Y-65428797D01*
X162872517Y-65479091D01*
X162872516Y-65479091D01*
X162879444Y-65479835D01*
X162932127Y-65485500D01*
X164727872Y-65485499D01*
X164787483Y-65479091D01*
X164922331Y-65428796D01*
X165037546Y-65342546D01*
X165123796Y-65227331D01*
X165174091Y-65092483D01*
X165180500Y-65032873D01*
X165180499Y-63237128D01*
X165174091Y-63177517D01*
X165172810Y-63174083D01*
X165123797Y-63042671D01*
X165123793Y-63042664D01*
X165037547Y-62927455D01*
X165037544Y-62927452D01*
X164922335Y-62841206D01*
X164922328Y-62841202D01*
X164787482Y-62790908D01*
X164787483Y-62790908D01*
X164727883Y-62784501D01*
X164727881Y-62784500D01*
X164727873Y-62784500D01*
X164727864Y-62784500D01*
X162932129Y-62784500D01*
X162932123Y-62784501D01*
X162872516Y-62790908D01*
X162737671Y-62841202D01*
X162737664Y-62841206D01*
X162622455Y-62927452D01*
X162622452Y-62927455D01*
X162536206Y-63042664D01*
X162536203Y-63042669D01*
X162487189Y-63174083D01*
X162445317Y-63230016D01*
X162379853Y-63254433D01*
X162311580Y-63239581D01*
X162283326Y-63218430D01*
X162161402Y-63096506D01*
X162161395Y-63096501D01*
X161967834Y-62960967D01*
X161967830Y-62960965D01*
X161967829Y-62960964D01*
X161753663Y-62861097D01*
X161753659Y-62861096D01*
X161753655Y-62861094D01*
X161525413Y-62799938D01*
X161525403Y-62799936D01*
X161290001Y-62779341D01*
X161289999Y-62779341D01*
X161054596Y-62799936D01*
X161054586Y-62799938D01*
X160826344Y-62861094D01*
X160826335Y-62861098D01*
X160612171Y-62960964D01*
X160612169Y-62960965D01*
X160418597Y-63096505D01*
X160251505Y-63263597D01*
X160115965Y-63457169D01*
X160115964Y-63457171D01*
X160016098Y-63671335D01*
X160016094Y-63671344D01*
X159954938Y-63899586D01*
X159954936Y-63899596D01*
X159934341Y-64134999D01*
X159934341Y-64135000D01*
X152400500Y-64135000D01*
X152400500Y-60349759D01*
X152400528Y-60349616D01*
X152400524Y-60349616D01*
X152400539Y-60325002D01*
X152400541Y-60325000D01*
X152400462Y-60324808D01*
X152400384Y-60324618D01*
X152400382Y-60324616D01*
X152400099Y-60324500D01*
X152400000Y-60324459D01*
X152375446Y-60324459D01*
X152375240Y-60324500D01*
X137946760Y-60324500D01*
X137946554Y-60324459D01*
X137922000Y-60324459D01*
X137921901Y-60324500D01*
X137921617Y-60324616D01*
X137921615Y-60324618D01*
X137921459Y-60324999D01*
X137921476Y-60349616D01*
X137921471Y-60349616D01*
X137921500Y-60349759D01*
X137921500Y-98400467D01*
X137921416Y-98400889D01*
X130302500Y-98400889D01*
X130302500Y-93370401D01*
X134208932Y-93370401D01*
X134228764Y-93597086D01*
X134228766Y-93597097D01*
X134287658Y-93816888D01*
X134287661Y-93816897D01*
X134383831Y-94023132D01*
X134383832Y-94023134D01*
X134514354Y-94209541D01*
X134675258Y-94370445D01*
X134675261Y-94370447D01*
X134861666Y-94500968D01*
X135067904Y-94597139D01*
X135287708Y-94656035D01*
X135449630Y-94670201D01*
X135514398Y-94675868D01*
X135514400Y-94675868D01*
X135514402Y-94675868D01*
X135571073Y-94670909D01*
X135741092Y-94656035D01*
X135960896Y-94597139D01*
X136167134Y-94500968D01*
X136353539Y-94370447D01*
X136514447Y-94209539D01*
X136644968Y-94023134D01*
X136741139Y-93816896D01*
X136800035Y-93597092D01*
X136819868Y-93370400D01*
X136800035Y-93143708D01*
X136741139Y-92923904D01*
X136644968Y-92717666D01*
X136514447Y-92531261D01*
X136514445Y-92531258D01*
X136353541Y-92370354D01*
X136167134Y-92239832D01*
X136167132Y-92239831D01*
X135960897Y-92143661D01*
X135960888Y-92143658D01*
X135741097Y-92084766D01*
X135741093Y-92084765D01*
X135741092Y-92084765D01*
X135741091Y-92084764D01*
X135741086Y-92084764D01*
X135514402Y-92064932D01*
X135514398Y-92064932D01*
X135287713Y-92084764D01*
X135287702Y-92084766D01*
X135067911Y-92143658D01*
X135067902Y-92143661D01*
X134861667Y-92239831D01*
X134861665Y-92239832D01*
X134675258Y-92370354D01*
X134514354Y-92531258D01*
X134383832Y-92717665D01*
X134383831Y-92717667D01*
X134287661Y-92923902D01*
X134287658Y-92923911D01*
X134228766Y-93143702D01*
X134228764Y-93143713D01*
X134208932Y-93370398D01*
X134208932Y-93370401D01*
X130302500Y-93370401D01*
X130302500Y-88906001D01*
X134208932Y-88906001D01*
X134228764Y-89132686D01*
X134228766Y-89132697D01*
X134287658Y-89352488D01*
X134287661Y-89352497D01*
X134383831Y-89558732D01*
X134383832Y-89558734D01*
X134514354Y-89745141D01*
X134675258Y-89906045D01*
X134675261Y-89906047D01*
X134861666Y-90036568D01*
X135067904Y-90132739D01*
X135287708Y-90191635D01*
X135449630Y-90205801D01*
X135514398Y-90211468D01*
X135514400Y-90211468D01*
X135514402Y-90211468D01*
X135571073Y-90206509D01*
X135741092Y-90191635D01*
X135960896Y-90132739D01*
X136167134Y-90036568D01*
X136353539Y-89906047D01*
X136514447Y-89745139D01*
X136644968Y-89558734D01*
X136741139Y-89352496D01*
X136800035Y-89132692D01*
X136819868Y-88906000D01*
X136800035Y-88679308D01*
X136741139Y-88459504D01*
X136644968Y-88253266D01*
X136514447Y-88066861D01*
X136514445Y-88066858D01*
X136353541Y-87905954D01*
X136167134Y-87775432D01*
X136167132Y-87775431D01*
X135960897Y-87679261D01*
X135960888Y-87679258D01*
X135741097Y-87620366D01*
X135741093Y-87620365D01*
X135741092Y-87620365D01*
X135741091Y-87620364D01*
X135741086Y-87620364D01*
X135514402Y-87600532D01*
X135514398Y-87600532D01*
X135287713Y-87620364D01*
X135287702Y-87620366D01*
X135067911Y-87679258D01*
X135067902Y-87679261D01*
X134861667Y-87775431D01*
X134861665Y-87775432D01*
X134675258Y-87905954D01*
X134514354Y-88066858D01*
X134383832Y-88253265D01*
X134383831Y-88253267D01*
X134287661Y-88459502D01*
X134287658Y-88459511D01*
X134228766Y-88679302D01*
X134228764Y-88679313D01*
X134208932Y-88905998D01*
X134208932Y-88906001D01*
X130302500Y-88906001D01*
X130302500Y-84429601D01*
X134208932Y-84429601D01*
X134228764Y-84656286D01*
X134228766Y-84656297D01*
X134287658Y-84876088D01*
X134287661Y-84876097D01*
X134383831Y-85082332D01*
X134383832Y-85082334D01*
X134514354Y-85268741D01*
X134675258Y-85429645D01*
X134675261Y-85429647D01*
X134861666Y-85560168D01*
X135067904Y-85656339D01*
X135287708Y-85715235D01*
X135449630Y-85729401D01*
X135514398Y-85735068D01*
X135514400Y-85735068D01*
X135514402Y-85735068D01*
X135571073Y-85730109D01*
X135741092Y-85715235D01*
X135960896Y-85656339D01*
X136167134Y-85560168D01*
X136353539Y-85429647D01*
X136514447Y-85268739D01*
X136644968Y-85082334D01*
X136741139Y-84876096D01*
X136800035Y-84656292D01*
X136819868Y-84429600D01*
X136800035Y-84202908D01*
X136741139Y-83983104D01*
X136644968Y-83776866D01*
X136514447Y-83590461D01*
X136514445Y-83590458D01*
X136353541Y-83429554D01*
X136167134Y-83299032D01*
X136167132Y-83299031D01*
X135960897Y-83202861D01*
X135960888Y-83202858D01*
X135741097Y-83143966D01*
X135741093Y-83143965D01*
X135741092Y-83143965D01*
X135741091Y-83143964D01*
X135741086Y-83143964D01*
X135514402Y-83124132D01*
X135514398Y-83124132D01*
X135287713Y-83143964D01*
X135287702Y-83143966D01*
X135067911Y-83202858D01*
X135067902Y-83202861D01*
X134861667Y-83299031D01*
X134861665Y-83299032D01*
X134675258Y-83429554D01*
X134514354Y-83590458D01*
X134383832Y-83776865D01*
X134383831Y-83776867D01*
X134287661Y-83983102D01*
X134287658Y-83983111D01*
X134228766Y-84202902D01*
X134228764Y-84202913D01*
X134208932Y-84429598D01*
X134208932Y-84429601D01*
X130302500Y-84429601D01*
X130302500Y-76149201D01*
X134158132Y-76149201D01*
X134177964Y-76375886D01*
X134177966Y-76375897D01*
X134236858Y-76595688D01*
X134236861Y-76595697D01*
X134333031Y-76801932D01*
X134333032Y-76801934D01*
X134463554Y-76988341D01*
X134624458Y-77149245D01*
X134624461Y-77149247D01*
X134810866Y-77279768D01*
X135017104Y-77375939D01*
X135236908Y-77434835D01*
X135398830Y-77449001D01*
X135463598Y-77454668D01*
X135463600Y-77454668D01*
X135463602Y-77454668D01*
X135520272Y-77449709D01*
X135690292Y-77434835D01*
X135910096Y-77375939D01*
X136116334Y-77279768D01*
X136302739Y-77149247D01*
X136463647Y-76988339D01*
X136594168Y-76801934D01*
X136690339Y-76595696D01*
X136749235Y-76375892D01*
X136769068Y-76149200D01*
X136749235Y-75922508D01*
X136690339Y-75702704D01*
X136594168Y-75496466D01*
X136463647Y-75310061D01*
X136463645Y-75310058D01*
X136302741Y-75149154D01*
X136116334Y-75018632D01*
X136116332Y-75018631D01*
X135910097Y-74922461D01*
X135910088Y-74922458D01*
X135690297Y-74863566D01*
X135690293Y-74863565D01*
X135690292Y-74863565D01*
X135690291Y-74863564D01*
X135690286Y-74863564D01*
X135463602Y-74843732D01*
X135463598Y-74843732D01*
X135236913Y-74863564D01*
X135236902Y-74863566D01*
X135017111Y-74922458D01*
X135017102Y-74922461D01*
X134810867Y-75018631D01*
X134810865Y-75018632D01*
X134624458Y-75149154D01*
X134463554Y-75310058D01*
X134333032Y-75496465D01*
X134333031Y-75496467D01*
X134236861Y-75702702D01*
X134236858Y-75702711D01*
X134177966Y-75922502D01*
X134177964Y-75922513D01*
X134158132Y-76149198D01*
X134158132Y-76149201D01*
X130302500Y-76149201D01*
X130302500Y-70316870D01*
X134092300Y-70316870D01*
X134092301Y-70316876D01*
X134098708Y-70376483D01*
X134149002Y-70511328D01*
X134149006Y-70511335D01*
X134235252Y-70626544D01*
X134235255Y-70626547D01*
X134350464Y-70712793D01*
X134350471Y-70712797D01*
X134485317Y-70763091D01*
X134485316Y-70763091D01*
X134492244Y-70763835D01*
X134544927Y-70769500D01*
X136240672Y-70769499D01*
X136300283Y-70763091D01*
X136435131Y-70712796D01*
X136550346Y-70626546D01*
X136636596Y-70511331D01*
X136686891Y-70376483D01*
X136693300Y-70316873D01*
X136693299Y-68621128D01*
X136686891Y-68561517D01*
X136655255Y-68476697D01*
X136636597Y-68426671D01*
X136636593Y-68426664D01*
X136550347Y-68311455D01*
X136550344Y-68311452D01*
X136435135Y-68225206D01*
X136435128Y-68225202D01*
X136300282Y-68174908D01*
X136300283Y-68174908D01*
X136240683Y-68168501D01*
X136240681Y-68168500D01*
X136240673Y-68168500D01*
X136240664Y-68168500D01*
X134544929Y-68168500D01*
X134544923Y-68168501D01*
X134485316Y-68174908D01*
X134350471Y-68225202D01*
X134350464Y-68225206D01*
X134235255Y-68311452D01*
X134235252Y-68311455D01*
X134149006Y-68426664D01*
X134149002Y-68426671D01*
X134098708Y-68561517D01*
X134092301Y-68621116D01*
X134092301Y-68621123D01*
X134092300Y-68621135D01*
X134092300Y-70316870D01*
X130302500Y-70316870D01*
X130302500Y-65032870D01*
X134031500Y-65032870D01*
X134031501Y-65032876D01*
X134037908Y-65092483D01*
X134088202Y-65227328D01*
X134088206Y-65227335D01*
X134174452Y-65342544D01*
X134174455Y-65342547D01*
X134289664Y-65428793D01*
X134289671Y-65428797D01*
X134424517Y-65479091D01*
X134424516Y-65479091D01*
X134431444Y-65479835D01*
X134484127Y-65485500D01*
X136279872Y-65485499D01*
X136339483Y-65479091D01*
X136474331Y-65428796D01*
X136589546Y-65342546D01*
X136675796Y-65227331D01*
X136726091Y-65092483D01*
X136732500Y-65032873D01*
X136732499Y-63237128D01*
X136726091Y-63177517D01*
X136724810Y-63174083D01*
X136675797Y-63042671D01*
X136675793Y-63042664D01*
X136589547Y-62927455D01*
X136589544Y-62927452D01*
X136474335Y-62841206D01*
X136474328Y-62841202D01*
X136339482Y-62790908D01*
X136339483Y-62790908D01*
X136279883Y-62784501D01*
X136279881Y-62784500D01*
X136279873Y-62784500D01*
X136279864Y-62784500D01*
X134484129Y-62784500D01*
X134484123Y-62784501D01*
X134424516Y-62790908D01*
X134289671Y-62841202D01*
X134289664Y-62841206D01*
X134174455Y-62927452D01*
X134174452Y-62927455D01*
X134088206Y-63042664D01*
X134088202Y-63042671D01*
X134037908Y-63177517D01*
X134031501Y-63237116D01*
X134031501Y-63237123D01*
X134031500Y-63237135D01*
X134031500Y-65032870D01*
X130302500Y-65032870D01*
X130302500Y-59817000D01*
X144901514Y-59817000D01*
X144907057Y-59844866D01*
X144909045Y-59865057D01*
X144909833Y-59869016D01*
X144915721Y-59888426D01*
X144921266Y-59916301D01*
X144937054Y-59939930D01*
X144946614Y-59957816D01*
X144948863Y-59961181D01*
X144961727Y-59976856D01*
X144977514Y-60000482D01*
X144977516Y-60000484D01*
X145001142Y-60016271D01*
X145016817Y-60029135D01*
X145018500Y-60030259D01*
X145018503Y-60030262D01*
X145018505Y-60030263D01*
X145020188Y-60031387D01*
X145038075Y-60040949D01*
X145061697Y-60056733D01*
X145061699Y-60056734D01*
X145089575Y-60062278D01*
X145108974Y-60068164D01*
X145110959Y-60068559D01*
X145110962Y-60068560D01*
X145110965Y-60068560D01*
X145112945Y-60068954D01*
X145133132Y-60070942D01*
X145145694Y-60073441D01*
X145160999Y-60076486D01*
X145161000Y-60076486D01*
X145161001Y-60076486D01*
X145176305Y-60073441D01*
X145188867Y-60070942D01*
X145209057Y-60068954D01*
X145211035Y-60068560D01*
X145211038Y-60068560D01*
X145211040Y-60068559D01*
X145213024Y-60068164D01*
X145232427Y-60062278D01*
X145260301Y-60056734D01*
X145283929Y-60040945D01*
X145301812Y-60031387D01*
X145303494Y-60030263D01*
X145303497Y-60030262D01*
X145303499Y-60030259D01*
X145305183Y-60029135D01*
X145320851Y-60016274D01*
X145344484Y-60000484D01*
X145360274Y-59976851D01*
X145373135Y-59961183D01*
X145374259Y-59959499D01*
X145374262Y-59959497D01*
X145374263Y-59959494D01*
X145375387Y-59957812D01*
X145384945Y-59939929D01*
X145400734Y-59916301D01*
X145406278Y-59888426D01*
X145411971Y-59869661D01*
X145412559Y-59867041D01*
X145412559Y-59867040D01*
X145412560Y-59867038D01*
X145412771Y-59862699D01*
X145415006Y-59844548D01*
X145420486Y-59817000D01*
X145415005Y-59789445D01*
X145412771Y-59771295D01*
X145412560Y-59766960D01*
X145411971Y-59764335D01*
X145406278Y-59745568D01*
X145400735Y-59717701D01*
X145400733Y-59717697D01*
X145384949Y-59694075D01*
X145375387Y-59676188D01*
X145374263Y-59674505D01*
X145374262Y-59674503D01*
X145374259Y-59674500D01*
X145373135Y-59672817D01*
X145360271Y-59657142D01*
X145344484Y-59633516D01*
X145344482Y-59633514D01*
X145320856Y-59617727D01*
X145305181Y-59604863D01*
X145301816Y-59602614D01*
X145283930Y-59593054D01*
X145260301Y-59577266D01*
X145260300Y-59577266D01*
X145232426Y-59571721D01*
X145213016Y-59565833D01*
X145209057Y-59565045D01*
X145188867Y-59563057D01*
X145161518Y-59557617D01*
X145161035Y-59557364D01*
X145160481Y-59557617D01*
X145133131Y-59563057D01*
X145112945Y-59565045D01*
X145108985Y-59565833D01*
X145089573Y-59571721D01*
X145068892Y-59575835D01*
X145061699Y-59577266D01*
X145061698Y-59577266D01*
X145061696Y-59577267D01*
X145038066Y-59593056D01*
X145020183Y-59602614D01*
X145016825Y-59604858D01*
X145001146Y-59617725D01*
X144977516Y-59633514D01*
X144977514Y-59633516D01*
X144961725Y-59657146D01*
X144948858Y-59672825D01*
X144946614Y-59676183D01*
X144937056Y-59694066D01*
X144921267Y-59717696D01*
X144921266Y-59717700D01*
X144915721Y-59745573D01*
X144909833Y-59764985D01*
X144909045Y-59768948D01*
X144907058Y-59789127D01*
X144901514Y-59817000D01*
X130302500Y-59817000D01*
X130302500Y-59055000D01*
X144901514Y-59055000D01*
X144907057Y-59082866D01*
X144909045Y-59103057D01*
X144909833Y-59107016D01*
X144915721Y-59126426D01*
X144921266Y-59154301D01*
X144937054Y-59177930D01*
X144946614Y-59195816D01*
X144948863Y-59199181D01*
X144961727Y-59214856D01*
X144977514Y-59238482D01*
X144977516Y-59238484D01*
X145001142Y-59254271D01*
X145016817Y-59267135D01*
X145018500Y-59268259D01*
X145018503Y-59268262D01*
X145018505Y-59268263D01*
X145020188Y-59269387D01*
X145038075Y-59278949D01*
X145061697Y-59294733D01*
X145061699Y-59294734D01*
X145089575Y-59300278D01*
X145108974Y-59306164D01*
X145110959Y-59306559D01*
X145110962Y-59306560D01*
X145110965Y-59306560D01*
X145112945Y-59306954D01*
X145133131Y-59308942D01*
X145158035Y-59313896D01*
X145160482Y-59314383D01*
X145160964Y-59314635D01*
X145161518Y-59314383D01*
X145166411Y-59313409D01*
X145188867Y-59308942D01*
X145209057Y-59306954D01*
X145211035Y-59306560D01*
X145211038Y-59306560D01*
X145211040Y-59306559D01*
X145213024Y-59306164D01*
X145232427Y-59300278D01*
X145260301Y-59294734D01*
X145283929Y-59278945D01*
X145301812Y-59269387D01*
X145303494Y-59268263D01*
X145303497Y-59268262D01*
X145303499Y-59268259D01*
X145305183Y-59267135D01*
X145320851Y-59254274D01*
X145344484Y-59238484D01*
X145360274Y-59214851D01*
X145373135Y-59199183D01*
X145374259Y-59197499D01*
X145374262Y-59197497D01*
X145374263Y-59197494D01*
X145375387Y-59195812D01*
X145384945Y-59177929D01*
X145400734Y-59154301D01*
X145406278Y-59126426D01*
X145411971Y-59107661D01*
X145412559Y-59105041D01*
X145412559Y-59105040D01*
X145412560Y-59105038D01*
X145412771Y-59100699D01*
X145415006Y-59082548D01*
X145420486Y-59055000D01*
X145415005Y-59027445D01*
X145412771Y-59009295D01*
X145412560Y-59004960D01*
X145411971Y-59002335D01*
X145406278Y-58983568D01*
X145400735Y-58955701D01*
X145400733Y-58955697D01*
X145384949Y-58932075D01*
X145375387Y-58914188D01*
X145374263Y-58912505D01*
X145374262Y-58912503D01*
X145374259Y-58912500D01*
X145373135Y-58910817D01*
X145360271Y-58895142D01*
X145344484Y-58871516D01*
X145344482Y-58871514D01*
X145320856Y-58855727D01*
X145305181Y-58842863D01*
X145301816Y-58840614D01*
X145283930Y-58831054D01*
X145260301Y-58815266D01*
X145260300Y-58815266D01*
X145232426Y-58809721D01*
X145213016Y-58803833D01*
X145209057Y-58803045D01*
X145188867Y-58801057D01*
X145161518Y-58795617D01*
X145161035Y-58795364D01*
X145160481Y-58795617D01*
X145133131Y-58801057D01*
X145112945Y-58803045D01*
X145108985Y-58803833D01*
X145089573Y-58809721D01*
X145068892Y-58813835D01*
X145061699Y-58815266D01*
X145061698Y-58815266D01*
X145061696Y-58815267D01*
X145038066Y-58831056D01*
X145020183Y-58840614D01*
X145016825Y-58842858D01*
X145001146Y-58855725D01*
X144977516Y-58871514D01*
X144977514Y-58871516D01*
X144961725Y-58895146D01*
X144948858Y-58910825D01*
X144946614Y-58914183D01*
X144937056Y-58932066D01*
X144921267Y-58955696D01*
X144921266Y-58955700D01*
X144915721Y-58983573D01*
X144909833Y-59002985D01*
X144909045Y-59006948D01*
X144907058Y-59027127D01*
X144901514Y-59055000D01*
X130302500Y-59055000D01*
X130302500Y-58293000D01*
X144901514Y-58293000D01*
X144907057Y-58320866D01*
X144909045Y-58341057D01*
X144909833Y-58345016D01*
X144915721Y-58364426D01*
X144921266Y-58392301D01*
X144937054Y-58415930D01*
X144946614Y-58433816D01*
X144948863Y-58437181D01*
X144961727Y-58452856D01*
X144977514Y-58476482D01*
X144977516Y-58476484D01*
X145001142Y-58492271D01*
X145016817Y-58505135D01*
X145018500Y-58506259D01*
X145018503Y-58506262D01*
X145018505Y-58506263D01*
X145020188Y-58507387D01*
X145038075Y-58516949D01*
X145061697Y-58532733D01*
X145061699Y-58532734D01*
X145089575Y-58538278D01*
X145108974Y-58544164D01*
X145110959Y-58544559D01*
X145110962Y-58544560D01*
X145110965Y-58544560D01*
X145112945Y-58544954D01*
X145133131Y-58546942D01*
X145158035Y-58551896D01*
X145160482Y-58552383D01*
X145160964Y-58552635D01*
X145161518Y-58552383D01*
X145166411Y-58551409D01*
X145188867Y-58546942D01*
X145209057Y-58544954D01*
X145211035Y-58544560D01*
X145211038Y-58544560D01*
X145211040Y-58544559D01*
X145213024Y-58544164D01*
X145232427Y-58538278D01*
X145260301Y-58532734D01*
X145283929Y-58516945D01*
X145301812Y-58507387D01*
X145303494Y-58506263D01*
X145303497Y-58506262D01*
X145303499Y-58506259D01*
X145305183Y-58505135D01*
X145320851Y-58492274D01*
X145344484Y-58476484D01*
X145360274Y-58452851D01*
X145373135Y-58437183D01*
X145374259Y-58435499D01*
X145374262Y-58435497D01*
X145374263Y-58435494D01*
X145375387Y-58433812D01*
X145384945Y-58415929D01*
X145400734Y-58392301D01*
X145406278Y-58364426D01*
X145411971Y-58345661D01*
X145412559Y-58343041D01*
X145412559Y-58343040D01*
X145412560Y-58343038D01*
X145412771Y-58338699D01*
X145415006Y-58320548D01*
X145420486Y-58293000D01*
X145415005Y-58265445D01*
X145412771Y-58247295D01*
X145412560Y-58242960D01*
X145411971Y-58240335D01*
X145406278Y-58221568D01*
X145400735Y-58193701D01*
X145400733Y-58193697D01*
X145384949Y-58170075D01*
X145375387Y-58152188D01*
X145374263Y-58150505D01*
X145374262Y-58150503D01*
X145374259Y-58150500D01*
X145373135Y-58148817D01*
X145360271Y-58133142D01*
X145344484Y-58109516D01*
X145344482Y-58109514D01*
X145320856Y-58093727D01*
X145305181Y-58080863D01*
X145301816Y-58078614D01*
X145283930Y-58069054D01*
X145260301Y-58053266D01*
X145260300Y-58053266D01*
X145232426Y-58047721D01*
X145213016Y-58041833D01*
X145209057Y-58041045D01*
X145188867Y-58039057D01*
X145161518Y-58033617D01*
X145161035Y-58033364D01*
X145160481Y-58033617D01*
X145133131Y-58039057D01*
X145112945Y-58041045D01*
X145108985Y-58041833D01*
X145089573Y-58047721D01*
X145068892Y-58051835D01*
X145061699Y-58053266D01*
X145061698Y-58053266D01*
X145061696Y-58053267D01*
X145038066Y-58069056D01*
X145020183Y-58078614D01*
X145016825Y-58080858D01*
X145001146Y-58093725D01*
X144977516Y-58109514D01*
X144977514Y-58109516D01*
X144961725Y-58133146D01*
X144948858Y-58148825D01*
X144946614Y-58152183D01*
X144937056Y-58170066D01*
X144921267Y-58193696D01*
X144921266Y-58193700D01*
X144915721Y-58221573D01*
X144909833Y-58240985D01*
X144909045Y-58244948D01*
X144907058Y-58265127D01*
X144901514Y-58293000D01*
X130302500Y-58293000D01*
X130302500Y-57531000D01*
X144901514Y-57531000D01*
X144907057Y-57558866D01*
X144909045Y-57579057D01*
X144909833Y-57583016D01*
X144915721Y-57602426D01*
X144921266Y-57630301D01*
X144937054Y-57653930D01*
X144946614Y-57671816D01*
X144948863Y-57675181D01*
X144961727Y-57690856D01*
X144977514Y-57714482D01*
X144977516Y-57714484D01*
X145001142Y-57730271D01*
X145016817Y-57743135D01*
X145018500Y-57744259D01*
X145018503Y-57744262D01*
X145018505Y-57744263D01*
X145020188Y-57745387D01*
X145038075Y-57754949D01*
X145061697Y-57770733D01*
X145061699Y-57770734D01*
X145089575Y-57776278D01*
X145108974Y-57782164D01*
X145110959Y-57782559D01*
X145110962Y-57782560D01*
X145110965Y-57782560D01*
X145112945Y-57782954D01*
X145133131Y-57784942D01*
X145158035Y-57789896D01*
X145160482Y-57790383D01*
X145160964Y-57790635D01*
X145161518Y-57790383D01*
X145166411Y-57789409D01*
X145188867Y-57784942D01*
X145209057Y-57782954D01*
X145211035Y-57782560D01*
X145211038Y-57782560D01*
X145211040Y-57782559D01*
X145213024Y-57782164D01*
X145232427Y-57776278D01*
X145260301Y-57770734D01*
X145283929Y-57754945D01*
X145301812Y-57745387D01*
X145303494Y-57744263D01*
X145303497Y-57744262D01*
X145303499Y-57744259D01*
X145305183Y-57743135D01*
X145320851Y-57730274D01*
X145344484Y-57714484D01*
X145360274Y-57690851D01*
X145373135Y-57675183D01*
X145374259Y-57673499D01*
X145374262Y-57673497D01*
X145374263Y-57673494D01*
X145375387Y-57671812D01*
X145384945Y-57653929D01*
X145400734Y-57630301D01*
X145406278Y-57602426D01*
X145411971Y-57583661D01*
X145412559Y-57581041D01*
X145412559Y-57581040D01*
X145412560Y-57581038D01*
X145412771Y-57576699D01*
X145415006Y-57558548D01*
X145420486Y-57531000D01*
X145415005Y-57503445D01*
X145412771Y-57485295D01*
X145412560Y-57480960D01*
X145411971Y-57478335D01*
X145406278Y-57459568D01*
X145400735Y-57431701D01*
X145400733Y-57431697D01*
X145384949Y-57408075D01*
X145375387Y-57390188D01*
X145374263Y-57388505D01*
X145374262Y-57388503D01*
X145374259Y-57388500D01*
X145373135Y-57386817D01*
X145360271Y-57371142D01*
X145344484Y-57347516D01*
X145344482Y-57347514D01*
X145320856Y-57331727D01*
X145305181Y-57318863D01*
X145301816Y-57316614D01*
X145283930Y-57307054D01*
X145260301Y-57291266D01*
X145260300Y-57291266D01*
X145232426Y-57285721D01*
X145213016Y-57279833D01*
X145209057Y-57279045D01*
X145188867Y-57277057D01*
X145161518Y-57271617D01*
X145161035Y-57271364D01*
X145160481Y-57271617D01*
X145133131Y-57277057D01*
X145112945Y-57279045D01*
X145108985Y-57279833D01*
X145089573Y-57285721D01*
X145068892Y-57289835D01*
X145061699Y-57291266D01*
X145061698Y-57291266D01*
X145061696Y-57291267D01*
X145038066Y-57307056D01*
X145020183Y-57316614D01*
X145016825Y-57318858D01*
X145001146Y-57331725D01*
X144977516Y-57347514D01*
X144977514Y-57347516D01*
X144961725Y-57371146D01*
X144948858Y-57386825D01*
X144946614Y-57390183D01*
X144937056Y-57408066D01*
X144921267Y-57431696D01*
X144921266Y-57431700D01*
X144915721Y-57459573D01*
X144909833Y-57478985D01*
X144909045Y-57482948D01*
X144907058Y-57503127D01*
X144901514Y-57531000D01*
X130302500Y-57531000D01*
X130302500Y-55880001D01*
X139138965Y-55880001D01*
X139159064Y-56109737D01*
X139159066Y-56109748D01*
X139218751Y-56332497D01*
X139218753Y-56332501D01*
X139218754Y-56332505D01*
X139239999Y-56378065D01*
X139316218Y-56541518D01*
X139316220Y-56541522D01*
X139448496Y-56730432D01*
X139611567Y-56893503D01*
X139800477Y-57025779D01*
X139800479Y-57025780D01*
X139800482Y-57025782D01*
X140009495Y-57123246D01*
X140232257Y-57182935D01*
X140396359Y-57197292D01*
X140461998Y-57203035D01*
X140462000Y-57203035D01*
X140462002Y-57203035D01*
X140519573Y-57197998D01*
X140691743Y-57182935D01*
X140914505Y-57123246D01*
X141123518Y-57025782D01*
X141312431Y-56893504D01*
X141475504Y-56730431D01*
X141475503Y-56730430D01*
X141479044Y-56726891D01*
X141540367Y-56693406D01*
X141610058Y-56698390D01*
X141665992Y-56740261D01*
X141688497Y-56797461D01*
X141688624Y-56797432D01*
X141688832Y-56798312D01*
X141690015Y-56801319D01*
X141690408Y-56804983D01*
X141740702Y-56939828D01*
X141740706Y-56939835D01*
X141826952Y-57055044D01*
X141826955Y-57055047D01*
X141942164Y-57141293D01*
X141942171Y-57141297D01*
X142077017Y-57191591D01*
X142077016Y-57191591D01*
X142083944Y-57192335D01*
X142136627Y-57198000D01*
X143867372Y-57197999D01*
X143926983Y-57191591D01*
X144061831Y-57141296D01*
X144177046Y-57055046D01*
X144263296Y-56939831D01*
X144313591Y-56804983D01*
X144317460Y-56769000D01*
X144901514Y-56769000D01*
X144907057Y-56796866D01*
X144909045Y-56817057D01*
X144909833Y-56821016D01*
X144915721Y-56840426D01*
X144921266Y-56868301D01*
X144937054Y-56891930D01*
X144946614Y-56909816D01*
X144948863Y-56913181D01*
X144961727Y-56928856D01*
X144977514Y-56952482D01*
X144977516Y-56952484D01*
X145001142Y-56968271D01*
X145016817Y-56981135D01*
X145018500Y-56982259D01*
X145018503Y-56982262D01*
X145018505Y-56982263D01*
X145020188Y-56983387D01*
X145038075Y-56992949D01*
X145061697Y-57008733D01*
X145061699Y-57008734D01*
X145089575Y-57014278D01*
X145108974Y-57020164D01*
X145110959Y-57020559D01*
X145110962Y-57020560D01*
X145110965Y-57020560D01*
X145112945Y-57020954D01*
X145133131Y-57022942D01*
X145158035Y-57027896D01*
X145160482Y-57028383D01*
X145160964Y-57028635D01*
X145161518Y-57028383D01*
X145174609Y-57025779D01*
X145188867Y-57022942D01*
X145209057Y-57020954D01*
X145211035Y-57020560D01*
X145211038Y-57020560D01*
X145211040Y-57020559D01*
X145213024Y-57020164D01*
X145232427Y-57014278D01*
X145260301Y-57008734D01*
X145283929Y-56992945D01*
X145301812Y-56983387D01*
X145303494Y-56982263D01*
X145303497Y-56982262D01*
X145303499Y-56982259D01*
X145305183Y-56981135D01*
X145320851Y-56968274D01*
X145344484Y-56952484D01*
X145360274Y-56928851D01*
X145373135Y-56913183D01*
X145374259Y-56911499D01*
X145374262Y-56911497D01*
X145374263Y-56911494D01*
X145375387Y-56909812D01*
X145384945Y-56891929D01*
X145400734Y-56868301D01*
X145406278Y-56840426D01*
X145411971Y-56821661D01*
X145412559Y-56819041D01*
X145412559Y-56819040D01*
X145412560Y-56819038D01*
X145412771Y-56814699D01*
X145415006Y-56796548D01*
X145420486Y-56769000D01*
X145415005Y-56741445D01*
X145412771Y-56723295D01*
X145412560Y-56718960D01*
X145411971Y-56716335D01*
X145406278Y-56697568D01*
X145400735Y-56669701D01*
X145400733Y-56669697D01*
X145384949Y-56646075D01*
X145375387Y-56628188D01*
X145374263Y-56626505D01*
X145374262Y-56626503D01*
X145374259Y-56626500D01*
X145373135Y-56624817D01*
X145360271Y-56609142D01*
X145344484Y-56585516D01*
X145344482Y-56585514D01*
X145320856Y-56569727D01*
X145305181Y-56556863D01*
X145301816Y-56554614D01*
X145283930Y-56545054D01*
X145260301Y-56529266D01*
X145260300Y-56529266D01*
X145232426Y-56523721D01*
X145213016Y-56517833D01*
X145209057Y-56517045D01*
X145188867Y-56515057D01*
X145161518Y-56509617D01*
X145161035Y-56509364D01*
X145160481Y-56509617D01*
X145133131Y-56515057D01*
X145112945Y-56517045D01*
X145108985Y-56517833D01*
X145089573Y-56523721D01*
X145068892Y-56527835D01*
X145061699Y-56529266D01*
X145061698Y-56529266D01*
X145061696Y-56529267D01*
X145038066Y-56545056D01*
X145020183Y-56554614D01*
X145016825Y-56556858D01*
X145001146Y-56569725D01*
X144977516Y-56585514D01*
X144977514Y-56585516D01*
X144961725Y-56609146D01*
X144948858Y-56624825D01*
X144946614Y-56628183D01*
X144937056Y-56646066D01*
X144921267Y-56669696D01*
X144921266Y-56669700D01*
X144915721Y-56697573D01*
X144909833Y-56716985D01*
X144909045Y-56720948D01*
X144907058Y-56741127D01*
X144901514Y-56769000D01*
X144317460Y-56769000D01*
X144320000Y-56745373D01*
X144320000Y-56007000D01*
X144901514Y-56007000D01*
X144907057Y-56034866D01*
X144909045Y-56055057D01*
X144909833Y-56059016D01*
X144915721Y-56078426D01*
X144921266Y-56106301D01*
X144937054Y-56129930D01*
X144946614Y-56147816D01*
X144948863Y-56151181D01*
X144961727Y-56166856D01*
X144977514Y-56190482D01*
X144977516Y-56190484D01*
X145001142Y-56206271D01*
X145016817Y-56219135D01*
X145018500Y-56220259D01*
X145018503Y-56220262D01*
X145018505Y-56220263D01*
X145020188Y-56221387D01*
X145038075Y-56230949D01*
X145061697Y-56246733D01*
X145061699Y-56246734D01*
X145089575Y-56252278D01*
X145108974Y-56258164D01*
X145110959Y-56258559D01*
X145110962Y-56258560D01*
X145110965Y-56258560D01*
X145112945Y-56258954D01*
X145133131Y-56260942D01*
X145158035Y-56265896D01*
X145160482Y-56266383D01*
X145160964Y-56266635D01*
X145161518Y-56266383D01*
X145166411Y-56265409D01*
X145188867Y-56260942D01*
X145209057Y-56258954D01*
X145211035Y-56258560D01*
X145211038Y-56258560D01*
X145211040Y-56258559D01*
X145213024Y-56258164D01*
X145232427Y-56252278D01*
X145260301Y-56246734D01*
X145283929Y-56230945D01*
X145301812Y-56221387D01*
X145303494Y-56220263D01*
X145303497Y-56220262D01*
X145303499Y-56220259D01*
X145305183Y-56219135D01*
X145320851Y-56206274D01*
X145344484Y-56190484D01*
X145360274Y-56166851D01*
X145373135Y-56151183D01*
X145374259Y-56149499D01*
X145374262Y-56149497D01*
X145374263Y-56149494D01*
X145375387Y-56147812D01*
X145384945Y-56129929D01*
X145400734Y-56106301D01*
X145406278Y-56078426D01*
X145411971Y-56059661D01*
X145412559Y-56057041D01*
X145412559Y-56057040D01*
X145412560Y-56057038D01*
X145412771Y-56052699D01*
X145415006Y-56034548D01*
X145420486Y-56007000D01*
X145415005Y-55979445D01*
X145412771Y-55961295D01*
X145412560Y-55956960D01*
X145411971Y-55954335D01*
X145406278Y-55935568D01*
X145400735Y-55907701D01*
X145400733Y-55907697D01*
X145384949Y-55884075D01*
X145380098Y-55875001D01*
X145996965Y-55875001D01*
X146017064Y-56104737D01*
X146017066Y-56104748D01*
X146076751Y-56327497D01*
X146076753Y-56327501D01*
X146076754Y-56327505D01*
X146161556Y-56509364D01*
X146174218Y-56536518D01*
X146174220Y-56536522D01*
X146306496Y-56725432D01*
X146469567Y-56888503D01*
X146658477Y-57020779D01*
X146658479Y-57020780D01*
X146658482Y-57020782D01*
X146867495Y-57118246D01*
X146867501Y-57118247D01*
X146867502Y-57118248D01*
X146921114Y-57132613D01*
X147090257Y-57177935D01*
X147246345Y-57191591D01*
X147319998Y-57198035D01*
X147320000Y-57198035D01*
X147320002Y-57198035D01*
X147377573Y-57192998D01*
X147549743Y-57177935D01*
X147772505Y-57118246D01*
X147981518Y-57020782D01*
X148170431Y-56888504D01*
X148333504Y-56725431D01*
X148333503Y-56725431D01*
X148337044Y-56721891D01*
X148398367Y-56688406D01*
X148468058Y-56693390D01*
X148523992Y-56735261D01*
X148546497Y-56792461D01*
X148546624Y-56792432D01*
X148546832Y-56793312D01*
X148548015Y-56796319D01*
X148548408Y-56799983D01*
X148598702Y-56934828D01*
X148598706Y-56934835D01*
X148684952Y-57050044D01*
X148684955Y-57050047D01*
X148800164Y-57136293D01*
X148800171Y-57136297D01*
X148935017Y-57186591D01*
X148935016Y-57186591D01*
X148941944Y-57187335D01*
X148994627Y-57193000D01*
X150725372Y-57192999D01*
X150784983Y-57186591D01*
X150919831Y-57136296D01*
X151035046Y-57050046D01*
X151121296Y-56934831D01*
X151171591Y-56799983D01*
X151178000Y-56740373D01*
X151177999Y-55009628D01*
X151172397Y-54957515D01*
X151171591Y-54950016D01*
X151121297Y-54815171D01*
X151121293Y-54815164D01*
X151035047Y-54699955D01*
X151035044Y-54699952D01*
X150919835Y-54613706D01*
X150919828Y-54613702D01*
X150784982Y-54563408D01*
X150784983Y-54563408D01*
X150725383Y-54557001D01*
X150725381Y-54557000D01*
X150725373Y-54557000D01*
X150725364Y-54557000D01*
X148994629Y-54557000D01*
X148994623Y-54557001D01*
X148935016Y-54563408D01*
X148800171Y-54613702D01*
X148800164Y-54613706D01*
X148684955Y-54699952D01*
X148684952Y-54699955D01*
X148598706Y-54815164D01*
X148598702Y-54815171D01*
X148548409Y-54950015D01*
X148548014Y-54953690D01*
X148546912Y-54956347D01*
X148546626Y-54957562D01*
X148546429Y-54957515D01*
X148521272Y-55018239D01*
X148463877Y-55058084D01*
X148394051Y-55060573D01*
X148337044Y-55028108D01*
X148170432Y-54861496D01*
X147981522Y-54729220D01*
X147981518Y-54729218D01*
X147933762Y-54706949D01*
X147772505Y-54631754D01*
X147772501Y-54631753D01*
X147772497Y-54631751D01*
X147549748Y-54572066D01*
X147549744Y-54572065D01*
X147549743Y-54572065D01*
X147549742Y-54572064D01*
X147549737Y-54572064D01*
X147320002Y-54551965D01*
X147319998Y-54551965D01*
X147090262Y-54572064D01*
X147090251Y-54572066D01*
X146867502Y-54631751D01*
X146867495Y-54631753D01*
X146867495Y-54631754D01*
X146856770Y-54636755D01*
X146658484Y-54729217D01*
X146658482Y-54729218D01*
X146469566Y-54861497D01*
X146306497Y-55024566D01*
X146174218Y-55213482D01*
X146174217Y-55213484D01*
X146076755Y-55422493D01*
X146076751Y-55422502D01*
X146017066Y-55645251D01*
X146017064Y-55645262D01*
X145996965Y-55874998D01*
X145996965Y-55875001D01*
X145380098Y-55875001D01*
X145375387Y-55866188D01*
X145374263Y-55864505D01*
X145374262Y-55864503D01*
X145374259Y-55864500D01*
X145373135Y-55862817D01*
X145360271Y-55847142D01*
X145344484Y-55823516D01*
X145344482Y-55823514D01*
X145320856Y-55807727D01*
X145305181Y-55794863D01*
X145301816Y-55792614D01*
X145283930Y-55783054D01*
X145260301Y-55767266D01*
X145260300Y-55767266D01*
X145232426Y-55761721D01*
X145213016Y-55755833D01*
X145209057Y-55755045D01*
X145188867Y-55753057D01*
X145161518Y-55747617D01*
X145161035Y-55747364D01*
X145160481Y-55747617D01*
X145133131Y-55753057D01*
X145112945Y-55755045D01*
X145108985Y-55755833D01*
X145089573Y-55761721D01*
X145068892Y-55765835D01*
X145061699Y-55767266D01*
X145061698Y-55767266D01*
X145061696Y-55767267D01*
X145038066Y-55783056D01*
X145020183Y-55792614D01*
X145016825Y-55794858D01*
X145001146Y-55807725D01*
X144977516Y-55823514D01*
X144977514Y-55823516D01*
X144961725Y-55847146D01*
X144948858Y-55862825D01*
X144946614Y-55866183D01*
X144937056Y-55884066D01*
X144921267Y-55907696D01*
X144921266Y-55907700D01*
X144915721Y-55935573D01*
X144909833Y-55954985D01*
X144909045Y-55958948D01*
X144907058Y-55979127D01*
X144901514Y-56007000D01*
X144320000Y-56007000D01*
X144319999Y-55245000D01*
X144901514Y-55245000D01*
X144907057Y-55272866D01*
X144909045Y-55293057D01*
X144909833Y-55297016D01*
X144915721Y-55316426D01*
X144921266Y-55344301D01*
X144937054Y-55367930D01*
X144946614Y-55385816D01*
X144948863Y-55389181D01*
X144961727Y-55404856D01*
X144977514Y-55428482D01*
X144977516Y-55428484D01*
X145001142Y-55444271D01*
X145016817Y-55457135D01*
X145018500Y-55458259D01*
X145018503Y-55458262D01*
X145018505Y-55458263D01*
X145020188Y-55459387D01*
X145038075Y-55468949D01*
X145061697Y-55484733D01*
X145061699Y-55484734D01*
X145089575Y-55490278D01*
X145108974Y-55496164D01*
X145110959Y-55496559D01*
X145110962Y-55496560D01*
X145110965Y-55496560D01*
X145112945Y-55496954D01*
X145133131Y-55498942D01*
X145158035Y-55503896D01*
X145160482Y-55504383D01*
X145160964Y-55504635D01*
X145161518Y-55504383D01*
X145166411Y-55503409D01*
X145188867Y-55498942D01*
X145209057Y-55496954D01*
X145211035Y-55496560D01*
X145211038Y-55496560D01*
X145211040Y-55496559D01*
X145213024Y-55496164D01*
X145232427Y-55490278D01*
X145260301Y-55484734D01*
X145283929Y-55468945D01*
X145301812Y-55459387D01*
X145303494Y-55458263D01*
X145303497Y-55458262D01*
X145303499Y-55458259D01*
X145305183Y-55457135D01*
X145320851Y-55444274D01*
X145344484Y-55428484D01*
X145360274Y-55404851D01*
X145373135Y-55389183D01*
X145374259Y-55387499D01*
X145374262Y-55387497D01*
X145374263Y-55387494D01*
X145375387Y-55385812D01*
X145384945Y-55367929D01*
X145400734Y-55344301D01*
X145406278Y-55316426D01*
X145411971Y-55297661D01*
X145412559Y-55295041D01*
X145412559Y-55295040D01*
X145412560Y-55295038D01*
X145412771Y-55290699D01*
X145415006Y-55272548D01*
X145420486Y-55245000D01*
X145415005Y-55217445D01*
X145412771Y-55199295D01*
X145412560Y-55194960D01*
X145411971Y-55192335D01*
X145406278Y-55173568D01*
X145400735Y-55145701D01*
X145400733Y-55145697D01*
X145384949Y-55122075D01*
X145375387Y-55104188D01*
X145374263Y-55102505D01*
X145374262Y-55102503D01*
X145374259Y-55102500D01*
X145373135Y-55100817D01*
X145360271Y-55085142D01*
X145344484Y-55061516D01*
X145344482Y-55061514D01*
X145320856Y-55045727D01*
X145305181Y-55032863D01*
X145301816Y-55030614D01*
X145283930Y-55021054D01*
X145260301Y-55005266D01*
X145260300Y-55005266D01*
X145232426Y-54999721D01*
X145213016Y-54993833D01*
X145209057Y-54993045D01*
X145188867Y-54991057D01*
X145161518Y-54985617D01*
X145161035Y-54985364D01*
X145160481Y-54985617D01*
X145133131Y-54991057D01*
X145112945Y-54993045D01*
X145108985Y-54993833D01*
X145089573Y-54999721D01*
X145068892Y-55003835D01*
X145061699Y-55005266D01*
X145061698Y-55005266D01*
X145061696Y-55005267D01*
X145038066Y-55021056D01*
X145020183Y-55030614D01*
X145016825Y-55032858D01*
X145001146Y-55045725D01*
X144977516Y-55061514D01*
X144977514Y-55061516D01*
X144961725Y-55085146D01*
X144948858Y-55100825D01*
X144946614Y-55104183D01*
X144937056Y-55122066D01*
X144921267Y-55145696D01*
X144921266Y-55145700D01*
X144915721Y-55173573D01*
X144909833Y-55192985D01*
X144909045Y-55196948D01*
X144907058Y-55217127D01*
X144901514Y-55245000D01*
X144319999Y-55245000D01*
X144319999Y-55014628D01*
X144314397Y-54962515D01*
X144313591Y-54955016D01*
X144263297Y-54820171D01*
X144263293Y-54820164D01*
X144177047Y-54704955D01*
X144177044Y-54704952D01*
X144061835Y-54618706D01*
X144061828Y-54618702D01*
X143926982Y-54568408D01*
X143926983Y-54568408D01*
X143867383Y-54562001D01*
X143867381Y-54562000D01*
X143867373Y-54562000D01*
X143867364Y-54562000D01*
X142136629Y-54562000D01*
X142136623Y-54562001D01*
X142077016Y-54568408D01*
X141942171Y-54618702D01*
X141942164Y-54618706D01*
X141826955Y-54704952D01*
X141826952Y-54704955D01*
X141740706Y-54820164D01*
X141740702Y-54820171D01*
X141690409Y-54955015D01*
X141690014Y-54958690D01*
X141688912Y-54961347D01*
X141688626Y-54962562D01*
X141688429Y-54962515D01*
X141663272Y-55023239D01*
X141605877Y-55063084D01*
X141536051Y-55065573D01*
X141479044Y-55033108D01*
X141312432Y-54866496D01*
X141123522Y-54734220D01*
X141123518Y-54734218D01*
X141087029Y-54717203D01*
X140914505Y-54636754D01*
X140914501Y-54636753D01*
X140914497Y-54636751D01*
X140691748Y-54577066D01*
X140691744Y-54577065D01*
X140691743Y-54577065D01*
X140691742Y-54577064D01*
X140691737Y-54577064D01*
X140462002Y-54556965D01*
X140461998Y-54556965D01*
X140232262Y-54577064D01*
X140232251Y-54577066D01*
X140009502Y-54636751D01*
X140009493Y-54636755D01*
X139800484Y-54734217D01*
X139800482Y-54734218D01*
X139611566Y-54866497D01*
X139448497Y-55029566D01*
X139316218Y-55218482D01*
X139316217Y-55218484D01*
X139270546Y-55316426D01*
X139221087Y-55422493D01*
X139218755Y-55427493D01*
X139218751Y-55427502D01*
X139159066Y-55650251D01*
X139159064Y-55650262D01*
X139138965Y-55879998D01*
X139138965Y-55880001D01*
X130302500Y-55880001D01*
X130302500Y-54099500D01*
X130322185Y-54032461D01*
X130374989Y-53986706D01*
X130426500Y-53975500D01*
X144855430Y-53975500D01*
X144922469Y-53995185D01*
G37*
G04 #@! TD.AperFunction*
M02*
