G04 #@! TF.GenerationSoftware,KiCad,Pcbnew,7.0.7*
G04 #@! TF.CreationDate,2023-09-11T08:48:11-04:00*
G04 #@! TF.ProjectId,Breadboard supply rail,42726561-6462-46f6-9172-642073757070,rev?*
G04 #@! TF.SameCoordinates,Original*
G04 #@! TF.FileFunction,Soldermask,Bot*
G04 #@! TF.FilePolarity,Negative*
%FSLAX46Y46*%
G04 Gerber Fmt 4.6, Leading zero omitted, Abs format (unit mm)*
G04 Created by KiCad (PCBNEW 7.0.7) date 2023-09-11 08:48:11*
%MOMM*%
%LPD*%
G01*
G04 APERTURE LIST*
G04 Aperture macros list*
%AMRoundRect*
0 Rectangle with rounded corners*
0 $1 Rounding radius*
0 $2 $3 $4 $5 $6 $7 $8 $9 X,Y pos of 4 corners*
0 Add a 4 corners polygon primitive as box body*
4,1,4,$2,$3,$4,$5,$6,$7,$8,$9,$2,$3,0*
0 Add four circle primitives for the rounded corners*
1,1,$1+$1,$2,$3*
1,1,$1+$1,$4,$5*
1,1,$1+$1,$6,$7*
1,1,$1+$1,$8,$9*
0 Add four rect primitives between the rounded corners*
20,1,$1+$1,$2,$3,$4,$5,0*
20,1,$1+$1,$4,$5,$6,$7,0*
20,1,$1+$1,$6,$7,$8,$9,0*
20,1,$1+$1,$8,$9,$2,$3,0*%
G04 Aperture macros list end*
%ADD10R,1.600000X1.600000*%
%ADD11C,1.600000*%
%ADD12C,2.600000*%
%ADD13R,1.700000X1.700000*%
%ADD14O,1.700000X1.700000*%
%ADD15R,1.635000X1.635000*%
%ADD16C,1.635000*%
%ADD17O,1.600000X1.600000*%
%ADD18R,1.800000X1.800000*%
%ADD19C,1.800000*%
%ADD20R,3.500000X3.500000*%
%ADD21RoundRect,0.750000X0.750000X1.000000X-0.750000X1.000000X-0.750000X-1.000000X0.750000X-1.000000X0*%
%ADD22RoundRect,0.875000X0.875000X0.875000X-0.875000X0.875000X-0.875000X-0.875000X0.875000X-0.875000X0*%
G04 APERTURE END LIST*
D10*
X161925000Y-68250000D03*
D11*
X161925000Y-70750000D03*
D10*
X135392800Y-69469000D03*
D11*
X132892800Y-69469000D03*
D12*
X156995400Y-118058200D03*
X156995400Y-122758200D03*
X156995400Y-127458200D03*
D11*
X135514400Y-108102400D03*
X133014400Y-108102400D03*
D13*
X135382000Y-64135000D03*
D14*
X132842000Y-64135000D03*
D13*
X163830000Y-64135000D03*
D14*
X161290000Y-64135000D03*
X158750000Y-64135000D03*
X156210000Y-64135000D03*
D11*
X135514400Y-84429600D03*
X133014400Y-84429600D03*
D13*
X135387000Y-138677800D03*
D14*
X132847000Y-138677800D03*
D11*
X160020000Y-89662000D03*
X160020000Y-87162000D03*
D15*
X149860000Y-55875000D03*
D16*
X149860000Y-58415000D03*
X147320000Y-55875000D03*
X147320000Y-58415000D03*
D11*
X135514400Y-88906000D03*
X133014400Y-88906000D03*
D13*
X163830000Y-138684000D03*
D14*
X161290000Y-138684000D03*
X158750000Y-138684000D03*
X156210000Y-138684000D03*
D10*
X135509000Y-101600000D03*
D11*
X133009000Y-101600000D03*
X154920000Y-83480000D03*
D17*
X165080000Y-83480000D03*
D10*
X135382000Y-133350000D03*
D11*
X132882000Y-133350000D03*
D18*
X160000000Y-79675000D03*
D19*
X160000000Y-77135000D03*
D11*
X154940000Y-132100000D03*
X154940000Y-134600000D03*
D15*
X149860000Y-100330000D03*
D16*
X149860000Y-102870000D03*
X147320000Y-100330000D03*
X147320000Y-102870000D03*
D15*
X143002000Y-100330000D03*
D16*
X143002000Y-102870000D03*
X140462000Y-100330000D03*
X140462000Y-102870000D03*
D11*
X154940000Y-68250000D03*
X154940000Y-70750000D03*
X154940000Y-100350000D03*
X154940000Y-102850000D03*
X155575000Y-89662000D03*
X155575000Y-87162000D03*
X135412800Y-126695200D03*
X132912800Y-126695200D03*
D15*
X143002000Y-55880000D03*
D16*
X143002000Y-58420000D03*
X140462000Y-55880000D03*
X140462000Y-58420000D03*
D11*
X164465000Y-89662000D03*
X164465000Y-87162000D03*
D20*
X154655000Y-111125000D03*
D21*
X160655000Y-111125000D03*
D22*
X157655000Y-106425000D03*
D10*
X161925000Y-132120000D03*
D11*
X161925000Y-134620000D03*
D10*
X161925000Y-100370000D03*
D11*
X161925000Y-102870000D03*
X135514400Y-93370400D03*
X133014400Y-93370400D03*
X135463600Y-76149200D03*
X132963600Y-76149200D03*
M02*
