G04 #@! TF.GenerationSoftware,KiCad,Pcbnew,7.0.7*
G04 #@! TF.CreationDate,2023-09-11T08:48:11-04:00*
G04 #@! TF.ProjectId,Breadboard supply rail,42726561-6462-46f6-9172-642073757070,rev?*
G04 #@! TF.SameCoordinates,Original*
G04 #@! TF.FileFunction,Profile,NP*
%FSLAX46Y46*%
G04 Gerber Fmt 4.6, Leading zero omitted, Abs format (unit mm)*
G04 Created by KiCad (PCBNEW 7.0.7) date 2023-09-11 08:48:11*
%MOMM*%
%LPD*%
G01*
G04 APERTURE LIST*
G04 #@! TA.AperFunction,Profile*
%ADD10C,0.100000*%
G04 #@! TD*
G04 APERTURE END LIST*
D10*
X137922000Y-142875000D02*
X137922000Y-104775000D01*
X130302000Y-142875000D02*
X130302000Y-53975000D01*
X152400000Y-142875000D02*
X152400000Y-104775000D01*
X137922000Y-98425000D02*
X137922000Y-60325000D01*
X145415000Y-104267000D02*
G75*
G03*
X145415000Y-104267000I-254000J0D01*
G01*
X145415000Y-103505000D02*
G75*
G03*
X145415000Y-103505000I-254000J0D01*
G01*
X145415000Y-100457000D02*
G75*
G03*
X145415000Y-100457000I-254000J0D01*
G01*
X145415000Y-58293000D02*
G75*
G03*
X145415000Y-58293000I-254000J0D01*
G01*
X145415000Y-54483000D02*
G75*
G03*
X145415000Y-54483000I-254000J0D01*
G01*
X152400000Y-98425000D02*
X152400000Y-60325000D01*
X152400000Y-142875000D02*
X167640000Y-142875000D01*
X145415000Y-101219000D02*
G75*
G03*
X145415000Y-101219000I-254000J0D01*
G01*
X145415000Y-55245000D02*
G75*
G03*
X145415000Y-55245000I-254000J0D01*
G01*
X144907000Y-53975000D02*
X145161000Y-54229000D01*
X145415000Y-98933000D02*
G75*
G03*
X145415000Y-98933000I-254000J0D01*
G01*
X144907000Y-104775000D02*
X145161000Y-104521000D01*
X152400000Y-104775000D02*
X145415000Y-104775000D01*
X145415000Y-56007000D02*
G75*
G03*
X145415000Y-56007000I-254000J0D01*
G01*
X152400000Y-60325000D02*
X137922000Y-60325000D01*
X137922000Y-98425000D02*
X152400000Y-98425000D01*
X145415000Y-53975000D02*
X167640000Y-53975000D01*
X145415000Y-101981000D02*
G75*
G03*
X145415000Y-101981000I-254000J0D01*
G01*
X145415000Y-99695000D02*
G75*
G03*
X145415000Y-99695000I-254000J0D01*
G01*
X137922000Y-142875000D02*
X130302000Y-142875000D01*
X145415000Y-104775000D02*
X145161000Y-104521000D01*
X144907000Y-104775000D02*
X137922000Y-104775000D01*
X145415000Y-53975000D02*
X145161000Y-54229000D01*
X145415000Y-56769000D02*
G75*
G03*
X145415000Y-56769000I-254000J0D01*
G01*
X167640000Y-142875000D02*
X167640000Y-53975000D01*
X145415000Y-57531000D02*
G75*
G03*
X145415000Y-57531000I-254000J0D01*
G01*
X145415000Y-59055000D02*
G75*
G03*
X145415000Y-59055000I-254000J0D01*
G01*
X144907000Y-53975000D02*
X130302000Y-53975000D01*
X145415000Y-59817000D02*
G75*
G03*
X145415000Y-59817000I-254000J0D01*
G01*
X145415000Y-102743000D02*
G75*
G03*
X145415000Y-102743000I-254000J0D01*
G01*
M02*
