G04 #@! TF.GenerationSoftware,KiCad,Pcbnew,7.0.7*
G04 #@! TF.CreationDate,2023-09-11T08:48:11-04:00*
G04 #@! TF.ProjectId,Breadboard supply rail,42726561-6462-46f6-9172-642073757070,rev?*
G04 #@! TF.SameCoordinates,Original*
G04 #@! TF.FileFunction,Legend,Top*
G04 #@! TF.FilePolarity,Positive*
%FSLAX46Y46*%
G04 Gerber Fmt 4.6, Leading zero omitted, Abs format (unit mm)*
G04 Created by KiCad (PCBNEW 7.0.7) date 2023-09-11 08:48:11*
%MOMM*%
%LPD*%
G01*
G04 APERTURE LIST*
G04 Aperture macros list*
%AMRoundRect*
0 Rectangle with rounded corners*
0 $1 Rounding radius*
0 $2 $3 $4 $5 $6 $7 $8 $9 X,Y pos of 4 corners*
0 Add a 4 corners polygon primitive as box body*
4,1,4,$2,$3,$4,$5,$6,$7,$8,$9,$2,$3,0*
0 Add four circle primitives for the rounded corners*
1,1,$1+$1,$2,$3*
1,1,$1+$1,$4,$5*
1,1,$1+$1,$6,$7*
1,1,$1+$1,$8,$9*
0 Add four rect primitives between the rounded corners*
20,1,$1+$1,$2,$3,$4,$5,0*
20,1,$1+$1,$4,$5,$6,$7,0*
20,1,$1+$1,$6,$7,$8,$9,0*
20,1,$1+$1,$8,$9,$2,$3,0*%
G04 Aperture macros list end*
%ADD10C,0.150000*%
%ADD11C,0.203200*%
%ADD12C,0.127000*%
%ADD13C,0.228600*%
%ADD14C,0.120000*%
%ADD15R,1.600000X1.600000*%
%ADD16C,1.600000*%
%ADD17C,2.600000*%
%ADD18R,1.700000X1.700000*%
%ADD19O,1.700000X1.700000*%
%ADD20R,1.635000X1.635000*%
%ADD21C,1.635000*%
%ADD22O,1.600000X1.600000*%
%ADD23R,1.800000X1.800000*%
%ADD24C,1.800000*%
%ADD25R,3.500000X3.500000*%
%ADD26RoundRect,0.750000X0.750000X1.000000X-0.750000X1.000000X-0.750000X-1.000000X0.750000X-1.000000X0*%
%ADD27RoundRect,0.875000X0.875000X0.875000X-0.875000X0.875000X-0.875000X-0.875000X0.875000X-0.875000X0*%
G04 APERTURE END LIST*
D10*
X131876800Y-114655600D02*
X136652000Y-114655600D01*
X136652000Y-119176800D01*
X131876800Y-119176800D01*
X131876800Y-114655600D01*
D11*
X154432000Y-92329000D02*
X165582600Y-92329000D01*
X165582600Y-96850200D01*
X154432000Y-96850200D01*
X154432000Y-92329000D01*
D10*
X165582600Y-94589600D02*
X154432000Y-94589600D01*
D12*
X139132000Y-101600000D02*
X144322800Y-101600000D01*
X144322800Y-104200000D01*
X139132000Y-104200000D01*
X139132000Y-101600000D01*
G36*
X139132000Y-101600000D02*
G01*
X144322800Y-101600000D01*
X144322800Y-104200000D01*
X139132000Y-104200000D01*
X139132000Y-101600000D01*
G37*
X139132000Y-57150000D02*
X144322800Y-57150000D01*
X144322800Y-59750000D01*
X139132000Y-59750000D01*
X139132000Y-57150000D01*
G36*
X139132000Y-57150000D02*
G01*
X144322800Y-57150000D01*
X144322800Y-59750000D01*
X139132000Y-59750000D01*
X139132000Y-57150000D01*
G37*
D10*
X131572000Y-62992000D02*
X134112000Y-62992000D01*
X134112000Y-65278000D01*
X131572000Y-65278000D01*
X131572000Y-62992000D01*
G36*
X131572000Y-62992000D02*
G01*
X134112000Y-62992000D01*
X134112000Y-65278000D01*
X131572000Y-65278000D01*
X131572000Y-62992000D01*
G37*
D12*
X145994600Y-101600000D02*
X151185400Y-101600000D01*
X151185400Y-104200000D01*
X145994600Y-104200000D01*
X145994600Y-101600000D01*
G36*
X145994600Y-101600000D02*
G01*
X151185400Y-101600000D01*
X151185400Y-104200000D01*
X145994600Y-104200000D01*
X145994600Y-101600000D01*
G37*
X154889200Y-137414000D02*
X159936800Y-137414000D01*
X159936800Y-139921600D01*
X154889200Y-139921600D01*
X154889200Y-137414000D01*
G36*
X154889200Y-137414000D02*
G01*
X159936800Y-137414000D01*
X159936800Y-139921600D01*
X154889200Y-139921600D01*
X154889200Y-137414000D01*
G37*
D10*
X131572000Y-137414000D02*
X134112000Y-137414000D01*
X134112000Y-139827000D01*
X131572000Y-139827000D01*
X131572000Y-137414000D01*
G36*
X131572000Y-137414000D02*
G01*
X134112000Y-137414000D01*
X134112000Y-139827000D01*
X131572000Y-139827000D01*
X131572000Y-137414000D01*
G37*
X162306000Y-94589600D02*
X165582600Y-94589600D01*
X165582600Y-96850200D01*
X162306000Y-96850200D01*
X162306000Y-94589600D01*
G36*
X162306000Y-94589600D02*
G01*
X165582600Y-94589600D01*
X165582600Y-96850200D01*
X162306000Y-96850200D01*
X162306000Y-94589600D01*
G37*
X154432000Y-94589600D02*
X157657800Y-94589600D01*
X157657800Y-96850200D01*
X154432000Y-96850200D01*
X154432000Y-94589600D01*
G36*
X154432000Y-94589600D02*
G01*
X157657800Y-94589600D01*
X157657800Y-96850200D01*
X154432000Y-96850200D01*
X154432000Y-94589600D01*
G37*
D12*
X145994600Y-57145000D02*
X151185400Y-57145000D01*
X151185400Y-59745000D01*
X145994600Y-59745000D01*
X145994600Y-57145000D01*
G36*
X145994600Y-57145000D02*
G01*
X151185400Y-57145000D01*
X151185400Y-59745000D01*
X145994600Y-59745000D01*
X145994600Y-57145000D01*
G37*
X154889200Y-63051400D02*
X160029200Y-63051400D01*
X160029200Y-65245000D01*
X154889200Y-65245000D01*
X154889200Y-63051400D01*
G36*
X154889200Y-63051400D02*
G01*
X160029200Y-63051400D01*
X160029200Y-65245000D01*
X154889200Y-65245000D01*
X154889200Y-63051400D01*
G37*
D13*
G36*
X161649172Y-95099616D02*
G01*
X161762118Y-95212562D01*
X161820784Y-95329895D01*
X161886900Y-95594356D01*
X161886900Y-95783929D01*
X161820784Y-96048390D01*
X161762118Y-96165723D01*
X161649172Y-96278669D01*
X161474650Y-96336843D01*
X161244643Y-96336843D01*
X161244643Y-95041443D01*
X161474650Y-95041443D01*
X161649172Y-95099616D01*
G37*
G36*
X162333214Y-96783157D02*
G01*
X157605186Y-96783157D01*
X157605186Y-95798000D01*
X157822900Y-95798000D01*
X157823775Y-95800982D01*
X157826313Y-95825722D01*
X157898885Y-96116008D01*
X157900913Y-96119465D01*
X157907539Y-96139402D01*
X157980110Y-96284546D01*
X157981568Y-96286114D01*
X157982024Y-96288207D01*
X158001521Y-96314251D01*
X158146664Y-96459394D01*
X158155757Y-96464359D01*
X158162256Y-96472431D01*
X158191341Y-96487007D01*
X158409056Y-96559578D01*
X158411196Y-96559655D01*
X158412998Y-96560813D01*
X158445200Y-96565443D01*
X158590343Y-96565443D01*
X158592398Y-96564839D01*
X158594474Y-96565368D01*
X158626488Y-96559578D01*
X158844202Y-96487006D01*
X158852708Y-96481093D01*
X158862835Y-96478891D01*
X158888879Y-96459394D01*
X158897130Y-96451143D01*
X159419472Y-96451143D01*
X159437617Y-96512938D01*
X159486290Y-96555114D01*
X159550039Y-96564280D01*
X159608623Y-96537525D01*
X159643442Y-96483345D01*
X159648072Y-96451143D01*
X159648072Y-95357547D01*
X160305389Y-96507852D01*
X160307607Y-96509985D01*
X160308474Y-96512938D01*
X160330648Y-96532152D01*
X160351802Y-96552503D01*
X160354821Y-96553098D01*
X160357147Y-96555114D01*
X160386193Y-96559290D01*
X160414987Y-96564973D01*
X160417849Y-96563841D01*
X160420896Y-96564280D01*
X160447586Y-96552090D01*
X160474885Y-96541303D01*
X160476682Y-96538802D01*
X160479480Y-96537525D01*
X160495338Y-96512848D01*
X160512476Y-96489007D01*
X160512636Y-96485932D01*
X160514299Y-96483345D01*
X160518929Y-96451143D01*
X161016043Y-96451143D01*
X161018393Y-96459148D01*
X161017206Y-96467410D01*
X161027326Y-96489570D01*
X161034188Y-96512938D01*
X161040493Y-96518402D01*
X161043961Y-96525994D01*
X161064453Y-96539163D01*
X161082861Y-96555114D01*
X161091121Y-96556301D01*
X161098141Y-96560813D01*
X161130343Y-96565443D01*
X161493200Y-96565443D01*
X161495255Y-96564839D01*
X161497331Y-96565368D01*
X161529345Y-96559578D01*
X161747059Y-96487006D01*
X161755565Y-96481093D01*
X161765692Y-96478891D01*
X161791736Y-96459394D01*
X161936879Y-96314251D01*
X161937905Y-96312371D01*
X161939748Y-96311277D01*
X161958290Y-96284545D01*
X162030861Y-96139402D01*
X162031570Y-96135456D01*
X162039515Y-96116008D01*
X162112087Y-95825722D01*
X162111960Y-95822615D01*
X162115500Y-95798000D01*
X162115500Y-95580286D01*
X162114624Y-95577303D01*
X162112087Y-95552564D01*
X162039515Y-95262278D01*
X162037486Y-95258820D01*
X162030861Y-95238884D01*
X161958290Y-95093741D01*
X161956831Y-95092173D01*
X161956376Y-95090079D01*
X161936879Y-95064035D01*
X161791736Y-94918892D01*
X161782642Y-94913926D01*
X161776144Y-94905855D01*
X161747059Y-94891280D01*
X161529345Y-94818708D01*
X161527203Y-94818630D01*
X161525402Y-94817473D01*
X161493200Y-94812843D01*
X161130343Y-94812843D01*
X161122337Y-94815193D01*
X161114076Y-94814006D01*
X161091915Y-94824126D01*
X161068548Y-94830988D01*
X161063083Y-94837293D01*
X161055492Y-94840761D01*
X161042322Y-94861253D01*
X161026372Y-94879661D01*
X161025184Y-94887921D01*
X161020673Y-94894941D01*
X161016043Y-94927143D01*
X161016043Y-96451143D01*
X160518929Y-96451143D01*
X160518929Y-94927143D01*
X160500784Y-94865348D01*
X160452111Y-94823172D01*
X160388362Y-94814006D01*
X160329778Y-94840761D01*
X160294959Y-94894941D01*
X160290329Y-94927143D01*
X160290329Y-96020739D01*
X159633012Y-94870434D01*
X159630793Y-94868300D01*
X159629927Y-94865348D01*
X159607746Y-94846128D01*
X159586599Y-94825784D01*
X159583580Y-94825188D01*
X159581254Y-94823172D01*
X159552199Y-94818994D01*
X159523414Y-94813313D01*
X159520551Y-94814444D01*
X159517505Y-94814006D01*
X159490811Y-94826196D01*
X159463517Y-94836983D01*
X159461720Y-94839482D01*
X159458921Y-94840761D01*
X159443053Y-94865450D01*
X159425926Y-94889279D01*
X159425765Y-94892351D01*
X159424102Y-94894941D01*
X159419472Y-94927143D01*
X159419472Y-96451143D01*
X158897130Y-96451143D01*
X158961451Y-96386823D01*
X158975003Y-96362002D01*
X158990299Y-96338202D01*
X158991121Y-96332484D01*
X158992316Y-96330296D01*
X158992023Y-96326207D01*
X158994929Y-96306000D01*
X158994929Y-95798000D01*
X158992578Y-95789994D01*
X158993766Y-95781733D01*
X158983645Y-95759572D01*
X158976784Y-95736205D01*
X158970478Y-95730740D01*
X158967011Y-95723149D01*
X158946518Y-95709979D01*
X158928111Y-95694029D01*
X158919850Y-95692841D01*
X158912831Y-95688330D01*
X158880629Y-95683700D01*
X158590343Y-95683700D01*
X158528548Y-95701845D01*
X158486372Y-95750518D01*
X158477206Y-95814267D01*
X158503961Y-95872851D01*
X158558141Y-95907670D01*
X158590343Y-95912300D01*
X158766329Y-95912300D01*
X158766329Y-96258655D01*
X158746315Y-96278669D01*
X158571793Y-96336843D01*
X158463747Y-96336843D01*
X158289227Y-96278669D01*
X158176281Y-96165723D01*
X158117615Y-96048392D01*
X158051500Y-95783929D01*
X158051500Y-95594356D01*
X158117615Y-95329893D01*
X158176281Y-95212562D01*
X158289227Y-95099616D01*
X158463747Y-95041443D01*
X158635932Y-95041443D01*
X158756941Y-95101947D01*
X158820327Y-95113353D01*
X158879817Y-95088681D01*
X158916525Y-95035761D01*
X158918794Y-94971397D01*
X158885906Y-94916023D01*
X158859174Y-94897481D01*
X158714032Y-94824910D01*
X158703833Y-94823074D01*
X158695117Y-94817473D01*
X158662915Y-94812843D01*
X158445200Y-94812843D01*
X158443144Y-94813446D01*
X158441069Y-94812918D01*
X158409056Y-94818708D01*
X158191341Y-94891279D01*
X158182832Y-94897192D01*
X158172708Y-94899395D01*
X158146664Y-94918892D01*
X158001521Y-95064035D01*
X158000494Y-95065914D01*
X157998652Y-95067009D01*
X157980110Y-95093740D01*
X157907539Y-95238884D01*
X157906828Y-95242830D01*
X157898885Y-95262278D01*
X157826313Y-95552564D01*
X157826439Y-95555670D01*
X157822900Y-95580286D01*
X157822900Y-95798000D01*
X157605186Y-95798000D01*
X157605186Y-94595129D01*
X162333214Y-94595129D01*
X162333214Y-96783157D01*
G37*
G36*
X135944372Y-117502416D02*
G01*
X136057318Y-117615362D01*
X136115984Y-117732695D01*
X136182100Y-117997156D01*
X136182100Y-118186729D01*
X136115984Y-118451190D01*
X136057318Y-118568523D01*
X135944372Y-118681469D01*
X135769850Y-118739643D01*
X135539843Y-118739643D01*
X135539843Y-117444243D01*
X135769850Y-117444243D01*
X135944372Y-117502416D01*
G37*
G36*
X136628414Y-119185957D02*
G01*
X131900386Y-119185957D01*
X131900386Y-118200800D01*
X132118100Y-118200800D01*
X132118975Y-118203782D01*
X132121513Y-118228522D01*
X132194085Y-118518808D01*
X132196113Y-118522265D01*
X132202739Y-118542202D01*
X132275310Y-118687346D01*
X132276768Y-118688914D01*
X132277224Y-118691007D01*
X132296721Y-118717051D01*
X132441864Y-118862194D01*
X132450957Y-118867159D01*
X132457456Y-118875231D01*
X132486541Y-118889807D01*
X132704256Y-118962378D01*
X132706396Y-118962455D01*
X132708198Y-118963613D01*
X132740400Y-118968243D01*
X132885543Y-118968243D01*
X132887598Y-118967639D01*
X132889674Y-118968168D01*
X132921688Y-118962378D01*
X133139402Y-118889806D01*
X133147908Y-118883893D01*
X133158035Y-118881691D01*
X133184079Y-118862194D01*
X133192330Y-118853943D01*
X133714672Y-118853943D01*
X133732817Y-118915738D01*
X133781490Y-118957914D01*
X133845239Y-118967080D01*
X133903823Y-118940325D01*
X133938642Y-118886145D01*
X133943272Y-118853943D01*
X133943272Y-117760347D01*
X134600589Y-118910652D01*
X134602807Y-118912785D01*
X134603674Y-118915738D01*
X134625848Y-118934952D01*
X134647002Y-118955303D01*
X134650021Y-118955898D01*
X134652347Y-118957914D01*
X134681393Y-118962090D01*
X134710187Y-118967773D01*
X134713049Y-118966641D01*
X134716096Y-118967080D01*
X134742786Y-118954890D01*
X134770085Y-118944103D01*
X134771882Y-118941602D01*
X134774680Y-118940325D01*
X134790538Y-118915648D01*
X134807676Y-118891807D01*
X134807836Y-118888732D01*
X134809499Y-118886145D01*
X134814129Y-118853943D01*
X135311243Y-118853943D01*
X135313593Y-118861948D01*
X135312406Y-118870210D01*
X135322526Y-118892370D01*
X135329388Y-118915738D01*
X135335693Y-118921202D01*
X135339161Y-118928794D01*
X135359653Y-118941963D01*
X135378061Y-118957914D01*
X135386321Y-118959101D01*
X135393341Y-118963613D01*
X135425543Y-118968243D01*
X135788400Y-118968243D01*
X135790455Y-118967639D01*
X135792531Y-118968168D01*
X135824545Y-118962378D01*
X136042259Y-118889806D01*
X136050765Y-118883893D01*
X136060892Y-118881691D01*
X136086936Y-118862194D01*
X136232079Y-118717051D01*
X136233105Y-118715171D01*
X136234948Y-118714077D01*
X136253490Y-118687345D01*
X136326061Y-118542202D01*
X136326770Y-118538256D01*
X136334715Y-118518808D01*
X136407287Y-118228522D01*
X136407160Y-118225415D01*
X136410700Y-118200800D01*
X136410700Y-117983086D01*
X136409824Y-117980103D01*
X136407287Y-117955364D01*
X136334715Y-117665078D01*
X136332686Y-117661620D01*
X136326061Y-117641684D01*
X136253490Y-117496541D01*
X136252031Y-117494973D01*
X136251576Y-117492879D01*
X136232079Y-117466835D01*
X136086936Y-117321692D01*
X136077842Y-117316726D01*
X136071344Y-117308655D01*
X136042259Y-117294080D01*
X135824545Y-117221508D01*
X135822403Y-117221430D01*
X135820602Y-117220273D01*
X135788400Y-117215643D01*
X135425543Y-117215643D01*
X135417537Y-117217993D01*
X135409276Y-117216806D01*
X135387115Y-117226926D01*
X135363748Y-117233788D01*
X135358283Y-117240093D01*
X135350692Y-117243561D01*
X135337522Y-117264053D01*
X135321572Y-117282461D01*
X135320384Y-117290721D01*
X135315873Y-117297741D01*
X135311243Y-117329943D01*
X135311243Y-118853943D01*
X134814129Y-118853943D01*
X134814129Y-117329943D01*
X134795984Y-117268148D01*
X134747311Y-117225972D01*
X134683562Y-117216806D01*
X134624978Y-117243561D01*
X134590159Y-117297741D01*
X134585529Y-117329943D01*
X134585529Y-118423539D01*
X133928212Y-117273234D01*
X133925993Y-117271100D01*
X133925127Y-117268148D01*
X133902946Y-117248928D01*
X133881799Y-117228584D01*
X133878780Y-117227988D01*
X133876454Y-117225972D01*
X133847399Y-117221794D01*
X133818614Y-117216113D01*
X133815751Y-117217244D01*
X133812705Y-117216806D01*
X133786011Y-117228996D01*
X133758717Y-117239783D01*
X133756920Y-117242282D01*
X133754121Y-117243561D01*
X133738253Y-117268250D01*
X133721126Y-117292079D01*
X133720965Y-117295151D01*
X133719302Y-117297741D01*
X133714672Y-117329943D01*
X133714672Y-118853943D01*
X133192330Y-118853943D01*
X133256651Y-118789623D01*
X133270203Y-118764802D01*
X133285499Y-118741002D01*
X133286321Y-118735284D01*
X133287516Y-118733096D01*
X133287223Y-118729007D01*
X133290129Y-118708800D01*
X133290129Y-118200800D01*
X133287778Y-118192794D01*
X133288966Y-118184533D01*
X133278845Y-118162372D01*
X133271984Y-118139005D01*
X133265678Y-118133540D01*
X133262211Y-118125949D01*
X133241718Y-118112779D01*
X133223311Y-118096829D01*
X133215050Y-118095641D01*
X133208031Y-118091130D01*
X133175829Y-118086500D01*
X132885543Y-118086500D01*
X132823748Y-118104645D01*
X132781572Y-118153318D01*
X132772406Y-118217067D01*
X132799161Y-118275651D01*
X132853341Y-118310470D01*
X132885543Y-118315100D01*
X133061529Y-118315100D01*
X133061528Y-118661455D01*
X133041515Y-118681469D01*
X132866993Y-118739643D01*
X132758947Y-118739643D01*
X132584427Y-118681469D01*
X132471481Y-118568523D01*
X132412815Y-118451192D01*
X132346700Y-118186729D01*
X132346700Y-117997156D01*
X132412815Y-117732693D01*
X132471481Y-117615362D01*
X132584427Y-117502416D01*
X132758947Y-117444243D01*
X132931132Y-117444243D01*
X133052141Y-117504747D01*
X133115527Y-117516153D01*
X133175017Y-117491481D01*
X133211725Y-117438561D01*
X133213994Y-117374197D01*
X133181106Y-117318823D01*
X133154374Y-117300281D01*
X133009232Y-117227710D01*
X132999033Y-117225874D01*
X132990317Y-117220273D01*
X132958115Y-117215643D01*
X132740400Y-117215643D01*
X132738344Y-117216246D01*
X132736269Y-117215718D01*
X132704256Y-117221508D01*
X132486541Y-117294079D01*
X132478032Y-117299992D01*
X132467908Y-117302195D01*
X132441864Y-117321692D01*
X132296721Y-117466835D01*
X132295694Y-117468714D01*
X132293852Y-117469809D01*
X132275310Y-117496540D01*
X132202739Y-117641684D01*
X132202028Y-117645630D01*
X132194085Y-117665078D01*
X132121513Y-117955364D01*
X132121639Y-117958470D01*
X132118100Y-117983086D01*
X132118100Y-118200800D01*
X131900386Y-118200800D01*
X131900386Y-116997929D01*
X136628414Y-116997929D01*
X136628414Y-119185957D01*
G37*
X132452533Y-115162990D02*
X132918200Y-116559990D01*
X132918200Y-116559990D02*
X133383866Y-115162990D01*
X134647819Y-116426943D02*
X134581295Y-116493467D01*
X134581295Y-116493467D02*
X134381724Y-116559990D01*
X134381724Y-116559990D02*
X134248676Y-116559990D01*
X134248676Y-116559990D02*
X134049105Y-116493467D01*
X134049105Y-116493467D02*
X133916057Y-116360419D01*
X133916057Y-116360419D02*
X133849534Y-116227371D01*
X133849534Y-116227371D02*
X133783010Y-115961276D01*
X133783010Y-115961276D02*
X133783010Y-115761705D01*
X133783010Y-115761705D02*
X133849534Y-115495609D01*
X133849534Y-115495609D02*
X133916057Y-115362562D01*
X133916057Y-115362562D02*
X134049105Y-115229514D01*
X134049105Y-115229514D02*
X134248676Y-115162990D01*
X134248676Y-115162990D02*
X134381724Y-115162990D01*
X134381724Y-115162990D02*
X134581295Y-115229514D01*
X134581295Y-115229514D02*
X134647819Y-115296038D01*
X136044819Y-116426943D02*
X135978295Y-116493467D01*
X135978295Y-116493467D02*
X135778724Y-116559990D01*
X135778724Y-116559990D02*
X135645676Y-116559990D01*
X135645676Y-116559990D02*
X135446105Y-116493467D01*
X135446105Y-116493467D02*
X135313057Y-116360419D01*
X135313057Y-116360419D02*
X135246534Y-116227371D01*
X135246534Y-116227371D02*
X135180010Y-115961276D01*
X135180010Y-115961276D02*
X135180010Y-115761705D01*
X135180010Y-115761705D02*
X135246534Y-115495609D01*
X135246534Y-115495609D02*
X135313057Y-115362562D01*
X135313057Y-115362562D02*
X135446105Y-115229514D01*
X135446105Y-115229514D02*
X135645676Y-115162990D01*
X135645676Y-115162990D02*
X135778724Y-115162990D01*
X135778724Y-115162990D02*
X135978295Y-115229514D01*
X135978295Y-115229514D02*
X136044819Y-115296038D01*
X158157333Y-92760190D02*
X158623000Y-94157190D01*
X158623000Y-94157190D02*
X159088666Y-92760190D01*
X160352619Y-94024143D02*
X160286095Y-94090667D01*
X160286095Y-94090667D02*
X160086524Y-94157190D01*
X160086524Y-94157190D02*
X159953476Y-94157190D01*
X159953476Y-94157190D02*
X159753905Y-94090667D01*
X159753905Y-94090667D02*
X159620857Y-93957619D01*
X159620857Y-93957619D02*
X159554334Y-93824571D01*
X159554334Y-93824571D02*
X159487810Y-93558476D01*
X159487810Y-93558476D02*
X159487810Y-93358905D01*
X159487810Y-93358905D02*
X159554334Y-93092809D01*
X159554334Y-93092809D02*
X159620857Y-92959762D01*
X159620857Y-92959762D02*
X159753905Y-92826714D01*
X159753905Y-92826714D02*
X159953476Y-92760190D01*
X159953476Y-92760190D02*
X160086524Y-92760190D01*
X160086524Y-92760190D02*
X160286095Y-92826714D01*
X160286095Y-92826714D02*
X160352619Y-92893238D01*
X161749619Y-94024143D02*
X161683095Y-94090667D01*
X161683095Y-94090667D02*
X161483524Y-94157190D01*
X161483524Y-94157190D02*
X161350476Y-94157190D01*
X161350476Y-94157190D02*
X161150905Y-94090667D01*
X161150905Y-94090667D02*
X161017857Y-93957619D01*
X161017857Y-93957619D02*
X160951334Y-93824571D01*
X160951334Y-93824571D02*
X160884810Y-93558476D01*
X160884810Y-93558476D02*
X160884810Y-93358905D01*
X160884810Y-93358905D02*
X160951334Y-93092809D01*
X160951334Y-93092809D02*
X161017857Y-92959762D01*
X161017857Y-92959762D02*
X161150905Y-92826714D01*
X161150905Y-92826714D02*
X161350476Y-92760190D01*
X161350476Y-92760190D02*
X161483524Y-92760190D01*
X161483524Y-92760190D02*
X161683095Y-92826714D01*
X161683095Y-92826714D02*
X161749619Y-92893238D01*
D10*
X160270008Y-128213762D02*
X160270008Y-128547095D01*
X160793818Y-128547095D02*
X159793818Y-128547095D01*
X159793818Y-128547095D02*
X159793818Y-128070905D01*
X160793818Y-127689952D02*
X160127151Y-127689952D01*
X160317627Y-127689952D02*
X160222389Y-127642333D01*
X160222389Y-127642333D02*
X160174770Y-127594714D01*
X160174770Y-127594714D02*
X160127151Y-127499476D01*
X160127151Y-127499476D02*
X160127151Y-127404238D01*
X160746199Y-126689952D02*
X160793818Y-126785190D01*
X160793818Y-126785190D02*
X160793818Y-126975666D01*
X160793818Y-126975666D02*
X160746199Y-127070904D01*
X160746199Y-127070904D02*
X160650960Y-127118523D01*
X160650960Y-127118523D02*
X160270008Y-127118523D01*
X160270008Y-127118523D02*
X160174770Y-127070904D01*
X160174770Y-127070904D02*
X160127151Y-126975666D01*
X160127151Y-126975666D02*
X160127151Y-126785190D01*
X160127151Y-126785190D02*
X160174770Y-126689952D01*
X160174770Y-126689952D02*
X160270008Y-126642333D01*
X160270008Y-126642333D02*
X160365246Y-126642333D01*
X160365246Y-126642333D02*
X160460484Y-127118523D01*
X159746199Y-126785190D02*
X159889056Y-126928047D01*
X160793818Y-125785190D02*
X159793818Y-125785190D01*
X160746199Y-125785190D02*
X160793818Y-125880428D01*
X160793818Y-125880428D02*
X160793818Y-126070904D01*
X160793818Y-126070904D02*
X160746199Y-126166142D01*
X160746199Y-126166142D02*
X160698579Y-126213761D01*
X160698579Y-126213761D02*
X160603341Y-126261380D01*
X160603341Y-126261380D02*
X160317627Y-126261380D01*
X160317627Y-126261380D02*
X160222389Y-126213761D01*
X160222389Y-126213761D02*
X160174770Y-126166142D01*
X160174770Y-126166142D02*
X160127151Y-126070904D01*
X160127151Y-126070904D02*
X160127151Y-125880428D01*
X160127151Y-125880428D02*
X160174770Y-125785190D01*
X160746199Y-124928047D02*
X160793818Y-125023285D01*
X160793818Y-125023285D02*
X160793818Y-125213761D01*
X160793818Y-125213761D02*
X160746199Y-125308999D01*
X160746199Y-125308999D02*
X160650960Y-125356618D01*
X160650960Y-125356618D02*
X160270008Y-125356618D01*
X160270008Y-125356618D02*
X160174770Y-125308999D01*
X160174770Y-125308999D02*
X160127151Y-125213761D01*
X160127151Y-125213761D02*
X160127151Y-125023285D01*
X160127151Y-125023285D02*
X160174770Y-124928047D01*
X160174770Y-124928047D02*
X160270008Y-124880428D01*
X160270008Y-124880428D02*
X160365246Y-124880428D01*
X160365246Y-124880428D02*
X160460484Y-125356618D01*
X159746199Y-125023285D02*
X159889056Y-125166142D01*
X160793818Y-124451856D02*
X160127151Y-124451856D01*
X160317627Y-124451856D02*
X160222389Y-124404237D01*
X160222389Y-124404237D02*
X160174770Y-124356618D01*
X160174770Y-124356618D02*
X160127151Y-124261380D01*
X160127151Y-124261380D02*
X160127151Y-124166142D01*
X160793818Y-123832808D02*
X160127151Y-123832808D01*
X159793818Y-123832808D02*
X159841437Y-123880427D01*
X159841437Y-123880427D02*
X159889056Y-123832808D01*
X159889056Y-123832808D02*
X159841437Y-123785189D01*
X159841437Y-123785189D02*
X159793818Y-123832808D01*
X159793818Y-123832808D02*
X159889056Y-123832808D01*
X160746199Y-122928047D02*
X160793818Y-123023285D01*
X160793818Y-123023285D02*
X160793818Y-123213761D01*
X160793818Y-123213761D02*
X160746199Y-123308999D01*
X160746199Y-123308999D02*
X160698579Y-123356618D01*
X160698579Y-123356618D02*
X160603341Y-123404237D01*
X160603341Y-123404237D02*
X160317627Y-123404237D01*
X160317627Y-123404237D02*
X160222389Y-123356618D01*
X160222389Y-123356618D02*
X160174770Y-123308999D01*
X160174770Y-123308999D02*
X160127151Y-123213761D01*
X160127151Y-123213761D02*
X160127151Y-123023285D01*
X160127151Y-123023285D02*
X160174770Y-122928047D01*
X160746199Y-121785189D02*
X160793818Y-121642332D01*
X160793818Y-121642332D02*
X160793818Y-121404237D01*
X160793818Y-121404237D02*
X160746199Y-121308999D01*
X160746199Y-121308999D02*
X160698579Y-121261380D01*
X160698579Y-121261380D02*
X160603341Y-121213761D01*
X160603341Y-121213761D02*
X160508103Y-121213761D01*
X160508103Y-121213761D02*
X160412865Y-121261380D01*
X160412865Y-121261380D02*
X160365246Y-121308999D01*
X160365246Y-121308999D02*
X160317627Y-121404237D01*
X160317627Y-121404237D02*
X160270008Y-121594713D01*
X160270008Y-121594713D02*
X160222389Y-121689951D01*
X160222389Y-121689951D02*
X160174770Y-121737570D01*
X160174770Y-121737570D02*
X160079532Y-121785189D01*
X160079532Y-121785189D02*
X159984294Y-121785189D01*
X159984294Y-121785189D02*
X159889056Y-121737570D01*
X159889056Y-121737570D02*
X159841437Y-121689951D01*
X159841437Y-121689951D02*
X159793818Y-121594713D01*
X159793818Y-121594713D02*
X159793818Y-121356618D01*
X159793818Y-121356618D02*
X159841437Y-121213761D01*
X160746199Y-120404237D02*
X160793818Y-120499475D01*
X160793818Y-120499475D02*
X160793818Y-120689951D01*
X160793818Y-120689951D02*
X160746199Y-120785189D01*
X160746199Y-120785189D02*
X160650960Y-120832808D01*
X160650960Y-120832808D02*
X160270008Y-120832808D01*
X160270008Y-120832808D02*
X160174770Y-120785189D01*
X160174770Y-120785189D02*
X160127151Y-120689951D01*
X160127151Y-120689951D02*
X160127151Y-120499475D01*
X160127151Y-120499475D02*
X160174770Y-120404237D01*
X160174770Y-120404237D02*
X160270008Y-120356618D01*
X160270008Y-120356618D02*
X160365246Y-120356618D01*
X160365246Y-120356618D02*
X160460484Y-120832808D01*
X160127151Y-119499475D02*
X160936675Y-119499475D01*
X160936675Y-119499475D02*
X161031913Y-119547094D01*
X161031913Y-119547094D02*
X161079532Y-119594713D01*
X161079532Y-119594713D02*
X161127151Y-119689951D01*
X161127151Y-119689951D02*
X161127151Y-119832808D01*
X161127151Y-119832808D02*
X161079532Y-119928046D01*
X160746199Y-119499475D02*
X160793818Y-119594713D01*
X160793818Y-119594713D02*
X160793818Y-119785189D01*
X160793818Y-119785189D02*
X160746199Y-119880427D01*
X160746199Y-119880427D02*
X160698579Y-119928046D01*
X160698579Y-119928046D02*
X160603341Y-119975665D01*
X160603341Y-119975665D02*
X160317627Y-119975665D01*
X160317627Y-119975665D02*
X160222389Y-119928046D01*
X160222389Y-119928046D02*
X160174770Y-119880427D01*
X160174770Y-119880427D02*
X160127151Y-119785189D01*
X160127151Y-119785189D02*
X160127151Y-119594713D01*
X160127151Y-119594713D02*
X160174770Y-119499475D01*
X160793818Y-118594713D02*
X160270008Y-118594713D01*
X160270008Y-118594713D02*
X160174770Y-118642332D01*
X160174770Y-118642332D02*
X160127151Y-118737570D01*
X160127151Y-118737570D02*
X160127151Y-118928046D01*
X160127151Y-118928046D02*
X160174770Y-119023284D01*
X160746199Y-118594713D02*
X160793818Y-118689951D01*
X160793818Y-118689951D02*
X160793818Y-118928046D01*
X160793818Y-118928046D02*
X160746199Y-119023284D01*
X160746199Y-119023284D02*
X160650960Y-119070903D01*
X160650960Y-119070903D02*
X160555722Y-119070903D01*
X160555722Y-119070903D02*
X160460484Y-119023284D01*
X160460484Y-119023284D02*
X160412865Y-118928046D01*
X160412865Y-118928046D02*
X160412865Y-118689951D01*
X160412865Y-118689951D02*
X160365246Y-118594713D01*
X160793818Y-118118522D02*
X160127151Y-118118522D01*
X160317627Y-118118522D02*
X160222389Y-118070903D01*
X160222389Y-118070903D02*
X160174770Y-118023284D01*
X160174770Y-118023284D02*
X160127151Y-117928046D01*
X160127151Y-117928046D02*
X160127151Y-117832808D01*
X160793818Y-117070903D02*
X159793818Y-117070903D01*
X160746199Y-117070903D02*
X160793818Y-117166141D01*
X160793818Y-117166141D02*
X160793818Y-117356617D01*
X160793818Y-117356617D02*
X160746199Y-117451855D01*
X160746199Y-117451855D02*
X160698579Y-117499474D01*
X160698579Y-117499474D02*
X160603341Y-117547093D01*
X160603341Y-117547093D02*
X160317627Y-117547093D01*
X160317627Y-117547093D02*
X160222389Y-117499474D01*
X160222389Y-117499474D02*
X160174770Y-117451855D01*
X160174770Y-117451855D02*
X160127151Y-117356617D01*
X160127151Y-117356617D02*
X160127151Y-117166141D01*
X160127151Y-117166141D02*
X160174770Y-117070903D01*
X163537627Y-127809000D02*
X163490008Y-127856619D01*
X163490008Y-127856619D02*
X163442389Y-127951857D01*
X163442389Y-127951857D02*
X163442389Y-128047095D01*
X163442389Y-128047095D02*
X163490008Y-128142333D01*
X163490008Y-128142333D02*
X163537627Y-128189952D01*
X163537627Y-128189952D02*
X163632865Y-128237571D01*
X163632865Y-128237571D02*
X163728103Y-128237571D01*
X163728103Y-128237571D02*
X163823341Y-128189952D01*
X163823341Y-128189952D02*
X163870960Y-128142333D01*
X163870960Y-128142333D02*
X163918579Y-128047095D01*
X163918579Y-128047095D02*
X163918579Y-127951857D01*
X163918579Y-127951857D02*
X163870960Y-127856619D01*
X163870960Y-127856619D02*
X163823341Y-127809000D01*
X163442389Y-127809000D02*
X163823341Y-127809000D01*
X163823341Y-127809000D02*
X163870960Y-127761381D01*
X163870960Y-127761381D02*
X163870960Y-127713762D01*
X163870960Y-127713762D02*
X163823341Y-127618523D01*
X163823341Y-127618523D02*
X163728103Y-127570904D01*
X163728103Y-127570904D02*
X163490008Y-127570904D01*
X163490008Y-127570904D02*
X163347151Y-127666143D01*
X163347151Y-127666143D02*
X163251913Y-127809000D01*
X163251913Y-127809000D02*
X163204294Y-127999476D01*
X163204294Y-127999476D02*
X163251913Y-128189952D01*
X163251913Y-128189952D02*
X163347151Y-128332809D01*
X163347151Y-128332809D02*
X163490008Y-128428047D01*
X163490008Y-128428047D02*
X163680484Y-128475666D01*
X163680484Y-128475666D02*
X163870960Y-128428047D01*
X163870960Y-128428047D02*
X164013818Y-128332809D01*
X164013818Y-128332809D02*
X164109056Y-128189952D01*
X164109056Y-128189952D02*
X164156675Y-127999476D01*
X164156675Y-127999476D02*
X164109056Y-127809000D01*
X164109056Y-127809000D02*
X164013818Y-127666143D01*
X164013818Y-127142333D02*
X163347151Y-127142333D01*
X163442389Y-127142333D02*
X163394770Y-127094714D01*
X163394770Y-127094714D02*
X163347151Y-126999476D01*
X163347151Y-126999476D02*
X163347151Y-126856619D01*
X163347151Y-126856619D02*
X163394770Y-126761381D01*
X163394770Y-126761381D02*
X163490008Y-126713762D01*
X163490008Y-126713762D02*
X164013818Y-126713762D01*
X163490008Y-126713762D02*
X163394770Y-126666143D01*
X163394770Y-126666143D02*
X163347151Y-126570905D01*
X163347151Y-126570905D02*
X163347151Y-126428048D01*
X163347151Y-126428048D02*
X163394770Y-126332809D01*
X163394770Y-126332809D02*
X163490008Y-126285190D01*
X163490008Y-126285190D02*
X164013818Y-126285190D01*
X164013818Y-125809000D02*
X163347151Y-125809000D01*
X163013818Y-125809000D02*
X163061437Y-125856619D01*
X163061437Y-125856619D02*
X163109056Y-125809000D01*
X163109056Y-125809000D02*
X163061437Y-125761381D01*
X163061437Y-125761381D02*
X163013818Y-125809000D01*
X163013818Y-125809000D02*
X163109056Y-125809000D01*
X163966199Y-124904239D02*
X164013818Y-124999477D01*
X164013818Y-124999477D02*
X164013818Y-125189953D01*
X164013818Y-125189953D02*
X163966199Y-125285191D01*
X163966199Y-125285191D02*
X163918579Y-125332810D01*
X163918579Y-125332810D02*
X163823341Y-125380429D01*
X163823341Y-125380429D02*
X163537627Y-125380429D01*
X163537627Y-125380429D02*
X163442389Y-125332810D01*
X163442389Y-125332810D02*
X163394770Y-125285191D01*
X163394770Y-125285191D02*
X163347151Y-125189953D01*
X163347151Y-125189953D02*
X163347151Y-124999477D01*
X163347151Y-124999477D02*
X163394770Y-124904239D01*
X164013818Y-124475667D02*
X163347151Y-124475667D01*
X163537627Y-124475667D02*
X163442389Y-124428048D01*
X163442389Y-124428048D02*
X163394770Y-124380429D01*
X163394770Y-124380429D02*
X163347151Y-124285191D01*
X163347151Y-124285191D02*
X163347151Y-124189953D01*
X164013818Y-123713762D02*
X163966199Y-123809000D01*
X163966199Y-123809000D02*
X163918579Y-123856619D01*
X163918579Y-123856619D02*
X163823341Y-123904238D01*
X163823341Y-123904238D02*
X163537627Y-123904238D01*
X163537627Y-123904238D02*
X163442389Y-123856619D01*
X163442389Y-123856619D02*
X163394770Y-123809000D01*
X163394770Y-123809000D02*
X163347151Y-123713762D01*
X163347151Y-123713762D02*
X163347151Y-123570905D01*
X163347151Y-123570905D02*
X163394770Y-123475667D01*
X163394770Y-123475667D02*
X163442389Y-123428048D01*
X163442389Y-123428048D02*
X163537627Y-123380429D01*
X163537627Y-123380429D02*
X163823341Y-123380429D01*
X163823341Y-123380429D02*
X163918579Y-123428048D01*
X163918579Y-123428048D02*
X163966199Y-123475667D01*
X163966199Y-123475667D02*
X164013818Y-123570905D01*
X164013818Y-123570905D02*
X164013818Y-123713762D01*
X164013818Y-122951857D02*
X163013818Y-122951857D01*
X163394770Y-122951857D02*
X163347151Y-122856619D01*
X163347151Y-122856619D02*
X163347151Y-122666143D01*
X163347151Y-122666143D02*
X163394770Y-122570905D01*
X163394770Y-122570905D02*
X163442389Y-122523286D01*
X163442389Y-122523286D02*
X163537627Y-122475667D01*
X163537627Y-122475667D02*
X163823341Y-122475667D01*
X163823341Y-122475667D02*
X163918579Y-122523286D01*
X163918579Y-122523286D02*
X163966199Y-122570905D01*
X163966199Y-122570905D02*
X164013818Y-122666143D01*
X164013818Y-122666143D02*
X164013818Y-122856619D01*
X164013818Y-122856619D02*
X163966199Y-122951857D01*
X164013818Y-121904238D02*
X163966199Y-121999476D01*
X163966199Y-121999476D02*
X163918579Y-122047095D01*
X163918579Y-122047095D02*
X163823341Y-122094714D01*
X163823341Y-122094714D02*
X163537627Y-122094714D01*
X163537627Y-122094714D02*
X163442389Y-122047095D01*
X163442389Y-122047095D02*
X163394770Y-121999476D01*
X163394770Y-121999476D02*
X163347151Y-121904238D01*
X163347151Y-121904238D02*
X163347151Y-121761381D01*
X163347151Y-121761381D02*
X163394770Y-121666143D01*
X163394770Y-121666143D02*
X163442389Y-121618524D01*
X163442389Y-121618524D02*
X163537627Y-121570905D01*
X163537627Y-121570905D02*
X163823341Y-121570905D01*
X163823341Y-121570905D02*
X163918579Y-121618524D01*
X163918579Y-121618524D02*
X163966199Y-121666143D01*
X163966199Y-121666143D02*
X164013818Y-121761381D01*
X164013818Y-121761381D02*
X164013818Y-121904238D01*
X164013818Y-121142333D02*
X163013818Y-121142333D01*
X163394770Y-121142333D02*
X163347151Y-121047095D01*
X163347151Y-121047095D02*
X163347151Y-120856619D01*
X163347151Y-120856619D02*
X163394770Y-120761381D01*
X163394770Y-120761381D02*
X163442389Y-120713762D01*
X163442389Y-120713762D02*
X163537627Y-120666143D01*
X163537627Y-120666143D02*
X163823341Y-120666143D01*
X163823341Y-120666143D02*
X163918579Y-120713762D01*
X163918579Y-120713762D02*
X163966199Y-120761381D01*
X163966199Y-120761381D02*
X164013818Y-120856619D01*
X164013818Y-120856619D02*
X164013818Y-121047095D01*
X164013818Y-121047095D02*
X163966199Y-121142333D01*
X164013818Y-120237571D02*
X163013818Y-120237571D01*
X163394770Y-120237571D02*
X163347151Y-120142333D01*
X163347151Y-120142333D02*
X163347151Y-119951857D01*
X163347151Y-119951857D02*
X163394770Y-119856619D01*
X163394770Y-119856619D02*
X163442389Y-119809000D01*
X163442389Y-119809000D02*
X163537627Y-119761381D01*
X163537627Y-119761381D02*
X163823341Y-119761381D01*
X163823341Y-119761381D02*
X163918579Y-119809000D01*
X163918579Y-119809000D02*
X163966199Y-119856619D01*
X163966199Y-119856619D02*
X164013818Y-119951857D01*
X164013818Y-119951857D02*
X164013818Y-120142333D01*
X164013818Y-120142333D02*
X163966199Y-120237571D01*
X163347151Y-119428047D02*
X164013818Y-119189952D01*
X163347151Y-118951857D02*
X164013818Y-119189952D01*
X164013818Y-119189952D02*
X164251913Y-119285190D01*
X164251913Y-119285190D02*
X164299532Y-119332809D01*
X164299532Y-119332809D02*
X164347151Y-119428047D01*
X164013818Y-118570904D02*
X163347151Y-118570904D01*
X163013818Y-118570904D02*
X163061437Y-118618523D01*
X163061437Y-118618523D02*
X163109056Y-118570904D01*
X163109056Y-118570904D02*
X163061437Y-118523285D01*
X163061437Y-118523285D02*
X163013818Y-118570904D01*
X163013818Y-118570904D02*
X163109056Y-118570904D01*
X163966199Y-118142333D02*
X164013818Y-118047095D01*
X164013818Y-118047095D02*
X164013818Y-117856619D01*
X164013818Y-117856619D02*
X163966199Y-117761381D01*
X163966199Y-117761381D02*
X163870960Y-117713762D01*
X163870960Y-117713762D02*
X163823341Y-117713762D01*
X163823341Y-117713762D02*
X163728103Y-117761381D01*
X163728103Y-117761381D02*
X163680484Y-117856619D01*
X163680484Y-117856619D02*
X163680484Y-117999476D01*
X163680484Y-117999476D02*
X163632865Y-118094714D01*
X163632865Y-118094714D02*
X163537627Y-118142333D01*
X163537627Y-118142333D02*
X163490008Y-118142333D01*
X163490008Y-118142333D02*
X163394770Y-118094714D01*
X163394770Y-118094714D02*
X163347151Y-117999476D01*
X163347151Y-117999476D02*
X163347151Y-117856619D01*
X163347151Y-117856619D02*
X163394770Y-117761381D01*
X163347151Y-117428047D02*
X163347151Y-117047095D01*
X163013818Y-117285190D02*
X163870960Y-117285190D01*
X163870960Y-117285190D02*
X163966199Y-117237571D01*
X163966199Y-117237571D02*
X164013818Y-117142333D01*
X164013818Y-117142333D02*
X164013818Y-117047095D01*
X165576199Y-126547095D02*
X165623818Y-126404238D01*
X165623818Y-126404238D02*
X165623818Y-126166143D01*
X165623818Y-126166143D02*
X165576199Y-126070905D01*
X165576199Y-126070905D02*
X165528579Y-126023286D01*
X165528579Y-126023286D02*
X165433341Y-125975667D01*
X165433341Y-125975667D02*
X165338103Y-125975667D01*
X165338103Y-125975667D02*
X165242865Y-126023286D01*
X165242865Y-126023286D02*
X165195246Y-126070905D01*
X165195246Y-126070905D02*
X165147627Y-126166143D01*
X165147627Y-126166143D02*
X165100008Y-126356619D01*
X165100008Y-126356619D02*
X165052389Y-126451857D01*
X165052389Y-126451857D02*
X165004770Y-126499476D01*
X165004770Y-126499476D02*
X164909532Y-126547095D01*
X164909532Y-126547095D02*
X164814294Y-126547095D01*
X164814294Y-126547095D02*
X164719056Y-126499476D01*
X164719056Y-126499476D02*
X164671437Y-126451857D01*
X164671437Y-126451857D02*
X164623818Y-126356619D01*
X164623818Y-126356619D02*
X164623818Y-126118524D01*
X164623818Y-126118524D02*
X164671437Y-125975667D01*
X165576199Y-125166143D02*
X165623818Y-125261381D01*
X165623818Y-125261381D02*
X165623818Y-125451857D01*
X165623818Y-125451857D02*
X165576199Y-125547095D01*
X165576199Y-125547095D02*
X165480960Y-125594714D01*
X165480960Y-125594714D02*
X165100008Y-125594714D01*
X165100008Y-125594714D02*
X165004770Y-125547095D01*
X165004770Y-125547095D02*
X164957151Y-125451857D01*
X164957151Y-125451857D02*
X164957151Y-125261381D01*
X164957151Y-125261381D02*
X165004770Y-125166143D01*
X165004770Y-125166143D02*
X165100008Y-125118524D01*
X165100008Y-125118524D02*
X165195246Y-125118524D01*
X165195246Y-125118524D02*
X165290484Y-125594714D01*
X164957151Y-124689952D02*
X165957151Y-124689952D01*
X165004770Y-124689952D02*
X164957151Y-124594714D01*
X164957151Y-124594714D02*
X164957151Y-124404238D01*
X164957151Y-124404238D02*
X165004770Y-124309000D01*
X165004770Y-124309000D02*
X165052389Y-124261381D01*
X165052389Y-124261381D02*
X165147627Y-124213762D01*
X165147627Y-124213762D02*
X165433341Y-124213762D01*
X165433341Y-124213762D02*
X165528579Y-124261381D01*
X165528579Y-124261381D02*
X165576199Y-124309000D01*
X165576199Y-124309000D02*
X165623818Y-124404238D01*
X165623818Y-124404238D02*
X165623818Y-124594714D01*
X165623818Y-124594714D02*
X165576199Y-124689952D01*
X164957151Y-123928047D02*
X164957151Y-123547095D01*
X164623818Y-123785190D02*
X165480960Y-123785190D01*
X165480960Y-123785190D02*
X165576199Y-123737571D01*
X165576199Y-123737571D02*
X165623818Y-123642333D01*
X165623818Y-123642333D02*
X165623818Y-123547095D01*
X164719056Y-122499475D02*
X164671437Y-122451856D01*
X164671437Y-122451856D02*
X164623818Y-122356618D01*
X164623818Y-122356618D02*
X164623818Y-122118523D01*
X164623818Y-122118523D02*
X164671437Y-122023285D01*
X164671437Y-122023285D02*
X164719056Y-121975666D01*
X164719056Y-121975666D02*
X164814294Y-121928047D01*
X164814294Y-121928047D02*
X164909532Y-121928047D01*
X164909532Y-121928047D02*
X165052389Y-121975666D01*
X165052389Y-121975666D02*
X165623818Y-122547094D01*
X165623818Y-122547094D02*
X165623818Y-121928047D01*
X164623818Y-121308999D02*
X164623818Y-121213761D01*
X164623818Y-121213761D02*
X164671437Y-121118523D01*
X164671437Y-121118523D02*
X164719056Y-121070904D01*
X164719056Y-121070904D02*
X164814294Y-121023285D01*
X164814294Y-121023285D02*
X165004770Y-120975666D01*
X165004770Y-120975666D02*
X165242865Y-120975666D01*
X165242865Y-120975666D02*
X165433341Y-121023285D01*
X165433341Y-121023285D02*
X165528579Y-121070904D01*
X165528579Y-121070904D02*
X165576199Y-121118523D01*
X165576199Y-121118523D02*
X165623818Y-121213761D01*
X165623818Y-121213761D02*
X165623818Y-121308999D01*
X165623818Y-121308999D02*
X165576199Y-121404237D01*
X165576199Y-121404237D02*
X165528579Y-121451856D01*
X165528579Y-121451856D02*
X165433341Y-121499475D01*
X165433341Y-121499475D02*
X165242865Y-121547094D01*
X165242865Y-121547094D02*
X165004770Y-121547094D01*
X165004770Y-121547094D02*
X164814294Y-121499475D01*
X164814294Y-121499475D02*
X164719056Y-121451856D01*
X164719056Y-121451856D02*
X164671437Y-121404237D01*
X164671437Y-121404237D02*
X164623818Y-121308999D01*
X164719056Y-120594713D02*
X164671437Y-120547094D01*
X164671437Y-120547094D02*
X164623818Y-120451856D01*
X164623818Y-120451856D02*
X164623818Y-120213761D01*
X164623818Y-120213761D02*
X164671437Y-120118523D01*
X164671437Y-120118523D02*
X164719056Y-120070904D01*
X164719056Y-120070904D02*
X164814294Y-120023285D01*
X164814294Y-120023285D02*
X164909532Y-120023285D01*
X164909532Y-120023285D02*
X165052389Y-120070904D01*
X165052389Y-120070904D02*
X165623818Y-120642332D01*
X165623818Y-120642332D02*
X165623818Y-120023285D01*
X164623818Y-119689951D02*
X164623818Y-119070904D01*
X164623818Y-119070904D02*
X165004770Y-119404237D01*
X165004770Y-119404237D02*
X165004770Y-119261380D01*
X165004770Y-119261380D02*
X165052389Y-119166142D01*
X165052389Y-119166142D02*
X165100008Y-119118523D01*
X165100008Y-119118523D02*
X165195246Y-119070904D01*
X165195246Y-119070904D02*
X165433341Y-119070904D01*
X165433341Y-119070904D02*
X165528579Y-119118523D01*
X165528579Y-119118523D02*
X165576199Y-119166142D01*
X165576199Y-119166142D02*
X165623818Y-119261380D01*
X165623818Y-119261380D02*
X165623818Y-119547094D01*
X165623818Y-119547094D02*
X165576199Y-119642332D01*
X165576199Y-119642332D02*
X165528579Y-119689951D01*
X166824819Y-70642857D02*
X166824819Y-71214285D01*
X166824819Y-70928571D02*
X165824819Y-70928571D01*
X165824819Y-70928571D02*
X165967676Y-71023809D01*
X165967676Y-71023809D02*
X166062914Y-71119047D01*
X166062914Y-71119047D02*
X166110533Y-71214285D01*
X165824819Y-70023809D02*
X165824819Y-69928571D01*
X165824819Y-69928571D02*
X165872438Y-69833333D01*
X165872438Y-69833333D02*
X165920057Y-69785714D01*
X165920057Y-69785714D02*
X166015295Y-69738095D01*
X166015295Y-69738095D02*
X166205771Y-69690476D01*
X166205771Y-69690476D02*
X166443866Y-69690476D01*
X166443866Y-69690476D02*
X166634342Y-69738095D01*
X166634342Y-69738095D02*
X166729580Y-69785714D01*
X166729580Y-69785714D02*
X166777200Y-69833333D01*
X166777200Y-69833333D02*
X166824819Y-69928571D01*
X166824819Y-69928571D02*
X166824819Y-70023809D01*
X166824819Y-70023809D02*
X166777200Y-70119047D01*
X166777200Y-70119047D02*
X166729580Y-70166666D01*
X166729580Y-70166666D02*
X166634342Y-70214285D01*
X166634342Y-70214285D02*
X166443866Y-70261904D01*
X166443866Y-70261904D02*
X166205771Y-70261904D01*
X166205771Y-70261904D02*
X166015295Y-70214285D01*
X166015295Y-70214285D02*
X165920057Y-70166666D01*
X165920057Y-70166666D02*
X165872438Y-70119047D01*
X165872438Y-70119047D02*
X165824819Y-70023809D01*
X166158152Y-69261904D02*
X167158152Y-69261904D01*
X166681961Y-68785714D02*
X166777200Y-68738095D01*
X166777200Y-68738095D02*
X166824819Y-68642857D01*
X166681961Y-69261904D02*
X166777200Y-69214285D01*
X166777200Y-69214285D02*
X166824819Y-69119047D01*
X166824819Y-69119047D02*
X166824819Y-68928571D01*
X166824819Y-68928571D02*
X166777200Y-68833333D01*
X166777200Y-68833333D02*
X166681961Y-68785714D01*
X166681961Y-68785714D02*
X166158152Y-68785714D01*
X166301009Y-67880952D02*
X166301009Y-68214285D01*
X166824819Y-68214285D02*
X165824819Y-68214285D01*
X165824819Y-68214285D02*
X165824819Y-67738095D01*
X132999942Y-74216419D02*
X132428514Y-74216419D01*
X132714228Y-74216419D02*
X132714228Y-73216419D01*
X132714228Y-73216419D02*
X132618990Y-73359276D01*
X132618990Y-73359276D02*
X132523752Y-73454514D01*
X132523752Y-73454514D02*
X132428514Y-73502133D01*
X133618990Y-73216419D02*
X133714228Y-73216419D01*
X133714228Y-73216419D02*
X133809466Y-73264038D01*
X133809466Y-73264038D02*
X133857085Y-73311657D01*
X133857085Y-73311657D02*
X133904704Y-73406895D01*
X133904704Y-73406895D02*
X133952323Y-73597371D01*
X133952323Y-73597371D02*
X133952323Y-73835466D01*
X133952323Y-73835466D02*
X133904704Y-74025942D01*
X133904704Y-74025942D02*
X133857085Y-74121180D01*
X133857085Y-74121180D02*
X133809466Y-74168800D01*
X133809466Y-74168800D02*
X133714228Y-74216419D01*
X133714228Y-74216419D02*
X133618990Y-74216419D01*
X133618990Y-74216419D02*
X133523752Y-74168800D01*
X133523752Y-74168800D02*
X133476133Y-74121180D01*
X133476133Y-74121180D02*
X133428514Y-74025942D01*
X133428514Y-74025942D02*
X133380895Y-73835466D01*
X133380895Y-73835466D02*
X133380895Y-73597371D01*
X133380895Y-73597371D02*
X133428514Y-73406895D01*
X133428514Y-73406895D02*
X133476133Y-73311657D01*
X133476133Y-73311657D02*
X133523752Y-73264038D01*
X133523752Y-73264038D02*
X133618990Y-73216419D01*
X134380895Y-73549752D02*
X134380895Y-74549752D01*
X134857085Y-74073561D02*
X134904704Y-74168800D01*
X134904704Y-74168800D02*
X134999942Y-74216419D01*
X134380895Y-74073561D02*
X134428514Y-74168800D01*
X134428514Y-74168800D02*
X134523752Y-74216419D01*
X134523752Y-74216419D02*
X134714228Y-74216419D01*
X134714228Y-74216419D02*
X134809466Y-74168800D01*
X134809466Y-74168800D02*
X134857085Y-74073561D01*
X134857085Y-74073561D02*
X134857085Y-73549752D01*
X135761847Y-73692609D02*
X135428514Y-73692609D01*
X135428514Y-74216419D02*
X135428514Y-73216419D01*
X135428514Y-73216419D02*
X135904704Y-73216419D01*
D11*
X154678759Y-125932595D02*
X153408759Y-125932595D01*
X153408759Y-125932595D02*
X153408759Y-125448785D01*
X153408759Y-125448785D02*
X153469235Y-125327833D01*
X153469235Y-125327833D02*
X153529711Y-125267356D01*
X153529711Y-125267356D02*
X153650663Y-125206880D01*
X153650663Y-125206880D02*
X153832092Y-125206880D01*
X153832092Y-125206880D02*
X153953044Y-125267356D01*
X153953044Y-125267356D02*
X154013521Y-125327833D01*
X154013521Y-125327833D02*
X154073997Y-125448785D01*
X154073997Y-125448785D02*
X154073997Y-125932595D01*
X153408759Y-124420690D02*
X153408759Y-124178785D01*
X153408759Y-124178785D02*
X153469235Y-124057833D01*
X153469235Y-124057833D02*
X153590187Y-123936880D01*
X153590187Y-123936880D02*
X153832092Y-123876404D01*
X153832092Y-123876404D02*
X154255425Y-123876404D01*
X154255425Y-123876404D02*
X154497330Y-123936880D01*
X154497330Y-123936880D02*
X154618283Y-124057833D01*
X154618283Y-124057833D02*
X154678759Y-124178785D01*
X154678759Y-124178785D02*
X154678759Y-124420690D01*
X154678759Y-124420690D02*
X154618283Y-124541642D01*
X154618283Y-124541642D02*
X154497330Y-124662595D01*
X154497330Y-124662595D02*
X154255425Y-124723071D01*
X154255425Y-124723071D02*
X153832092Y-124723071D01*
X153832092Y-124723071D02*
X153590187Y-124662595D01*
X153590187Y-124662595D02*
X153469235Y-124541642D01*
X153469235Y-124541642D02*
X153408759Y-124420690D01*
X153408759Y-123453071D02*
X154678759Y-123150690D01*
X154678759Y-123150690D02*
X153771616Y-122908785D01*
X153771616Y-122908785D02*
X154678759Y-122666880D01*
X154678759Y-122666880D02*
X153408759Y-122364500D01*
X154013521Y-121880690D02*
X154013521Y-121457356D01*
X154678759Y-121275928D02*
X154678759Y-121880690D01*
X154678759Y-121880690D02*
X153408759Y-121880690D01*
X153408759Y-121880690D02*
X153408759Y-121275928D01*
X154678759Y-120005927D02*
X154073997Y-120429261D01*
X154678759Y-120731642D02*
X153408759Y-120731642D01*
X153408759Y-120731642D02*
X153408759Y-120247832D01*
X153408759Y-120247832D02*
X153469235Y-120126880D01*
X153469235Y-120126880D02*
X153529711Y-120066403D01*
X153529711Y-120066403D02*
X153650663Y-120005927D01*
X153650663Y-120005927D02*
X153832092Y-120005927D01*
X153832092Y-120005927D02*
X153953044Y-120066403D01*
X153953044Y-120066403D02*
X154013521Y-120126880D01*
X154013521Y-120126880D02*
X154073997Y-120247832D01*
X154073997Y-120247832D02*
X154073997Y-120731642D01*
D10*
X132073924Y-109690819D02*
X132169162Y-109690819D01*
X132169162Y-109690819D02*
X132264400Y-109738438D01*
X132264400Y-109738438D02*
X132312019Y-109786057D01*
X132312019Y-109786057D02*
X132359638Y-109881295D01*
X132359638Y-109881295D02*
X132407257Y-110071771D01*
X132407257Y-110071771D02*
X132407257Y-110309866D01*
X132407257Y-110309866D02*
X132359638Y-110500342D01*
X132359638Y-110500342D02*
X132312019Y-110595580D01*
X132312019Y-110595580D02*
X132264400Y-110643200D01*
X132264400Y-110643200D02*
X132169162Y-110690819D01*
X132169162Y-110690819D02*
X132073924Y-110690819D01*
X132073924Y-110690819D02*
X131978686Y-110643200D01*
X131978686Y-110643200D02*
X131931067Y-110595580D01*
X131931067Y-110595580D02*
X131883448Y-110500342D01*
X131883448Y-110500342D02*
X131835829Y-110309866D01*
X131835829Y-110309866D02*
X131835829Y-110071771D01*
X131835829Y-110071771D02*
X131883448Y-109881295D01*
X131883448Y-109881295D02*
X131931067Y-109786057D01*
X131931067Y-109786057D02*
X131978686Y-109738438D01*
X131978686Y-109738438D02*
X132073924Y-109690819D01*
X132835829Y-110595580D02*
X132883448Y-110643200D01*
X132883448Y-110643200D02*
X132835829Y-110690819D01*
X132835829Y-110690819D02*
X132788210Y-110643200D01*
X132788210Y-110643200D02*
X132835829Y-110595580D01*
X132835829Y-110595580D02*
X132835829Y-110690819D01*
X133740590Y-110024152D02*
X133740590Y-110690819D01*
X133502495Y-109643200D02*
X133264400Y-110357485D01*
X133264400Y-110357485D02*
X133883447Y-110357485D01*
X134169162Y-109690819D02*
X134835828Y-109690819D01*
X134835828Y-109690819D02*
X134407257Y-110690819D01*
X135216781Y-110024152D02*
X135216781Y-111024152D01*
X135692971Y-110547961D02*
X135740590Y-110643200D01*
X135740590Y-110643200D02*
X135835828Y-110690819D01*
X135216781Y-110547961D02*
X135264400Y-110643200D01*
X135264400Y-110643200D02*
X135359638Y-110690819D01*
X135359638Y-110690819D02*
X135550114Y-110690819D01*
X135550114Y-110690819D02*
X135645352Y-110643200D01*
X135645352Y-110643200D02*
X135692971Y-110547961D01*
X135692971Y-110547961D02*
X135692971Y-110024152D01*
X136597733Y-110167009D02*
X136264400Y-110167009D01*
X136264400Y-110690819D02*
X136264400Y-109690819D01*
X136264400Y-109690819D02*
X136740590Y-109690819D01*
X133192971Y-82634419D02*
X132621543Y-82634419D01*
X132907257Y-82634419D02*
X132907257Y-81634419D01*
X132907257Y-81634419D02*
X132812019Y-81777276D01*
X132812019Y-81777276D02*
X132716781Y-81872514D01*
X132716781Y-81872514D02*
X132621543Y-81920133D01*
X133812019Y-81634419D02*
X133907257Y-81634419D01*
X133907257Y-81634419D02*
X134002495Y-81682038D01*
X134002495Y-81682038D02*
X134050114Y-81729657D01*
X134050114Y-81729657D02*
X134097733Y-81824895D01*
X134097733Y-81824895D02*
X134145352Y-82015371D01*
X134145352Y-82015371D02*
X134145352Y-82253466D01*
X134145352Y-82253466D02*
X134097733Y-82443942D01*
X134097733Y-82443942D02*
X134050114Y-82539180D01*
X134050114Y-82539180D02*
X134002495Y-82586800D01*
X134002495Y-82586800D02*
X133907257Y-82634419D01*
X133907257Y-82634419D02*
X133812019Y-82634419D01*
X133812019Y-82634419D02*
X133716781Y-82586800D01*
X133716781Y-82586800D02*
X133669162Y-82539180D01*
X133669162Y-82539180D02*
X133621543Y-82443942D01*
X133621543Y-82443942D02*
X133573924Y-82253466D01*
X133573924Y-82253466D02*
X133573924Y-82015371D01*
X133573924Y-82015371D02*
X133621543Y-81824895D01*
X133621543Y-81824895D02*
X133669162Y-81729657D01*
X133669162Y-81729657D02*
X133716781Y-81682038D01*
X133716781Y-81682038D02*
X133812019Y-81634419D01*
X134573924Y-81967752D02*
X134573924Y-82634419D01*
X134573924Y-82062990D02*
X134621543Y-82015371D01*
X134621543Y-82015371D02*
X134716781Y-81967752D01*
X134716781Y-81967752D02*
X134859638Y-81967752D01*
X134859638Y-81967752D02*
X134954876Y-82015371D01*
X134954876Y-82015371D02*
X135002495Y-82110609D01*
X135002495Y-82110609D02*
X135002495Y-82634419D01*
X135812019Y-82110609D02*
X135478686Y-82110609D01*
X135478686Y-82634419D02*
X135478686Y-81634419D01*
X135478686Y-81634419D02*
X135954876Y-81634419D01*
X162724819Y-89959619D02*
X162724819Y-90531047D01*
X162724819Y-90245333D02*
X161724819Y-90245333D01*
X161724819Y-90245333D02*
X161867676Y-90340571D01*
X161867676Y-90340571D02*
X161962914Y-90435809D01*
X161962914Y-90435809D02*
X162010533Y-90531047D01*
X161724819Y-89340571D02*
X161724819Y-89245333D01*
X161724819Y-89245333D02*
X161772438Y-89150095D01*
X161772438Y-89150095D02*
X161820057Y-89102476D01*
X161820057Y-89102476D02*
X161915295Y-89054857D01*
X161915295Y-89054857D02*
X162105771Y-89007238D01*
X162105771Y-89007238D02*
X162343866Y-89007238D01*
X162343866Y-89007238D02*
X162534342Y-89054857D01*
X162534342Y-89054857D02*
X162629580Y-89102476D01*
X162629580Y-89102476D02*
X162677200Y-89150095D01*
X162677200Y-89150095D02*
X162724819Y-89245333D01*
X162724819Y-89245333D02*
X162724819Y-89340571D01*
X162724819Y-89340571D02*
X162677200Y-89435809D01*
X162677200Y-89435809D02*
X162629580Y-89483428D01*
X162629580Y-89483428D02*
X162534342Y-89531047D01*
X162534342Y-89531047D02*
X162343866Y-89578666D01*
X162343866Y-89578666D02*
X162105771Y-89578666D01*
X162105771Y-89578666D02*
X161915295Y-89531047D01*
X161915295Y-89531047D02*
X161820057Y-89483428D01*
X161820057Y-89483428D02*
X161772438Y-89435809D01*
X161772438Y-89435809D02*
X161724819Y-89340571D01*
X161724819Y-88388190D02*
X161724819Y-88292952D01*
X161724819Y-88292952D02*
X161772438Y-88197714D01*
X161772438Y-88197714D02*
X161820057Y-88150095D01*
X161820057Y-88150095D02*
X161915295Y-88102476D01*
X161915295Y-88102476D02*
X162105771Y-88054857D01*
X162105771Y-88054857D02*
X162343866Y-88054857D01*
X162343866Y-88054857D02*
X162534342Y-88102476D01*
X162534342Y-88102476D02*
X162629580Y-88150095D01*
X162629580Y-88150095D02*
X162677200Y-88197714D01*
X162677200Y-88197714D02*
X162724819Y-88292952D01*
X162724819Y-88292952D02*
X162724819Y-88388190D01*
X162724819Y-88388190D02*
X162677200Y-88483428D01*
X162677200Y-88483428D02*
X162629580Y-88531047D01*
X162629580Y-88531047D02*
X162534342Y-88578666D01*
X162534342Y-88578666D02*
X162343866Y-88626285D01*
X162343866Y-88626285D02*
X162105771Y-88626285D01*
X162105771Y-88626285D02*
X161915295Y-88578666D01*
X161915295Y-88578666D02*
X161820057Y-88531047D01*
X161820057Y-88531047D02*
X161772438Y-88483428D01*
X161772438Y-88483428D02*
X161724819Y-88388190D01*
X162058152Y-87626285D02*
X162724819Y-87626285D01*
X162153390Y-87626285D02*
X162105771Y-87578666D01*
X162105771Y-87578666D02*
X162058152Y-87483428D01*
X162058152Y-87483428D02*
X162058152Y-87340571D01*
X162058152Y-87340571D02*
X162105771Y-87245333D01*
X162105771Y-87245333D02*
X162201009Y-87197714D01*
X162201009Y-87197714D02*
X162724819Y-87197714D01*
X162201009Y-86388190D02*
X162201009Y-86721523D01*
X162724819Y-86721523D02*
X161724819Y-86721523D01*
X161724819Y-86721523D02*
X161724819Y-86245333D01*
X132716780Y-87110819D02*
X132145352Y-87110819D01*
X132431066Y-87110819D02*
X132431066Y-86110819D01*
X132431066Y-86110819D02*
X132335828Y-86253676D01*
X132335828Y-86253676D02*
X132240590Y-86348914D01*
X132240590Y-86348914D02*
X132145352Y-86396533D01*
X133335828Y-86110819D02*
X133431066Y-86110819D01*
X133431066Y-86110819D02*
X133526304Y-86158438D01*
X133526304Y-86158438D02*
X133573923Y-86206057D01*
X133573923Y-86206057D02*
X133621542Y-86301295D01*
X133621542Y-86301295D02*
X133669161Y-86491771D01*
X133669161Y-86491771D02*
X133669161Y-86729866D01*
X133669161Y-86729866D02*
X133621542Y-86920342D01*
X133621542Y-86920342D02*
X133573923Y-87015580D01*
X133573923Y-87015580D02*
X133526304Y-87063200D01*
X133526304Y-87063200D02*
X133431066Y-87110819D01*
X133431066Y-87110819D02*
X133335828Y-87110819D01*
X133335828Y-87110819D02*
X133240590Y-87063200D01*
X133240590Y-87063200D02*
X133192971Y-87015580D01*
X133192971Y-87015580D02*
X133145352Y-86920342D01*
X133145352Y-86920342D02*
X133097733Y-86729866D01*
X133097733Y-86729866D02*
X133097733Y-86491771D01*
X133097733Y-86491771D02*
X133145352Y-86301295D01*
X133145352Y-86301295D02*
X133192971Y-86206057D01*
X133192971Y-86206057D02*
X133240590Y-86158438D01*
X133240590Y-86158438D02*
X133335828Y-86110819D01*
X134288209Y-86110819D02*
X134383447Y-86110819D01*
X134383447Y-86110819D02*
X134478685Y-86158438D01*
X134478685Y-86158438D02*
X134526304Y-86206057D01*
X134526304Y-86206057D02*
X134573923Y-86301295D01*
X134573923Y-86301295D02*
X134621542Y-86491771D01*
X134621542Y-86491771D02*
X134621542Y-86729866D01*
X134621542Y-86729866D02*
X134573923Y-86920342D01*
X134573923Y-86920342D02*
X134526304Y-87015580D01*
X134526304Y-87015580D02*
X134478685Y-87063200D01*
X134478685Y-87063200D02*
X134383447Y-87110819D01*
X134383447Y-87110819D02*
X134288209Y-87110819D01*
X134288209Y-87110819D02*
X134192971Y-87063200D01*
X134192971Y-87063200D02*
X134145352Y-87015580D01*
X134145352Y-87015580D02*
X134097733Y-86920342D01*
X134097733Y-86920342D02*
X134050114Y-86729866D01*
X134050114Y-86729866D02*
X134050114Y-86491771D01*
X134050114Y-86491771D02*
X134097733Y-86301295D01*
X134097733Y-86301295D02*
X134145352Y-86206057D01*
X134145352Y-86206057D02*
X134192971Y-86158438D01*
X134192971Y-86158438D02*
X134288209Y-86110819D01*
X135050114Y-86444152D02*
X135050114Y-87110819D01*
X135050114Y-86539390D02*
X135097733Y-86491771D01*
X135097733Y-86491771D02*
X135192971Y-86444152D01*
X135192971Y-86444152D02*
X135335828Y-86444152D01*
X135335828Y-86444152D02*
X135431066Y-86491771D01*
X135431066Y-86491771D02*
X135478685Y-86587009D01*
X135478685Y-86587009D02*
X135478685Y-87110819D01*
X136288209Y-86587009D02*
X135954876Y-86587009D01*
X135954876Y-87110819D02*
X135954876Y-86110819D01*
X135954876Y-86110819D02*
X136431066Y-86110819D01*
X133116142Y-106322019D02*
X132544714Y-106322019D01*
X132830428Y-106322019D02*
X132830428Y-105322019D01*
X132830428Y-105322019D02*
X132735190Y-105464876D01*
X132735190Y-105464876D02*
X132639952Y-105560114D01*
X132639952Y-105560114D02*
X132544714Y-105607733D01*
X133735190Y-105322019D02*
X133830428Y-105322019D01*
X133830428Y-105322019D02*
X133925666Y-105369638D01*
X133925666Y-105369638D02*
X133973285Y-105417257D01*
X133973285Y-105417257D02*
X134020904Y-105512495D01*
X134020904Y-105512495D02*
X134068523Y-105702971D01*
X134068523Y-105702971D02*
X134068523Y-105941066D01*
X134068523Y-105941066D02*
X134020904Y-106131542D01*
X134020904Y-106131542D02*
X133973285Y-106226780D01*
X133973285Y-106226780D02*
X133925666Y-106274400D01*
X133925666Y-106274400D02*
X133830428Y-106322019D01*
X133830428Y-106322019D02*
X133735190Y-106322019D01*
X133735190Y-106322019D02*
X133639952Y-106274400D01*
X133639952Y-106274400D02*
X133592333Y-106226780D01*
X133592333Y-106226780D02*
X133544714Y-106131542D01*
X133544714Y-106131542D02*
X133497095Y-105941066D01*
X133497095Y-105941066D02*
X133497095Y-105702971D01*
X133497095Y-105702971D02*
X133544714Y-105512495D01*
X133544714Y-105512495D02*
X133592333Y-105417257D01*
X133592333Y-105417257D02*
X133639952Y-105369638D01*
X133639952Y-105369638D02*
X133735190Y-105322019D01*
X134497095Y-105655352D02*
X134497095Y-106655352D01*
X134973285Y-106179161D02*
X135020904Y-106274400D01*
X135020904Y-106274400D02*
X135116142Y-106322019D01*
X134497095Y-106179161D02*
X134544714Y-106274400D01*
X134544714Y-106274400D02*
X134639952Y-106322019D01*
X134639952Y-106322019D02*
X134830428Y-106322019D01*
X134830428Y-106322019D02*
X134925666Y-106274400D01*
X134925666Y-106274400D02*
X134973285Y-106179161D01*
X134973285Y-106179161D02*
X134973285Y-105655352D01*
X135878047Y-105798209D02*
X135544714Y-105798209D01*
X135544714Y-106322019D02*
X135544714Y-105322019D01*
X135544714Y-105322019D02*
X136020904Y-105322019D01*
X158714302Y-82939819D02*
X159333349Y-82939819D01*
X159333349Y-82939819D02*
X159000016Y-83320771D01*
X159000016Y-83320771D02*
X159142873Y-83320771D01*
X159142873Y-83320771D02*
X159238111Y-83368390D01*
X159238111Y-83368390D02*
X159285730Y-83416009D01*
X159285730Y-83416009D02*
X159333349Y-83511247D01*
X159333349Y-83511247D02*
X159333349Y-83749342D01*
X159333349Y-83749342D02*
X159285730Y-83844580D01*
X159285730Y-83844580D02*
X159238111Y-83892200D01*
X159238111Y-83892200D02*
X159142873Y-83939819D01*
X159142873Y-83939819D02*
X158857159Y-83939819D01*
X158857159Y-83939819D02*
X158761921Y-83892200D01*
X158761921Y-83892200D02*
X158714302Y-83844580D01*
X159666683Y-82939819D02*
X160285730Y-82939819D01*
X160285730Y-82939819D02*
X159952397Y-83320771D01*
X159952397Y-83320771D02*
X160095254Y-83320771D01*
X160095254Y-83320771D02*
X160190492Y-83368390D01*
X160190492Y-83368390D02*
X160238111Y-83416009D01*
X160238111Y-83416009D02*
X160285730Y-83511247D01*
X160285730Y-83511247D02*
X160285730Y-83749342D01*
X160285730Y-83749342D02*
X160238111Y-83844580D01*
X160238111Y-83844580D02*
X160190492Y-83892200D01*
X160190492Y-83892200D02*
X160095254Y-83939819D01*
X160095254Y-83939819D02*
X159809540Y-83939819D01*
X159809540Y-83939819D02*
X159714302Y-83892200D01*
X159714302Y-83892200D02*
X159666683Y-83844580D01*
X160904778Y-82939819D02*
X161000016Y-82939819D01*
X161000016Y-82939819D02*
X161095254Y-82987438D01*
X161095254Y-82987438D02*
X161142873Y-83035057D01*
X161142873Y-83035057D02*
X161190492Y-83130295D01*
X161190492Y-83130295D02*
X161238111Y-83320771D01*
X161238111Y-83320771D02*
X161238111Y-83558866D01*
X161238111Y-83558866D02*
X161190492Y-83749342D01*
X161190492Y-83749342D02*
X161142873Y-83844580D01*
X161142873Y-83844580D02*
X161095254Y-83892200D01*
X161095254Y-83892200D02*
X161000016Y-83939819D01*
X161000016Y-83939819D02*
X160904778Y-83939819D01*
X160904778Y-83939819D02*
X160809540Y-83892200D01*
X160809540Y-83892200D02*
X160761921Y-83844580D01*
X160761921Y-83844580D02*
X160714302Y-83749342D01*
X160714302Y-83749342D02*
X160666683Y-83558866D01*
X160666683Y-83558866D02*
X160666683Y-83320771D01*
X160666683Y-83320771D02*
X160714302Y-83130295D01*
X160714302Y-83130295D02*
X160761921Y-83035057D01*
X160761921Y-83035057D02*
X160809540Y-82987438D01*
X160809540Y-82987438D02*
X160904778Y-82939819D01*
X132989142Y-129404819D02*
X132417714Y-129404819D01*
X132703428Y-129404819D02*
X132703428Y-128404819D01*
X132703428Y-128404819D02*
X132608190Y-128547676D01*
X132608190Y-128547676D02*
X132512952Y-128642914D01*
X132512952Y-128642914D02*
X132417714Y-128690533D01*
X133608190Y-128404819D02*
X133703428Y-128404819D01*
X133703428Y-128404819D02*
X133798666Y-128452438D01*
X133798666Y-128452438D02*
X133846285Y-128500057D01*
X133846285Y-128500057D02*
X133893904Y-128595295D01*
X133893904Y-128595295D02*
X133941523Y-128785771D01*
X133941523Y-128785771D02*
X133941523Y-129023866D01*
X133941523Y-129023866D02*
X133893904Y-129214342D01*
X133893904Y-129214342D02*
X133846285Y-129309580D01*
X133846285Y-129309580D02*
X133798666Y-129357200D01*
X133798666Y-129357200D02*
X133703428Y-129404819D01*
X133703428Y-129404819D02*
X133608190Y-129404819D01*
X133608190Y-129404819D02*
X133512952Y-129357200D01*
X133512952Y-129357200D02*
X133465333Y-129309580D01*
X133465333Y-129309580D02*
X133417714Y-129214342D01*
X133417714Y-129214342D02*
X133370095Y-129023866D01*
X133370095Y-129023866D02*
X133370095Y-128785771D01*
X133370095Y-128785771D02*
X133417714Y-128595295D01*
X133417714Y-128595295D02*
X133465333Y-128500057D01*
X133465333Y-128500057D02*
X133512952Y-128452438D01*
X133512952Y-128452438D02*
X133608190Y-128404819D01*
X134370095Y-128738152D02*
X134370095Y-129738152D01*
X134846285Y-129261961D02*
X134893904Y-129357200D01*
X134893904Y-129357200D02*
X134989142Y-129404819D01*
X134370095Y-129261961D02*
X134417714Y-129357200D01*
X134417714Y-129357200D02*
X134512952Y-129404819D01*
X134512952Y-129404819D02*
X134703428Y-129404819D01*
X134703428Y-129404819D02*
X134798666Y-129357200D01*
X134798666Y-129357200D02*
X134846285Y-129261961D01*
X134846285Y-129261961D02*
X134846285Y-128738152D01*
X135751047Y-128881009D02*
X135417714Y-128881009D01*
X135417714Y-129404819D02*
X135417714Y-128404819D01*
X135417714Y-128404819D02*
X135893904Y-128404819D01*
X164582319Y-80714523D02*
X163582319Y-80714523D01*
X163582319Y-80714523D02*
X163582319Y-80333571D01*
X163582319Y-80333571D02*
X163629938Y-80238333D01*
X163629938Y-80238333D02*
X163677557Y-80190714D01*
X163677557Y-80190714D02*
X163772795Y-80143095D01*
X163772795Y-80143095D02*
X163915652Y-80143095D01*
X163915652Y-80143095D02*
X164010890Y-80190714D01*
X164010890Y-80190714D02*
X164058509Y-80238333D01*
X164058509Y-80238333D02*
X164106128Y-80333571D01*
X164106128Y-80333571D02*
X164106128Y-80714523D01*
X163582319Y-79524047D02*
X163582319Y-79333571D01*
X163582319Y-79333571D02*
X163629938Y-79238333D01*
X163629938Y-79238333D02*
X163725176Y-79143095D01*
X163725176Y-79143095D02*
X163915652Y-79095476D01*
X163915652Y-79095476D02*
X164248985Y-79095476D01*
X164248985Y-79095476D02*
X164439461Y-79143095D01*
X164439461Y-79143095D02*
X164534700Y-79238333D01*
X164534700Y-79238333D02*
X164582319Y-79333571D01*
X164582319Y-79333571D02*
X164582319Y-79524047D01*
X164582319Y-79524047D02*
X164534700Y-79619285D01*
X164534700Y-79619285D02*
X164439461Y-79714523D01*
X164439461Y-79714523D02*
X164248985Y-79762142D01*
X164248985Y-79762142D02*
X163915652Y-79762142D01*
X163915652Y-79762142D02*
X163725176Y-79714523D01*
X163725176Y-79714523D02*
X163629938Y-79619285D01*
X163629938Y-79619285D02*
X163582319Y-79524047D01*
X163582319Y-78762142D02*
X164582319Y-78524047D01*
X164582319Y-78524047D02*
X163868033Y-78333571D01*
X163868033Y-78333571D02*
X164582319Y-78143095D01*
X164582319Y-78143095D02*
X163582319Y-77905000D01*
X164058509Y-77524047D02*
X164058509Y-77190714D01*
X164582319Y-77047857D02*
X164582319Y-77524047D01*
X164582319Y-77524047D02*
X163582319Y-77524047D01*
X163582319Y-77524047D02*
X163582319Y-77047857D01*
X164582319Y-76047857D02*
X164106128Y-76381190D01*
X164582319Y-76619285D02*
X163582319Y-76619285D01*
X163582319Y-76619285D02*
X163582319Y-76238333D01*
X163582319Y-76238333D02*
X163629938Y-76143095D01*
X163629938Y-76143095D02*
X163677557Y-76095476D01*
X163677557Y-76095476D02*
X163772795Y-76047857D01*
X163772795Y-76047857D02*
X163915652Y-76047857D01*
X163915652Y-76047857D02*
X164010890Y-76095476D01*
X164010890Y-76095476D02*
X164058509Y-76143095D01*
X164058509Y-76143095D02*
X164106128Y-76238333D01*
X164106128Y-76238333D02*
X164106128Y-76619285D01*
X156617319Y-135540475D02*
X156617319Y-135445237D01*
X156617319Y-135445237D02*
X156664938Y-135349999D01*
X156664938Y-135349999D02*
X156712557Y-135302380D01*
X156712557Y-135302380D02*
X156807795Y-135254761D01*
X156807795Y-135254761D02*
X156998271Y-135207142D01*
X156998271Y-135207142D02*
X157236366Y-135207142D01*
X157236366Y-135207142D02*
X157426842Y-135254761D01*
X157426842Y-135254761D02*
X157522080Y-135302380D01*
X157522080Y-135302380D02*
X157569700Y-135349999D01*
X157569700Y-135349999D02*
X157617319Y-135445237D01*
X157617319Y-135445237D02*
X157617319Y-135540475D01*
X157617319Y-135540475D02*
X157569700Y-135635713D01*
X157569700Y-135635713D02*
X157522080Y-135683332D01*
X157522080Y-135683332D02*
X157426842Y-135730951D01*
X157426842Y-135730951D02*
X157236366Y-135778570D01*
X157236366Y-135778570D02*
X156998271Y-135778570D01*
X156998271Y-135778570D02*
X156807795Y-135730951D01*
X156807795Y-135730951D02*
X156712557Y-135683332D01*
X156712557Y-135683332D02*
X156664938Y-135635713D01*
X156664938Y-135635713D02*
X156617319Y-135540475D01*
X157522080Y-134778570D02*
X157569700Y-134730951D01*
X157569700Y-134730951D02*
X157617319Y-134778570D01*
X157617319Y-134778570D02*
X157569700Y-134826189D01*
X157569700Y-134826189D02*
X157522080Y-134778570D01*
X157522080Y-134778570D02*
X157617319Y-134778570D01*
X156950652Y-133873809D02*
X157617319Y-133873809D01*
X156569700Y-134111904D02*
X157283985Y-134349999D01*
X157283985Y-134349999D02*
X157283985Y-133730952D01*
X156617319Y-133445237D02*
X156617319Y-132778571D01*
X156617319Y-132778571D02*
X157617319Y-133207142D01*
X156950652Y-132397618D02*
X157950652Y-132397618D01*
X157474461Y-131921428D02*
X157569700Y-131873809D01*
X157569700Y-131873809D02*
X157617319Y-131778571D01*
X157474461Y-132397618D02*
X157569700Y-132349999D01*
X157569700Y-132349999D02*
X157617319Y-132254761D01*
X157617319Y-132254761D02*
X157617319Y-132064285D01*
X157617319Y-132064285D02*
X157569700Y-131969047D01*
X157569700Y-131969047D02*
X157474461Y-131921428D01*
X157474461Y-131921428D02*
X156950652Y-131921428D01*
X157093509Y-131016666D02*
X157093509Y-131349999D01*
X157617319Y-131349999D02*
X156617319Y-131349999D01*
X156617319Y-131349999D02*
X156617319Y-130873809D01*
X156617319Y-71690475D02*
X156617319Y-71595237D01*
X156617319Y-71595237D02*
X156664938Y-71499999D01*
X156664938Y-71499999D02*
X156712557Y-71452380D01*
X156712557Y-71452380D02*
X156807795Y-71404761D01*
X156807795Y-71404761D02*
X156998271Y-71357142D01*
X156998271Y-71357142D02*
X157236366Y-71357142D01*
X157236366Y-71357142D02*
X157426842Y-71404761D01*
X157426842Y-71404761D02*
X157522080Y-71452380D01*
X157522080Y-71452380D02*
X157569700Y-71499999D01*
X157569700Y-71499999D02*
X157617319Y-71595237D01*
X157617319Y-71595237D02*
X157617319Y-71690475D01*
X157617319Y-71690475D02*
X157569700Y-71785713D01*
X157569700Y-71785713D02*
X157522080Y-71833332D01*
X157522080Y-71833332D02*
X157426842Y-71880951D01*
X157426842Y-71880951D02*
X157236366Y-71928570D01*
X157236366Y-71928570D02*
X156998271Y-71928570D01*
X156998271Y-71928570D02*
X156807795Y-71880951D01*
X156807795Y-71880951D02*
X156712557Y-71833332D01*
X156712557Y-71833332D02*
X156664938Y-71785713D01*
X156664938Y-71785713D02*
X156617319Y-71690475D01*
X157522080Y-70928570D02*
X157569700Y-70880951D01*
X157569700Y-70880951D02*
X157617319Y-70928570D01*
X157617319Y-70928570D02*
X157569700Y-70976189D01*
X157569700Y-70976189D02*
X157522080Y-70928570D01*
X157522080Y-70928570D02*
X157617319Y-70928570D01*
X156950652Y-70023809D02*
X157617319Y-70023809D01*
X156569700Y-70261904D02*
X157283985Y-70499999D01*
X157283985Y-70499999D02*
X157283985Y-69880952D01*
X156617319Y-69595237D02*
X156617319Y-68928571D01*
X156617319Y-68928571D02*
X157617319Y-69357142D01*
X156950652Y-68547618D02*
X157950652Y-68547618D01*
X157474461Y-68071428D02*
X157569700Y-68023809D01*
X157569700Y-68023809D02*
X157617319Y-67928571D01*
X157474461Y-68547618D02*
X157569700Y-68499999D01*
X157569700Y-68499999D02*
X157617319Y-68404761D01*
X157617319Y-68404761D02*
X157617319Y-68214285D01*
X157617319Y-68214285D02*
X157569700Y-68119047D01*
X157569700Y-68119047D02*
X157474461Y-68071428D01*
X157474461Y-68071428D02*
X156950652Y-68071428D01*
X157093509Y-67166666D02*
X157093509Y-67499999D01*
X157617319Y-67499999D02*
X156617319Y-67499999D01*
X156617319Y-67499999D02*
X156617319Y-67023809D01*
X156617319Y-103790475D02*
X156617319Y-103695237D01*
X156617319Y-103695237D02*
X156664938Y-103599999D01*
X156664938Y-103599999D02*
X156712557Y-103552380D01*
X156712557Y-103552380D02*
X156807795Y-103504761D01*
X156807795Y-103504761D02*
X156998271Y-103457142D01*
X156998271Y-103457142D02*
X157236366Y-103457142D01*
X157236366Y-103457142D02*
X157426842Y-103504761D01*
X157426842Y-103504761D02*
X157522080Y-103552380D01*
X157522080Y-103552380D02*
X157569700Y-103599999D01*
X157569700Y-103599999D02*
X157617319Y-103695237D01*
X157617319Y-103695237D02*
X157617319Y-103790475D01*
X157617319Y-103790475D02*
X157569700Y-103885713D01*
X157569700Y-103885713D02*
X157522080Y-103933332D01*
X157522080Y-103933332D02*
X157426842Y-103980951D01*
X157426842Y-103980951D02*
X157236366Y-104028570D01*
X157236366Y-104028570D02*
X156998271Y-104028570D01*
X156998271Y-104028570D02*
X156807795Y-103980951D01*
X156807795Y-103980951D02*
X156712557Y-103933332D01*
X156712557Y-103933332D02*
X156664938Y-103885713D01*
X156664938Y-103885713D02*
X156617319Y-103790475D01*
X157522080Y-103028570D02*
X157569700Y-102980951D01*
X157569700Y-102980951D02*
X157617319Y-103028570D01*
X157617319Y-103028570D02*
X157569700Y-103076189D01*
X157569700Y-103076189D02*
X157522080Y-103028570D01*
X157522080Y-103028570D02*
X157617319Y-103028570D01*
X156950652Y-102123809D02*
X157617319Y-102123809D01*
X156569700Y-102361904D02*
X157283985Y-102599999D01*
X157283985Y-102599999D02*
X157283985Y-101980952D01*
X156617319Y-101695237D02*
X156617319Y-101028571D01*
X156617319Y-101028571D02*
X157617319Y-101457142D01*
X156950652Y-100647618D02*
X157950652Y-100647618D01*
X157474461Y-100171428D02*
X157569700Y-100123809D01*
X157569700Y-100123809D02*
X157617319Y-100028571D01*
X157474461Y-100647618D02*
X157569700Y-100599999D01*
X157569700Y-100599999D02*
X157617319Y-100504761D01*
X157617319Y-100504761D02*
X157617319Y-100314285D01*
X157617319Y-100314285D02*
X157569700Y-100219047D01*
X157569700Y-100219047D02*
X157474461Y-100171428D01*
X157474461Y-100171428D02*
X156950652Y-100171428D01*
X157093509Y-99266666D02*
X157093509Y-99599999D01*
X157617319Y-99599999D02*
X156617319Y-99599999D01*
X156617319Y-99599999D02*
X156617319Y-99123809D01*
X158279819Y-89078666D02*
X158279819Y-89650094D01*
X158279819Y-89364380D02*
X157279819Y-89364380D01*
X157279819Y-89364380D02*
X157422676Y-89459618D01*
X157422676Y-89459618D02*
X157517914Y-89554856D01*
X157517914Y-89554856D02*
X157565533Y-89650094D01*
X157613152Y-88650094D02*
X158613152Y-88650094D01*
X158136961Y-88173904D02*
X158232200Y-88126285D01*
X158232200Y-88126285D02*
X158279819Y-88031047D01*
X158136961Y-88650094D02*
X158232200Y-88602475D01*
X158232200Y-88602475D02*
X158279819Y-88507237D01*
X158279819Y-88507237D02*
X158279819Y-88316761D01*
X158279819Y-88316761D02*
X158232200Y-88221523D01*
X158232200Y-88221523D02*
X158136961Y-88173904D01*
X158136961Y-88173904D02*
X157613152Y-88173904D01*
X157756009Y-87269142D02*
X157756009Y-87602475D01*
X158279819Y-87602475D02*
X157279819Y-87602475D01*
X157279819Y-87602475D02*
X157279819Y-87126285D01*
X131972324Y-123900019D02*
X132067562Y-123900019D01*
X132067562Y-123900019D02*
X132162800Y-123947638D01*
X132162800Y-123947638D02*
X132210419Y-123995257D01*
X132210419Y-123995257D02*
X132258038Y-124090495D01*
X132258038Y-124090495D02*
X132305657Y-124280971D01*
X132305657Y-124280971D02*
X132305657Y-124519066D01*
X132305657Y-124519066D02*
X132258038Y-124709542D01*
X132258038Y-124709542D02*
X132210419Y-124804780D01*
X132210419Y-124804780D02*
X132162800Y-124852400D01*
X132162800Y-124852400D02*
X132067562Y-124900019D01*
X132067562Y-124900019D02*
X131972324Y-124900019D01*
X131972324Y-124900019D02*
X131877086Y-124852400D01*
X131877086Y-124852400D02*
X131829467Y-124804780D01*
X131829467Y-124804780D02*
X131781848Y-124709542D01*
X131781848Y-124709542D02*
X131734229Y-124519066D01*
X131734229Y-124519066D02*
X131734229Y-124280971D01*
X131734229Y-124280971D02*
X131781848Y-124090495D01*
X131781848Y-124090495D02*
X131829467Y-123995257D01*
X131829467Y-123995257D02*
X131877086Y-123947638D01*
X131877086Y-123947638D02*
X131972324Y-123900019D01*
X132734229Y-124804780D02*
X132781848Y-124852400D01*
X132781848Y-124852400D02*
X132734229Y-124900019D01*
X132734229Y-124900019D02*
X132686610Y-124852400D01*
X132686610Y-124852400D02*
X132734229Y-124804780D01*
X132734229Y-124804780D02*
X132734229Y-124900019D01*
X133638990Y-124233352D02*
X133638990Y-124900019D01*
X133400895Y-123852400D02*
X133162800Y-124566685D01*
X133162800Y-124566685D02*
X133781847Y-124566685D01*
X134067562Y-123900019D02*
X134734228Y-123900019D01*
X134734228Y-123900019D02*
X134305657Y-124900019D01*
X135115181Y-124233352D02*
X135115181Y-125233352D01*
X135591371Y-124757161D02*
X135638990Y-124852400D01*
X135638990Y-124852400D02*
X135734228Y-124900019D01*
X135115181Y-124757161D02*
X135162800Y-124852400D01*
X135162800Y-124852400D02*
X135258038Y-124900019D01*
X135258038Y-124900019D02*
X135448514Y-124900019D01*
X135448514Y-124900019D02*
X135543752Y-124852400D01*
X135543752Y-124852400D02*
X135591371Y-124757161D01*
X135591371Y-124757161D02*
X135591371Y-124233352D01*
X136496133Y-124376209D02*
X136162800Y-124376209D01*
X136162800Y-124900019D02*
X136162800Y-123900019D01*
X136162800Y-123900019D02*
X136638990Y-123900019D01*
X167169819Y-89483428D02*
X167169819Y-90054856D01*
X167169819Y-89769142D02*
X166169819Y-89769142D01*
X166169819Y-89769142D02*
X166312676Y-89864380D01*
X166312676Y-89864380D02*
X166407914Y-89959618D01*
X166407914Y-89959618D02*
X166455533Y-90054856D01*
X166169819Y-88864380D02*
X166169819Y-88769142D01*
X166169819Y-88769142D02*
X166217438Y-88673904D01*
X166217438Y-88673904D02*
X166265057Y-88626285D01*
X166265057Y-88626285D02*
X166360295Y-88578666D01*
X166360295Y-88578666D02*
X166550771Y-88531047D01*
X166550771Y-88531047D02*
X166788866Y-88531047D01*
X166788866Y-88531047D02*
X166979342Y-88578666D01*
X166979342Y-88578666D02*
X167074580Y-88626285D01*
X167074580Y-88626285D02*
X167122200Y-88673904D01*
X167122200Y-88673904D02*
X167169819Y-88769142D01*
X167169819Y-88769142D02*
X167169819Y-88864380D01*
X167169819Y-88864380D02*
X167122200Y-88959618D01*
X167122200Y-88959618D02*
X167074580Y-89007237D01*
X167074580Y-89007237D02*
X166979342Y-89054856D01*
X166979342Y-89054856D02*
X166788866Y-89102475D01*
X166788866Y-89102475D02*
X166550771Y-89102475D01*
X166550771Y-89102475D02*
X166360295Y-89054856D01*
X166360295Y-89054856D02*
X166265057Y-89007237D01*
X166265057Y-89007237D02*
X166217438Y-88959618D01*
X166217438Y-88959618D02*
X166169819Y-88864380D01*
X166503152Y-88102475D02*
X167169819Y-88102475D01*
X166598390Y-88102475D02*
X166550771Y-88054856D01*
X166550771Y-88054856D02*
X166503152Y-87959618D01*
X166503152Y-87959618D02*
X166503152Y-87816761D01*
X166503152Y-87816761D02*
X166550771Y-87721523D01*
X166550771Y-87721523D02*
X166646009Y-87673904D01*
X166646009Y-87673904D02*
X167169819Y-87673904D01*
X166646009Y-86864380D02*
X166646009Y-87197713D01*
X167169819Y-87197713D02*
X166169819Y-87197713D01*
X166169819Y-87197713D02*
X166169819Y-86721523D01*
X165189819Y-113596189D02*
X166189819Y-113262856D01*
X166189819Y-113262856D02*
X165189819Y-112929523D01*
X166094580Y-112024761D02*
X166142200Y-112072380D01*
X166142200Y-112072380D02*
X166189819Y-112215237D01*
X166189819Y-112215237D02*
X166189819Y-112310475D01*
X166189819Y-112310475D02*
X166142200Y-112453332D01*
X166142200Y-112453332D02*
X166046961Y-112548570D01*
X166046961Y-112548570D02*
X165951723Y-112596189D01*
X165951723Y-112596189D02*
X165761247Y-112643808D01*
X165761247Y-112643808D02*
X165618390Y-112643808D01*
X165618390Y-112643808D02*
X165427914Y-112596189D01*
X165427914Y-112596189D02*
X165332676Y-112548570D01*
X165332676Y-112548570D02*
X165237438Y-112453332D01*
X165237438Y-112453332D02*
X165189819Y-112310475D01*
X165189819Y-112310475D02*
X165189819Y-112215237D01*
X165189819Y-112215237D02*
X165237438Y-112072380D01*
X165237438Y-112072380D02*
X165285057Y-112024761D01*
X166094580Y-111024761D02*
X166142200Y-111072380D01*
X166142200Y-111072380D02*
X166189819Y-111215237D01*
X166189819Y-111215237D02*
X166189819Y-111310475D01*
X166189819Y-111310475D02*
X166142200Y-111453332D01*
X166142200Y-111453332D02*
X166046961Y-111548570D01*
X166046961Y-111548570D02*
X165951723Y-111596189D01*
X165951723Y-111596189D02*
X165761247Y-111643808D01*
X165761247Y-111643808D02*
X165618390Y-111643808D01*
X165618390Y-111643808D02*
X165427914Y-111596189D01*
X165427914Y-111596189D02*
X165332676Y-111548570D01*
X165332676Y-111548570D02*
X165237438Y-111453332D01*
X165237438Y-111453332D02*
X165189819Y-111310475D01*
X165189819Y-111310475D02*
X165189819Y-111215237D01*
X165189819Y-111215237D02*
X165237438Y-111072380D01*
X165237438Y-111072380D02*
X165285057Y-111024761D01*
X166189819Y-109834284D02*
X165189819Y-109834284D01*
X166189819Y-109358094D02*
X165189819Y-109358094D01*
X165189819Y-109358094D02*
X166189819Y-108786666D01*
X166189819Y-108786666D02*
X165189819Y-108786666D01*
X166824819Y-134512857D02*
X166824819Y-135084285D01*
X166824819Y-134798571D02*
X165824819Y-134798571D01*
X165824819Y-134798571D02*
X165967676Y-134893809D01*
X165967676Y-134893809D02*
X166062914Y-134989047D01*
X166062914Y-134989047D02*
X166110533Y-135084285D01*
X165824819Y-133893809D02*
X165824819Y-133798571D01*
X165824819Y-133798571D02*
X165872438Y-133703333D01*
X165872438Y-133703333D02*
X165920057Y-133655714D01*
X165920057Y-133655714D02*
X166015295Y-133608095D01*
X166015295Y-133608095D02*
X166205771Y-133560476D01*
X166205771Y-133560476D02*
X166443866Y-133560476D01*
X166443866Y-133560476D02*
X166634342Y-133608095D01*
X166634342Y-133608095D02*
X166729580Y-133655714D01*
X166729580Y-133655714D02*
X166777200Y-133703333D01*
X166777200Y-133703333D02*
X166824819Y-133798571D01*
X166824819Y-133798571D02*
X166824819Y-133893809D01*
X166824819Y-133893809D02*
X166777200Y-133989047D01*
X166777200Y-133989047D02*
X166729580Y-134036666D01*
X166729580Y-134036666D02*
X166634342Y-134084285D01*
X166634342Y-134084285D02*
X166443866Y-134131904D01*
X166443866Y-134131904D02*
X166205771Y-134131904D01*
X166205771Y-134131904D02*
X166015295Y-134084285D01*
X166015295Y-134084285D02*
X165920057Y-134036666D01*
X165920057Y-134036666D02*
X165872438Y-133989047D01*
X165872438Y-133989047D02*
X165824819Y-133893809D01*
X166158152Y-133131904D02*
X167158152Y-133131904D01*
X166681961Y-132655714D02*
X166777200Y-132608095D01*
X166777200Y-132608095D02*
X166824819Y-132512857D01*
X166681961Y-133131904D02*
X166777200Y-133084285D01*
X166777200Y-133084285D02*
X166824819Y-132989047D01*
X166824819Y-132989047D02*
X166824819Y-132798571D01*
X166824819Y-132798571D02*
X166777200Y-132703333D01*
X166777200Y-132703333D02*
X166681961Y-132655714D01*
X166681961Y-132655714D02*
X166158152Y-132655714D01*
X166301009Y-131750952D02*
X166301009Y-132084285D01*
X166824819Y-132084285D02*
X165824819Y-132084285D01*
X165824819Y-132084285D02*
X165824819Y-131608095D01*
X166824819Y-102762857D02*
X166824819Y-103334285D01*
X166824819Y-103048571D02*
X165824819Y-103048571D01*
X165824819Y-103048571D02*
X165967676Y-103143809D01*
X165967676Y-103143809D02*
X166062914Y-103239047D01*
X166062914Y-103239047D02*
X166110533Y-103334285D01*
X165824819Y-102143809D02*
X165824819Y-102048571D01*
X165824819Y-102048571D02*
X165872438Y-101953333D01*
X165872438Y-101953333D02*
X165920057Y-101905714D01*
X165920057Y-101905714D02*
X166015295Y-101858095D01*
X166015295Y-101858095D02*
X166205771Y-101810476D01*
X166205771Y-101810476D02*
X166443866Y-101810476D01*
X166443866Y-101810476D02*
X166634342Y-101858095D01*
X166634342Y-101858095D02*
X166729580Y-101905714D01*
X166729580Y-101905714D02*
X166777200Y-101953333D01*
X166777200Y-101953333D02*
X166824819Y-102048571D01*
X166824819Y-102048571D02*
X166824819Y-102143809D01*
X166824819Y-102143809D02*
X166777200Y-102239047D01*
X166777200Y-102239047D02*
X166729580Y-102286666D01*
X166729580Y-102286666D02*
X166634342Y-102334285D01*
X166634342Y-102334285D02*
X166443866Y-102381904D01*
X166443866Y-102381904D02*
X166205771Y-102381904D01*
X166205771Y-102381904D02*
X166015295Y-102334285D01*
X166015295Y-102334285D02*
X165920057Y-102286666D01*
X165920057Y-102286666D02*
X165872438Y-102239047D01*
X165872438Y-102239047D02*
X165824819Y-102143809D01*
X166158152Y-101381904D02*
X167158152Y-101381904D01*
X166681961Y-100905714D02*
X166777200Y-100858095D01*
X166777200Y-100858095D02*
X166824819Y-100762857D01*
X166681961Y-101381904D02*
X166777200Y-101334285D01*
X166777200Y-101334285D02*
X166824819Y-101239047D01*
X166824819Y-101239047D02*
X166824819Y-101048571D01*
X166824819Y-101048571D02*
X166777200Y-100953333D01*
X166777200Y-100953333D02*
X166681961Y-100905714D01*
X166681961Y-100905714D02*
X166158152Y-100905714D01*
X166301009Y-100000952D02*
X166301009Y-100334285D01*
X166824819Y-100334285D02*
X165824819Y-100334285D01*
X165824819Y-100334285D02*
X165824819Y-99858095D01*
X133597733Y-91575219D02*
X133026305Y-91575219D01*
X133312019Y-91575219D02*
X133312019Y-90575219D01*
X133312019Y-90575219D02*
X133216781Y-90718076D01*
X133216781Y-90718076D02*
X133121543Y-90813314D01*
X133121543Y-90813314D02*
X133026305Y-90860933D01*
X134026305Y-90908552D02*
X134026305Y-91908552D01*
X134502495Y-91432361D02*
X134550114Y-91527600D01*
X134550114Y-91527600D02*
X134645352Y-91575219D01*
X134026305Y-91432361D02*
X134073924Y-91527600D01*
X134073924Y-91527600D02*
X134169162Y-91575219D01*
X134169162Y-91575219D02*
X134359638Y-91575219D01*
X134359638Y-91575219D02*
X134454876Y-91527600D01*
X134454876Y-91527600D02*
X134502495Y-91432361D01*
X134502495Y-91432361D02*
X134502495Y-90908552D01*
X135407257Y-91051409D02*
X135073924Y-91051409D01*
X135073924Y-91575219D02*
X135073924Y-90575219D01*
X135073924Y-90575219D02*
X135550114Y-90575219D01*
X132023124Y-77737619D02*
X132118362Y-77737619D01*
X132118362Y-77737619D02*
X132213600Y-77785238D01*
X132213600Y-77785238D02*
X132261219Y-77832857D01*
X132261219Y-77832857D02*
X132308838Y-77928095D01*
X132308838Y-77928095D02*
X132356457Y-78118571D01*
X132356457Y-78118571D02*
X132356457Y-78356666D01*
X132356457Y-78356666D02*
X132308838Y-78547142D01*
X132308838Y-78547142D02*
X132261219Y-78642380D01*
X132261219Y-78642380D02*
X132213600Y-78690000D01*
X132213600Y-78690000D02*
X132118362Y-78737619D01*
X132118362Y-78737619D02*
X132023124Y-78737619D01*
X132023124Y-78737619D02*
X131927886Y-78690000D01*
X131927886Y-78690000D02*
X131880267Y-78642380D01*
X131880267Y-78642380D02*
X131832648Y-78547142D01*
X131832648Y-78547142D02*
X131785029Y-78356666D01*
X131785029Y-78356666D02*
X131785029Y-78118571D01*
X131785029Y-78118571D02*
X131832648Y-77928095D01*
X131832648Y-77928095D02*
X131880267Y-77832857D01*
X131880267Y-77832857D02*
X131927886Y-77785238D01*
X131927886Y-77785238D02*
X132023124Y-77737619D01*
X132785029Y-78642380D02*
X132832648Y-78690000D01*
X132832648Y-78690000D02*
X132785029Y-78737619D01*
X132785029Y-78737619D02*
X132737410Y-78690000D01*
X132737410Y-78690000D02*
X132785029Y-78642380D01*
X132785029Y-78642380D02*
X132785029Y-78737619D01*
X133689790Y-78070952D02*
X133689790Y-78737619D01*
X133451695Y-77690000D02*
X133213600Y-78404285D01*
X133213600Y-78404285D02*
X133832647Y-78404285D01*
X134118362Y-77737619D02*
X134785028Y-77737619D01*
X134785028Y-77737619D02*
X134356457Y-78737619D01*
X135165981Y-78070952D02*
X135165981Y-79070952D01*
X135642171Y-78594761D02*
X135689790Y-78690000D01*
X135689790Y-78690000D02*
X135785028Y-78737619D01*
X135165981Y-78594761D02*
X135213600Y-78690000D01*
X135213600Y-78690000D02*
X135308838Y-78737619D01*
X135308838Y-78737619D02*
X135499314Y-78737619D01*
X135499314Y-78737619D02*
X135594552Y-78690000D01*
X135594552Y-78690000D02*
X135642171Y-78594761D01*
X135642171Y-78594761D02*
X135642171Y-78070952D01*
X136546933Y-78213809D02*
X136213600Y-78213809D01*
X136213600Y-78737619D02*
X136213600Y-77737619D01*
X136213600Y-77737619D02*
X136689790Y-77737619D01*
D14*
X163764000Y-65999759D02*
X163764000Y-66629759D01*
X164079000Y-66314759D02*
X163449000Y-66314759D01*
X165155000Y-69500000D02*
X158695000Y-69500000D01*
X165155000Y-69540000D02*
X158695000Y-69540000D01*
X165155000Y-69580000D02*
X158695000Y-69580000D01*
X165153000Y-69620000D02*
X158697000Y-69620000D01*
X165152000Y-69660000D02*
X158698000Y-69660000D01*
X165149000Y-69700000D02*
X158701000Y-69700000D01*
X165147000Y-69740000D02*
X162965000Y-69740000D01*
X160885000Y-69740000D02*
X158703000Y-69740000D01*
X165143000Y-69780000D02*
X162965000Y-69780000D01*
X160885000Y-69780000D02*
X158707000Y-69780000D01*
X165140000Y-69820000D02*
X162965000Y-69820000D01*
X160885000Y-69820000D02*
X158710000Y-69820000D01*
X165136000Y-69860000D02*
X162965000Y-69860000D01*
X160885000Y-69860000D02*
X158714000Y-69860000D01*
X165131000Y-69900000D02*
X162965000Y-69900000D01*
X160885000Y-69900000D02*
X158719000Y-69900000D01*
X165126000Y-69940000D02*
X162965000Y-69940000D01*
X160885000Y-69940000D02*
X158724000Y-69940000D01*
X165120000Y-69980000D02*
X162965000Y-69980000D01*
X160885000Y-69980000D02*
X158730000Y-69980000D01*
X165114000Y-70020000D02*
X162965000Y-70020000D01*
X160885000Y-70020000D02*
X158736000Y-70020000D01*
X165107000Y-70060000D02*
X162965000Y-70060000D01*
X160885000Y-70060000D02*
X158743000Y-70060000D01*
X165100000Y-70100000D02*
X162965000Y-70100000D01*
X160885000Y-70100000D02*
X158750000Y-70100000D01*
X165092000Y-70140000D02*
X162965000Y-70140000D01*
X160885000Y-70140000D02*
X158758000Y-70140000D01*
X165084000Y-70180000D02*
X162965000Y-70180000D01*
X160885000Y-70180000D02*
X158766000Y-70180000D01*
X165075000Y-70221000D02*
X162965000Y-70221000D01*
X160885000Y-70221000D02*
X158775000Y-70221000D01*
X165066000Y-70261000D02*
X162965000Y-70261000D01*
X160885000Y-70261000D02*
X158784000Y-70261000D01*
X165056000Y-70301000D02*
X162965000Y-70301000D01*
X160885000Y-70301000D02*
X158794000Y-70301000D01*
X165046000Y-70341000D02*
X162965000Y-70341000D01*
X160885000Y-70341000D02*
X158804000Y-70341000D01*
X165035000Y-70381000D02*
X162965000Y-70381000D01*
X160885000Y-70381000D02*
X158815000Y-70381000D01*
X165023000Y-70421000D02*
X162965000Y-70421000D01*
X160885000Y-70421000D02*
X158827000Y-70421000D01*
X165011000Y-70461000D02*
X162965000Y-70461000D01*
X160885000Y-70461000D02*
X158839000Y-70461000D01*
X164999000Y-70501000D02*
X162965000Y-70501000D01*
X160885000Y-70501000D02*
X158851000Y-70501000D01*
X164986000Y-70541000D02*
X162965000Y-70541000D01*
X160885000Y-70541000D02*
X158864000Y-70541000D01*
X164972000Y-70581000D02*
X162965000Y-70581000D01*
X160885000Y-70581000D02*
X158878000Y-70581000D01*
X164958000Y-70621000D02*
X162965000Y-70621000D01*
X160885000Y-70621000D02*
X158892000Y-70621000D01*
X164943000Y-70661000D02*
X162965000Y-70661000D01*
X160885000Y-70661000D02*
X158907000Y-70661000D01*
X164927000Y-70701000D02*
X162965000Y-70701000D01*
X160885000Y-70701000D02*
X158923000Y-70701000D01*
X164911000Y-70741000D02*
X162965000Y-70741000D01*
X160885000Y-70741000D02*
X158939000Y-70741000D01*
X164895000Y-70781000D02*
X162965000Y-70781000D01*
X160885000Y-70781000D02*
X158955000Y-70781000D01*
X164877000Y-70821000D02*
X162965000Y-70821000D01*
X160885000Y-70821000D02*
X158973000Y-70821000D01*
X164859000Y-70861000D02*
X162965000Y-70861000D01*
X160885000Y-70861000D02*
X158991000Y-70861000D01*
X164841000Y-70901000D02*
X162965000Y-70901000D01*
X160885000Y-70901000D02*
X159009000Y-70901000D01*
X164821000Y-70941000D02*
X162965000Y-70941000D01*
X160885000Y-70941000D02*
X159029000Y-70941000D01*
X164801000Y-70981000D02*
X162965000Y-70981000D01*
X160885000Y-70981000D02*
X159049000Y-70981000D01*
X164781000Y-71021000D02*
X162965000Y-71021000D01*
X160885000Y-71021000D02*
X159069000Y-71021000D01*
X164759000Y-71061000D02*
X162965000Y-71061000D01*
X160885000Y-71061000D02*
X159091000Y-71061000D01*
X164737000Y-71101000D02*
X162965000Y-71101000D01*
X160885000Y-71101000D02*
X159113000Y-71101000D01*
X164715000Y-71141000D02*
X162965000Y-71141000D01*
X160885000Y-71141000D02*
X159135000Y-71141000D01*
X164691000Y-71181000D02*
X162965000Y-71181000D01*
X160885000Y-71181000D02*
X159159000Y-71181000D01*
X164667000Y-71221000D02*
X162965000Y-71221000D01*
X160885000Y-71221000D02*
X159183000Y-71221000D01*
X164641000Y-71261000D02*
X162965000Y-71261000D01*
X160885000Y-71261000D02*
X159209000Y-71261000D01*
X164615000Y-71301000D02*
X162965000Y-71301000D01*
X160885000Y-71301000D02*
X159235000Y-71301000D01*
X164589000Y-71341000D02*
X162965000Y-71341000D01*
X160885000Y-71341000D02*
X159261000Y-71341000D01*
X164561000Y-71381000D02*
X162965000Y-71381000D01*
X160885000Y-71381000D02*
X159289000Y-71381000D01*
X164532000Y-71421000D02*
X162965000Y-71421000D01*
X160885000Y-71421000D02*
X159318000Y-71421000D01*
X164503000Y-71461000D02*
X162965000Y-71461000D01*
X160885000Y-71461000D02*
X159347000Y-71461000D01*
X164473000Y-71501000D02*
X162965000Y-71501000D01*
X160885000Y-71501000D02*
X159377000Y-71501000D01*
X164441000Y-71541000D02*
X162965000Y-71541000D01*
X160885000Y-71541000D02*
X159409000Y-71541000D01*
X164409000Y-71581000D02*
X162965000Y-71581000D01*
X160885000Y-71581000D02*
X159441000Y-71581000D01*
X164375000Y-71621000D02*
X162965000Y-71621000D01*
X160885000Y-71621000D02*
X159475000Y-71621000D01*
X164341000Y-71661000D02*
X162965000Y-71661000D01*
X160885000Y-71661000D02*
X159509000Y-71661000D01*
X164305000Y-71701000D02*
X162965000Y-71701000D01*
X160885000Y-71701000D02*
X159545000Y-71701000D01*
X164268000Y-71741000D02*
X162965000Y-71741000D01*
X160885000Y-71741000D02*
X159582000Y-71741000D01*
X164230000Y-71781000D02*
X162965000Y-71781000D01*
X160885000Y-71781000D02*
X159620000Y-71781000D01*
X164190000Y-71821000D02*
X159660000Y-71821000D01*
X164149000Y-71861000D02*
X159701000Y-71861000D01*
X164107000Y-71901000D02*
X159743000Y-71901000D01*
X164062000Y-71941000D02*
X159788000Y-71941000D01*
X164017000Y-71981000D02*
X159833000Y-71981000D01*
X163969000Y-72021000D02*
X159881000Y-72021000D01*
X163920000Y-72061000D02*
X159930000Y-72061000D01*
X163869000Y-72101000D02*
X159981000Y-72101000D01*
X163815000Y-72141000D02*
X160035000Y-72141000D01*
X163759000Y-72181000D02*
X160091000Y-72181000D01*
X163701000Y-72221000D02*
X160149000Y-72221000D01*
X163639000Y-72261000D02*
X160211000Y-72261000D01*
X163575000Y-72301000D02*
X160275000Y-72301000D01*
X163506000Y-72341000D02*
X160344000Y-72341000D01*
X163434000Y-72381000D02*
X160416000Y-72381000D01*
X163357000Y-72421000D02*
X160493000Y-72421000D01*
X163275000Y-72461000D02*
X160575000Y-72461000D01*
X163187000Y-72501000D02*
X160663000Y-72501000D01*
X163090000Y-72541000D02*
X160760000Y-72541000D01*
X162984000Y-72581000D02*
X160866000Y-72581000D01*
X162865000Y-72621000D02*
X160985000Y-72621000D01*
X162727000Y-72661000D02*
X161123000Y-72661000D01*
X162558000Y-72701000D02*
X161292000Y-72701000D01*
X162327000Y-72741000D02*
X161523000Y-72741000D01*
X165195000Y-69500000D02*
G75*
G03*
X165195000Y-69500000I-3270000J0D01*
G01*
X137643041Y-71308000D02*
X137013041Y-71308000D01*
X137328041Y-71623000D02*
X137328041Y-70993000D01*
X134142800Y-72699000D02*
X134142800Y-66239000D01*
X134102800Y-72699000D02*
X134102800Y-66239000D01*
X134062800Y-72699000D02*
X134062800Y-66239000D01*
X134022800Y-72697000D02*
X134022800Y-66241000D01*
X133982800Y-72696000D02*
X133982800Y-66242000D01*
X133942800Y-72693000D02*
X133942800Y-66245000D01*
X133902800Y-72691000D02*
X133902800Y-70509000D01*
X133902800Y-68429000D02*
X133902800Y-66247000D01*
X133862800Y-72687000D02*
X133862800Y-70509000D01*
X133862800Y-68429000D02*
X133862800Y-66251000D01*
X133822800Y-72684000D02*
X133822800Y-70509000D01*
X133822800Y-68429000D02*
X133822800Y-66254000D01*
X133782800Y-72680000D02*
X133782800Y-70509000D01*
X133782800Y-68429000D02*
X133782800Y-66258000D01*
X133742800Y-72675000D02*
X133742800Y-70509000D01*
X133742800Y-68429000D02*
X133742800Y-66263000D01*
X133702800Y-72670000D02*
X133702800Y-70509000D01*
X133702800Y-68429000D02*
X133702800Y-66268000D01*
X133662800Y-72664000D02*
X133662800Y-70509000D01*
X133662800Y-68429000D02*
X133662800Y-66274000D01*
X133622800Y-72658000D02*
X133622800Y-70509000D01*
X133622800Y-68429000D02*
X133622800Y-66280000D01*
X133582800Y-72651000D02*
X133582800Y-70509000D01*
X133582800Y-68429000D02*
X133582800Y-66287000D01*
X133542800Y-72644000D02*
X133542800Y-70509000D01*
X133542800Y-68429000D02*
X133542800Y-66294000D01*
X133502800Y-72636000D02*
X133502800Y-70509000D01*
X133502800Y-68429000D02*
X133502800Y-66302000D01*
X133462800Y-72628000D02*
X133462800Y-70509000D01*
X133462800Y-68429000D02*
X133462800Y-66310000D01*
X133421800Y-72619000D02*
X133421800Y-70509000D01*
X133421800Y-68429000D02*
X133421800Y-66319000D01*
X133381800Y-72610000D02*
X133381800Y-70509000D01*
X133381800Y-68429000D02*
X133381800Y-66328000D01*
X133341800Y-72600000D02*
X133341800Y-70509000D01*
X133341800Y-68429000D02*
X133341800Y-66338000D01*
X133301800Y-72590000D02*
X133301800Y-70509000D01*
X133301800Y-68429000D02*
X133301800Y-66348000D01*
X133261800Y-72579000D02*
X133261800Y-70509000D01*
X133261800Y-68429000D02*
X133261800Y-66359000D01*
X133221800Y-72567000D02*
X133221800Y-70509000D01*
X133221800Y-68429000D02*
X133221800Y-66371000D01*
X133181800Y-72555000D02*
X133181800Y-70509000D01*
X133181800Y-68429000D02*
X133181800Y-66383000D01*
X133141800Y-72543000D02*
X133141800Y-70509000D01*
X133141800Y-68429000D02*
X133141800Y-66395000D01*
X133101800Y-72530000D02*
X133101800Y-70509000D01*
X133101800Y-68429000D02*
X133101800Y-66408000D01*
X133061800Y-72516000D02*
X133061800Y-70509000D01*
X133061800Y-68429000D02*
X133061800Y-66422000D01*
X133021800Y-72502000D02*
X133021800Y-70509000D01*
X133021800Y-68429000D02*
X133021800Y-66436000D01*
X132981800Y-72487000D02*
X132981800Y-70509000D01*
X132981800Y-68429000D02*
X132981800Y-66451000D01*
X132941800Y-72471000D02*
X132941800Y-70509000D01*
X132941800Y-68429000D02*
X132941800Y-66467000D01*
X132901800Y-72455000D02*
X132901800Y-70509000D01*
X132901800Y-68429000D02*
X132901800Y-66483000D01*
X132861800Y-72439000D02*
X132861800Y-70509000D01*
X132861800Y-68429000D02*
X132861800Y-66499000D01*
X132821800Y-72421000D02*
X132821800Y-70509000D01*
X132821800Y-68429000D02*
X132821800Y-66517000D01*
X132781800Y-72403000D02*
X132781800Y-70509000D01*
X132781800Y-68429000D02*
X132781800Y-66535000D01*
X132741800Y-72385000D02*
X132741800Y-70509000D01*
X132741800Y-68429000D02*
X132741800Y-66553000D01*
X132701800Y-72365000D02*
X132701800Y-70509000D01*
X132701800Y-68429000D02*
X132701800Y-66573000D01*
X132661800Y-72345000D02*
X132661800Y-70509000D01*
X132661800Y-68429000D02*
X132661800Y-66593000D01*
X132621800Y-72325000D02*
X132621800Y-70509000D01*
X132621800Y-68429000D02*
X132621800Y-66613000D01*
X132581800Y-72303000D02*
X132581800Y-70509000D01*
X132581800Y-68429000D02*
X132581800Y-66635000D01*
X132541800Y-72281000D02*
X132541800Y-70509000D01*
X132541800Y-68429000D02*
X132541800Y-66657000D01*
X132501800Y-72259000D02*
X132501800Y-70509000D01*
X132501800Y-68429000D02*
X132501800Y-66679000D01*
X132461800Y-72235000D02*
X132461800Y-70509000D01*
X132461800Y-68429000D02*
X132461800Y-66703000D01*
X132421800Y-72211000D02*
X132421800Y-70509000D01*
X132421800Y-68429000D02*
X132421800Y-66727000D01*
X132381800Y-72185000D02*
X132381800Y-70509000D01*
X132381800Y-68429000D02*
X132381800Y-66753000D01*
X132341800Y-72159000D02*
X132341800Y-70509000D01*
X132341800Y-68429000D02*
X132341800Y-66779000D01*
X132301800Y-72133000D02*
X132301800Y-70509000D01*
X132301800Y-68429000D02*
X132301800Y-66805000D01*
X132261800Y-72105000D02*
X132261800Y-70509000D01*
X132261800Y-68429000D02*
X132261800Y-66833000D01*
X132221800Y-72076000D02*
X132221800Y-70509000D01*
X132221800Y-68429000D02*
X132221800Y-66862000D01*
X132181800Y-72047000D02*
X132181800Y-70509000D01*
X132181800Y-68429000D02*
X132181800Y-66891000D01*
X132141800Y-72017000D02*
X132141800Y-70509000D01*
X132141800Y-68429000D02*
X132141800Y-66921000D01*
X132101800Y-71985000D02*
X132101800Y-70509000D01*
X132101800Y-68429000D02*
X132101800Y-66953000D01*
X132061800Y-71953000D02*
X132061800Y-70509000D01*
X132061800Y-68429000D02*
X132061800Y-66985000D01*
X132021800Y-71919000D02*
X132021800Y-70509000D01*
X132021800Y-68429000D02*
X132021800Y-67019000D01*
X131981800Y-71885000D02*
X131981800Y-70509000D01*
X131981800Y-68429000D02*
X131981800Y-67053000D01*
X131941800Y-71849000D02*
X131941800Y-70509000D01*
X131941800Y-68429000D02*
X131941800Y-67089000D01*
X131901800Y-71812000D02*
X131901800Y-70509000D01*
X131901800Y-68429000D02*
X131901800Y-67126000D01*
X131861800Y-71774000D02*
X131861800Y-70509000D01*
X131861800Y-68429000D02*
X131861800Y-67164000D01*
X131821800Y-71734000D02*
X131821800Y-67204000D01*
X131781800Y-71693000D02*
X131781800Y-67245000D01*
X131741800Y-71651000D02*
X131741800Y-67287000D01*
X131701800Y-71606000D02*
X131701800Y-67332000D01*
X131661800Y-71561000D02*
X131661800Y-67377000D01*
X131621800Y-71513000D02*
X131621800Y-67425000D01*
X131581800Y-71464000D02*
X131581800Y-67474000D01*
X131541800Y-71413000D02*
X131541800Y-67525000D01*
X131501800Y-71359000D02*
X131501800Y-67579000D01*
X131461800Y-71303000D02*
X131461800Y-67635000D01*
X131421800Y-71245000D02*
X131421800Y-67693000D01*
X131381800Y-71183000D02*
X131381800Y-67755000D01*
X131341800Y-71119000D02*
X131341800Y-67819000D01*
X131301800Y-71050000D02*
X131301800Y-67888000D01*
X131261800Y-70978000D02*
X131261800Y-67960000D01*
X131221800Y-70901000D02*
X131221800Y-68037000D01*
X131181800Y-70819000D02*
X131181800Y-68119000D01*
X131141800Y-70731000D02*
X131141800Y-68207000D01*
X131101800Y-70634000D02*
X131101800Y-68304000D01*
X131061800Y-70528000D02*
X131061800Y-68410000D01*
X131021800Y-70409000D02*
X131021800Y-68529000D01*
X130981800Y-70271000D02*
X130981800Y-68667000D01*
X130941800Y-70102000D02*
X130941800Y-68836000D01*
X130901800Y-69871000D02*
X130901800Y-69067000D01*
X137412800Y-69469000D02*
G75*
G03*
X137412800Y-69469000I-3270000J0D01*
G01*
X168495400Y-116258200D02*
X161995400Y-116258200D01*
X161995400Y-116258200D02*
X161995400Y-122758200D01*
X161995400Y-122758200D02*
X161995400Y-129258200D01*
X168495400Y-129258200D02*
X168495400Y-116258200D01*
X161995400Y-129258200D02*
X168495400Y-129258200D01*
X135884400Y-109222400D02*
X135884400Y-109157400D01*
X135884400Y-109222400D02*
X132644400Y-109222400D01*
X135884400Y-107047400D02*
X135884400Y-106982400D01*
X135884400Y-106982400D02*
X132644400Y-106982400D01*
X132644400Y-109222400D02*
X132644400Y-109157400D01*
X132644400Y-107047400D02*
X132644400Y-106982400D01*
X136712000Y-54045000D02*
X131512000Y-54045000D01*
X136712000Y-54045000D02*
X136712000Y-62675000D01*
X136592000Y-54045000D02*
X136592000Y-62675000D01*
X136473905Y-54045000D02*
X136473905Y-62675000D01*
X136355810Y-54045000D02*
X136355810Y-62675000D01*
X136237715Y-54045000D02*
X136237715Y-62675000D01*
X136119620Y-54045000D02*
X136119620Y-62675000D01*
X136001525Y-54045000D02*
X136001525Y-62675000D01*
X135883430Y-54045000D02*
X135883430Y-62675000D01*
X135765335Y-54045000D02*
X135765335Y-62675000D01*
X135647240Y-54045000D02*
X135647240Y-62675000D01*
X135529145Y-54045000D02*
X135529145Y-62675000D01*
X135411050Y-54045000D02*
X135411050Y-62675000D01*
X135292955Y-54045000D02*
X135292955Y-62675000D01*
X135174860Y-54045000D02*
X135174860Y-62675000D01*
X135056765Y-54045000D02*
X135056765Y-62675000D01*
X134938670Y-54045000D02*
X134938670Y-62675000D01*
X134820575Y-54045000D02*
X134820575Y-62675000D01*
X134702480Y-54045000D02*
X134702480Y-62675000D01*
X134584385Y-54045000D02*
X134584385Y-62675000D01*
X134466290Y-54045000D02*
X134466290Y-62675000D01*
X134348195Y-54045000D02*
X134348195Y-62675000D01*
X134230100Y-54045000D02*
X134230100Y-62675000D01*
X134112000Y-54045000D02*
X134112000Y-62675000D01*
X131512000Y-54045000D02*
X131512000Y-62675000D01*
X136712000Y-62675000D02*
X131512000Y-62675000D01*
X135742000Y-62675000D02*
X135742000Y-63025000D01*
X135022000Y-62675000D02*
X135022000Y-63025000D01*
X133202000Y-62675000D02*
X133202000Y-63085000D01*
X132482000Y-62675000D02*
X132482000Y-63085000D01*
X136712000Y-64135000D02*
X136712000Y-65245000D01*
X136712000Y-65245000D02*
X135382000Y-65245000D01*
X165160000Y-54045000D02*
X154880000Y-54045000D01*
X165160000Y-54045000D02*
X165160000Y-62675000D01*
X165040000Y-54045000D02*
X165040000Y-62675000D01*
X164921905Y-54045000D02*
X164921905Y-62675000D01*
X164803810Y-54045000D02*
X164803810Y-62675000D01*
X164685715Y-54045000D02*
X164685715Y-62675000D01*
X164567620Y-54045000D02*
X164567620Y-62675000D01*
X164449525Y-54045000D02*
X164449525Y-62675000D01*
X164331430Y-54045000D02*
X164331430Y-62675000D01*
X164213335Y-54045000D02*
X164213335Y-62675000D01*
X164095240Y-54045000D02*
X164095240Y-62675000D01*
X163977145Y-54045000D02*
X163977145Y-62675000D01*
X163859050Y-54045000D02*
X163859050Y-62675000D01*
X163740955Y-54045000D02*
X163740955Y-62675000D01*
X163622860Y-54045000D02*
X163622860Y-62675000D01*
X163504765Y-54045000D02*
X163504765Y-62675000D01*
X163386670Y-54045000D02*
X163386670Y-62675000D01*
X163268575Y-54045000D02*
X163268575Y-62675000D01*
X163150480Y-54045000D02*
X163150480Y-62675000D01*
X163032385Y-54045000D02*
X163032385Y-62675000D01*
X162914290Y-54045000D02*
X162914290Y-62675000D01*
X162796195Y-54045000D02*
X162796195Y-62675000D01*
X162678100Y-54045000D02*
X162678100Y-62675000D01*
X162560000Y-54045000D02*
X162560000Y-62675000D01*
X160020000Y-54045000D02*
X160020000Y-62675000D01*
X157480000Y-54045000D02*
X157480000Y-62675000D01*
X154880000Y-54045000D02*
X154880000Y-62675000D01*
X165160000Y-62675000D02*
X154880000Y-62675000D01*
X164190000Y-62675000D02*
X164190000Y-63025000D01*
X163470000Y-62675000D02*
X163470000Y-63025000D01*
X161650000Y-62675000D02*
X161650000Y-63085000D01*
X160930000Y-62675000D02*
X160930000Y-63085000D01*
X159110000Y-62675000D02*
X159110000Y-63085000D01*
X158390000Y-62675000D02*
X158390000Y-63085000D01*
X156570000Y-62675000D02*
X156570000Y-63085000D01*
X155850000Y-62675000D02*
X155850000Y-63085000D01*
X165160000Y-64135000D02*
X165160000Y-65245000D01*
X165160000Y-65245000D02*
X163830000Y-65245000D01*
X135884400Y-85549600D02*
X135884400Y-85484600D01*
X135884400Y-85549600D02*
X132644400Y-85549600D01*
X135884400Y-83374600D02*
X135884400Y-83309600D01*
X135884400Y-83309600D02*
X132644400Y-83309600D01*
X132644400Y-85549600D02*
X132644400Y-85484600D01*
X132644400Y-83374600D02*
X132644400Y-83309600D01*
X136657000Y-137407800D02*
X136657000Y-138677800D01*
X135387000Y-137407800D02*
X136657000Y-137407800D01*
X133227000Y-139720729D02*
X133227000Y-140117800D01*
X132467000Y-139720729D02*
X132467000Y-140117800D01*
X135767000Y-139787800D02*
X135767000Y-140117800D01*
X135007000Y-139787800D02*
X135007000Y-140117800D01*
X136717000Y-140117800D02*
X131517000Y-140117800D01*
X134117000Y-140117800D02*
X134117000Y-142777800D01*
X131517000Y-140117800D02*
X131517000Y-142777800D01*
X136717000Y-142777800D02*
X136717000Y-140117800D01*
X135767000Y-142777800D02*
X135767000Y-148777800D01*
X135707000Y-142777800D02*
X135707000Y-148777800D01*
X135587000Y-142777800D02*
X135587000Y-148777800D01*
X135467000Y-142777800D02*
X135467000Y-148777800D01*
X135347000Y-142777800D02*
X135347000Y-148777800D01*
X135227000Y-142777800D02*
X135227000Y-148777800D01*
X135107000Y-142777800D02*
X135107000Y-148777800D01*
X133227000Y-142777800D02*
X133227000Y-148777800D01*
X131517000Y-142777800D02*
X136717000Y-142777800D01*
X135767000Y-148777800D02*
X135007000Y-148777800D01*
X135007000Y-148777800D02*
X135007000Y-142777800D01*
X133227000Y-148777800D02*
X132467000Y-148777800D01*
X132467000Y-148777800D02*
X132467000Y-142777800D01*
X158900000Y-90032000D02*
X158965000Y-90032000D01*
X158900000Y-90032000D02*
X158900000Y-86792000D01*
X161075000Y-90032000D02*
X161140000Y-90032000D01*
X161140000Y-90032000D02*
X161140000Y-86792000D01*
X158900000Y-86792000D02*
X158965000Y-86792000D01*
X161075000Y-86792000D02*
X161140000Y-86792000D01*
X151190000Y-54545000D02*
X151190000Y-55875000D01*
X149860000Y-54545000D02*
X151190000Y-54545000D01*
X149860000Y-54545000D02*
X145990000Y-54545000D01*
X145990000Y-54545000D02*
X145990000Y-59745000D01*
X151190000Y-55875000D02*
X151190000Y-59745000D01*
X151190000Y-59745000D02*
X145990000Y-59745000D01*
X135884400Y-90026000D02*
X135884400Y-89961000D01*
X135884400Y-90026000D02*
X132644400Y-90026000D01*
X135884400Y-87851000D02*
X135884400Y-87786000D01*
X135884400Y-87786000D02*
X132644400Y-87786000D01*
X132644400Y-90026000D02*
X132644400Y-89961000D01*
X132644400Y-87851000D02*
X132644400Y-87786000D01*
X165100000Y-137414000D02*
X165100000Y-138684000D01*
X163830000Y-137414000D02*
X165100000Y-137414000D01*
X161670000Y-139726929D02*
X161670000Y-140124000D01*
X160910000Y-139726929D02*
X160910000Y-140124000D01*
X159130000Y-139726929D02*
X159130000Y-140124000D01*
X158370000Y-139726929D02*
X158370000Y-140124000D01*
X156590000Y-139726929D02*
X156590000Y-140124000D01*
X155830000Y-139726929D02*
X155830000Y-140124000D01*
X164210000Y-139794000D02*
X164210000Y-140124000D01*
X163450000Y-139794000D02*
X163450000Y-140124000D01*
X165160000Y-140124000D02*
X154880000Y-140124000D01*
X162560000Y-140124000D02*
X162560000Y-142784000D01*
X160020000Y-140124000D02*
X160020000Y-142784000D01*
X157480000Y-140124000D02*
X157480000Y-142784000D01*
X154880000Y-140124000D02*
X154880000Y-142784000D01*
X165160000Y-142784000D02*
X165160000Y-140124000D01*
X164210000Y-142784000D02*
X164210000Y-148784000D01*
X164150000Y-142784000D02*
X164150000Y-148784000D01*
X164030000Y-142784000D02*
X164030000Y-148784000D01*
X163910000Y-142784000D02*
X163910000Y-148784000D01*
X163790000Y-142784000D02*
X163790000Y-148784000D01*
X163670000Y-142784000D02*
X163670000Y-148784000D01*
X163550000Y-142784000D02*
X163550000Y-148784000D01*
X161670000Y-142784000D02*
X161670000Y-148784000D01*
X159130000Y-142784000D02*
X159130000Y-148784000D01*
X156590000Y-142784000D02*
X156590000Y-148784000D01*
X154880000Y-142784000D02*
X165160000Y-142784000D01*
X164210000Y-148784000D02*
X163450000Y-148784000D01*
X163450000Y-148784000D02*
X163450000Y-142784000D01*
X161670000Y-148784000D02*
X160910000Y-148784000D01*
X160910000Y-148784000D02*
X160910000Y-142784000D01*
X159130000Y-148784000D02*
X158370000Y-148784000D01*
X158370000Y-148784000D02*
X158370000Y-142784000D01*
X156590000Y-148784000D02*
X155830000Y-148784000D01*
X155830000Y-148784000D02*
X155830000Y-142784000D01*
X137759241Y-103439000D02*
X137129241Y-103439000D01*
X137444241Y-103754000D02*
X137444241Y-103124000D01*
X134259000Y-104830000D02*
X134259000Y-98370000D01*
X134219000Y-104830000D02*
X134219000Y-98370000D01*
X134179000Y-104830000D02*
X134179000Y-98370000D01*
X134139000Y-104828000D02*
X134139000Y-98372000D01*
X134099000Y-104827000D02*
X134099000Y-98373000D01*
X134059000Y-104824000D02*
X134059000Y-98376000D01*
X134019000Y-104822000D02*
X134019000Y-102640000D01*
X134019000Y-100560000D02*
X134019000Y-98378000D01*
X133979000Y-104818000D02*
X133979000Y-102640000D01*
X133979000Y-100560000D02*
X133979000Y-98382000D01*
X133939000Y-104815000D02*
X133939000Y-102640000D01*
X133939000Y-100560000D02*
X133939000Y-98385000D01*
X133899000Y-104811000D02*
X133899000Y-102640000D01*
X133899000Y-100560000D02*
X133899000Y-98389000D01*
X133859000Y-104806000D02*
X133859000Y-102640000D01*
X133859000Y-100560000D02*
X133859000Y-98394000D01*
X133819000Y-104801000D02*
X133819000Y-102640000D01*
X133819000Y-100560000D02*
X133819000Y-98399000D01*
X133779000Y-104795000D02*
X133779000Y-102640000D01*
X133779000Y-100560000D02*
X133779000Y-98405000D01*
X133739000Y-104789000D02*
X133739000Y-102640000D01*
X133739000Y-100560000D02*
X133739000Y-98411000D01*
X133699000Y-104782000D02*
X133699000Y-102640000D01*
X133699000Y-100560000D02*
X133699000Y-98418000D01*
X133659000Y-104775000D02*
X133659000Y-102640000D01*
X133659000Y-100560000D02*
X133659000Y-98425000D01*
X133619000Y-104767000D02*
X133619000Y-102640000D01*
X133619000Y-100560000D02*
X133619000Y-98433000D01*
X133579000Y-104759000D02*
X133579000Y-102640000D01*
X133579000Y-100560000D02*
X133579000Y-98441000D01*
X133538000Y-104750000D02*
X133538000Y-102640000D01*
X133538000Y-100560000D02*
X133538000Y-98450000D01*
X133498000Y-104741000D02*
X133498000Y-102640000D01*
X133498000Y-100560000D02*
X133498000Y-98459000D01*
X133458000Y-104731000D02*
X133458000Y-102640000D01*
X133458000Y-100560000D02*
X133458000Y-98469000D01*
X133418000Y-104721000D02*
X133418000Y-102640000D01*
X133418000Y-100560000D02*
X133418000Y-98479000D01*
X133378000Y-104710000D02*
X133378000Y-102640000D01*
X133378000Y-100560000D02*
X133378000Y-98490000D01*
X133338000Y-104698000D02*
X133338000Y-102640000D01*
X133338000Y-100560000D02*
X133338000Y-98502000D01*
X133298000Y-104686000D02*
X133298000Y-102640000D01*
X133298000Y-100560000D02*
X133298000Y-98514000D01*
X133258000Y-104674000D02*
X133258000Y-102640000D01*
X133258000Y-100560000D02*
X133258000Y-98526000D01*
X133218000Y-104661000D02*
X133218000Y-102640000D01*
X133218000Y-100560000D02*
X133218000Y-98539000D01*
X133178000Y-104647000D02*
X133178000Y-102640000D01*
X133178000Y-100560000D02*
X133178000Y-98553000D01*
X133138000Y-104633000D02*
X133138000Y-102640000D01*
X133138000Y-100560000D02*
X133138000Y-98567000D01*
X133098000Y-104618000D02*
X133098000Y-102640000D01*
X133098000Y-100560000D02*
X133098000Y-98582000D01*
X133058000Y-104602000D02*
X133058000Y-102640000D01*
X133058000Y-100560000D02*
X133058000Y-98598000D01*
X133018000Y-104586000D02*
X133018000Y-102640000D01*
X133018000Y-100560000D02*
X133018000Y-98614000D01*
X132978000Y-104570000D02*
X132978000Y-102640000D01*
X132978000Y-100560000D02*
X132978000Y-98630000D01*
X132938000Y-104552000D02*
X132938000Y-102640000D01*
X132938000Y-100560000D02*
X132938000Y-98648000D01*
X132898000Y-104534000D02*
X132898000Y-102640000D01*
X132898000Y-100560000D02*
X132898000Y-98666000D01*
X132858000Y-104516000D02*
X132858000Y-102640000D01*
X132858000Y-100560000D02*
X132858000Y-98684000D01*
X132818000Y-104496000D02*
X132818000Y-102640000D01*
X132818000Y-100560000D02*
X132818000Y-98704000D01*
X132778000Y-104476000D02*
X132778000Y-102640000D01*
X132778000Y-100560000D02*
X132778000Y-98724000D01*
X132738000Y-104456000D02*
X132738000Y-102640000D01*
X132738000Y-100560000D02*
X132738000Y-98744000D01*
X132698000Y-104434000D02*
X132698000Y-102640000D01*
X132698000Y-100560000D02*
X132698000Y-98766000D01*
X132658000Y-104412000D02*
X132658000Y-102640000D01*
X132658000Y-100560000D02*
X132658000Y-98788000D01*
X132618000Y-104390000D02*
X132618000Y-102640000D01*
X132618000Y-100560000D02*
X132618000Y-98810000D01*
X132578000Y-104366000D02*
X132578000Y-102640000D01*
X132578000Y-100560000D02*
X132578000Y-98834000D01*
X132538000Y-104342000D02*
X132538000Y-102640000D01*
X132538000Y-100560000D02*
X132538000Y-98858000D01*
X132498000Y-104316000D02*
X132498000Y-102640000D01*
X132498000Y-100560000D02*
X132498000Y-98884000D01*
X132458000Y-104290000D02*
X132458000Y-102640000D01*
X132458000Y-100560000D02*
X132458000Y-98910000D01*
X132418000Y-104264000D02*
X132418000Y-102640000D01*
X132418000Y-100560000D02*
X132418000Y-98936000D01*
X132378000Y-104236000D02*
X132378000Y-102640000D01*
X132378000Y-100560000D02*
X132378000Y-98964000D01*
X132338000Y-104207000D02*
X132338000Y-102640000D01*
X132338000Y-100560000D02*
X132338000Y-98993000D01*
X132298000Y-104178000D02*
X132298000Y-102640000D01*
X132298000Y-100560000D02*
X132298000Y-99022000D01*
X132258000Y-104148000D02*
X132258000Y-102640000D01*
X132258000Y-100560000D02*
X132258000Y-99052000D01*
X132218000Y-104116000D02*
X132218000Y-102640000D01*
X132218000Y-100560000D02*
X132218000Y-99084000D01*
X132178000Y-104084000D02*
X132178000Y-102640000D01*
X132178000Y-100560000D02*
X132178000Y-99116000D01*
X132138000Y-104050000D02*
X132138000Y-102640000D01*
X132138000Y-100560000D02*
X132138000Y-99150000D01*
X132098000Y-104016000D02*
X132098000Y-102640000D01*
X132098000Y-100560000D02*
X132098000Y-99184000D01*
X132058000Y-103980000D02*
X132058000Y-102640000D01*
X132058000Y-100560000D02*
X132058000Y-99220000D01*
X132018000Y-103943000D02*
X132018000Y-102640000D01*
X132018000Y-100560000D02*
X132018000Y-99257000D01*
X131978000Y-103905000D02*
X131978000Y-102640000D01*
X131978000Y-100560000D02*
X131978000Y-99295000D01*
X131938000Y-103865000D02*
X131938000Y-99335000D01*
X131898000Y-103824000D02*
X131898000Y-99376000D01*
X131858000Y-103782000D02*
X131858000Y-99418000D01*
X131818000Y-103737000D02*
X131818000Y-99463000D01*
X131778000Y-103692000D02*
X131778000Y-99508000D01*
X131738000Y-103644000D02*
X131738000Y-99556000D01*
X131698000Y-103595000D02*
X131698000Y-99605000D01*
X131658000Y-103544000D02*
X131658000Y-99656000D01*
X131618000Y-103490000D02*
X131618000Y-99710000D01*
X131578000Y-103434000D02*
X131578000Y-99766000D01*
X131538000Y-103376000D02*
X131538000Y-99824000D01*
X131498000Y-103314000D02*
X131498000Y-99886000D01*
X131458000Y-103250000D02*
X131458000Y-99950000D01*
X131418000Y-103181000D02*
X131418000Y-100019000D01*
X131378000Y-103109000D02*
X131378000Y-100091000D01*
X131338000Y-103032000D02*
X131338000Y-100168000D01*
X131298000Y-102950000D02*
X131298000Y-100250000D01*
X131258000Y-102862000D02*
X131258000Y-100338000D01*
X131218000Y-102765000D02*
X131218000Y-100435000D01*
X131178000Y-102659000D02*
X131178000Y-100541000D01*
X131138000Y-102540000D02*
X131138000Y-100660000D01*
X131098000Y-102402000D02*
X131098000Y-100798000D01*
X131058000Y-102233000D02*
X131058000Y-100967000D01*
X131018000Y-102002000D02*
X131018000Y-101198000D01*
X137529000Y-101600000D02*
G75*
G03*
X137529000Y-101600000I-3270000J0D01*
G01*
X155960000Y-83480000D02*
X156730000Y-83480000D01*
X156730000Y-82110000D02*
X156730000Y-84850000D01*
X156730000Y-84850000D02*
X163270000Y-84850000D01*
X163270000Y-82110000D02*
X156730000Y-82110000D01*
X163270000Y-84850000D02*
X163270000Y-82110000D01*
X164040000Y-83480000D02*
X163270000Y-83480000D01*
X137632241Y-135189000D02*
X137002241Y-135189000D01*
X137317241Y-135504000D02*
X137317241Y-134874000D01*
X134132000Y-136580000D02*
X134132000Y-130120000D01*
X134092000Y-136580000D02*
X134092000Y-130120000D01*
X134052000Y-136580000D02*
X134052000Y-130120000D01*
X134012000Y-136578000D02*
X134012000Y-130122000D01*
X133972000Y-136577000D02*
X133972000Y-130123000D01*
X133932000Y-136574000D02*
X133932000Y-130126000D01*
X133892000Y-136572000D02*
X133892000Y-134390000D01*
X133892000Y-132310000D02*
X133892000Y-130128000D01*
X133852000Y-136568000D02*
X133852000Y-134390000D01*
X133852000Y-132310000D02*
X133852000Y-130132000D01*
X133812000Y-136565000D02*
X133812000Y-134390000D01*
X133812000Y-132310000D02*
X133812000Y-130135000D01*
X133772000Y-136561000D02*
X133772000Y-134390000D01*
X133772000Y-132310000D02*
X133772000Y-130139000D01*
X133732000Y-136556000D02*
X133732000Y-134390000D01*
X133732000Y-132310000D02*
X133732000Y-130144000D01*
X133692000Y-136551000D02*
X133692000Y-134390000D01*
X133692000Y-132310000D02*
X133692000Y-130149000D01*
X133652000Y-136545000D02*
X133652000Y-134390000D01*
X133652000Y-132310000D02*
X133652000Y-130155000D01*
X133612000Y-136539000D02*
X133612000Y-134390000D01*
X133612000Y-132310000D02*
X133612000Y-130161000D01*
X133572000Y-136532000D02*
X133572000Y-134390000D01*
X133572000Y-132310000D02*
X133572000Y-130168000D01*
X133532000Y-136525000D02*
X133532000Y-134390000D01*
X133532000Y-132310000D02*
X133532000Y-130175000D01*
X133492000Y-136517000D02*
X133492000Y-134390000D01*
X133492000Y-132310000D02*
X133492000Y-130183000D01*
X133452000Y-136509000D02*
X133452000Y-134390000D01*
X133452000Y-132310000D02*
X133452000Y-130191000D01*
X133411000Y-136500000D02*
X133411000Y-134390000D01*
X133411000Y-132310000D02*
X133411000Y-130200000D01*
X133371000Y-136491000D02*
X133371000Y-134390000D01*
X133371000Y-132310000D02*
X133371000Y-130209000D01*
X133331000Y-136481000D02*
X133331000Y-134390000D01*
X133331000Y-132310000D02*
X133331000Y-130219000D01*
X133291000Y-136471000D02*
X133291000Y-134390000D01*
X133291000Y-132310000D02*
X133291000Y-130229000D01*
X133251000Y-136460000D02*
X133251000Y-134390000D01*
X133251000Y-132310000D02*
X133251000Y-130240000D01*
X133211000Y-136448000D02*
X133211000Y-134390000D01*
X133211000Y-132310000D02*
X133211000Y-130252000D01*
X133171000Y-136436000D02*
X133171000Y-134390000D01*
X133171000Y-132310000D02*
X133171000Y-130264000D01*
X133131000Y-136424000D02*
X133131000Y-134390000D01*
X133131000Y-132310000D02*
X133131000Y-130276000D01*
X133091000Y-136411000D02*
X133091000Y-134390000D01*
X133091000Y-132310000D02*
X133091000Y-130289000D01*
X133051000Y-136397000D02*
X133051000Y-134390000D01*
X133051000Y-132310000D02*
X133051000Y-130303000D01*
X133011000Y-136383000D02*
X133011000Y-134390000D01*
X133011000Y-132310000D02*
X133011000Y-130317000D01*
X132971000Y-136368000D02*
X132971000Y-134390000D01*
X132971000Y-132310000D02*
X132971000Y-130332000D01*
X132931000Y-136352000D02*
X132931000Y-134390000D01*
X132931000Y-132310000D02*
X132931000Y-130348000D01*
X132891000Y-136336000D02*
X132891000Y-134390000D01*
X132891000Y-132310000D02*
X132891000Y-130364000D01*
X132851000Y-136320000D02*
X132851000Y-134390000D01*
X132851000Y-132310000D02*
X132851000Y-130380000D01*
X132811000Y-136302000D02*
X132811000Y-134390000D01*
X132811000Y-132310000D02*
X132811000Y-130398000D01*
X132771000Y-136284000D02*
X132771000Y-134390000D01*
X132771000Y-132310000D02*
X132771000Y-130416000D01*
X132731000Y-136266000D02*
X132731000Y-134390000D01*
X132731000Y-132310000D02*
X132731000Y-130434000D01*
X132691000Y-136246000D02*
X132691000Y-134390000D01*
X132691000Y-132310000D02*
X132691000Y-130454000D01*
X132651000Y-136226000D02*
X132651000Y-134390000D01*
X132651000Y-132310000D02*
X132651000Y-130474000D01*
X132611000Y-136206000D02*
X132611000Y-134390000D01*
X132611000Y-132310000D02*
X132611000Y-130494000D01*
X132571000Y-136184000D02*
X132571000Y-134390000D01*
X132571000Y-132310000D02*
X132571000Y-130516000D01*
X132531000Y-136162000D02*
X132531000Y-134390000D01*
X132531000Y-132310000D02*
X132531000Y-130538000D01*
X132491000Y-136140000D02*
X132491000Y-134390000D01*
X132491000Y-132310000D02*
X132491000Y-130560000D01*
X132451000Y-136116000D02*
X132451000Y-134390000D01*
X132451000Y-132310000D02*
X132451000Y-130584000D01*
X132411000Y-136092000D02*
X132411000Y-134390000D01*
X132411000Y-132310000D02*
X132411000Y-130608000D01*
X132371000Y-136066000D02*
X132371000Y-134390000D01*
X132371000Y-132310000D02*
X132371000Y-130634000D01*
X132331000Y-136040000D02*
X132331000Y-134390000D01*
X132331000Y-132310000D02*
X132331000Y-130660000D01*
X132291000Y-136014000D02*
X132291000Y-134390000D01*
X132291000Y-132310000D02*
X132291000Y-130686000D01*
X132251000Y-135986000D02*
X132251000Y-134390000D01*
X132251000Y-132310000D02*
X132251000Y-130714000D01*
X132211000Y-135957000D02*
X132211000Y-134390000D01*
X132211000Y-132310000D02*
X132211000Y-130743000D01*
X132171000Y-135928000D02*
X132171000Y-134390000D01*
X132171000Y-132310000D02*
X132171000Y-130772000D01*
X132131000Y-135898000D02*
X132131000Y-134390000D01*
X132131000Y-132310000D02*
X132131000Y-130802000D01*
X132091000Y-135866000D02*
X132091000Y-134390000D01*
X132091000Y-132310000D02*
X132091000Y-130834000D01*
X132051000Y-135834000D02*
X132051000Y-134390000D01*
X132051000Y-132310000D02*
X132051000Y-130866000D01*
X132011000Y-135800000D02*
X132011000Y-134390000D01*
X132011000Y-132310000D02*
X132011000Y-130900000D01*
X131971000Y-135766000D02*
X131971000Y-134390000D01*
X131971000Y-132310000D02*
X131971000Y-130934000D01*
X131931000Y-135730000D02*
X131931000Y-134390000D01*
X131931000Y-132310000D02*
X131931000Y-130970000D01*
X131891000Y-135693000D02*
X131891000Y-134390000D01*
X131891000Y-132310000D02*
X131891000Y-131007000D01*
X131851000Y-135655000D02*
X131851000Y-134390000D01*
X131851000Y-132310000D02*
X131851000Y-131045000D01*
X131811000Y-135615000D02*
X131811000Y-131085000D01*
X131771000Y-135574000D02*
X131771000Y-131126000D01*
X131731000Y-135532000D02*
X131731000Y-131168000D01*
X131691000Y-135487000D02*
X131691000Y-131213000D01*
X131651000Y-135442000D02*
X131651000Y-131258000D01*
X131611000Y-135394000D02*
X131611000Y-131306000D01*
X131571000Y-135345000D02*
X131571000Y-131355000D01*
X131531000Y-135294000D02*
X131531000Y-131406000D01*
X131491000Y-135240000D02*
X131491000Y-131460000D01*
X131451000Y-135184000D02*
X131451000Y-131516000D01*
X131411000Y-135126000D02*
X131411000Y-131574000D01*
X131371000Y-135064000D02*
X131371000Y-131636000D01*
X131331000Y-135000000D02*
X131331000Y-131700000D01*
X131291000Y-134931000D02*
X131291000Y-131769000D01*
X131251000Y-134859000D02*
X131251000Y-131841000D01*
X131211000Y-134782000D02*
X131211000Y-131918000D01*
X131171000Y-134700000D02*
X131171000Y-132000000D01*
X131131000Y-134612000D02*
X131131000Y-132088000D01*
X131091000Y-134515000D02*
X131091000Y-132185000D01*
X131051000Y-134409000D02*
X131051000Y-132291000D01*
X131011000Y-134290000D02*
X131011000Y-132410000D01*
X130971000Y-134152000D02*
X130971000Y-132548000D01*
X130931000Y-133983000D02*
X130931000Y-132717000D01*
X130891000Y-133752000D02*
X130891000Y-132948000D01*
X137402000Y-133350000D02*
G75*
G03*
X137402000Y-133350000I-3270000J0D01*
G01*
X158455000Y-80965000D02*
X161545000Y-80965000D01*
X160000462Y-75415001D02*
G75*
G03*
X158455170Y-80964999I-462J-2989999D01*
G01*
X161544830Y-80965000D02*
G75*
G03*
X159999538Y-75415000I-1544830J2560000D01*
G01*
X162500000Y-78405000D02*
G75*
G03*
X162500000Y-78405000I-2500000J0D01*
G01*
X156060000Y-131730000D02*
X155995000Y-131730000D01*
X156060000Y-131730000D02*
X156060000Y-134970000D01*
X153885000Y-131730000D02*
X153820000Y-131730000D01*
X153820000Y-131730000D02*
X153820000Y-134970000D01*
X156060000Y-134970000D02*
X155995000Y-134970000D01*
X153885000Y-134970000D02*
X153820000Y-134970000D01*
X151190000Y-99000000D02*
X151190000Y-100330000D01*
X148590000Y-99000000D02*
X151190000Y-99000000D01*
X148590000Y-99000000D02*
X145990000Y-99000000D01*
X145990000Y-99000000D02*
X145990000Y-104200000D01*
X151190000Y-100330000D02*
X151190000Y-104200000D01*
X151190000Y-104200000D02*
X145990000Y-104200000D01*
X144332000Y-99000000D02*
X144332000Y-100330000D01*
X143002000Y-99000000D02*
X144332000Y-99000000D01*
X143002000Y-99000000D02*
X139132000Y-99000000D01*
X139132000Y-99000000D02*
X139132000Y-104200000D01*
X144332000Y-100330000D02*
X144332000Y-104200000D01*
X144332000Y-104200000D02*
X139132000Y-104200000D01*
X156060000Y-67880000D02*
X155995000Y-67880000D01*
X156060000Y-67880000D02*
X156060000Y-71120000D01*
X153885000Y-67880000D02*
X153820000Y-67880000D01*
X153820000Y-67880000D02*
X153820000Y-71120000D01*
X156060000Y-71120000D02*
X155995000Y-71120000D01*
X153885000Y-71120000D02*
X153820000Y-71120000D01*
X156060000Y-99980000D02*
X155995000Y-99980000D01*
X156060000Y-99980000D02*
X156060000Y-103220000D01*
X153885000Y-99980000D02*
X153820000Y-99980000D01*
X153820000Y-99980000D02*
X153820000Y-103220000D01*
X156060000Y-103220000D02*
X155995000Y-103220000D01*
X153885000Y-103220000D02*
X153820000Y-103220000D01*
X154455000Y-90032000D02*
X154520000Y-90032000D01*
X154455000Y-90032000D02*
X154455000Y-86792000D01*
X156630000Y-90032000D02*
X156695000Y-90032000D01*
X156695000Y-90032000D02*
X156695000Y-86792000D01*
X154455000Y-86792000D02*
X154520000Y-86792000D01*
X156630000Y-86792000D02*
X156695000Y-86792000D01*
X135782800Y-127815200D02*
X135782800Y-127750200D01*
X135782800Y-127815200D02*
X132542800Y-127815200D01*
X135782800Y-125640200D02*
X135782800Y-125575200D01*
X135782800Y-125575200D02*
X132542800Y-125575200D01*
X132542800Y-127815200D02*
X132542800Y-127750200D01*
X132542800Y-125640200D02*
X132542800Y-125575200D01*
X144332000Y-54550000D02*
X144332000Y-55880000D01*
X143002000Y-54550000D02*
X144332000Y-54550000D01*
X143002000Y-54550000D02*
X139132000Y-54550000D01*
X139132000Y-54550000D02*
X139132000Y-59750000D01*
X144332000Y-55880000D02*
X144332000Y-59750000D01*
X144332000Y-59750000D02*
X139132000Y-59750000D01*
X163345000Y-90032000D02*
X163410000Y-90032000D01*
X163345000Y-90032000D02*
X163345000Y-86792000D01*
X165520000Y-90032000D02*
X165585000Y-90032000D01*
X165585000Y-90032000D02*
X165585000Y-86792000D01*
X163345000Y-86792000D02*
X163410000Y-86792000D01*
X165520000Y-86792000D02*
X165585000Y-86792000D01*
X168455000Y-115725000D02*
X153755000Y-115725000D01*
X168455000Y-106525000D02*
X168455000Y-115725000D01*
X159655000Y-106525000D02*
X168455000Y-106525000D01*
X154605000Y-115925000D02*
X153555000Y-115925000D01*
X153755000Y-115725000D02*
X153755000Y-113125000D01*
X153755000Y-109225000D02*
X153755000Y-106525000D01*
X153755000Y-106525000D02*
X155655000Y-106525000D01*
X153555000Y-114875000D02*
X153555000Y-115925000D01*
X163764000Y-129869759D02*
X163764000Y-130499759D01*
X164079000Y-130184759D02*
X163449000Y-130184759D01*
X165155000Y-133370000D02*
X158695000Y-133370000D01*
X165155000Y-133410000D02*
X158695000Y-133410000D01*
X165155000Y-133450000D02*
X158695000Y-133450000D01*
X165153000Y-133490000D02*
X158697000Y-133490000D01*
X165152000Y-133530000D02*
X158698000Y-133530000D01*
X165149000Y-133570000D02*
X158701000Y-133570000D01*
X165147000Y-133610000D02*
X162965000Y-133610000D01*
X160885000Y-133610000D02*
X158703000Y-133610000D01*
X165143000Y-133650000D02*
X162965000Y-133650000D01*
X160885000Y-133650000D02*
X158707000Y-133650000D01*
X165140000Y-133690000D02*
X162965000Y-133690000D01*
X160885000Y-133690000D02*
X158710000Y-133690000D01*
X165136000Y-133730000D02*
X162965000Y-133730000D01*
X160885000Y-133730000D02*
X158714000Y-133730000D01*
X165131000Y-133770000D02*
X162965000Y-133770000D01*
X160885000Y-133770000D02*
X158719000Y-133770000D01*
X165126000Y-133810000D02*
X162965000Y-133810000D01*
X160885000Y-133810000D02*
X158724000Y-133810000D01*
X165120000Y-133850000D02*
X162965000Y-133850000D01*
X160885000Y-133850000D02*
X158730000Y-133850000D01*
X165114000Y-133890000D02*
X162965000Y-133890000D01*
X160885000Y-133890000D02*
X158736000Y-133890000D01*
X165107000Y-133930000D02*
X162965000Y-133930000D01*
X160885000Y-133930000D02*
X158743000Y-133930000D01*
X165100000Y-133970000D02*
X162965000Y-133970000D01*
X160885000Y-133970000D02*
X158750000Y-133970000D01*
X165092000Y-134010000D02*
X162965000Y-134010000D01*
X160885000Y-134010000D02*
X158758000Y-134010000D01*
X165084000Y-134050000D02*
X162965000Y-134050000D01*
X160885000Y-134050000D02*
X158766000Y-134050000D01*
X165075000Y-134091000D02*
X162965000Y-134091000D01*
X160885000Y-134091000D02*
X158775000Y-134091000D01*
X165066000Y-134131000D02*
X162965000Y-134131000D01*
X160885000Y-134131000D02*
X158784000Y-134131000D01*
X165056000Y-134171000D02*
X162965000Y-134171000D01*
X160885000Y-134171000D02*
X158794000Y-134171000D01*
X165046000Y-134211000D02*
X162965000Y-134211000D01*
X160885000Y-134211000D02*
X158804000Y-134211000D01*
X165035000Y-134251000D02*
X162965000Y-134251000D01*
X160885000Y-134251000D02*
X158815000Y-134251000D01*
X165023000Y-134291000D02*
X162965000Y-134291000D01*
X160885000Y-134291000D02*
X158827000Y-134291000D01*
X165011000Y-134331000D02*
X162965000Y-134331000D01*
X160885000Y-134331000D02*
X158839000Y-134331000D01*
X164999000Y-134371000D02*
X162965000Y-134371000D01*
X160885000Y-134371000D02*
X158851000Y-134371000D01*
X164986000Y-134411000D02*
X162965000Y-134411000D01*
X160885000Y-134411000D02*
X158864000Y-134411000D01*
X164972000Y-134451000D02*
X162965000Y-134451000D01*
X160885000Y-134451000D02*
X158878000Y-134451000D01*
X164958000Y-134491000D02*
X162965000Y-134491000D01*
X160885000Y-134491000D02*
X158892000Y-134491000D01*
X164943000Y-134531000D02*
X162965000Y-134531000D01*
X160885000Y-134531000D02*
X158907000Y-134531000D01*
X164927000Y-134571000D02*
X162965000Y-134571000D01*
X160885000Y-134571000D02*
X158923000Y-134571000D01*
X164911000Y-134611000D02*
X162965000Y-134611000D01*
X160885000Y-134611000D02*
X158939000Y-134611000D01*
X164895000Y-134651000D02*
X162965000Y-134651000D01*
X160885000Y-134651000D02*
X158955000Y-134651000D01*
X164877000Y-134691000D02*
X162965000Y-134691000D01*
X160885000Y-134691000D02*
X158973000Y-134691000D01*
X164859000Y-134731000D02*
X162965000Y-134731000D01*
X160885000Y-134731000D02*
X158991000Y-134731000D01*
X164841000Y-134771000D02*
X162965000Y-134771000D01*
X160885000Y-134771000D02*
X159009000Y-134771000D01*
X164821000Y-134811000D02*
X162965000Y-134811000D01*
X160885000Y-134811000D02*
X159029000Y-134811000D01*
X164801000Y-134851000D02*
X162965000Y-134851000D01*
X160885000Y-134851000D02*
X159049000Y-134851000D01*
X164781000Y-134891000D02*
X162965000Y-134891000D01*
X160885000Y-134891000D02*
X159069000Y-134891000D01*
X164759000Y-134931000D02*
X162965000Y-134931000D01*
X160885000Y-134931000D02*
X159091000Y-134931000D01*
X164737000Y-134971000D02*
X162965000Y-134971000D01*
X160885000Y-134971000D02*
X159113000Y-134971000D01*
X164715000Y-135011000D02*
X162965000Y-135011000D01*
X160885000Y-135011000D02*
X159135000Y-135011000D01*
X164691000Y-135051000D02*
X162965000Y-135051000D01*
X160885000Y-135051000D02*
X159159000Y-135051000D01*
X164667000Y-135091000D02*
X162965000Y-135091000D01*
X160885000Y-135091000D02*
X159183000Y-135091000D01*
X164641000Y-135131000D02*
X162965000Y-135131000D01*
X160885000Y-135131000D02*
X159209000Y-135131000D01*
X164615000Y-135171000D02*
X162965000Y-135171000D01*
X160885000Y-135171000D02*
X159235000Y-135171000D01*
X164589000Y-135211000D02*
X162965000Y-135211000D01*
X160885000Y-135211000D02*
X159261000Y-135211000D01*
X164561000Y-135251000D02*
X162965000Y-135251000D01*
X160885000Y-135251000D02*
X159289000Y-135251000D01*
X164532000Y-135291000D02*
X162965000Y-135291000D01*
X160885000Y-135291000D02*
X159318000Y-135291000D01*
X164503000Y-135331000D02*
X162965000Y-135331000D01*
X160885000Y-135331000D02*
X159347000Y-135331000D01*
X164473000Y-135371000D02*
X162965000Y-135371000D01*
X160885000Y-135371000D02*
X159377000Y-135371000D01*
X164441000Y-135411000D02*
X162965000Y-135411000D01*
X160885000Y-135411000D02*
X159409000Y-135411000D01*
X164409000Y-135451000D02*
X162965000Y-135451000D01*
X160885000Y-135451000D02*
X159441000Y-135451000D01*
X164375000Y-135491000D02*
X162965000Y-135491000D01*
X160885000Y-135491000D02*
X159475000Y-135491000D01*
X164341000Y-135531000D02*
X162965000Y-135531000D01*
X160885000Y-135531000D02*
X159509000Y-135531000D01*
X164305000Y-135571000D02*
X162965000Y-135571000D01*
X160885000Y-135571000D02*
X159545000Y-135571000D01*
X164268000Y-135611000D02*
X162965000Y-135611000D01*
X160885000Y-135611000D02*
X159582000Y-135611000D01*
X164230000Y-135651000D02*
X162965000Y-135651000D01*
X160885000Y-135651000D02*
X159620000Y-135651000D01*
X164190000Y-135691000D02*
X159660000Y-135691000D01*
X164149000Y-135731000D02*
X159701000Y-135731000D01*
X164107000Y-135771000D02*
X159743000Y-135771000D01*
X164062000Y-135811000D02*
X159788000Y-135811000D01*
X164017000Y-135851000D02*
X159833000Y-135851000D01*
X163969000Y-135891000D02*
X159881000Y-135891000D01*
X163920000Y-135931000D02*
X159930000Y-135931000D01*
X163869000Y-135971000D02*
X159981000Y-135971000D01*
X163815000Y-136011000D02*
X160035000Y-136011000D01*
X163759000Y-136051000D02*
X160091000Y-136051000D01*
X163701000Y-136091000D02*
X160149000Y-136091000D01*
X163639000Y-136131000D02*
X160211000Y-136131000D01*
X163575000Y-136171000D02*
X160275000Y-136171000D01*
X163506000Y-136211000D02*
X160344000Y-136211000D01*
X163434000Y-136251000D02*
X160416000Y-136251000D01*
X163357000Y-136291000D02*
X160493000Y-136291000D01*
X163275000Y-136331000D02*
X160575000Y-136331000D01*
X163187000Y-136371000D02*
X160663000Y-136371000D01*
X163090000Y-136411000D02*
X160760000Y-136411000D01*
X162984000Y-136451000D02*
X160866000Y-136451000D01*
X162865000Y-136491000D02*
X160985000Y-136491000D01*
X162727000Y-136531000D02*
X161123000Y-136531000D01*
X162558000Y-136571000D02*
X161292000Y-136571000D01*
X162327000Y-136611000D02*
X161523000Y-136611000D01*
X165195000Y-133370000D02*
G75*
G03*
X165195000Y-133370000I-3270000J0D01*
G01*
X163764000Y-98119759D02*
X163764000Y-98749759D01*
X164079000Y-98434759D02*
X163449000Y-98434759D01*
X165155000Y-101620000D02*
X158695000Y-101620000D01*
X165155000Y-101660000D02*
X158695000Y-101660000D01*
X165155000Y-101700000D02*
X158695000Y-101700000D01*
X165153000Y-101740000D02*
X158697000Y-101740000D01*
X165152000Y-101780000D02*
X158698000Y-101780000D01*
X165149000Y-101820000D02*
X158701000Y-101820000D01*
X165147000Y-101860000D02*
X162965000Y-101860000D01*
X160885000Y-101860000D02*
X158703000Y-101860000D01*
X165143000Y-101900000D02*
X162965000Y-101900000D01*
X160885000Y-101900000D02*
X158707000Y-101900000D01*
X165140000Y-101940000D02*
X162965000Y-101940000D01*
X160885000Y-101940000D02*
X158710000Y-101940000D01*
X165136000Y-101980000D02*
X162965000Y-101980000D01*
X160885000Y-101980000D02*
X158714000Y-101980000D01*
X165131000Y-102020000D02*
X162965000Y-102020000D01*
X160885000Y-102020000D02*
X158719000Y-102020000D01*
X165126000Y-102060000D02*
X162965000Y-102060000D01*
X160885000Y-102060000D02*
X158724000Y-102060000D01*
X165120000Y-102100000D02*
X162965000Y-102100000D01*
X160885000Y-102100000D02*
X158730000Y-102100000D01*
X165114000Y-102140000D02*
X162965000Y-102140000D01*
X160885000Y-102140000D02*
X158736000Y-102140000D01*
X165107000Y-102180000D02*
X162965000Y-102180000D01*
X160885000Y-102180000D02*
X158743000Y-102180000D01*
X165100000Y-102220000D02*
X162965000Y-102220000D01*
X160885000Y-102220000D02*
X158750000Y-102220000D01*
X165092000Y-102260000D02*
X162965000Y-102260000D01*
X160885000Y-102260000D02*
X158758000Y-102260000D01*
X165084000Y-102300000D02*
X162965000Y-102300000D01*
X160885000Y-102300000D02*
X158766000Y-102300000D01*
X165075000Y-102341000D02*
X162965000Y-102341000D01*
X160885000Y-102341000D02*
X158775000Y-102341000D01*
X165066000Y-102381000D02*
X162965000Y-102381000D01*
X160885000Y-102381000D02*
X158784000Y-102381000D01*
X165056000Y-102421000D02*
X162965000Y-102421000D01*
X160885000Y-102421000D02*
X158794000Y-102421000D01*
X165046000Y-102461000D02*
X162965000Y-102461000D01*
X160885000Y-102461000D02*
X158804000Y-102461000D01*
X165035000Y-102501000D02*
X162965000Y-102501000D01*
X160885000Y-102501000D02*
X158815000Y-102501000D01*
X165023000Y-102541000D02*
X162965000Y-102541000D01*
X160885000Y-102541000D02*
X158827000Y-102541000D01*
X165011000Y-102581000D02*
X162965000Y-102581000D01*
X160885000Y-102581000D02*
X158839000Y-102581000D01*
X164999000Y-102621000D02*
X162965000Y-102621000D01*
X160885000Y-102621000D02*
X158851000Y-102621000D01*
X164986000Y-102661000D02*
X162965000Y-102661000D01*
X160885000Y-102661000D02*
X158864000Y-102661000D01*
X164972000Y-102701000D02*
X162965000Y-102701000D01*
X160885000Y-102701000D02*
X158878000Y-102701000D01*
X164958000Y-102741000D02*
X162965000Y-102741000D01*
X160885000Y-102741000D02*
X158892000Y-102741000D01*
X164943000Y-102781000D02*
X162965000Y-102781000D01*
X160885000Y-102781000D02*
X158907000Y-102781000D01*
X164927000Y-102821000D02*
X162965000Y-102821000D01*
X160885000Y-102821000D02*
X158923000Y-102821000D01*
X164911000Y-102861000D02*
X162965000Y-102861000D01*
X160885000Y-102861000D02*
X158939000Y-102861000D01*
X164895000Y-102901000D02*
X162965000Y-102901000D01*
X160885000Y-102901000D02*
X158955000Y-102901000D01*
X164877000Y-102941000D02*
X162965000Y-102941000D01*
X160885000Y-102941000D02*
X158973000Y-102941000D01*
X164859000Y-102981000D02*
X162965000Y-102981000D01*
X160885000Y-102981000D02*
X158991000Y-102981000D01*
X164841000Y-103021000D02*
X162965000Y-103021000D01*
X160885000Y-103021000D02*
X159009000Y-103021000D01*
X164821000Y-103061000D02*
X162965000Y-103061000D01*
X160885000Y-103061000D02*
X159029000Y-103061000D01*
X164801000Y-103101000D02*
X162965000Y-103101000D01*
X160885000Y-103101000D02*
X159049000Y-103101000D01*
X164781000Y-103141000D02*
X162965000Y-103141000D01*
X160885000Y-103141000D02*
X159069000Y-103141000D01*
X164759000Y-103181000D02*
X162965000Y-103181000D01*
X160885000Y-103181000D02*
X159091000Y-103181000D01*
X164737000Y-103221000D02*
X162965000Y-103221000D01*
X160885000Y-103221000D02*
X159113000Y-103221000D01*
X164715000Y-103261000D02*
X162965000Y-103261000D01*
X160885000Y-103261000D02*
X159135000Y-103261000D01*
X164691000Y-103301000D02*
X162965000Y-103301000D01*
X160885000Y-103301000D02*
X159159000Y-103301000D01*
X164667000Y-103341000D02*
X162965000Y-103341000D01*
X160885000Y-103341000D02*
X159183000Y-103341000D01*
X164641000Y-103381000D02*
X162965000Y-103381000D01*
X160885000Y-103381000D02*
X159209000Y-103381000D01*
X164615000Y-103421000D02*
X162965000Y-103421000D01*
X160885000Y-103421000D02*
X159235000Y-103421000D01*
X164589000Y-103461000D02*
X162965000Y-103461000D01*
X160885000Y-103461000D02*
X159261000Y-103461000D01*
X164561000Y-103501000D02*
X162965000Y-103501000D01*
X160885000Y-103501000D02*
X159289000Y-103501000D01*
X164532000Y-103541000D02*
X162965000Y-103541000D01*
X160885000Y-103541000D02*
X159318000Y-103541000D01*
X164503000Y-103581000D02*
X162965000Y-103581000D01*
X160885000Y-103581000D02*
X159347000Y-103581000D01*
X164473000Y-103621000D02*
X162965000Y-103621000D01*
X160885000Y-103621000D02*
X159377000Y-103621000D01*
X164441000Y-103661000D02*
X162965000Y-103661000D01*
X160885000Y-103661000D02*
X159409000Y-103661000D01*
X164409000Y-103701000D02*
X162965000Y-103701000D01*
X160885000Y-103701000D02*
X159441000Y-103701000D01*
X164375000Y-103741000D02*
X162965000Y-103741000D01*
X160885000Y-103741000D02*
X159475000Y-103741000D01*
X164341000Y-103781000D02*
X162965000Y-103781000D01*
X160885000Y-103781000D02*
X159509000Y-103781000D01*
X164305000Y-103821000D02*
X162965000Y-103821000D01*
X160885000Y-103821000D02*
X159545000Y-103821000D01*
X164268000Y-103861000D02*
X162965000Y-103861000D01*
X160885000Y-103861000D02*
X159582000Y-103861000D01*
X164230000Y-103901000D02*
X162965000Y-103901000D01*
X160885000Y-103901000D02*
X159620000Y-103901000D01*
X164190000Y-103941000D02*
X159660000Y-103941000D01*
X164149000Y-103981000D02*
X159701000Y-103981000D01*
X164107000Y-104021000D02*
X159743000Y-104021000D01*
X164062000Y-104061000D02*
X159788000Y-104061000D01*
X164017000Y-104101000D02*
X159833000Y-104101000D01*
X163969000Y-104141000D02*
X159881000Y-104141000D01*
X163920000Y-104181000D02*
X159930000Y-104181000D01*
X163869000Y-104221000D02*
X159981000Y-104221000D01*
X163815000Y-104261000D02*
X160035000Y-104261000D01*
X163759000Y-104301000D02*
X160091000Y-104301000D01*
X163701000Y-104341000D02*
X160149000Y-104341000D01*
X163639000Y-104381000D02*
X160211000Y-104381000D01*
X163575000Y-104421000D02*
X160275000Y-104421000D01*
X163506000Y-104461000D02*
X160344000Y-104461000D01*
X163434000Y-104501000D02*
X160416000Y-104501000D01*
X163357000Y-104541000D02*
X160493000Y-104541000D01*
X163275000Y-104581000D02*
X160575000Y-104581000D01*
X163187000Y-104621000D02*
X160663000Y-104621000D01*
X163090000Y-104661000D02*
X160760000Y-104661000D01*
X162984000Y-104701000D02*
X160866000Y-104701000D01*
X162865000Y-104741000D02*
X160985000Y-104741000D01*
X162727000Y-104781000D02*
X161123000Y-104781000D01*
X162558000Y-104821000D02*
X161292000Y-104821000D01*
X162327000Y-104861000D02*
X161523000Y-104861000D01*
X165195000Y-101620000D02*
G75*
G03*
X165195000Y-101620000I-3270000J0D01*
G01*
X135884400Y-94490400D02*
X135884400Y-94425400D01*
X135884400Y-94490400D02*
X132644400Y-94490400D01*
X135884400Y-92315400D02*
X135884400Y-92250400D01*
X135884400Y-92250400D02*
X132644400Y-92250400D01*
X132644400Y-94490400D02*
X132644400Y-94425400D01*
X132644400Y-92315400D02*
X132644400Y-92250400D01*
X135833600Y-77269200D02*
X135833600Y-77204200D01*
X135833600Y-77269200D02*
X132593600Y-77269200D01*
X135833600Y-75094200D02*
X135833600Y-75029200D01*
X135833600Y-75029200D02*
X132593600Y-75029200D01*
X132593600Y-77269200D02*
X132593600Y-77204200D01*
X132593600Y-75094200D02*
X132593600Y-75029200D01*
%LPC*%
D15*
X161925000Y-68250000D03*
D16*
X161925000Y-70750000D03*
D15*
X135392800Y-69469000D03*
D16*
X132892800Y-69469000D03*
D17*
X156995400Y-118058200D03*
X156995400Y-122758200D03*
X156995400Y-127458200D03*
D16*
X135514400Y-108102400D03*
X133014400Y-108102400D03*
D18*
X135382000Y-64135000D03*
D19*
X132842000Y-64135000D03*
D18*
X163830000Y-64135000D03*
D19*
X161290000Y-64135000D03*
X158750000Y-64135000D03*
X156210000Y-64135000D03*
D16*
X135514400Y-84429600D03*
X133014400Y-84429600D03*
D18*
X135387000Y-138677800D03*
D19*
X132847000Y-138677800D03*
D16*
X160020000Y-89662000D03*
X160020000Y-87162000D03*
D20*
X149860000Y-55875000D03*
D21*
X149860000Y-58415000D03*
X147320000Y-55875000D03*
X147320000Y-58415000D03*
D16*
X135514400Y-88906000D03*
X133014400Y-88906000D03*
D18*
X163830000Y-138684000D03*
D19*
X161290000Y-138684000D03*
X158750000Y-138684000D03*
X156210000Y-138684000D03*
D15*
X135509000Y-101600000D03*
D16*
X133009000Y-101600000D03*
X154920000Y-83480000D03*
D22*
X165080000Y-83480000D03*
D15*
X135382000Y-133350000D03*
D16*
X132882000Y-133350000D03*
D23*
X160000000Y-79675000D03*
D24*
X160000000Y-77135000D03*
D16*
X154940000Y-132100000D03*
X154940000Y-134600000D03*
D20*
X149860000Y-100330000D03*
D21*
X149860000Y-102870000D03*
X147320000Y-100330000D03*
X147320000Y-102870000D03*
D20*
X143002000Y-100330000D03*
D21*
X143002000Y-102870000D03*
X140462000Y-100330000D03*
X140462000Y-102870000D03*
D16*
X154940000Y-68250000D03*
X154940000Y-70750000D03*
X154940000Y-100350000D03*
X154940000Y-102850000D03*
X155575000Y-89662000D03*
X155575000Y-87162000D03*
X135412800Y-126695200D03*
X132912800Y-126695200D03*
D20*
X143002000Y-55880000D03*
D21*
X143002000Y-58420000D03*
X140462000Y-55880000D03*
X140462000Y-58420000D03*
D16*
X164465000Y-89662000D03*
X164465000Y-87162000D03*
D25*
X154655000Y-111125000D03*
D26*
X160655000Y-111125000D03*
D27*
X157655000Y-106425000D03*
D15*
X161925000Y-132120000D03*
D16*
X161925000Y-134620000D03*
D15*
X161925000Y-100370000D03*
D16*
X161925000Y-102870000D03*
X135514400Y-93370400D03*
X133014400Y-93370400D03*
X135463600Y-76149200D03*
X132963600Y-76149200D03*
%LPD*%
M02*
