M48
; DRILL file {KiCad 7.0.7} date Mon Sep 11 08:48:16 2023
; FORMAT={-:-/ absolute / metric / decimal}
; #@! TF.CreationDate,2023-09-11T08:48:16-04:00
; #@! TF.GenerationSoftware,Kicad,Pcbnew,7.0.7
; #@! TF.FileFunction,Plated,1,2,PTH
FMAT,2
METRIC
; #@! TA.AperFunction,Plated,PTH,ComponentDrill
T1C0.800
; #@! TA.AperFunction,Plated,PTH,ComponentDrill
T2C0.900
; #@! TA.AperFunction,Plated,PTH,ComponentDrill
T3C1.000
; #@! TA.AperFunction,Plated,PTH,ComponentDrill
T4C1.600
%
G90
G05
T1
X132.882Y-133.35
X132.893Y-69.469
X132.913Y-126.695
X132.964Y-76.149
X133.009Y-101.6
X133.014Y-84.43
X133.014Y-88.906
X133.014Y-93.37
X133.014Y-108.102
X135.382Y-133.35
X135.393Y-69.469
X135.413Y-126.695
X135.464Y-76.149
X135.509Y-101.6
X135.514Y-84.43
X135.514Y-88.906
X135.514Y-93.37
X135.514Y-108.102
X154.92Y-83.48
X154.94Y-68.25
X154.94Y-70.75
X154.94Y-100.35
X154.94Y-102.85
X154.94Y-132.1
X154.94Y-134.6
X155.575Y-87.162
X155.575Y-89.662
X160.02Y-87.162
X160.02Y-89.662
X161.925Y-68.25
X161.925Y-70.75
X161.925Y-100.37
X161.925Y-102.87
X161.925Y-132.12
X161.925Y-134.62
X164.465Y-87.162
X164.465Y-89.662
X165.08Y-83.48
T2
X160.0Y-77.135
X160.0Y-79.675
T3
X132.842Y-64.135
X132.847Y-138.678
X135.382Y-64.135
X135.387Y-138.678
X140.462Y-55.88
X140.462Y-58.42
X140.462Y-100.33
X140.462Y-102.87
X143.002Y-55.88
X143.002Y-58.42
X143.002Y-100.33
X143.002Y-102.87
X147.32Y-55.875
X147.32Y-58.415
X147.32Y-100.33
X147.32Y-102.87
X149.86Y-55.875
X149.86Y-58.415
X149.86Y-100.33
X149.86Y-102.87
X156.21Y-64.135
X156.21Y-138.684
X158.75Y-64.135
X158.75Y-138.684
X161.29Y-64.135
X161.29Y-138.684
X163.83Y-64.135
X163.83Y-138.684
T4
X156.995Y-118.058
X156.995Y-122.758
X156.995Y-127.458
T3
X154.655Y-112.125G85X154.655Y-110.125
G05
X158.655Y-106.425G85X156.655Y-106.425
G05
X160.655Y-112.125G85X160.655Y-110.125
G05
T0
M30
