G04 #@! TF.GenerationSoftware,KiCad,Pcbnew,7.0.7*
G04 #@! TF.CreationDate,2023-09-11T08:48:11-04:00*
G04 #@! TF.ProjectId,Breadboard supply rail,42726561-6462-46f6-9172-642073757070,rev?*
G04 #@! TF.SameCoordinates,Original*
G04 #@! TF.FileFunction,Legend,Bot*
G04 #@! TF.FilePolarity,Positive*
%FSLAX46Y46*%
G04 Gerber Fmt 4.6, Leading zero omitted, Abs format (unit mm)*
G04 Created by KiCad (PCBNEW 7.0.7) date 2023-09-11 08:48:11*
%MOMM*%
%LPD*%
G01*
G04 APERTURE LIST*
G04 Aperture macros list*
%AMRoundRect*
0 Rectangle with rounded corners*
0 $1 Rounding radius*
0 $2 $3 $4 $5 $6 $7 $8 $9 X,Y pos of 4 corners*
0 Add a 4 corners polygon primitive as box body*
4,1,4,$2,$3,$4,$5,$6,$7,$8,$9,$2,$3,0*
0 Add four circle primitives for the rounded corners*
1,1,$1+$1,$2,$3*
1,1,$1+$1,$4,$5*
1,1,$1+$1,$6,$7*
1,1,$1+$1,$8,$9*
0 Add four rect primitives between the rounded corners*
20,1,$1+$1,$2,$3,$4,$5,0*
20,1,$1+$1,$4,$5,$6,$7,0*
20,1,$1+$1,$6,$7,$8,$9,0*
20,1,$1+$1,$8,$9,$2,$3,0*%
G04 Aperture macros list end*
%ADD10C,0.111125*%
%ADD11C,0.127000*%
%ADD12C,0.150000*%
%ADD13C,0.177800*%
%ADD14C,0.010000*%
%ADD15R,1.600000X1.600000*%
%ADD16C,1.600000*%
%ADD17C,2.600000*%
%ADD18R,1.700000X1.700000*%
%ADD19O,1.700000X1.700000*%
%ADD20R,1.635000X1.635000*%
%ADD21C,1.635000*%
%ADD22O,1.600000X1.600000*%
%ADD23R,1.800000X1.800000*%
%ADD24C,1.800000*%
%ADD25R,3.500000X3.500000*%
%ADD26RoundRect,0.750000X0.750000X1.000000X-0.750000X1.000000X-0.750000X-1.000000X0.750000X-1.000000X0*%
%ADD27RoundRect,0.875000X0.875000X0.875000X-0.875000X0.875000X-0.875000X-0.875000X0.875000X-0.875000X0*%
G04 APERTURE END LIST*
D10*
X162099624Y-61184092D02*
X162136666Y-61141758D01*
X162136666Y-61141758D02*
X162205457Y-61014758D01*
X162205457Y-61014758D02*
X162237207Y-60930092D01*
X162237207Y-60930092D02*
X162263666Y-60803092D01*
X162263666Y-60803092D02*
X162279541Y-60591425D01*
X162279541Y-60591425D02*
X162258374Y-60422092D01*
X162258374Y-60422092D02*
X162189582Y-60210425D01*
X162189582Y-60210425D02*
X162131374Y-60083425D01*
X162131374Y-60083425D02*
X162078457Y-59998758D01*
X162078457Y-59998758D02*
X161977916Y-59871758D01*
X161977916Y-59871758D02*
X161930291Y-59829425D01*
X161210624Y-60845425D02*
X161454040Y-60422092D01*
X161718624Y-60845425D02*
X161607499Y-59956425D01*
X161607499Y-59956425D02*
X161268832Y-59956425D01*
X161268832Y-59956425D02*
X161189457Y-59998758D01*
X161189457Y-59998758D02*
X161152415Y-60041092D01*
X161152415Y-60041092D02*
X161120665Y-60125758D01*
X161120665Y-60125758D02*
X161136540Y-60252758D01*
X161136540Y-60252758D02*
X161189457Y-60337425D01*
X161189457Y-60337425D02*
X161237082Y-60379758D01*
X161237082Y-60379758D02*
X161327040Y-60422092D01*
X161327040Y-60422092D02*
X161665707Y-60422092D01*
X160829624Y-60845425D02*
X160718499Y-59956425D01*
X159834791Y-59998758D02*
X159914166Y-59956425D01*
X159914166Y-59956425D02*
X160041166Y-59956425D01*
X160041166Y-59956425D02*
X160173457Y-59998758D01*
X160173457Y-59998758D02*
X160268707Y-60083425D01*
X160268707Y-60083425D02*
X160321624Y-60168092D01*
X160321624Y-60168092D02*
X160385124Y-60337425D01*
X160385124Y-60337425D02*
X160400999Y-60464425D01*
X160400999Y-60464425D02*
X160379832Y-60633758D01*
X160379832Y-60633758D02*
X160348082Y-60718425D01*
X160348082Y-60718425D02*
X160273999Y-60803092D01*
X160273999Y-60803092D02*
X160152291Y-60845425D01*
X160152291Y-60845425D02*
X160067624Y-60845425D01*
X160067624Y-60845425D02*
X159935332Y-60803092D01*
X159935332Y-60803092D02*
X159887707Y-60760758D01*
X159887707Y-60760758D02*
X159850666Y-60464425D01*
X159850666Y-60464425D02*
X160019999Y-60464425D01*
X159517291Y-60845425D02*
X159406166Y-59956425D01*
X159459082Y-60379758D02*
X158951082Y-60379758D01*
X159009291Y-60845425D02*
X158898166Y-59956425D01*
X158601833Y-59956425D02*
X158093833Y-59956425D01*
X158458958Y-60845425D02*
X158347833Y-59956425D01*
X158035625Y-61184092D02*
X157988000Y-61141758D01*
X157988000Y-61141758D02*
X157887458Y-61014758D01*
X157887458Y-61014758D02*
X157834541Y-60930092D01*
X157834541Y-60930092D02*
X157776333Y-60803092D01*
X157776333Y-60803092D02*
X157707541Y-60591425D01*
X157707541Y-60591425D02*
X157686375Y-60422092D01*
X157686375Y-60422092D02*
X157702250Y-60210425D01*
X157702250Y-60210425D02*
X157728708Y-60083425D01*
X157728708Y-60083425D02*
X157760458Y-59998758D01*
X157760458Y-59998758D02*
X157829250Y-59871758D01*
X157829250Y-59871758D02*
X157866291Y-59829425D01*
D11*
X165123665Y-107145666D02*
X165758665Y-107145666D01*
X165758665Y-107145666D02*
X165885665Y-107103333D01*
X165885665Y-107103333D02*
X165970332Y-107018666D01*
X165970332Y-107018666D02*
X166012665Y-106891666D01*
X166012665Y-106891666D02*
X166012665Y-106807000D01*
X166012665Y-107992333D02*
X166012665Y-107568999D01*
X166012665Y-107568999D02*
X165123665Y-107568999D01*
X165927998Y-108796666D02*
X165970332Y-108754333D01*
X165970332Y-108754333D02*
X166012665Y-108627333D01*
X166012665Y-108627333D02*
X166012665Y-108542666D01*
X166012665Y-108542666D02*
X165970332Y-108415666D01*
X165970332Y-108415666D02*
X165885665Y-108331000D01*
X165885665Y-108331000D02*
X165800998Y-108288666D01*
X165800998Y-108288666D02*
X165631665Y-108246333D01*
X165631665Y-108246333D02*
X165504665Y-108246333D01*
X165504665Y-108246333D02*
X165335332Y-108288666D01*
X165335332Y-108288666D02*
X165250665Y-108331000D01*
X165250665Y-108331000D02*
X165165998Y-108415666D01*
X165165998Y-108415666D02*
X165123665Y-108542666D01*
X165123665Y-108542666D02*
X165123665Y-108627333D01*
X165123665Y-108627333D02*
X165165998Y-108754333D01*
X165165998Y-108754333D02*
X165208332Y-108796666D01*
X165123665Y-109431666D02*
X165758665Y-109431666D01*
X165758665Y-109431666D02*
X165885665Y-109389333D01*
X165885665Y-109389333D02*
X165970332Y-109304666D01*
X165970332Y-109304666D02*
X166012665Y-109177666D01*
X166012665Y-109177666D02*
X166012665Y-109093000D01*
X166012665Y-110278333D02*
X166012665Y-109854999D01*
X166012665Y-109854999D02*
X165123665Y-109854999D01*
X165927998Y-111082666D02*
X165970332Y-111040333D01*
X165970332Y-111040333D02*
X166012665Y-110913333D01*
X166012665Y-110913333D02*
X166012665Y-110828666D01*
X166012665Y-110828666D02*
X165970332Y-110701666D01*
X165970332Y-110701666D02*
X165885665Y-110617000D01*
X165885665Y-110617000D02*
X165800998Y-110574666D01*
X165800998Y-110574666D02*
X165631665Y-110532333D01*
X165631665Y-110532333D02*
X165504665Y-110532333D01*
X165504665Y-110532333D02*
X165335332Y-110574666D01*
X165335332Y-110574666D02*
X165250665Y-110617000D01*
X165250665Y-110617000D02*
X165165998Y-110701666D01*
X165165998Y-110701666D02*
X165123665Y-110828666D01*
X165123665Y-110828666D02*
X165123665Y-110913333D01*
X165123665Y-110913333D02*
X165165998Y-111040333D01*
X165165998Y-111040333D02*
X165208332Y-111082666D01*
X165123665Y-111717666D02*
X165758665Y-111717666D01*
X165758665Y-111717666D02*
X165885665Y-111675333D01*
X165885665Y-111675333D02*
X165970332Y-111590666D01*
X165970332Y-111590666D02*
X166012665Y-111463666D01*
X166012665Y-111463666D02*
X166012665Y-111379000D01*
X166012665Y-112564333D02*
X166012665Y-112140999D01*
X166012665Y-112140999D02*
X165123665Y-112140999D01*
X165927998Y-113368666D02*
X165970332Y-113326333D01*
X165970332Y-113326333D02*
X166012665Y-113199333D01*
X166012665Y-113199333D02*
X166012665Y-113114666D01*
X166012665Y-113114666D02*
X165970332Y-112987666D01*
X165970332Y-112987666D02*
X165885665Y-112903000D01*
X165885665Y-112903000D02*
X165800998Y-112860666D01*
X165800998Y-112860666D02*
X165631665Y-112818333D01*
X165631665Y-112818333D02*
X165504665Y-112818333D01*
X165504665Y-112818333D02*
X165335332Y-112860666D01*
X165335332Y-112860666D02*
X165250665Y-112903000D01*
X165250665Y-112903000D02*
X165165998Y-112987666D01*
X165165998Y-112987666D02*
X165123665Y-113114666D01*
X165123665Y-113114666D02*
X165123665Y-113199333D01*
X165123665Y-113199333D02*
X165165998Y-113326333D01*
X165165998Y-113326333D02*
X165208332Y-113368666D01*
X165123665Y-114003666D02*
X165758665Y-114003666D01*
X165758665Y-114003666D02*
X165885665Y-113961333D01*
X165885665Y-113961333D02*
X165970332Y-113876666D01*
X165970332Y-113876666D02*
X166012665Y-113749666D01*
X166012665Y-113749666D02*
X166012665Y-113665000D01*
X166012665Y-114850333D02*
X166012665Y-114426999D01*
X166012665Y-114426999D02*
X165123665Y-114426999D01*
X165927998Y-115654666D02*
X165970332Y-115612333D01*
X165970332Y-115612333D02*
X166012665Y-115485333D01*
X166012665Y-115485333D02*
X166012665Y-115400666D01*
X166012665Y-115400666D02*
X165970332Y-115273666D01*
X165970332Y-115273666D02*
X165885665Y-115189000D01*
X165885665Y-115189000D02*
X165800998Y-115146666D01*
X165800998Y-115146666D02*
X165631665Y-115104333D01*
X165631665Y-115104333D02*
X165504665Y-115104333D01*
X165504665Y-115104333D02*
X165335332Y-115146666D01*
X165335332Y-115146666D02*
X165250665Y-115189000D01*
X165250665Y-115189000D02*
X165165998Y-115273666D01*
X165165998Y-115273666D02*
X165123665Y-115400666D01*
X165123665Y-115400666D02*
X165123665Y-115485333D01*
X165123665Y-115485333D02*
X165165998Y-115612333D01*
X165165998Y-115612333D02*
X165208332Y-115654666D01*
D10*
X135641291Y-61184092D02*
X135678333Y-61141758D01*
X135678333Y-61141758D02*
X135747124Y-61014758D01*
X135747124Y-61014758D02*
X135778874Y-60930092D01*
X135778874Y-60930092D02*
X135805333Y-60803092D01*
X135805333Y-60803092D02*
X135821208Y-60591425D01*
X135821208Y-60591425D02*
X135800041Y-60422092D01*
X135800041Y-60422092D02*
X135731249Y-60210425D01*
X135731249Y-60210425D02*
X135673041Y-60083425D01*
X135673041Y-60083425D02*
X135620124Y-59998758D01*
X135620124Y-59998758D02*
X135519583Y-59871758D01*
X135519583Y-59871758D02*
X135471958Y-59829425D01*
X134836957Y-60845425D02*
X135260291Y-60845425D01*
X135260291Y-60845425D02*
X135149166Y-59956425D01*
X134482415Y-60379758D02*
X134186082Y-60379758D01*
X134117290Y-60845425D02*
X134540624Y-60845425D01*
X134540624Y-60845425D02*
X134429499Y-59956425D01*
X134429499Y-59956425D02*
X134006165Y-59956425D01*
X133381749Y-60379758D02*
X133678082Y-60379758D01*
X133736291Y-60845425D02*
X133625166Y-59956425D01*
X133625166Y-59956425D02*
X133201832Y-59956425D01*
X132990166Y-59956425D02*
X132482166Y-59956425D01*
X132847291Y-60845425D02*
X132736166Y-59956425D01*
X132423958Y-61184092D02*
X132376333Y-61141758D01*
X132376333Y-61141758D02*
X132275791Y-61014758D01*
X132275791Y-61014758D02*
X132222874Y-60930092D01*
X132222874Y-60930092D02*
X132164666Y-60803092D01*
X132164666Y-60803092D02*
X132095874Y-60591425D01*
X132095874Y-60591425D02*
X132074708Y-60422092D01*
X132074708Y-60422092D02*
X132090583Y-60210425D01*
X132090583Y-60210425D02*
X132117041Y-60083425D01*
X132117041Y-60083425D02*
X132148791Y-59998758D01*
X132148791Y-59998758D02*
X132217583Y-59871758D01*
X132217583Y-59871758D02*
X132254624Y-59829425D01*
D12*
X164771915Y-93263116D02*
X165068248Y-93263116D01*
X165126457Y-93728783D02*
X165015332Y-92839783D01*
X165015332Y-92839783D02*
X164591998Y-92839783D01*
X164364457Y-93728783D02*
X164290373Y-93136116D01*
X164311540Y-93305450D02*
X164258623Y-93220783D01*
X164258623Y-93220783D02*
X164210998Y-93178450D01*
X164210998Y-93178450D02*
X164121040Y-93136116D01*
X164121040Y-93136116D02*
X164036373Y-93136116D01*
X163470165Y-93686450D02*
X163560124Y-93728783D01*
X163560124Y-93728783D02*
X163729457Y-93728783D01*
X163729457Y-93728783D02*
X163808832Y-93686450D01*
X163808832Y-93686450D02*
X163840582Y-93601783D01*
X163840582Y-93601783D02*
X163798249Y-93263116D01*
X163798249Y-93263116D02*
X163745332Y-93178450D01*
X163745332Y-93178450D02*
X163655374Y-93136116D01*
X163655374Y-93136116D02*
X163486040Y-93136116D01*
X163486040Y-93136116D02*
X163406665Y-93178450D01*
X163406665Y-93178450D02*
X163374915Y-93263116D01*
X163374915Y-93263116D02*
X163385499Y-93347783D01*
X163385499Y-93347783D02*
X163819415Y-93432450D01*
X163443707Y-92797450D02*
X163586582Y-92924450D01*
X162671124Y-93728783D02*
X162559999Y-92839783D01*
X162665832Y-93686450D02*
X162755790Y-93728783D01*
X162755790Y-93728783D02*
X162925124Y-93728783D01*
X162925124Y-93728783D02*
X163004499Y-93686450D01*
X163004499Y-93686450D02*
X163041540Y-93644116D01*
X163041540Y-93644116D02*
X163073290Y-93559450D01*
X163073290Y-93559450D02*
X163041540Y-93305450D01*
X163041540Y-93305450D02*
X162988624Y-93220783D01*
X162988624Y-93220783D02*
X162940999Y-93178450D01*
X162940999Y-93178450D02*
X162851040Y-93136116D01*
X162851040Y-93136116D02*
X162681707Y-93136116D01*
X162681707Y-93136116D02*
X162602332Y-93178450D01*
X161903832Y-93686450D02*
X161993791Y-93728783D01*
X161993791Y-93728783D02*
X162163124Y-93728783D01*
X162163124Y-93728783D02*
X162242499Y-93686450D01*
X162242499Y-93686450D02*
X162274249Y-93601783D01*
X162274249Y-93601783D02*
X162231916Y-93263116D01*
X162231916Y-93263116D02*
X162178999Y-93178450D01*
X162178999Y-93178450D02*
X162089041Y-93136116D01*
X162089041Y-93136116D02*
X161919707Y-93136116D01*
X161919707Y-93136116D02*
X161840332Y-93178450D01*
X161840332Y-93178450D02*
X161808582Y-93263116D01*
X161808582Y-93263116D02*
X161819166Y-93347783D01*
X161819166Y-93347783D02*
X162253082Y-93432450D01*
X161877374Y-92797450D02*
X162020249Y-92924450D01*
X161485791Y-93728783D02*
X161411707Y-93136116D01*
X161432874Y-93305450D02*
X161379957Y-93220783D01*
X161379957Y-93220783D02*
X161332332Y-93178450D01*
X161332332Y-93178450D02*
X161242374Y-93136116D01*
X161242374Y-93136116D02*
X161157707Y-93136116D01*
X160935458Y-93728783D02*
X160861374Y-93136116D01*
X160824333Y-92839783D02*
X160871958Y-92882116D01*
X160871958Y-92882116D02*
X160834916Y-92924450D01*
X160834916Y-92924450D02*
X160787291Y-92882116D01*
X160787291Y-92882116D02*
X160824333Y-92839783D01*
X160824333Y-92839783D02*
X160834916Y-92924450D01*
X160125833Y-93686450D02*
X160215791Y-93728783D01*
X160215791Y-93728783D02*
X160385125Y-93728783D01*
X160385125Y-93728783D02*
X160464500Y-93686450D01*
X160464500Y-93686450D02*
X160501541Y-93644116D01*
X160501541Y-93644116D02*
X160533291Y-93559450D01*
X160533291Y-93559450D02*
X160501541Y-93305450D01*
X160501541Y-93305450D02*
X160448625Y-93220783D01*
X160448625Y-93220783D02*
X160401000Y-93178450D01*
X160401000Y-93178450D02*
X160311041Y-93136116D01*
X160311041Y-93136116D02*
X160141708Y-93136116D01*
X160141708Y-93136116D02*
X160062333Y-93178450D01*
X159109833Y-93686450D02*
X158988125Y-93728783D01*
X158988125Y-93728783D02*
X158776458Y-93728783D01*
X158776458Y-93728783D02*
X158686500Y-93686450D01*
X158686500Y-93686450D02*
X158638875Y-93644116D01*
X158638875Y-93644116D02*
X158585958Y-93559450D01*
X158585958Y-93559450D02*
X158575375Y-93474783D01*
X158575375Y-93474783D02*
X158607125Y-93390116D01*
X158607125Y-93390116D02*
X158644167Y-93347783D01*
X158644167Y-93347783D02*
X158723542Y-93305450D01*
X158723542Y-93305450D02*
X158887583Y-93263116D01*
X158887583Y-93263116D02*
X158966958Y-93220783D01*
X158966958Y-93220783D02*
X159004000Y-93178450D01*
X159004000Y-93178450D02*
X159035750Y-93093783D01*
X159035750Y-93093783D02*
X159025167Y-93009116D01*
X159025167Y-93009116D02*
X158972250Y-92924450D01*
X158972250Y-92924450D02*
X158924625Y-92882116D01*
X158924625Y-92882116D02*
X158834667Y-92839783D01*
X158834667Y-92839783D02*
X158623000Y-92839783D01*
X158623000Y-92839783D02*
X158501292Y-92882116D01*
X157882166Y-93686450D02*
X157972125Y-93728783D01*
X157972125Y-93728783D02*
X158141458Y-93728783D01*
X158141458Y-93728783D02*
X158220833Y-93686450D01*
X158220833Y-93686450D02*
X158252583Y-93601783D01*
X158252583Y-93601783D02*
X158210250Y-93263116D01*
X158210250Y-93263116D02*
X158157333Y-93178450D01*
X158157333Y-93178450D02*
X158067375Y-93136116D01*
X158067375Y-93136116D02*
X157898041Y-93136116D01*
X157898041Y-93136116D02*
X157818666Y-93178450D01*
X157818666Y-93178450D02*
X157786916Y-93263116D01*
X157786916Y-93263116D02*
X157797500Y-93347783D01*
X157797500Y-93347783D02*
X158231416Y-93432450D01*
X157009041Y-93136116D02*
X157099000Y-93855783D01*
X157099000Y-93855783D02*
X157151916Y-93940450D01*
X157151916Y-93940450D02*
X157199541Y-93982783D01*
X157199541Y-93982783D02*
X157289500Y-94025116D01*
X157289500Y-94025116D02*
X157416500Y-94025116D01*
X157416500Y-94025116D02*
X157495875Y-93982783D01*
X157077833Y-93686450D02*
X157167791Y-93728783D01*
X157167791Y-93728783D02*
X157337125Y-93728783D01*
X157337125Y-93728783D02*
X157416500Y-93686450D01*
X157416500Y-93686450D02*
X157453541Y-93644116D01*
X157453541Y-93644116D02*
X157485291Y-93559450D01*
X157485291Y-93559450D02*
X157453541Y-93305450D01*
X157453541Y-93305450D02*
X157400625Y-93220783D01*
X157400625Y-93220783D02*
X157353000Y-93178450D01*
X157353000Y-93178450D02*
X157263041Y-93136116D01*
X157263041Y-93136116D02*
X157093708Y-93136116D01*
X157093708Y-93136116D02*
X157014333Y-93178450D01*
X156278792Y-93728783D02*
X156220583Y-93263116D01*
X156220583Y-93263116D02*
X156252333Y-93178450D01*
X156252333Y-93178450D02*
X156331708Y-93136116D01*
X156331708Y-93136116D02*
X156501042Y-93136116D01*
X156501042Y-93136116D02*
X156591000Y-93178450D01*
X156273500Y-93686450D02*
X156363458Y-93728783D01*
X156363458Y-93728783D02*
X156575125Y-93728783D01*
X156575125Y-93728783D02*
X156654500Y-93686450D01*
X156654500Y-93686450D02*
X156686250Y-93601783D01*
X156686250Y-93601783D02*
X156675667Y-93517116D01*
X156675667Y-93517116D02*
X156622750Y-93432450D01*
X156622750Y-93432450D02*
X156532792Y-93390116D01*
X156532792Y-93390116D02*
X156321125Y-93390116D01*
X156321125Y-93390116D02*
X156231167Y-93347783D01*
X155855459Y-93728783D02*
X155781375Y-93136116D01*
X155802542Y-93305450D02*
X155749625Y-93220783D01*
X155749625Y-93220783D02*
X155702000Y-93178450D01*
X155702000Y-93178450D02*
X155612042Y-93136116D01*
X155612042Y-93136116D02*
X155527375Y-93136116D01*
X154924126Y-93728783D02*
X154813001Y-92839783D01*
X154918834Y-93686450D02*
X155008792Y-93728783D01*
X155008792Y-93728783D02*
X155178126Y-93728783D01*
X155178126Y-93728783D02*
X155257501Y-93686450D01*
X155257501Y-93686450D02*
X155294542Y-93644116D01*
X155294542Y-93644116D02*
X155326292Y-93559450D01*
X155326292Y-93559450D02*
X155294542Y-93305450D01*
X155294542Y-93305450D02*
X155241626Y-93220783D01*
X155241626Y-93220783D02*
X155194001Y-93178450D01*
X155194001Y-93178450D02*
X155104042Y-93136116D01*
X155104042Y-93136116D02*
X154934709Y-93136116D01*
X154934709Y-93136116D02*
X154855334Y-93178450D01*
X164417373Y-94736740D02*
X164454414Y-94694406D01*
X164454414Y-94694406D02*
X164533789Y-94652073D01*
X164533789Y-94652073D02*
X164618456Y-94652073D01*
X164618456Y-94652073D02*
X164708414Y-94694406D01*
X164708414Y-94694406D02*
X164756039Y-94736740D01*
X164756039Y-94736740D02*
X164808956Y-94821406D01*
X164808956Y-94821406D02*
X164819539Y-94906073D01*
X164819539Y-94906073D02*
X164787789Y-94990740D01*
X164787789Y-94990740D02*
X164750748Y-95033073D01*
X164750748Y-95033073D02*
X164671373Y-95075406D01*
X164671373Y-95075406D02*
X164586706Y-95075406D01*
X164586706Y-95075406D02*
X164496748Y-95033073D01*
X164496748Y-95033073D02*
X164449123Y-94990740D01*
X164406789Y-94652073D02*
X164449123Y-94990740D01*
X164449123Y-94990740D02*
X164412081Y-95033073D01*
X164412081Y-95033073D02*
X164369748Y-95033073D01*
X164369748Y-95033073D02*
X164279789Y-94990740D01*
X164279789Y-94990740D02*
X164226873Y-94906073D01*
X164226873Y-94906073D02*
X164200414Y-94694406D01*
X164200414Y-94694406D02*
X164269206Y-94567406D01*
X164269206Y-94567406D02*
X164385623Y-94482740D01*
X164385623Y-94482740D02*
X164549664Y-94440406D01*
X164549664Y-94440406D02*
X164724289Y-94482740D01*
X164724289Y-94482740D02*
X164861873Y-94567406D01*
X164861873Y-94567406D02*
X164962414Y-94694406D01*
X164962414Y-94694406D02*
X165025914Y-94863740D01*
X165025914Y-94863740D02*
X165004748Y-95033073D01*
X165004748Y-95033073D02*
X164935956Y-95160073D01*
X164935956Y-95160073D02*
X164819539Y-95244740D01*
X164819539Y-95244740D02*
X164655498Y-95287073D01*
X164655498Y-95287073D02*
X164480873Y-95244740D01*
X164480873Y-95244740D02*
X164343289Y-95160073D01*
X163877623Y-95160073D02*
X163803539Y-94567406D01*
X163814123Y-94652073D02*
X163766498Y-94609740D01*
X163766498Y-94609740D02*
X163676539Y-94567406D01*
X163676539Y-94567406D02*
X163549539Y-94567406D01*
X163549539Y-94567406D02*
X163470164Y-94609740D01*
X163470164Y-94609740D02*
X163438414Y-94694406D01*
X163438414Y-94694406D02*
X163496623Y-95160073D01*
X163438414Y-94694406D02*
X163385498Y-94609740D01*
X163385498Y-94609740D02*
X163295539Y-94567406D01*
X163295539Y-94567406D02*
X163168539Y-94567406D01*
X163168539Y-94567406D02*
X163089164Y-94609740D01*
X163089164Y-94609740D02*
X163057414Y-94694406D01*
X163057414Y-94694406D02*
X163115623Y-95160073D01*
X162692290Y-95160073D02*
X162618206Y-94567406D01*
X162581165Y-94271073D02*
X162628790Y-94313406D01*
X162628790Y-94313406D02*
X162591748Y-94355740D01*
X162591748Y-94355740D02*
X162544123Y-94313406D01*
X162544123Y-94313406D02*
X162581165Y-94271073D01*
X162581165Y-94271073D02*
X162591748Y-94355740D01*
X161882665Y-95117740D02*
X161972623Y-95160073D01*
X161972623Y-95160073D02*
X162141957Y-95160073D01*
X162141957Y-95160073D02*
X162221332Y-95117740D01*
X162221332Y-95117740D02*
X162258373Y-95075406D01*
X162258373Y-95075406D02*
X162290123Y-94990740D01*
X162290123Y-94990740D02*
X162258373Y-94736740D01*
X162258373Y-94736740D02*
X162205457Y-94652073D01*
X162205457Y-94652073D02*
X162157832Y-94609740D01*
X162157832Y-94609740D02*
X162067873Y-94567406D01*
X162067873Y-94567406D02*
X161898540Y-94567406D01*
X161898540Y-94567406D02*
X161819165Y-94609740D01*
X161506957Y-95160073D02*
X161432873Y-94567406D01*
X161454040Y-94736740D02*
X161401123Y-94652073D01*
X161401123Y-94652073D02*
X161353498Y-94609740D01*
X161353498Y-94609740D02*
X161263540Y-94567406D01*
X161263540Y-94567406D02*
X161178873Y-94567406D01*
X160829624Y-95160073D02*
X160908999Y-95117740D01*
X160908999Y-95117740D02*
X160946040Y-95075406D01*
X160946040Y-95075406D02*
X160977790Y-94990740D01*
X160977790Y-94990740D02*
X160946040Y-94736740D01*
X160946040Y-94736740D02*
X160893124Y-94652073D01*
X160893124Y-94652073D02*
X160845499Y-94609740D01*
X160845499Y-94609740D02*
X160755540Y-94567406D01*
X160755540Y-94567406D02*
X160628540Y-94567406D01*
X160628540Y-94567406D02*
X160549165Y-94609740D01*
X160549165Y-94609740D02*
X160512124Y-94652073D01*
X160512124Y-94652073D02*
X160480374Y-94736740D01*
X160480374Y-94736740D02*
X160512124Y-94990740D01*
X160512124Y-94990740D02*
X160565040Y-95075406D01*
X160565040Y-95075406D02*
X160612665Y-95117740D01*
X160612665Y-95117740D02*
X160702624Y-95160073D01*
X160702624Y-95160073D02*
X160829624Y-95160073D01*
X160152291Y-95160073D02*
X160041166Y-94271073D01*
X159771291Y-95160073D02*
X159713082Y-94694406D01*
X159713082Y-94694406D02*
X159744832Y-94609740D01*
X159744832Y-94609740D02*
X159824207Y-94567406D01*
X159824207Y-94567406D02*
X159951207Y-94567406D01*
X159951207Y-94567406D02*
X160041166Y-94609740D01*
X160041166Y-94609740D02*
X160088791Y-94652073D01*
X159220958Y-95160073D02*
X159300333Y-95117740D01*
X159300333Y-95117740D02*
X159337374Y-95075406D01*
X159337374Y-95075406D02*
X159369124Y-94990740D01*
X159369124Y-94990740D02*
X159337374Y-94736740D01*
X159337374Y-94736740D02*
X159284458Y-94652073D01*
X159284458Y-94652073D02*
X159236833Y-94609740D01*
X159236833Y-94609740D02*
X159146874Y-94567406D01*
X159146874Y-94567406D02*
X159019874Y-94567406D01*
X159019874Y-94567406D02*
X158940499Y-94609740D01*
X158940499Y-94609740D02*
X158903458Y-94652073D01*
X158903458Y-94652073D02*
X158871708Y-94736740D01*
X158871708Y-94736740D02*
X158903458Y-94990740D01*
X158903458Y-94990740D02*
X158956374Y-95075406D01*
X158956374Y-95075406D02*
X159003999Y-95117740D01*
X159003999Y-95117740D02*
X159093958Y-95160073D01*
X159093958Y-95160073D02*
X159220958Y-95160073D01*
X158543625Y-95160073D02*
X158432500Y-94271073D01*
X158474833Y-94609740D02*
X158384875Y-94567406D01*
X158384875Y-94567406D02*
X158215541Y-94567406D01*
X158215541Y-94567406D02*
X158136166Y-94609740D01*
X158136166Y-94609740D02*
X158099125Y-94652073D01*
X158099125Y-94652073D02*
X158067375Y-94736740D01*
X158067375Y-94736740D02*
X158099125Y-94990740D01*
X158099125Y-94990740D02*
X158152041Y-95075406D01*
X158152041Y-95075406D02*
X158199666Y-95117740D01*
X158199666Y-95117740D02*
X158289625Y-95160073D01*
X158289625Y-95160073D02*
X158458958Y-95160073D01*
X158458958Y-95160073D02*
X158538333Y-95117740D01*
X157739292Y-95160073D02*
X157628167Y-94271073D01*
X157670500Y-94609740D02*
X157580542Y-94567406D01*
X157580542Y-94567406D02*
X157411208Y-94567406D01*
X157411208Y-94567406D02*
X157331833Y-94609740D01*
X157331833Y-94609740D02*
X157294792Y-94652073D01*
X157294792Y-94652073D02*
X157263042Y-94736740D01*
X157263042Y-94736740D02*
X157294792Y-94990740D01*
X157294792Y-94990740D02*
X157347708Y-95075406D01*
X157347708Y-95075406D02*
X157395333Y-95117740D01*
X157395333Y-95117740D02*
X157485292Y-95160073D01*
X157485292Y-95160073D02*
X157654625Y-95160073D01*
X157654625Y-95160073D02*
X157734000Y-95117740D01*
X156945542Y-94567406D02*
X156807959Y-95160073D01*
X156522209Y-94567406D02*
X156807959Y-95160073D01*
X156807959Y-95160073D02*
X156919084Y-95371740D01*
X156919084Y-95371740D02*
X156966709Y-95414073D01*
X156966709Y-95414073D02*
X157056667Y-95456406D01*
X156257626Y-95160073D02*
X156183542Y-94567406D01*
X156146501Y-94271073D02*
X156194126Y-94313406D01*
X156194126Y-94313406D02*
X156157084Y-94355740D01*
X156157084Y-94355740D02*
X156109459Y-94313406D01*
X156109459Y-94313406D02*
X156146501Y-94271073D01*
X156146501Y-94271073D02*
X156157084Y-94355740D01*
X155871334Y-95117740D02*
X155791959Y-95160073D01*
X155791959Y-95160073D02*
X155622626Y-95160073D01*
X155622626Y-95160073D02*
X155532668Y-95117740D01*
X155532668Y-95117740D02*
X155479751Y-95033073D01*
X155479751Y-95033073D02*
X155474459Y-94990740D01*
X155474459Y-94990740D02*
X155506209Y-94906073D01*
X155506209Y-94906073D02*
X155585584Y-94863740D01*
X155585584Y-94863740D02*
X155712584Y-94863740D01*
X155712584Y-94863740D02*
X155791959Y-94821406D01*
X155791959Y-94821406D02*
X155823709Y-94736740D01*
X155823709Y-94736740D02*
X155818418Y-94694406D01*
X155818418Y-94694406D02*
X155765501Y-94609740D01*
X155765501Y-94609740D02*
X155675543Y-94567406D01*
X155675543Y-94567406D02*
X155548543Y-94567406D01*
X155548543Y-94567406D02*
X155469168Y-94609740D01*
X155167542Y-94567406D02*
X154828876Y-94567406D01*
X155003501Y-94271073D02*
X155098751Y-95033073D01*
X155098751Y-95033073D02*
X155067001Y-95117740D01*
X155067001Y-95117740D02*
X154987626Y-95160073D01*
X154987626Y-95160073D02*
X154902959Y-95160073D01*
X163343166Y-96549030D02*
X163221458Y-96591363D01*
X163221458Y-96591363D02*
X163009791Y-96591363D01*
X163009791Y-96591363D02*
X162919833Y-96549030D01*
X162919833Y-96549030D02*
X162872208Y-96506696D01*
X162872208Y-96506696D02*
X162819291Y-96422030D01*
X162819291Y-96422030D02*
X162808708Y-96337363D01*
X162808708Y-96337363D02*
X162840458Y-96252696D01*
X162840458Y-96252696D02*
X162877500Y-96210363D01*
X162877500Y-96210363D02*
X162956875Y-96168030D01*
X162956875Y-96168030D02*
X163120916Y-96125696D01*
X163120916Y-96125696D02*
X163200291Y-96083363D01*
X163200291Y-96083363D02*
X163237333Y-96041030D01*
X163237333Y-96041030D02*
X163269083Y-95956363D01*
X163269083Y-95956363D02*
X163258500Y-95871696D01*
X163258500Y-95871696D02*
X163205583Y-95787030D01*
X163205583Y-95787030D02*
X163157958Y-95744696D01*
X163157958Y-95744696D02*
X163068000Y-95702363D01*
X163068000Y-95702363D02*
X162856333Y-95702363D01*
X162856333Y-95702363D02*
X162734625Y-95744696D01*
X162115499Y-96549030D02*
X162205458Y-96591363D01*
X162205458Y-96591363D02*
X162374791Y-96591363D01*
X162374791Y-96591363D02*
X162454166Y-96549030D01*
X162454166Y-96549030D02*
X162485916Y-96464363D01*
X162485916Y-96464363D02*
X162443583Y-96125696D01*
X162443583Y-96125696D02*
X162390666Y-96041030D01*
X162390666Y-96041030D02*
X162300708Y-95998696D01*
X162300708Y-95998696D02*
X162131374Y-95998696D01*
X162131374Y-95998696D02*
X162051999Y-96041030D01*
X162051999Y-96041030D02*
X162020249Y-96125696D01*
X162020249Y-96125696D02*
X162030833Y-96210363D01*
X162030833Y-96210363D02*
X162464749Y-96295030D01*
X161623374Y-95998696D02*
X161734499Y-96887696D01*
X161628666Y-96041030D02*
X161538708Y-95998696D01*
X161538708Y-95998696D02*
X161369374Y-95998696D01*
X161369374Y-95998696D02*
X161289999Y-96041030D01*
X161289999Y-96041030D02*
X161252958Y-96083363D01*
X161252958Y-96083363D02*
X161221208Y-96168030D01*
X161221208Y-96168030D02*
X161252958Y-96422030D01*
X161252958Y-96422030D02*
X161305874Y-96506696D01*
X161305874Y-96506696D02*
X161353499Y-96549030D01*
X161353499Y-96549030D02*
X161443458Y-96591363D01*
X161443458Y-96591363D02*
X161612791Y-96591363D01*
X161612791Y-96591363D02*
X161692166Y-96549030D01*
X160946041Y-95998696D02*
X160607375Y-95998696D01*
X160782000Y-95702363D02*
X160877250Y-96464363D01*
X160877250Y-96464363D02*
X160845500Y-96549030D01*
X160845500Y-96549030D02*
X160766125Y-96591363D01*
X160766125Y-96591363D02*
X160681458Y-96591363D01*
X159649583Y-95787030D02*
X159601958Y-95744696D01*
X159601958Y-95744696D02*
X159512000Y-95702363D01*
X159512000Y-95702363D02*
X159300333Y-95702363D01*
X159300333Y-95702363D02*
X159220958Y-95744696D01*
X159220958Y-95744696D02*
X159183917Y-95787030D01*
X159183917Y-95787030D02*
X159152167Y-95871696D01*
X159152167Y-95871696D02*
X159162750Y-95956363D01*
X159162750Y-95956363D02*
X159220958Y-96083363D01*
X159220958Y-96083363D02*
X159792458Y-96591363D01*
X159792458Y-96591363D02*
X159242125Y-96591363D01*
X158580666Y-95702363D02*
X158496000Y-95702363D01*
X158496000Y-95702363D02*
X158416625Y-95744696D01*
X158416625Y-95744696D02*
X158379583Y-95787030D01*
X158379583Y-95787030D02*
X158347833Y-95871696D01*
X158347833Y-95871696D02*
X158326666Y-96041030D01*
X158326666Y-96041030D02*
X158353125Y-96252696D01*
X158353125Y-96252696D02*
X158416625Y-96422030D01*
X158416625Y-96422030D02*
X158469541Y-96506696D01*
X158469541Y-96506696D02*
X158517166Y-96549030D01*
X158517166Y-96549030D02*
X158607125Y-96591363D01*
X158607125Y-96591363D02*
X158691791Y-96591363D01*
X158691791Y-96591363D02*
X158771166Y-96549030D01*
X158771166Y-96549030D02*
X158808208Y-96506696D01*
X158808208Y-96506696D02*
X158839958Y-96422030D01*
X158839958Y-96422030D02*
X158861125Y-96252696D01*
X158861125Y-96252696D02*
X158834666Y-96041030D01*
X158834666Y-96041030D02*
X158771166Y-95871696D01*
X158771166Y-95871696D02*
X158718250Y-95787030D01*
X158718250Y-95787030D02*
X158670625Y-95744696D01*
X158670625Y-95744696D02*
X158580666Y-95702363D01*
X157956249Y-95787030D02*
X157908624Y-95744696D01*
X157908624Y-95744696D02*
X157818666Y-95702363D01*
X157818666Y-95702363D02*
X157606999Y-95702363D01*
X157606999Y-95702363D02*
X157527624Y-95744696D01*
X157527624Y-95744696D02*
X157490583Y-95787030D01*
X157490583Y-95787030D02*
X157458833Y-95871696D01*
X157458833Y-95871696D02*
X157469416Y-95956363D01*
X157469416Y-95956363D02*
X157527624Y-96083363D01*
X157527624Y-96083363D02*
X158099124Y-96591363D01*
X158099124Y-96591363D02*
X157548791Y-96591363D01*
X157141332Y-95702363D02*
X156590999Y-95702363D01*
X156590999Y-95702363D02*
X156929666Y-96041030D01*
X156929666Y-96041030D02*
X156802666Y-96041030D01*
X156802666Y-96041030D02*
X156723291Y-96083363D01*
X156723291Y-96083363D02*
X156686249Y-96125696D01*
X156686249Y-96125696D02*
X156654499Y-96210363D01*
X156654499Y-96210363D02*
X156680957Y-96422030D01*
X156680957Y-96422030D02*
X156733874Y-96506696D01*
X156733874Y-96506696D02*
X156781499Y-96549030D01*
X156781499Y-96549030D02*
X156871457Y-96591363D01*
X156871457Y-96591363D02*
X157125457Y-96591363D01*
X157125457Y-96591363D02*
X157204832Y-96549030D01*
X157204832Y-96549030D02*
X157241874Y-96506696D01*
D11*
X153670000Y-92075000D02*
X166370000Y-92075000D01*
X166370000Y-97409000D01*
X153670000Y-97409000D01*
X153670000Y-92075000D01*
D13*
X164301714Y-56258718D02*
X164138428Y-56313146D01*
X164138428Y-56313146D02*
X164083999Y-56367575D01*
X164083999Y-56367575D02*
X164029571Y-56476432D01*
X164029571Y-56476432D02*
X164029571Y-56639718D01*
X164029571Y-56639718D02*
X164083999Y-56748575D01*
X164083999Y-56748575D02*
X164138428Y-56803004D01*
X164138428Y-56803004D02*
X164247285Y-56857432D01*
X164247285Y-56857432D02*
X164682714Y-56857432D01*
X164682714Y-56857432D02*
X164682714Y-55714432D01*
X164682714Y-55714432D02*
X164301714Y-55714432D01*
X164301714Y-55714432D02*
X164192857Y-55768861D01*
X164192857Y-55768861D02*
X164138428Y-55823289D01*
X164138428Y-55823289D02*
X164083999Y-55932146D01*
X164083999Y-55932146D02*
X164083999Y-56041004D01*
X164083999Y-56041004D02*
X164138428Y-56149861D01*
X164138428Y-56149861D02*
X164192857Y-56204289D01*
X164192857Y-56204289D02*
X164301714Y-56258718D01*
X164301714Y-56258718D02*
X164682714Y-56258718D01*
X163539714Y-56857432D02*
X163539714Y-56095432D01*
X163539714Y-56313146D02*
X163485285Y-56204289D01*
X163485285Y-56204289D02*
X163430857Y-56149861D01*
X163430857Y-56149861D02*
X163321999Y-56095432D01*
X163321999Y-56095432D02*
X163213142Y-56095432D01*
X162396714Y-56803004D02*
X162505571Y-56857432D01*
X162505571Y-56857432D02*
X162723286Y-56857432D01*
X162723286Y-56857432D02*
X162832143Y-56803004D01*
X162832143Y-56803004D02*
X162886571Y-56694146D01*
X162886571Y-56694146D02*
X162886571Y-56258718D01*
X162886571Y-56258718D02*
X162832143Y-56149861D01*
X162832143Y-56149861D02*
X162723286Y-56095432D01*
X162723286Y-56095432D02*
X162505571Y-56095432D01*
X162505571Y-56095432D02*
X162396714Y-56149861D01*
X162396714Y-56149861D02*
X162342286Y-56258718D01*
X162342286Y-56258718D02*
X162342286Y-56367575D01*
X162342286Y-56367575D02*
X162886571Y-56476432D01*
X161362572Y-56857432D02*
X161362572Y-56258718D01*
X161362572Y-56258718D02*
X161417000Y-56149861D01*
X161417000Y-56149861D02*
X161525857Y-56095432D01*
X161525857Y-56095432D02*
X161743572Y-56095432D01*
X161743572Y-56095432D02*
X161852429Y-56149861D01*
X161362572Y-56803004D02*
X161471429Y-56857432D01*
X161471429Y-56857432D02*
X161743572Y-56857432D01*
X161743572Y-56857432D02*
X161852429Y-56803004D01*
X161852429Y-56803004D02*
X161906857Y-56694146D01*
X161906857Y-56694146D02*
X161906857Y-56585289D01*
X161906857Y-56585289D02*
X161852429Y-56476432D01*
X161852429Y-56476432D02*
X161743572Y-56422004D01*
X161743572Y-56422004D02*
X161471429Y-56422004D01*
X161471429Y-56422004D02*
X161362572Y-56367575D01*
X160328429Y-56857432D02*
X160328429Y-55714432D01*
X160328429Y-56803004D02*
X160437286Y-56857432D01*
X160437286Y-56857432D02*
X160655000Y-56857432D01*
X160655000Y-56857432D02*
X160763857Y-56803004D01*
X160763857Y-56803004D02*
X160818286Y-56748575D01*
X160818286Y-56748575D02*
X160872714Y-56639718D01*
X160872714Y-56639718D02*
X160872714Y-56313146D01*
X160872714Y-56313146D02*
X160818286Y-56204289D01*
X160818286Y-56204289D02*
X160763857Y-56149861D01*
X160763857Y-56149861D02*
X160655000Y-56095432D01*
X160655000Y-56095432D02*
X160437286Y-56095432D01*
X160437286Y-56095432D02*
X160328429Y-56149861D01*
X159784143Y-56857432D02*
X159784143Y-55714432D01*
X159784143Y-56149861D02*
X159675286Y-56095432D01*
X159675286Y-56095432D02*
X159457571Y-56095432D01*
X159457571Y-56095432D02*
X159348714Y-56149861D01*
X159348714Y-56149861D02*
X159294286Y-56204289D01*
X159294286Y-56204289D02*
X159239857Y-56313146D01*
X159239857Y-56313146D02*
X159239857Y-56639718D01*
X159239857Y-56639718D02*
X159294286Y-56748575D01*
X159294286Y-56748575D02*
X159348714Y-56803004D01*
X159348714Y-56803004D02*
X159457571Y-56857432D01*
X159457571Y-56857432D02*
X159675286Y-56857432D01*
X159675286Y-56857432D02*
X159784143Y-56803004D01*
X158586714Y-56857432D02*
X158695571Y-56803004D01*
X158695571Y-56803004D02*
X158750000Y-56748575D01*
X158750000Y-56748575D02*
X158804428Y-56639718D01*
X158804428Y-56639718D02*
X158804428Y-56313146D01*
X158804428Y-56313146D02*
X158750000Y-56204289D01*
X158750000Y-56204289D02*
X158695571Y-56149861D01*
X158695571Y-56149861D02*
X158586714Y-56095432D01*
X158586714Y-56095432D02*
X158423428Y-56095432D01*
X158423428Y-56095432D02*
X158314571Y-56149861D01*
X158314571Y-56149861D02*
X158260143Y-56204289D01*
X158260143Y-56204289D02*
X158205714Y-56313146D01*
X158205714Y-56313146D02*
X158205714Y-56639718D01*
X158205714Y-56639718D02*
X158260143Y-56748575D01*
X158260143Y-56748575D02*
X158314571Y-56803004D01*
X158314571Y-56803004D02*
X158423428Y-56857432D01*
X158423428Y-56857432D02*
X158586714Y-56857432D01*
X157226000Y-56857432D02*
X157226000Y-56258718D01*
X157226000Y-56258718D02*
X157280428Y-56149861D01*
X157280428Y-56149861D02*
X157389285Y-56095432D01*
X157389285Y-56095432D02*
X157607000Y-56095432D01*
X157607000Y-56095432D02*
X157715857Y-56149861D01*
X157226000Y-56803004D02*
X157334857Y-56857432D01*
X157334857Y-56857432D02*
X157607000Y-56857432D01*
X157607000Y-56857432D02*
X157715857Y-56803004D01*
X157715857Y-56803004D02*
X157770285Y-56694146D01*
X157770285Y-56694146D02*
X157770285Y-56585289D01*
X157770285Y-56585289D02*
X157715857Y-56476432D01*
X157715857Y-56476432D02*
X157607000Y-56422004D01*
X157607000Y-56422004D02*
X157334857Y-56422004D01*
X157334857Y-56422004D02*
X157226000Y-56367575D01*
X156681714Y-56857432D02*
X156681714Y-56095432D01*
X156681714Y-56313146D02*
X156627285Y-56204289D01*
X156627285Y-56204289D02*
X156572857Y-56149861D01*
X156572857Y-56149861D02*
X156463999Y-56095432D01*
X156463999Y-56095432D02*
X156355142Y-56095432D01*
X155484286Y-56857432D02*
X155484286Y-55714432D01*
X155484286Y-56803004D02*
X155593143Y-56857432D01*
X155593143Y-56857432D02*
X155810857Y-56857432D01*
X155810857Y-56857432D02*
X155919714Y-56803004D01*
X155919714Y-56803004D02*
X155974143Y-56748575D01*
X155974143Y-56748575D02*
X156028571Y-56639718D01*
X156028571Y-56639718D02*
X156028571Y-56313146D01*
X156028571Y-56313146D02*
X155974143Y-56204289D01*
X155974143Y-56204289D02*
X155919714Y-56149861D01*
X155919714Y-56149861D02*
X155810857Y-56095432D01*
X155810857Y-56095432D02*
X155593143Y-56095432D01*
X155593143Y-56095432D02*
X155484286Y-56149861D01*
X164437785Y-58697662D02*
X164437785Y-57554662D01*
X164437785Y-57554662D02*
X164002356Y-57554662D01*
X164002356Y-57554662D02*
X163893499Y-57609091D01*
X163893499Y-57609091D02*
X163839070Y-57663519D01*
X163839070Y-57663519D02*
X163784642Y-57772376D01*
X163784642Y-57772376D02*
X163784642Y-57935662D01*
X163784642Y-57935662D02*
X163839070Y-58044519D01*
X163839070Y-58044519D02*
X163893499Y-58098948D01*
X163893499Y-58098948D02*
X164002356Y-58153376D01*
X164002356Y-58153376D02*
X164437785Y-58153376D01*
X163131499Y-58697662D02*
X163240356Y-58643234D01*
X163240356Y-58643234D02*
X163294785Y-58588805D01*
X163294785Y-58588805D02*
X163349213Y-58479948D01*
X163349213Y-58479948D02*
X163349213Y-58153376D01*
X163349213Y-58153376D02*
X163294785Y-58044519D01*
X163294785Y-58044519D02*
X163240356Y-57990091D01*
X163240356Y-57990091D02*
X163131499Y-57935662D01*
X163131499Y-57935662D02*
X162968213Y-57935662D01*
X162968213Y-57935662D02*
X162859356Y-57990091D01*
X162859356Y-57990091D02*
X162804928Y-58044519D01*
X162804928Y-58044519D02*
X162750499Y-58153376D01*
X162750499Y-58153376D02*
X162750499Y-58479948D01*
X162750499Y-58479948D02*
X162804928Y-58588805D01*
X162804928Y-58588805D02*
X162859356Y-58643234D01*
X162859356Y-58643234D02*
X162968213Y-58697662D01*
X162968213Y-58697662D02*
X163131499Y-58697662D01*
X162369499Y-57935662D02*
X162151785Y-58697662D01*
X162151785Y-58697662D02*
X161934070Y-58153376D01*
X161934070Y-58153376D02*
X161716356Y-58697662D01*
X161716356Y-58697662D02*
X161498642Y-57935662D01*
X160627784Y-58643234D02*
X160736641Y-58697662D01*
X160736641Y-58697662D02*
X160954356Y-58697662D01*
X160954356Y-58697662D02*
X161063213Y-58643234D01*
X161063213Y-58643234D02*
X161117641Y-58534376D01*
X161117641Y-58534376D02*
X161117641Y-58098948D01*
X161117641Y-58098948D02*
X161063213Y-57990091D01*
X161063213Y-57990091D02*
X160954356Y-57935662D01*
X160954356Y-57935662D02*
X160736641Y-57935662D01*
X160736641Y-57935662D02*
X160627784Y-57990091D01*
X160627784Y-57990091D02*
X160573356Y-58098948D01*
X160573356Y-58098948D02*
X160573356Y-58207805D01*
X160573356Y-58207805D02*
X161117641Y-58316662D01*
X160083499Y-58697662D02*
X160083499Y-57935662D01*
X160083499Y-58153376D02*
X160029070Y-58044519D01*
X160029070Y-58044519D02*
X159974642Y-57990091D01*
X159974642Y-57990091D02*
X159865784Y-57935662D01*
X159865784Y-57935662D02*
X159756927Y-57935662D01*
X157851928Y-58697662D02*
X158232928Y-58153376D01*
X158505071Y-58697662D02*
X158505071Y-57554662D01*
X158505071Y-57554662D02*
X158069642Y-57554662D01*
X158069642Y-57554662D02*
X157960785Y-57609091D01*
X157960785Y-57609091D02*
X157906356Y-57663519D01*
X157906356Y-57663519D02*
X157851928Y-57772376D01*
X157851928Y-57772376D02*
X157851928Y-57935662D01*
X157851928Y-57935662D02*
X157906356Y-58044519D01*
X157906356Y-58044519D02*
X157960785Y-58098948D01*
X157960785Y-58098948D02*
X158069642Y-58153376D01*
X158069642Y-58153376D02*
X158505071Y-58153376D01*
X156872214Y-58697662D02*
X156872214Y-58098948D01*
X156872214Y-58098948D02*
X156926642Y-57990091D01*
X156926642Y-57990091D02*
X157035499Y-57935662D01*
X157035499Y-57935662D02*
X157253214Y-57935662D01*
X157253214Y-57935662D02*
X157362071Y-57990091D01*
X156872214Y-58643234D02*
X156981071Y-58697662D01*
X156981071Y-58697662D02*
X157253214Y-58697662D01*
X157253214Y-58697662D02*
X157362071Y-58643234D01*
X157362071Y-58643234D02*
X157416499Y-58534376D01*
X157416499Y-58534376D02*
X157416499Y-58425519D01*
X157416499Y-58425519D02*
X157362071Y-58316662D01*
X157362071Y-58316662D02*
X157253214Y-58262234D01*
X157253214Y-58262234D02*
X156981071Y-58262234D01*
X156981071Y-58262234D02*
X156872214Y-58207805D01*
X156327928Y-58697662D02*
X156327928Y-57935662D01*
X156327928Y-57554662D02*
X156382356Y-57609091D01*
X156382356Y-57609091D02*
X156327928Y-57663519D01*
X156327928Y-57663519D02*
X156273499Y-57609091D01*
X156273499Y-57609091D02*
X156327928Y-57554662D01*
X156327928Y-57554662D02*
X156327928Y-57663519D01*
X155620356Y-58697662D02*
X155729213Y-58643234D01*
X155729213Y-58643234D02*
X155783642Y-58534376D01*
X155783642Y-58534376D02*
X155783642Y-57554662D01*
D12*
X153289000Y-54737000D02*
X166878000Y-54737000D01*
X166878000Y-61595000D01*
X153289000Y-61595000D01*
X153289000Y-54737000D01*
D13*
X134601857Y-56258718D02*
X134438571Y-56313146D01*
X134438571Y-56313146D02*
X134384142Y-56367575D01*
X134384142Y-56367575D02*
X134329714Y-56476432D01*
X134329714Y-56476432D02*
X134329714Y-56639718D01*
X134329714Y-56639718D02*
X134384142Y-56748575D01*
X134384142Y-56748575D02*
X134438571Y-56803004D01*
X134438571Y-56803004D02*
X134547428Y-56857432D01*
X134547428Y-56857432D02*
X134982857Y-56857432D01*
X134982857Y-56857432D02*
X134982857Y-55714432D01*
X134982857Y-55714432D02*
X134601857Y-55714432D01*
X134601857Y-55714432D02*
X134493000Y-55768861D01*
X134493000Y-55768861D02*
X134438571Y-55823289D01*
X134438571Y-55823289D02*
X134384142Y-55932146D01*
X134384142Y-55932146D02*
X134384142Y-56041004D01*
X134384142Y-56041004D02*
X134438571Y-56149861D01*
X134438571Y-56149861D02*
X134493000Y-56204289D01*
X134493000Y-56204289D02*
X134601857Y-56258718D01*
X134601857Y-56258718D02*
X134982857Y-56258718D01*
X133458857Y-56258718D02*
X133295571Y-56313146D01*
X133295571Y-56313146D02*
X133241142Y-56367575D01*
X133241142Y-56367575D02*
X133186714Y-56476432D01*
X133186714Y-56476432D02*
X133186714Y-56639718D01*
X133186714Y-56639718D02*
X133241142Y-56748575D01*
X133241142Y-56748575D02*
X133295571Y-56803004D01*
X133295571Y-56803004D02*
X133404428Y-56857432D01*
X133404428Y-56857432D02*
X133839857Y-56857432D01*
X133839857Y-56857432D02*
X133839857Y-55714432D01*
X133839857Y-55714432D02*
X133458857Y-55714432D01*
X133458857Y-55714432D02*
X133350000Y-55768861D01*
X133350000Y-55768861D02*
X133295571Y-55823289D01*
X133295571Y-55823289D02*
X133241142Y-55932146D01*
X133241142Y-55932146D02*
X133241142Y-56041004D01*
X133241142Y-56041004D02*
X133295571Y-56149861D01*
X133295571Y-56149861D02*
X133350000Y-56204289D01*
X133350000Y-56204289D02*
X133458857Y-56258718D01*
X133458857Y-56258718D02*
X133839857Y-56258718D01*
X134982857Y-58697662D02*
X135363857Y-58153376D01*
X135636000Y-58697662D02*
X135636000Y-57554662D01*
X135636000Y-57554662D02*
X135200571Y-57554662D01*
X135200571Y-57554662D02*
X135091714Y-57609091D01*
X135091714Y-57609091D02*
X135037285Y-57663519D01*
X135037285Y-57663519D02*
X134982857Y-57772376D01*
X134982857Y-57772376D02*
X134982857Y-57935662D01*
X134982857Y-57935662D02*
X135037285Y-58044519D01*
X135037285Y-58044519D02*
X135091714Y-58098948D01*
X135091714Y-58098948D02*
X135200571Y-58153376D01*
X135200571Y-58153376D02*
X135636000Y-58153376D01*
X134547428Y-58371091D02*
X134003143Y-58371091D01*
X134656285Y-58697662D02*
X134275285Y-57554662D01*
X134275285Y-57554662D02*
X133894285Y-58697662D01*
X133513286Y-58697662D02*
X133513286Y-57554662D01*
X132424714Y-58697662D02*
X132969000Y-58697662D01*
X132969000Y-58697662D02*
X132969000Y-57554662D01*
D12*
X131064000Y-54737000D02*
X137160000Y-54737000D01*
X137160000Y-61722000D01*
X131064000Y-61722000D01*
X131064000Y-54737000D01*
D14*
X131594829Y-119172097D02*
X131654753Y-119194355D01*
X131679673Y-119211080D01*
X131704910Y-119235043D01*
X131722912Y-119265526D01*
X131734858Y-119307023D01*
X131741930Y-119364032D01*
X131745308Y-119441047D01*
X131746171Y-119542565D01*
X131746002Y-119595027D01*
X131745153Y-119666715D01*
X131743711Y-119723925D01*
X131741814Y-119761809D01*
X131739597Y-119775514D01*
X131725172Y-119770981D01*
X131696054Y-119758670D01*
X131695181Y-119758272D01*
X131680060Y-119750356D01*
X131669891Y-119739495D01*
X131663691Y-119720471D01*
X131660478Y-119688069D01*
X131659270Y-119637071D01*
X131659086Y-119562261D01*
X131658714Y-119514804D01*
X131654750Y-119425615D01*
X131645673Y-119360287D01*
X131630524Y-119315393D01*
X131608345Y-119287507D01*
X131578175Y-119273203D01*
X131573990Y-119272206D01*
X131517480Y-119271427D01*
X131473410Y-119296744D01*
X131442972Y-119347502D01*
X131437544Y-119362175D01*
X131425171Y-119394649D01*
X131418905Y-119409572D01*
X131406036Y-119407516D01*
X131377933Y-119396357D01*
X131351721Y-119377927D01*
X131339771Y-119343098D01*
X131343336Y-119318151D01*
X131365235Y-119267547D01*
X131400644Y-119220128D01*
X131442052Y-119187334D01*
X131459400Y-119179752D01*
X131525089Y-119167076D01*
X131594829Y-119172097D01*
G36*
X131594829Y-119172097D02*
G01*
X131654753Y-119194355D01*
X131679673Y-119211080D01*
X131704910Y-119235043D01*
X131722912Y-119265526D01*
X131734858Y-119307023D01*
X131741930Y-119364032D01*
X131745308Y-119441047D01*
X131746171Y-119542565D01*
X131746002Y-119595027D01*
X131745153Y-119666715D01*
X131743711Y-119723925D01*
X131741814Y-119761809D01*
X131739597Y-119775514D01*
X131725172Y-119770981D01*
X131696054Y-119758670D01*
X131695181Y-119758272D01*
X131680060Y-119750356D01*
X131669891Y-119739495D01*
X131663691Y-119720471D01*
X131660478Y-119688069D01*
X131659270Y-119637071D01*
X131659086Y-119562261D01*
X131658714Y-119514804D01*
X131654750Y-119425615D01*
X131645673Y-119360287D01*
X131630524Y-119315393D01*
X131608345Y-119287507D01*
X131578175Y-119273203D01*
X131573990Y-119272206D01*
X131517480Y-119271427D01*
X131473410Y-119296744D01*
X131442972Y-119347502D01*
X131437544Y-119362175D01*
X131425171Y-119394649D01*
X131418905Y-119409572D01*
X131406036Y-119407516D01*
X131377933Y-119396357D01*
X131351721Y-119377927D01*
X131339771Y-119343098D01*
X131343336Y-119318151D01*
X131365235Y-119267547D01*
X131400644Y-119220128D01*
X131442052Y-119187334D01*
X131459400Y-119179752D01*
X131525089Y-119167076D01*
X131594829Y-119172097D01*
G37*
X135543020Y-119138822D02*
X135610810Y-119170680D01*
X135666366Y-119225770D01*
X135677881Y-119243016D01*
X135687432Y-119262562D01*
X135694206Y-119287198D01*
X135698819Y-119321711D01*
X135701888Y-119370889D01*
X135704029Y-119439519D01*
X135705859Y-119532389D01*
X135710404Y-119790007D01*
X135672225Y-119775491D01*
X135637268Y-119762156D01*
X135611097Y-119749323D01*
X135594013Y-119732780D01*
X135584086Y-119707465D01*
X135579386Y-119668316D01*
X135577982Y-119610268D01*
X135577943Y-119528261D01*
X135577744Y-119462895D01*
X135576559Y-119400173D01*
X135573729Y-119357334D01*
X135568609Y-119329220D01*
X135560553Y-119310675D01*
X135548914Y-119296543D01*
X135520303Y-119276600D01*
X135472239Y-119269083D01*
X135424688Y-119288079D01*
X135421550Y-119290511D01*
X135411769Y-119301748D01*
X135404553Y-119319770D01*
X135399299Y-119349026D01*
X135395402Y-119393962D01*
X135392256Y-119459028D01*
X135389257Y-119548670D01*
X135382000Y-119788697D01*
X135320314Y-119761044D01*
X135258629Y-119733391D01*
X135258629Y-119514246D01*
X135258884Y-119454711D01*
X135261086Y-119371892D01*
X135266661Y-119310227D01*
X135276941Y-119264748D01*
X135293258Y-119230484D01*
X135316943Y-119202466D01*
X135349328Y-119175723D01*
X135395907Y-119148780D01*
X135469287Y-119131191D01*
X135543020Y-119138822D01*
G36*
X135543020Y-119138822D02*
G01*
X135610810Y-119170680D01*
X135666366Y-119225770D01*
X135677881Y-119243016D01*
X135687432Y-119262562D01*
X135694206Y-119287198D01*
X135698819Y-119321711D01*
X135701888Y-119370889D01*
X135704029Y-119439519D01*
X135705859Y-119532389D01*
X135710404Y-119790007D01*
X135672225Y-119775491D01*
X135637268Y-119762156D01*
X135611097Y-119749323D01*
X135594013Y-119732780D01*
X135584086Y-119707465D01*
X135579386Y-119668316D01*
X135577982Y-119610268D01*
X135577943Y-119528261D01*
X135577744Y-119462895D01*
X135576559Y-119400173D01*
X135573729Y-119357334D01*
X135568609Y-119329220D01*
X135560553Y-119310675D01*
X135548914Y-119296543D01*
X135520303Y-119276600D01*
X135472239Y-119269083D01*
X135424688Y-119288079D01*
X135421550Y-119290511D01*
X135411769Y-119301748D01*
X135404553Y-119319770D01*
X135399299Y-119349026D01*
X135395402Y-119393962D01*
X135392256Y-119459028D01*
X135389257Y-119548670D01*
X135382000Y-119788697D01*
X135320314Y-119761044D01*
X135258629Y-119733391D01*
X135258629Y-119514246D01*
X135258884Y-119454711D01*
X135261086Y-119371892D01*
X135266661Y-119310227D01*
X135276941Y-119264748D01*
X135293258Y-119230484D01*
X135316943Y-119202466D01*
X135349328Y-119175723D01*
X135395907Y-119148780D01*
X135469287Y-119131191D01*
X135543020Y-119138822D01*
G37*
X133719691Y-119187467D02*
X133724273Y-119190003D01*
X133761704Y-119219057D01*
X133795170Y-119256410D01*
X133801007Y-119264852D01*
X133812165Y-119284553D01*
X133820136Y-119307935D01*
X133825618Y-119340067D01*
X133829307Y-119386019D01*
X133831899Y-119450859D01*
X133834092Y-119539657D01*
X133834402Y-119554669D01*
X133835400Y-119651999D01*
X133833994Y-119720934D01*
X133830164Y-119761948D01*
X133823889Y-119775514D01*
X133804898Y-119771452D01*
X133772638Y-119759144D01*
X133765041Y-119755545D01*
X133753176Y-119747398D01*
X133744994Y-119734004D01*
X133739643Y-119710608D01*
X133736269Y-119672455D01*
X133734019Y-119614790D01*
X133732040Y-119532857D01*
X133731498Y-119508907D01*
X133729403Y-119433266D01*
X133726683Y-119380328D01*
X133722515Y-119345075D01*
X133716079Y-119322487D01*
X133706550Y-119307544D01*
X133693106Y-119295227D01*
X133653305Y-119273634D01*
X133604341Y-119269476D01*
X133560529Y-119285999D01*
X133529008Y-119320210D01*
X133516914Y-119369114D01*
X133516578Y-119382407D01*
X133509972Y-119406472D01*
X133490470Y-119410144D01*
X133452283Y-119395813D01*
X133443438Y-119391217D01*
X133419534Y-119364186D01*
X133419061Y-119323994D01*
X133441836Y-119268409D01*
X133462727Y-119238117D01*
X133516142Y-119195084D01*
X133582074Y-119170755D01*
X133652574Y-119167443D01*
X133719691Y-119187467D01*
G36*
X133719691Y-119187467D02*
G01*
X133724273Y-119190003D01*
X133761704Y-119219057D01*
X133795170Y-119256410D01*
X133801007Y-119264852D01*
X133812165Y-119284553D01*
X133820136Y-119307935D01*
X133825618Y-119340067D01*
X133829307Y-119386019D01*
X133831899Y-119450859D01*
X133834092Y-119539657D01*
X133834402Y-119554669D01*
X133835400Y-119651999D01*
X133833994Y-119720934D01*
X133830164Y-119761948D01*
X133823889Y-119775514D01*
X133804898Y-119771452D01*
X133772638Y-119759144D01*
X133765041Y-119755545D01*
X133753176Y-119747398D01*
X133744994Y-119734004D01*
X133739643Y-119710608D01*
X133736269Y-119672455D01*
X133734019Y-119614790D01*
X133732040Y-119532857D01*
X133731498Y-119508907D01*
X133729403Y-119433266D01*
X133726683Y-119380328D01*
X133722515Y-119345075D01*
X133716079Y-119322487D01*
X133706550Y-119307544D01*
X133693106Y-119295227D01*
X133653305Y-119273634D01*
X133604341Y-119269476D01*
X133560529Y-119285999D01*
X133529008Y-119320210D01*
X133516914Y-119369114D01*
X133516578Y-119382407D01*
X133509972Y-119406472D01*
X133490470Y-119410144D01*
X133452283Y-119395813D01*
X133443438Y-119391217D01*
X133419534Y-119364186D01*
X133419061Y-119323994D01*
X133441836Y-119268409D01*
X133462727Y-119238117D01*
X133516142Y-119195084D01*
X133582074Y-119170755D01*
X133652574Y-119167443D01*
X133719691Y-119187467D01*
G37*
X134790543Y-118970444D02*
X134837714Y-118990342D01*
X134837714Y-119387509D01*
X134837519Y-119490498D01*
X134836998Y-119583141D01*
X134836199Y-119661700D01*
X134835172Y-119722439D01*
X134833963Y-119761623D01*
X134832623Y-119775514D01*
X134832099Y-119775468D01*
X134814287Y-119770420D01*
X134781823Y-119759580D01*
X134736114Y-119743646D01*
X134736114Y-119539173D01*
X134735824Y-119458832D01*
X134734474Y-119400562D01*
X134731369Y-119360909D01*
X134725812Y-119334618D01*
X134717107Y-119316436D01*
X134704556Y-119301107D01*
X134695999Y-119292955D01*
X134649728Y-119270375D01*
X134598728Y-119272375D01*
X134551993Y-119299073D01*
X134545189Y-119305698D01*
X134534293Y-119319456D01*
X134526836Y-119337642D01*
X134522169Y-119365177D01*
X134519642Y-119406981D01*
X134518602Y-119467973D01*
X134518400Y-119553073D01*
X134518303Y-119596234D01*
X134517674Y-119667224D01*
X134516556Y-119724076D01*
X134515063Y-119761828D01*
X134513309Y-119775514D01*
X134512785Y-119775468D01*
X134494973Y-119770420D01*
X134462509Y-119759580D01*
X134416800Y-119743646D01*
X134416823Y-119538237D01*
X134416857Y-119519951D01*
X134418778Y-119424626D01*
X134424678Y-119352543D01*
X134436001Y-119298813D01*
X134454187Y-119258549D01*
X134480679Y-119226861D01*
X134516918Y-119198861D01*
X134552263Y-119181333D01*
X134608773Y-119167785D01*
X134664356Y-119167015D01*
X134707086Y-119180195D01*
X134710298Y-119182015D01*
X134720205Y-119181820D01*
X134726975Y-119166572D01*
X134731861Y-119131613D01*
X134736114Y-119072289D01*
X134743371Y-118950547D01*
X134790543Y-118970444D01*
G36*
X134790543Y-118970444D02*
G01*
X134837714Y-118990342D01*
X134837714Y-119387509D01*
X134837519Y-119490498D01*
X134836998Y-119583141D01*
X134836199Y-119661700D01*
X134835172Y-119722439D01*
X134833963Y-119761623D01*
X134832623Y-119775514D01*
X134832099Y-119775468D01*
X134814287Y-119770420D01*
X134781823Y-119759580D01*
X134736114Y-119743646D01*
X134736114Y-119539173D01*
X134735824Y-119458832D01*
X134734474Y-119400562D01*
X134731369Y-119360909D01*
X134725812Y-119334618D01*
X134717107Y-119316436D01*
X134704556Y-119301107D01*
X134695999Y-119292955D01*
X134649728Y-119270375D01*
X134598728Y-119272375D01*
X134551993Y-119299073D01*
X134545189Y-119305698D01*
X134534293Y-119319456D01*
X134526836Y-119337642D01*
X134522169Y-119365177D01*
X134519642Y-119406981D01*
X134518602Y-119467973D01*
X134518400Y-119553073D01*
X134518303Y-119596234D01*
X134517674Y-119667224D01*
X134516556Y-119724076D01*
X134515063Y-119761828D01*
X134513309Y-119775514D01*
X134512785Y-119775468D01*
X134494973Y-119770420D01*
X134462509Y-119759580D01*
X134416800Y-119743646D01*
X134416823Y-119538237D01*
X134416857Y-119519951D01*
X134418778Y-119424626D01*
X134424678Y-119352543D01*
X134436001Y-119298813D01*
X134454187Y-119258549D01*
X134480679Y-119226861D01*
X134516918Y-119198861D01*
X134552263Y-119181333D01*
X134608773Y-119167785D01*
X134664356Y-119167015D01*
X134707086Y-119180195D01*
X134710298Y-119182015D01*
X134720205Y-119181820D01*
X134726975Y-119166572D01*
X134731861Y-119131613D01*
X134736114Y-119072289D01*
X134743371Y-118950547D01*
X134790543Y-118970444D01*
G37*
X132765941Y-119170282D02*
X132797774Y-119182758D01*
X132834743Y-119199602D01*
X132834743Y-119686196D01*
X132788812Y-119732127D01*
X132778320Y-119742427D01*
X132749255Y-119765320D01*
X132719943Y-119772735D01*
X132676326Y-119769321D01*
X132658568Y-119767114D01*
X132612767Y-119762445D01*
X132580743Y-119760585D01*
X132571244Y-119760869D01*
X132532274Y-119763948D01*
X132485160Y-119769321D01*
X132470085Y-119771168D01*
X132432110Y-119771893D01*
X132404325Y-119760429D01*
X132372674Y-119732127D01*
X132326743Y-119686196D01*
X132326743Y-119426055D01*
X132327101Y-119349180D01*
X132328216Y-119275886D01*
X132329952Y-119217850D01*
X132332167Y-119179663D01*
X132334721Y-119165914D01*
X132335256Y-119165951D01*
X132353808Y-119172793D01*
X132385153Y-119187868D01*
X132427608Y-119209822D01*
X132431604Y-119438240D01*
X132435600Y-119666657D01*
X132522686Y-119666657D01*
X132526657Y-119416286D01*
X132527916Y-119348227D01*
X132529718Y-119275482D01*
X132531671Y-119217730D01*
X132533612Y-119179648D01*
X132535377Y-119165914D01*
X132535885Y-119165962D01*
X132553482Y-119171015D01*
X132585834Y-119181849D01*
X132631543Y-119197783D01*
X132631765Y-119417706D01*
X132631988Y-119455909D01*
X132633531Y-119530146D01*
X132636292Y-119592145D01*
X132639977Y-119636308D01*
X132644292Y-119657041D01*
X132659732Y-119668131D01*
X132691241Y-119671556D01*
X132725886Y-119666657D01*
X132729857Y-119416286D01*
X132731278Y-119352663D01*
X132734225Y-119277356D01*
X132738079Y-119218286D01*
X132742542Y-119179718D01*
X132747317Y-119165914D01*
X132765941Y-119170282D01*
G36*
X132765941Y-119170282D02*
G01*
X132797774Y-119182758D01*
X132834743Y-119199602D01*
X132834743Y-119686196D01*
X132788812Y-119732127D01*
X132778320Y-119742427D01*
X132749255Y-119765320D01*
X132719943Y-119772735D01*
X132676326Y-119769321D01*
X132658568Y-119767114D01*
X132612767Y-119762445D01*
X132580743Y-119760585D01*
X132571244Y-119760869D01*
X132532274Y-119763948D01*
X132485160Y-119769321D01*
X132470085Y-119771168D01*
X132432110Y-119771893D01*
X132404325Y-119760429D01*
X132372674Y-119732127D01*
X132326743Y-119686196D01*
X132326743Y-119426055D01*
X132327101Y-119349180D01*
X132328216Y-119275886D01*
X132329952Y-119217850D01*
X132332167Y-119179663D01*
X132334721Y-119165914D01*
X132335256Y-119165951D01*
X132353808Y-119172793D01*
X132385153Y-119187868D01*
X132427608Y-119209822D01*
X132431604Y-119438240D01*
X132435600Y-119666657D01*
X132522686Y-119666657D01*
X132526657Y-119416286D01*
X132527916Y-119348227D01*
X132529718Y-119275482D01*
X132531671Y-119217730D01*
X132533612Y-119179648D01*
X132535377Y-119165914D01*
X132535885Y-119165962D01*
X132553482Y-119171015D01*
X132585834Y-119181849D01*
X132631543Y-119197783D01*
X132631765Y-119417706D01*
X132631988Y-119455909D01*
X132633531Y-119530146D01*
X132636292Y-119592145D01*
X132639977Y-119636308D01*
X132644292Y-119657041D01*
X132659732Y-119668131D01*
X132691241Y-119671556D01*
X132725886Y-119666657D01*
X132729857Y-119416286D01*
X132731278Y-119352663D01*
X132734225Y-119277356D01*
X132738079Y-119218286D01*
X132742542Y-119179718D01*
X132747317Y-119165914D01*
X132765941Y-119170282D01*
G37*
X137377714Y-119456200D02*
X137377701Y-119471935D01*
X137376914Y-119542119D01*
X137374210Y-119591022D01*
X137368606Y-119625178D01*
X137359119Y-119651124D01*
X137344768Y-119675397D01*
X137341237Y-119680433D01*
X137303878Y-119720143D01*
X137261311Y-119750092D01*
X137239452Y-119759810D01*
X137160908Y-119776020D01*
X137083231Y-119765535D01*
X137011645Y-119729707D01*
X136951374Y-119669887D01*
X136946286Y-119661873D01*
X136929730Y-119615342D01*
X136918573Y-119550552D01*
X136913160Y-119475727D01*
X136913768Y-119406513D01*
X137060248Y-119406513D01*
X137061402Y-119502399D01*
X137061866Y-119508569D01*
X137068629Y-119561478D01*
X137080671Y-119595029D01*
X137101005Y-119618016D01*
X137135097Y-119639548D01*
X137168814Y-119640680D01*
X137203543Y-119615857D01*
X137209584Y-119609325D01*
X137221417Y-119589779D01*
X137228404Y-119561386D01*
X137231727Y-119517430D01*
X137232571Y-119451192D01*
X137231125Y-119389150D01*
X137223907Y-119330042D01*
X137209006Y-119292686D01*
X137184636Y-119273152D01*
X137149008Y-119267514D01*
X137135440Y-119268635D01*
X137097430Y-119289194D01*
X137072312Y-119335299D01*
X137060248Y-119406513D01*
X136913768Y-119406513D01*
X136913833Y-119399096D01*
X136920937Y-119328882D01*
X136934815Y-119273312D01*
X136952649Y-119236301D01*
X137002855Y-119178733D01*
X137070885Y-119142962D01*
X137154158Y-119130665D01*
X137176398Y-119131331D01*
X137241891Y-119144947D01*
X137295687Y-119179249D01*
X137345057Y-119238338D01*
X137347995Y-119242722D01*
X137361287Y-119266299D01*
X137369932Y-119292949D01*
X137374904Y-119329159D01*
X137377174Y-119381413D01*
X137377678Y-119451192D01*
X137377714Y-119456200D01*
G36*
X137377714Y-119456200D02*
G01*
X137377701Y-119471935D01*
X137376914Y-119542119D01*
X137374210Y-119591022D01*
X137368606Y-119625178D01*
X137359119Y-119651124D01*
X137344768Y-119675397D01*
X137341237Y-119680433D01*
X137303878Y-119720143D01*
X137261311Y-119750092D01*
X137239452Y-119759810D01*
X137160908Y-119776020D01*
X137083231Y-119765535D01*
X137011645Y-119729707D01*
X136951374Y-119669887D01*
X136946286Y-119661873D01*
X136929730Y-119615342D01*
X136918573Y-119550552D01*
X136913160Y-119475727D01*
X136913768Y-119406513D01*
X137060248Y-119406513D01*
X137061402Y-119502399D01*
X137061866Y-119508569D01*
X137068629Y-119561478D01*
X137080671Y-119595029D01*
X137101005Y-119618016D01*
X137135097Y-119639548D01*
X137168814Y-119640680D01*
X137203543Y-119615857D01*
X137209584Y-119609325D01*
X137221417Y-119589779D01*
X137228404Y-119561386D01*
X137231727Y-119517430D01*
X137232571Y-119451192D01*
X137231125Y-119389150D01*
X137223907Y-119330042D01*
X137209006Y-119292686D01*
X137184636Y-119273152D01*
X137149008Y-119267514D01*
X137135440Y-119268635D01*
X137097430Y-119289194D01*
X137072312Y-119335299D01*
X137060248Y-119406513D01*
X136913768Y-119406513D01*
X136913833Y-119399096D01*
X136920937Y-119328882D01*
X136934815Y-119273312D01*
X136952649Y-119236301D01*
X137002855Y-119178733D01*
X137070885Y-119142962D01*
X137154158Y-119130665D01*
X137176398Y-119131331D01*
X137241891Y-119144947D01*
X137295687Y-119179249D01*
X137345057Y-119238338D01*
X137347995Y-119242722D01*
X137361287Y-119266299D01*
X137369932Y-119292949D01*
X137374904Y-119329159D01*
X137377174Y-119381413D01*
X137377678Y-119451192D01*
X137377714Y-119456200D01*
G37*
X131252590Y-119473622D02*
X131252307Y-119512305D01*
X131248762Y-119588521D01*
X131239483Y-119644294D01*
X131222375Y-119685613D01*
X131195344Y-119718467D01*
X131156292Y-119748846D01*
X131131445Y-119762660D01*
X131091615Y-119771965D01*
X131035665Y-119771230D01*
X131004385Y-119768283D01*
X130966653Y-119759283D01*
X130936494Y-119739720D01*
X130901408Y-119703267D01*
X130896720Y-119697943D01*
X130865177Y-119656969D01*
X130850128Y-119621283D01*
X130846286Y-119578966D01*
X130846286Y-119516779D01*
X130889742Y-119533182D01*
X130921424Y-119552356D01*
X130948962Y-119597347D01*
X130954711Y-119611752D01*
X130986855Y-119652546D01*
X131030611Y-119673081D01*
X131078254Y-119671235D01*
X131122057Y-119644886D01*
X131137111Y-119628455D01*
X131150763Y-119603667D01*
X131146493Y-119581144D01*
X131121916Y-119557964D01*
X131074651Y-119531202D01*
X131002314Y-119497934D01*
X130853543Y-119432816D01*
X130849595Y-119368308D01*
X130851079Y-119327220D01*
X130948010Y-119327220D01*
X130955368Y-119352657D01*
X130988848Y-119379814D01*
X131049614Y-119410714D01*
X131059669Y-119415190D01*
X131107751Y-119436017D01*
X131143726Y-119450665D01*
X131160444Y-119456200D01*
X131162977Y-119452126D01*
X131163993Y-119427247D01*
X131160369Y-119387257D01*
X131151242Y-119348152D01*
X131122773Y-119298884D01*
X131081678Y-119271122D01*
X131032590Y-119267364D01*
X130980144Y-119290109D01*
X130965609Y-119301481D01*
X130948010Y-119327220D01*
X130851079Y-119327220D01*
X130851338Y-119320064D01*
X130873281Y-119259096D01*
X130900979Y-119225497D01*
X130958405Y-119187966D01*
X131026527Y-119169006D01*
X131096947Y-119170507D01*
X131161267Y-119194355D01*
X131175426Y-119203513D01*
X131207904Y-119231849D01*
X131230116Y-119267695D01*
X131243804Y-119316384D01*
X131250715Y-119383249D01*
X131251628Y-119427247D01*
X131252590Y-119473622D01*
G36*
X131252590Y-119473622D02*
G01*
X131252307Y-119512305D01*
X131248762Y-119588521D01*
X131239483Y-119644294D01*
X131222375Y-119685613D01*
X131195344Y-119718467D01*
X131156292Y-119748846D01*
X131131445Y-119762660D01*
X131091615Y-119771965D01*
X131035665Y-119771230D01*
X131004385Y-119768283D01*
X130966653Y-119759283D01*
X130936494Y-119739720D01*
X130901408Y-119703267D01*
X130896720Y-119697943D01*
X130865177Y-119656969D01*
X130850128Y-119621283D01*
X130846286Y-119578966D01*
X130846286Y-119516779D01*
X130889742Y-119533182D01*
X130921424Y-119552356D01*
X130948962Y-119597347D01*
X130954711Y-119611752D01*
X130986855Y-119652546D01*
X131030611Y-119673081D01*
X131078254Y-119671235D01*
X131122057Y-119644886D01*
X131137111Y-119628455D01*
X131150763Y-119603667D01*
X131146493Y-119581144D01*
X131121916Y-119557964D01*
X131074651Y-119531202D01*
X131002314Y-119497934D01*
X130853543Y-119432816D01*
X130849595Y-119368308D01*
X130851079Y-119327220D01*
X130948010Y-119327220D01*
X130955368Y-119352657D01*
X130988848Y-119379814D01*
X131049614Y-119410714D01*
X131059669Y-119415190D01*
X131107751Y-119436017D01*
X131143726Y-119450665D01*
X131160444Y-119456200D01*
X131162977Y-119452126D01*
X131163993Y-119427247D01*
X131160369Y-119387257D01*
X131151242Y-119348152D01*
X131122773Y-119298884D01*
X131081678Y-119271122D01*
X131032590Y-119267364D01*
X130980144Y-119290109D01*
X130965609Y-119301481D01*
X130948010Y-119327220D01*
X130851079Y-119327220D01*
X130851338Y-119320064D01*
X130873281Y-119259096D01*
X130900979Y-119225497D01*
X130958405Y-119187966D01*
X131026527Y-119169006D01*
X131096947Y-119170507D01*
X131161267Y-119194355D01*
X131175426Y-119203513D01*
X131207904Y-119231849D01*
X131230116Y-119267695D01*
X131243804Y-119316384D01*
X131250715Y-119383249D01*
X131251628Y-119427247D01*
X131252590Y-119473622D01*
G37*
X133342698Y-119470714D02*
X133341537Y-119527313D01*
X133333345Y-119604462D01*
X133315519Y-119662276D01*
X133285975Y-119706422D01*
X133242625Y-119742568D01*
X133201332Y-119763463D01*
X133131987Y-119775090D01*
X133062736Y-119762377D01*
X133000145Y-119726945D01*
X132950779Y-119670418D01*
X132944818Y-119659995D01*
X132936945Y-119641733D01*
X132931106Y-119618429D01*
X132926999Y-119586085D01*
X132924325Y-119540704D01*
X132922781Y-119478287D01*
X132922734Y-119472748D01*
X133023429Y-119472748D01*
X133023772Y-119525577D01*
X133025942Y-119573362D01*
X133031307Y-119604209D01*
X133041217Y-119624935D01*
X133057021Y-119642356D01*
X133060724Y-119645705D01*
X133108299Y-119670419D01*
X133158635Y-119667890D01*
X133205517Y-119638288D01*
X133219477Y-119622953D01*
X133231160Y-119602622D01*
X133237686Y-119574514D01*
X133240524Y-119531550D01*
X133241143Y-119466647D01*
X133240837Y-119417122D01*
X133238722Y-119368782D01*
X133233390Y-119337587D01*
X133223460Y-119316647D01*
X133207550Y-119299073D01*
X133198204Y-119291159D01*
X133149776Y-119269843D01*
X133099040Y-119273198D01*
X133054987Y-119301107D01*
X133045504Y-119312173D01*
X133033939Y-119333009D01*
X133027252Y-119362106D01*
X133024173Y-119406381D01*
X133023429Y-119472748D01*
X132922734Y-119472748D01*
X132922067Y-119394837D01*
X132921883Y-119286358D01*
X132921829Y-118949601D01*
X132969000Y-118969362D01*
X132981472Y-118974770D01*
X133001324Y-118986985D01*
X133012687Y-119005482D01*
X133018933Y-119037829D01*
X133023429Y-119091593D01*
X133027535Y-119139866D01*
X133032963Y-119171557D01*
X133040739Y-119183383D01*
X133052457Y-119180212D01*
X133082318Y-119169067D01*
X133135684Y-119166304D01*
X133193093Y-119176625D01*
X133242625Y-119198861D01*
X133269876Y-119219443D01*
X133304865Y-119259600D01*
X133327274Y-119311086D01*
X133339190Y-119379568D01*
X133342542Y-119466647D01*
X133342698Y-119470714D01*
G36*
X133342698Y-119470714D02*
G01*
X133341537Y-119527313D01*
X133333345Y-119604462D01*
X133315519Y-119662276D01*
X133285975Y-119706422D01*
X133242625Y-119742568D01*
X133201332Y-119763463D01*
X133131987Y-119775090D01*
X133062736Y-119762377D01*
X133000145Y-119726945D01*
X132950779Y-119670418D01*
X132944818Y-119659995D01*
X132936945Y-119641733D01*
X132931106Y-119618429D01*
X132926999Y-119586085D01*
X132924325Y-119540704D01*
X132922781Y-119478287D01*
X132922734Y-119472748D01*
X133023429Y-119472748D01*
X133023772Y-119525577D01*
X133025942Y-119573362D01*
X133031307Y-119604209D01*
X133041217Y-119624935D01*
X133057021Y-119642356D01*
X133060724Y-119645705D01*
X133108299Y-119670419D01*
X133158635Y-119667890D01*
X133205517Y-119638288D01*
X133219477Y-119622953D01*
X133231160Y-119602622D01*
X133237686Y-119574514D01*
X133240524Y-119531550D01*
X133241143Y-119466647D01*
X133240837Y-119417122D01*
X133238722Y-119368782D01*
X133233390Y-119337587D01*
X133223460Y-119316647D01*
X133207550Y-119299073D01*
X133198204Y-119291159D01*
X133149776Y-119269843D01*
X133099040Y-119273198D01*
X133054987Y-119301107D01*
X133045504Y-119312173D01*
X133033939Y-119333009D01*
X133027252Y-119362106D01*
X133024173Y-119406381D01*
X133023429Y-119472748D01*
X132922734Y-119472748D01*
X132922067Y-119394837D01*
X132921883Y-119286358D01*
X132921829Y-118949601D01*
X132969000Y-118969362D01*
X132981472Y-118974770D01*
X133001324Y-118986985D01*
X133012687Y-119005482D01*
X133018933Y-119037829D01*
X133023429Y-119091593D01*
X133027535Y-119139866D01*
X133032963Y-119171557D01*
X133040739Y-119183383D01*
X133052457Y-119180212D01*
X133082318Y-119169067D01*
X133135684Y-119166304D01*
X133193093Y-119176625D01*
X133242625Y-119198861D01*
X133269876Y-119219443D01*
X133304865Y-119259600D01*
X133327274Y-119311086D01*
X133339190Y-119379568D01*
X133342542Y-119466647D01*
X133342698Y-119470714D01*
G37*
X136274299Y-119415055D02*
X136269684Y-119525078D01*
X136267078Y-119548387D01*
X136247660Y-119631352D01*
X136212573Y-119694448D01*
X136159212Y-119742808D01*
X136156196Y-119744804D01*
X136088362Y-119773185D01*
X136017535Y-119775711D01*
X135949289Y-119754097D01*
X135889196Y-119710062D01*
X135842829Y-119645322D01*
X135842050Y-119643761D01*
X135826643Y-119603558D01*
X135815357Y-119557866D01*
X135809370Y-119514972D01*
X135809861Y-119483160D01*
X135818007Y-119470714D01*
X135825244Y-119471471D01*
X135859851Y-119485235D01*
X135899078Y-119510546D01*
X135932448Y-119539845D01*
X135949483Y-119565572D01*
X135967192Y-119600471D01*
X136003485Y-119632212D01*
X136045630Y-119644886D01*
X136061077Y-119641221D01*
X136091569Y-119622774D01*
X136118128Y-119597166D01*
X136129486Y-119573934D01*
X136129482Y-119573848D01*
X136116596Y-119563179D01*
X136082241Y-119543933D01*
X136031593Y-119518813D01*
X135969829Y-119490524D01*
X135969489Y-119490374D01*
X135902388Y-119460498D01*
X135857411Y-119438973D01*
X135830145Y-119422437D01*
X135816178Y-119407531D01*
X135811097Y-119390893D01*
X135810490Y-119369162D01*
X135814712Y-119328013D01*
X135958000Y-119328013D01*
X135972791Y-119340949D01*
X136009644Y-119360333D01*
X136010725Y-119360881D01*
X136054205Y-119381587D01*
X136093102Y-119398105D01*
X136117778Y-119405093D01*
X136127676Y-119395753D01*
X136129486Y-119363748D01*
X136121966Y-119323915D01*
X136095897Y-119287717D01*
X136058154Y-119268950D01*
X136016077Y-119270845D01*
X135977005Y-119296632D01*
X135961647Y-119314451D01*
X135958000Y-119328013D01*
X135814712Y-119328013D01*
X135815833Y-119317086D01*
X135842251Y-119246335D01*
X135886473Y-119190735D01*
X135943697Y-119152239D01*
X136009120Y-119132797D01*
X136077937Y-119134359D01*
X136145347Y-119158878D01*
X136206544Y-119208302D01*
X136240450Y-119257212D01*
X136264806Y-119327027D01*
X136268767Y-119363748D01*
X136274299Y-119415055D01*
G36*
X136274299Y-119415055D02*
G01*
X136269684Y-119525078D01*
X136267078Y-119548387D01*
X136247660Y-119631352D01*
X136212573Y-119694448D01*
X136159212Y-119742808D01*
X136156196Y-119744804D01*
X136088362Y-119773185D01*
X136017535Y-119775711D01*
X135949289Y-119754097D01*
X135889196Y-119710062D01*
X135842829Y-119645322D01*
X135842050Y-119643761D01*
X135826643Y-119603558D01*
X135815357Y-119557866D01*
X135809370Y-119514972D01*
X135809861Y-119483160D01*
X135818007Y-119470714D01*
X135825244Y-119471471D01*
X135859851Y-119485235D01*
X135899078Y-119510546D01*
X135932448Y-119539845D01*
X135949483Y-119565572D01*
X135967192Y-119600471D01*
X136003485Y-119632212D01*
X136045630Y-119644886D01*
X136061077Y-119641221D01*
X136091569Y-119622774D01*
X136118128Y-119597166D01*
X136129486Y-119573934D01*
X136129482Y-119573848D01*
X136116596Y-119563179D01*
X136082241Y-119543933D01*
X136031593Y-119518813D01*
X135969829Y-119490524D01*
X135969489Y-119490374D01*
X135902388Y-119460498D01*
X135857411Y-119438973D01*
X135830145Y-119422437D01*
X135816178Y-119407531D01*
X135811097Y-119390893D01*
X135810490Y-119369162D01*
X135814712Y-119328013D01*
X135958000Y-119328013D01*
X135972791Y-119340949D01*
X136009644Y-119360333D01*
X136010725Y-119360881D01*
X136054205Y-119381587D01*
X136093102Y-119398105D01*
X136117778Y-119405093D01*
X136127676Y-119395753D01*
X136129486Y-119363748D01*
X136121966Y-119323915D01*
X136095897Y-119287717D01*
X136058154Y-119268950D01*
X136016077Y-119270845D01*
X135977005Y-119296632D01*
X135961647Y-119314451D01*
X135958000Y-119328013D01*
X135814712Y-119328013D01*
X135815833Y-119317086D01*
X135842251Y-119246335D01*
X135886473Y-119190735D01*
X135943697Y-119152239D01*
X136009120Y-119132797D01*
X136077937Y-119134359D01*
X136145347Y-119158878D01*
X136206544Y-119208302D01*
X136240450Y-119257212D01*
X136264806Y-119327027D01*
X136268767Y-119363748D01*
X136274299Y-119415055D01*
G37*
X134201483Y-119181569D02*
X134251376Y-119210661D01*
X134273325Y-119233327D01*
X134315504Y-119301082D01*
X134329714Y-119374950D01*
X134329714Y-119425770D01*
X134282999Y-119406128D01*
X134250692Y-119386308D01*
X134225231Y-119345160D01*
X134222616Y-119336675D01*
X134194478Y-119293451D01*
X134152067Y-119270103D01*
X134103370Y-119269100D01*
X134056373Y-119292914D01*
X134049357Y-119299056D01*
X134025893Y-119325745D01*
X134022019Y-119349014D01*
X134039768Y-119371862D01*
X134081179Y-119397287D01*
X134148286Y-119428288D01*
X134152824Y-119430252D01*
X134227322Y-119464990D01*
X134278203Y-119495763D01*
X134309525Y-119526488D01*
X134325343Y-119561082D01*
X134329714Y-119603462D01*
X134323986Y-119650446D01*
X134295062Y-119710585D01*
X134244178Y-119753788D01*
X134207374Y-119766759D01*
X134155434Y-119773856D01*
X134104999Y-119772340D01*
X134068983Y-119761632D01*
X134065158Y-119758966D01*
X134054998Y-119740337D01*
X134062048Y-119707505D01*
X134074297Y-119681735D01*
X134093939Y-119671006D01*
X134131191Y-119671539D01*
X134182908Y-119668462D01*
X134216701Y-119647212D01*
X134228114Y-119607877D01*
X134228104Y-119606747D01*
X134221187Y-119583913D01*
X134197659Y-119562963D01*
X134151914Y-119538815D01*
X134089704Y-119509741D01*
X134048499Y-119493925D01*
X134024712Y-119494944D01*
X134013597Y-119515837D01*
X134010408Y-119559641D01*
X134010400Y-119629393D01*
X134010044Y-119672452D01*
X134008413Y-119725626D01*
X134005761Y-119762022D01*
X134002422Y-119775514D01*
X134001530Y-119775423D01*
X133982237Y-119768110D01*
X133950284Y-119752678D01*
X133906124Y-119729842D01*
X133911371Y-119524078D01*
X133911736Y-119510432D01*
X133915904Y-119414651D01*
X133923268Y-119342462D01*
X133935330Y-119289058D01*
X133953593Y-119249633D01*
X133979560Y-119219380D01*
X134014733Y-119193493D01*
X134015384Y-119193087D01*
X134072256Y-119171968D01*
X134138033Y-119168400D01*
X134201483Y-119181569D01*
G36*
X134201483Y-119181569D02*
G01*
X134251376Y-119210661D01*
X134273325Y-119233327D01*
X134315504Y-119301082D01*
X134329714Y-119374950D01*
X134329714Y-119425770D01*
X134282999Y-119406128D01*
X134250692Y-119386308D01*
X134225231Y-119345160D01*
X134222616Y-119336675D01*
X134194478Y-119293451D01*
X134152067Y-119270103D01*
X134103370Y-119269100D01*
X134056373Y-119292914D01*
X134049357Y-119299056D01*
X134025893Y-119325745D01*
X134022019Y-119349014D01*
X134039768Y-119371862D01*
X134081179Y-119397287D01*
X134148286Y-119428288D01*
X134152824Y-119430252D01*
X134227322Y-119464990D01*
X134278203Y-119495763D01*
X134309525Y-119526488D01*
X134325343Y-119561082D01*
X134329714Y-119603462D01*
X134323986Y-119650446D01*
X134295062Y-119710585D01*
X134244178Y-119753788D01*
X134207374Y-119766759D01*
X134155434Y-119773856D01*
X134104999Y-119772340D01*
X134068983Y-119761632D01*
X134065158Y-119758966D01*
X134054998Y-119740337D01*
X134062048Y-119707505D01*
X134074297Y-119681735D01*
X134093939Y-119671006D01*
X134131191Y-119671539D01*
X134182908Y-119668462D01*
X134216701Y-119647212D01*
X134228114Y-119607877D01*
X134228104Y-119606747D01*
X134221187Y-119583913D01*
X134197659Y-119562963D01*
X134151914Y-119538815D01*
X134089704Y-119509741D01*
X134048499Y-119493925D01*
X134024712Y-119494944D01*
X134013597Y-119515837D01*
X134010408Y-119559641D01*
X134010400Y-119629393D01*
X134010044Y-119672452D01*
X134008413Y-119725626D01*
X134005761Y-119762022D01*
X134002422Y-119775514D01*
X134001530Y-119775423D01*
X133982237Y-119768110D01*
X133950284Y-119752678D01*
X133906124Y-119729842D01*
X133911371Y-119524078D01*
X133911736Y-119510432D01*
X133915904Y-119414651D01*
X133923268Y-119342462D01*
X133935330Y-119289058D01*
X133953593Y-119249633D01*
X133979560Y-119219380D01*
X134014733Y-119193493D01*
X134015384Y-119193087D01*
X134072256Y-119171968D01*
X134138033Y-119168400D01*
X134201483Y-119181569D01*
G37*
X136821815Y-119522524D02*
X136823252Y-119634000D01*
X136823651Y-119666339D01*
X136824929Y-119774455D01*
X136825185Y-119857186D01*
X136823634Y-119917426D01*
X136819490Y-119958073D01*
X136811964Y-119982023D01*
X136800271Y-119992171D01*
X136783624Y-119991414D01*
X136761236Y-119982648D01*
X136732321Y-119968769D01*
X136726142Y-119965808D01*
X136700413Y-119951311D01*
X136686976Y-119934065D01*
X136681834Y-119905308D01*
X136680990Y-119856283D01*
X136680952Y-119768257D01*
X136590276Y-119768257D01*
X136534498Y-119765815D01*
X136490640Y-119755908D01*
X136454218Y-119735886D01*
X136451503Y-119733929D01*
X136414546Y-119700869D01*
X136388826Y-119660931D01*
X136372606Y-119608657D01*
X136364148Y-119538588D01*
X136362083Y-119459430D01*
X136506857Y-119459430D01*
X136506882Y-119472697D01*
X136508261Y-119532584D01*
X136512687Y-119571732D01*
X136521461Y-119597153D01*
X136535886Y-119615857D01*
X136536784Y-119616750D01*
X136572237Y-119640952D01*
X136606596Y-119638567D01*
X136645403Y-119609260D01*
X136654895Y-119599244D01*
X136668876Y-119578708D01*
X136676760Y-119551997D01*
X136680245Y-119511499D01*
X136681029Y-119449603D01*
X136680350Y-119412130D01*
X136672983Y-119343980D01*
X136656168Y-119299330D01*
X136628234Y-119274926D01*
X136587509Y-119267514D01*
X136570350Y-119269094D01*
X136540660Y-119284766D01*
X136521031Y-119319691D01*
X136510188Y-119376901D01*
X136506857Y-119459430D01*
X136362083Y-119459430D01*
X136361714Y-119445267D01*
X136362253Y-119377169D01*
X136364707Y-119325587D01*
X136370158Y-119289816D01*
X136379686Y-119263015D01*
X136394371Y-119238338D01*
X136407852Y-119219480D01*
X136456799Y-119168568D01*
X136512256Y-119140918D01*
X136581928Y-119132165D01*
X136661664Y-119140890D01*
X136730595Y-119172185D01*
X136785113Y-119227381D01*
X136789223Y-119233224D01*
X136798808Y-119248753D01*
X136806151Y-119266498D01*
X136811612Y-119290290D01*
X136815550Y-119323958D01*
X136818323Y-119371333D01*
X136820292Y-119436245D01*
X136820528Y-119449603D01*
X136821815Y-119522524D01*
G36*
X136821815Y-119522524D02*
G01*
X136823252Y-119634000D01*
X136823651Y-119666339D01*
X136824929Y-119774455D01*
X136825185Y-119857186D01*
X136823634Y-119917426D01*
X136819490Y-119958073D01*
X136811964Y-119982023D01*
X136800271Y-119992171D01*
X136783624Y-119991414D01*
X136761236Y-119982648D01*
X136732321Y-119968769D01*
X136726142Y-119965808D01*
X136700413Y-119951311D01*
X136686976Y-119934065D01*
X136681834Y-119905308D01*
X136680990Y-119856283D01*
X136680952Y-119768257D01*
X136590276Y-119768257D01*
X136534498Y-119765815D01*
X136490640Y-119755908D01*
X136454218Y-119735886D01*
X136451503Y-119733929D01*
X136414546Y-119700869D01*
X136388826Y-119660931D01*
X136372606Y-119608657D01*
X136364148Y-119538588D01*
X136362083Y-119459430D01*
X136506857Y-119459430D01*
X136506882Y-119472697D01*
X136508261Y-119532584D01*
X136512687Y-119571732D01*
X136521461Y-119597153D01*
X136535886Y-119615857D01*
X136536784Y-119616750D01*
X136572237Y-119640952D01*
X136606596Y-119638567D01*
X136645403Y-119609260D01*
X136654895Y-119599244D01*
X136668876Y-119578708D01*
X136676760Y-119551997D01*
X136680245Y-119511499D01*
X136681029Y-119449603D01*
X136680350Y-119412130D01*
X136672983Y-119343980D01*
X136656168Y-119299330D01*
X136628234Y-119274926D01*
X136587509Y-119267514D01*
X136570350Y-119269094D01*
X136540660Y-119284766D01*
X136521031Y-119319691D01*
X136510188Y-119376901D01*
X136506857Y-119459430D01*
X136362083Y-119459430D01*
X136361714Y-119445267D01*
X136362253Y-119377169D01*
X136364707Y-119325587D01*
X136370158Y-119289816D01*
X136379686Y-119263015D01*
X136394371Y-119238338D01*
X136407852Y-119219480D01*
X136456799Y-119168568D01*
X136512256Y-119140918D01*
X136581928Y-119132165D01*
X136661664Y-119140890D01*
X136730595Y-119172185D01*
X136785113Y-119227381D01*
X136789223Y-119233224D01*
X136798808Y-119248753D01*
X136806151Y-119266498D01*
X136811612Y-119290290D01*
X136815550Y-119323958D01*
X136818323Y-119371333D01*
X136820292Y-119436245D01*
X136820528Y-119449603D01*
X136821815Y-119522524D01*
G37*
X132079495Y-119167220D02*
X132110599Y-119175121D01*
X132139559Y-119194817D01*
X132176831Y-119231484D01*
X132200801Y-119257378D01*
X132225770Y-119290997D01*
X132237031Y-119322506D01*
X132239657Y-119362485D01*
X132239657Y-119427917D01*
X132195035Y-119404842D01*
X132159673Y-119376724D01*
X132135451Y-119338848D01*
X132131291Y-119328551D01*
X132099594Y-119288637D01*
X132055554Y-119268624D01*
X132007531Y-119270572D01*
X131963886Y-119296543D01*
X131945420Y-119317635D01*
X131934663Y-119344619D01*
X131946178Y-119368634D01*
X131981981Y-119392791D01*
X132044090Y-119420199D01*
X132053515Y-119423985D01*
X132110058Y-119448759D01*
X132158580Y-119473189D01*
X132189451Y-119492486D01*
X132220371Y-119526953D01*
X132240927Y-119581957D01*
X132238744Y-119640983D01*
X132214424Y-119696845D01*
X132168568Y-119742355D01*
X132131438Y-119761727D01*
X132059711Y-119775292D01*
X132019852Y-119773462D01*
X131982953Y-119763568D01*
X131968797Y-119742806D01*
X131974091Y-119708613D01*
X131975631Y-119704092D01*
X131987842Y-119680116D01*
X132008174Y-119671042D01*
X132046908Y-119671649D01*
X132074257Y-119672474D01*
X132106257Y-119665392D01*
X132128182Y-119644219D01*
X132140670Y-119618152D01*
X132142062Y-119590845D01*
X132141998Y-119590685D01*
X132125807Y-119575930D01*
X132091155Y-119554457D01*
X132046321Y-119530458D01*
X131999582Y-119508125D01*
X131959217Y-119491652D01*
X131933504Y-119485229D01*
X131929679Y-119491518D01*
X131924864Y-119521115D01*
X131921566Y-119569447D01*
X131920343Y-119630372D01*
X131920058Y-119672542D01*
X131918718Y-119725653D01*
X131916528Y-119762025D01*
X131913769Y-119775514D01*
X131899344Y-119770981D01*
X131870226Y-119758670D01*
X131833257Y-119741826D01*
X131833257Y-119525721D01*
X131833493Y-119470327D01*
X131835729Y-119386207D01*
X131841423Y-119323800D01*
X131851903Y-119278358D01*
X131868497Y-119245133D01*
X131892531Y-119219378D01*
X131925333Y-119196344D01*
X131967124Y-119177335D01*
X132044287Y-119165914D01*
X132079495Y-119167220D01*
G36*
X132079495Y-119167220D02*
G01*
X132110599Y-119175121D01*
X132139559Y-119194817D01*
X132176831Y-119231484D01*
X132200801Y-119257378D01*
X132225770Y-119290997D01*
X132237031Y-119322506D01*
X132239657Y-119362485D01*
X132239657Y-119427917D01*
X132195035Y-119404842D01*
X132159673Y-119376724D01*
X132135451Y-119338848D01*
X132131291Y-119328551D01*
X132099594Y-119288637D01*
X132055554Y-119268624D01*
X132007531Y-119270572D01*
X131963886Y-119296543D01*
X131945420Y-119317635D01*
X131934663Y-119344619D01*
X131946178Y-119368634D01*
X131981981Y-119392791D01*
X132044090Y-119420199D01*
X132053515Y-119423985D01*
X132110058Y-119448759D01*
X132158580Y-119473189D01*
X132189451Y-119492486D01*
X132220371Y-119526953D01*
X132240927Y-119581957D01*
X132238744Y-119640983D01*
X132214424Y-119696845D01*
X132168568Y-119742355D01*
X132131438Y-119761727D01*
X132059711Y-119775292D01*
X132019852Y-119773462D01*
X131982953Y-119763568D01*
X131968797Y-119742806D01*
X131974091Y-119708613D01*
X131975631Y-119704092D01*
X131987842Y-119680116D01*
X132008174Y-119671042D01*
X132046908Y-119671649D01*
X132074257Y-119672474D01*
X132106257Y-119665392D01*
X132128182Y-119644219D01*
X132140670Y-119618152D01*
X132142062Y-119590845D01*
X132141998Y-119590685D01*
X132125807Y-119575930D01*
X132091155Y-119554457D01*
X132046321Y-119530458D01*
X131999582Y-119508125D01*
X131959217Y-119491652D01*
X131933504Y-119485229D01*
X131929679Y-119491518D01*
X131924864Y-119521115D01*
X131921566Y-119569447D01*
X131920343Y-119630372D01*
X131920058Y-119672542D01*
X131918718Y-119725653D01*
X131916528Y-119762025D01*
X131913769Y-119775514D01*
X131899344Y-119770981D01*
X131870226Y-119758670D01*
X131833257Y-119741826D01*
X131833257Y-119525721D01*
X131833493Y-119470327D01*
X131835729Y-119386207D01*
X131841423Y-119323800D01*
X131851903Y-119278358D01*
X131868497Y-119245133D01*
X131892531Y-119219378D01*
X131925333Y-119196344D01*
X131967124Y-119177335D01*
X132044287Y-119165914D01*
X132079495Y-119167220D01*
G37*
X134225933Y-114463371D02*
X134301856Y-114463865D01*
X134356491Y-114465135D01*
X134393500Y-114467547D01*
X134416547Y-114471467D01*
X134429296Y-114477262D01*
X134435411Y-114485299D01*
X134438556Y-114495943D01*
X134438646Y-114496325D01*
X134443814Y-114521347D01*
X134453209Y-114569681D01*
X134465867Y-114636260D01*
X134480825Y-114716014D01*
X134497119Y-114803875D01*
X134498448Y-114811064D01*
X134514691Y-114896340D01*
X134529805Y-114971242D01*
X134542808Y-115031219D01*
X134552715Y-115071717D01*
X134558544Y-115088184D01*
X134558575Y-115088210D01*
X134576943Y-115097320D01*
X134614640Y-115112457D01*
X134663543Y-115130358D01*
X134666297Y-115131330D01*
X134728817Y-115154959D01*
X134801543Y-115184595D01*
X134869294Y-115214062D01*
X134980703Y-115264626D01*
X135227399Y-115096160D01*
X135244775Y-115084311D01*
X135319202Y-115033947D01*
X135385614Y-114989612D01*
X135440039Y-114953916D01*
X135478506Y-114929471D01*
X135497042Y-114918889D01*
X135509743Y-114921315D01*
X135538579Y-114940110D01*
X135583143Y-114977330D01*
X135644670Y-115034020D01*
X135724398Y-115111227D01*
X135731532Y-115118255D01*
X135794796Y-115181222D01*
X135850990Y-115238268D01*
X135896677Y-115285817D01*
X135928414Y-115320297D01*
X135942764Y-115338131D01*
X135942810Y-115338217D01*
X135944633Y-115351795D01*
X135937910Y-115373820D01*
X135920946Y-115407304D01*
X135892044Y-115455261D01*
X135849508Y-115520704D01*
X135791644Y-115606645D01*
X135781783Y-115621151D01*
X135731913Y-115694635D01*
X135687905Y-115759687D01*
X135652380Y-115812417D01*
X135627959Y-115848936D01*
X135617264Y-115865356D01*
X135616458Y-115868834D01*
X135621518Y-115894785D01*
X135636677Y-115937159D01*
X135659463Y-115988728D01*
X135690429Y-116056170D01*
X135725004Y-116136195D01*
X135754366Y-116208629D01*
X135761645Y-116227377D01*
X135780710Y-116275246D01*
X135794715Y-116308596D01*
X135801041Y-116321114D01*
X135808025Y-116322050D01*
X135839413Y-116327461D01*
X135890787Y-116336806D01*
X135956802Y-116349069D01*
X136032113Y-116363232D01*
X136111375Y-116378280D01*
X136189243Y-116393195D01*
X136260370Y-116406961D01*
X136319412Y-116418562D01*
X136361022Y-116426980D01*
X136379857Y-116431199D01*
X136382980Y-116432389D01*
X136390591Y-116438805D01*
X136396254Y-116452465D01*
X136400251Y-116476999D01*
X136402866Y-116516038D01*
X136404384Y-116573213D01*
X136405086Y-116652154D01*
X136405257Y-116756492D01*
X136405257Y-117073799D01*
X136329057Y-117088839D01*
X136319840Y-117090642D01*
X136270891Y-117099980D01*
X136203205Y-117112669D01*
X136124478Y-117127273D01*
X136042400Y-117142355D01*
X136010078Y-117148422D01*
X135937855Y-117163181D01*
X135877666Y-117177137D01*
X135835040Y-117188952D01*
X135815510Y-117197287D01*
X135806660Y-117210905D01*
X135790548Y-117246938D01*
X135774065Y-117293572D01*
X135768263Y-117311034D01*
X135746906Y-117368358D01*
X135719359Y-117436201D01*
X135690107Y-117503355D01*
X135674463Y-117538430D01*
X135652174Y-117590822D01*
X135636857Y-117630058D01*
X135631162Y-117649563D01*
X135631478Y-117651036D01*
X135642281Y-117671729D01*
X135666638Y-117711665D01*
X135702081Y-117766972D01*
X135746136Y-117833781D01*
X135796332Y-117908220D01*
X135961501Y-118150623D01*
X135744503Y-118367983D01*
X135723516Y-118388899D01*
X135659342Y-118451505D01*
X135601990Y-118505495D01*
X135554820Y-118547826D01*
X135521192Y-118575457D01*
X135504467Y-118585343D01*
X135486303Y-118577821D01*
X135448265Y-118556227D01*
X135394726Y-118523151D01*
X135329884Y-118481191D01*
X135257940Y-118432943D01*
X135187275Y-118385291D01*
X135123526Y-118343328D01*
X135071513Y-118310165D01*
X135035279Y-118288378D01*
X135018867Y-118280543D01*
X135017905Y-118280614D01*
X134996103Y-118288338D01*
X134957440Y-118306323D01*
X134909612Y-118331013D01*
X134909110Y-118331284D01*
X134845587Y-118363099D01*
X134802060Y-118378642D01*
X134775052Y-118378685D01*
X134761090Y-118364000D01*
X134755180Y-118349544D01*
X134739229Y-118310831D01*
X134714660Y-118251316D01*
X134682779Y-118174165D01*
X134644893Y-118082541D01*
X134602310Y-117979607D01*
X134556337Y-117868526D01*
X134514667Y-117767472D01*
X134472268Y-117663780D01*
X134434756Y-117571119D01*
X134403388Y-117492642D01*
X134379425Y-117431500D01*
X134364123Y-117390843D01*
X134358743Y-117373825D01*
X134369018Y-117358219D01*
X134397563Y-117332162D01*
X134437971Y-117301887D01*
X134534979Y-117222684D01*
X134621793Y-117121475D01*
X134685322Y-117010116D01*
X134725177Y-116891893D01*
X134740965Y-116770095D01*
X134732296Y-116648010D01*
X134698778Y-116528925D01*
X134640021Y-116416129D01*
X134555632Y-116312911D01*
X134511631Y-116272713D01*
X134406211Y-116201638D01*
X134293410Y-116155301D01*
X134176525Y-116132599D01*
X134058853Y-116132428D01*
X133943690Y-116153687D01*
X133834335Y-116195270D01*
X133734083Y-116256076D01*
X133646233Y-116335001D01*
X133574080Y-116430941D01*
X133520922Y-116542795D01*
X133490057Y-116669457D01*
X133484392Y-116730507D01*
X133492185Y-116862776D01*
X133527284Y-116988266D01*
X133588649Y-117104759D01*
X133675243Y-117210039D01*
X133786029Y-117301887D01*
X133824931Y-117330930D01*
X133854104Y-117357272D01*
X133865257Y-117373800D01*
X133860810Y-117388209D01*
X133846378Y-117426815D01*
X133823173Y-117486201D01*
X133792452Y-117563215D01*
X133755474Y-117654703D01*
X133713496Y-117757516D01*
X133667778Y-117868502D01*
X133626178Y-117969072D01*
X133583222Y-118072947D01*
X133544829Y-118165819D01*
X133512305Y-118244525D01*
X133486958Y-118305899D01*
X133470095Y-118346779D01*
X133463025Y-118364000D01*
X133462943Y-118364204D01*
X133448798Y-118378745D01*
X133421659Y-118378579D01*
X133378023Y-118362927D01*
X133314388Y-118331013D01*
X133309379Y-118328326D01*
X133262125Y-118304150D01*
X133224811Y-118287037D01*
X133205133Y-118280543D01*
X133189005Y-118288218D01*
X133152959Y-118309871D01*
X133101092Y-118342928D01*
X133037445Y-118384810D01*
X132966060Y-118432943D01*
X132895724Y-118480131D01*
X132830670Y-118522267D01*
X132776820Y-118555578D01*
X132738374Y-118577469D01*
X132719534Y-118585343D01*
X132716325Y-118584343D01*
X132693954Y-118568584D01*
X132655733Y-118536033D01*
X132605021Y-118489733D01*
X132545181Y-118432726D01*
X132479571Y-118368058D01*
X132262648Y-118150772D01*
X132431601Y-117902253D01*
X132600553Y-117653733D01*
X132549183Y-117542595D01*
X132549031Y-117542266D01*
X132518183Y-117471418D01*
X132486661Y-117392523D01*
X132461266Y-117322600D01*
X132457423Y-117311322D01*
X132438047Y-117258967D01*
X132420574Y-117218283D01*
X132408388Y-117197287D01*
X132403426Y-117194322D01*
X132373634Y-117184375D01*
X132323047Y-117171505D01*
X132257194Y-117157053D01*
X132181600Y-117142355D01*
X132158957Y-117138210D01*
X132077038Y-117123116D01*
X132000600Y-117108899D01*
X131937337Y-117096995D01*
X131894943Y-117088839D01*
X131818743Y-117073799D01*
X131818743Y-116756492D01*
X131818760Y-116717476D01*
X131819082Y-116622292D01*
X131820033Y-116551255D01*
X131821896Y-116500734D01*
X131824955Y-116467098D01*
X131829494Y-116446718D01*
X131835795Y-116435962D01*
X131844143Y-116431199D01*
X131852224Y-116429270D01*
X131885172Y-116422445D01*
X131937736Y-116412022D01*
X132004569Y-116399018D01*
X132080328Y-116384449D01*
X132159665Y-116369333D01*
X132237237Y-116354685D01*
X132307698Y-116341523D01*
X132365702Y-116330863D01*
X132405904Y-116323721D01*
X132422959Y-116321114D01*
X132424112Y-116319541D01*
X132433385Y-116299119D01*
X132449432Y-116260045D01*
X132469635Y-116208629D01*
X132497672Y-116139353D01*
X132532186Y-116059290D01*
X132564538Y-115988728D01*
X132571952Y-115972889D01*
X132592755Y-115923293D01*
X132605219Y-115885038D01*
X132606863Y-115865356D01*
X132606015Y-115863962D01*
X132592548Y-115843420D01*
X132565850Y-115803516D01*
X132528539Y-115748140D01*
X132483234Y-115681177D01*
X132432552Y-115606517D01*
X132375445Y-115521692D01*
X132332607Y-115455800D01*
X132303460Y-115407478D01*
X132286317Y-115373733D01*
X132279495Y-115351572D01*
X132281306Y-115338002D01*
X132281915Y-115336984D01*
X132298297Y-115317210D01*
X132331695Y-115281175D01*
X132378671Y-115232451D01*
X132435786Y-115174612D01*
X132499603Y-115111227D01*
X132565802Y-115046905D01*
X132630648Y-114986447D01*
X132678299Y-114945655D01*
X132709990Y-114923484D01*
X132726958Y-114918889D01*
X132729175Y-114919921D01*
X132752524Y-114933837D01*
X132794912Y-114961030D01*
X132852369Y-114998889D01*
X132920923Y-115044803D01*
X132996601Y-115096160D01*
X133243298Y-115264626D01*
X133354706Y-115214062D01*
X133357943Y-115212597D01*
X133426343Y-115182965D01*
X133498907Y-115153493D01*
X133560457Y-115130358D01*
X133560729Y-115130262D01*
X133609595Y-115112367D01*
X133647212Y-115097253D01*
X133665457Y-115088184D01*
X133665752Y-115087855D01*
X133671946Y-115069282D01*
X133682139Y-115027045D01*
X133695348Y-114965696D01*
X133710590Y-114889789D01*
X133726881Y-114803875D01*
X133727449Y-114800796D01*
X133743713Y-114713128D01*
X133758608Y-114633741D01*
X133771171Y-114567701D01*
X133780438Y-114520079D01*
X133785444Y-114495943D01*
X133785764Y-114494605D01*
X133789060Y-114484273D01*
X133795738Y-114476506D01*
X133809462Y-114470940D01*
X133833895Y-114467207D01*
X133872702Y-114464942D01*
X133929546Y-114463778D01*
X134008090Y-114463348D01*
X134112000Y-114463286D01*
X134125056Y-114463286D01*
X134225933Y-114463371D01*
G36*
X134225933Y-114463371D02*
G01*
X134301856Y-114463865D01*
X134356491Y-114465135D01*
X134393500Y-114467547D01*
X134416547Y-114471467D01*
X134429296Y-114477262D01*
X134435411Y-114485299D01*
X134438556Y-114495943D01*
X134438646Y-114496325D01*
X134443814Y-114521347D01*
X134453209Y-114569681D01*
X134465867Y-114636260D01*
X134480825Y-114716014D01*
X134497119Y-114803875D01*
X134498448Y-114811064D01*
X134514691Y-114896340D01*
X134529805Y-114971242D01*
X134542808Y-115031219D01*
X134552715Y-115071717D01*
X134558544Y-115088184D01*
X134558575Y-115088210D01*
X134576943Y-115097320D01*
X134614640Y-115112457D01*
X134663543Y-115130358D01*
X134666297Y-115131330D01*
X134728817Y-115154959D01*
X134801543Y-115184595D01*
X134869294Y-115214062D01*
X134980703Y-115264626D01*
X135227399Y-115096160D01*
X135244775Y-115084311D01*
X135319202Y-115033947D01*
X135385614Y-114989612D01*
X135440039Y-114953916D01*
X135478506Y-114929471D01*
X135497042Y-114918889D01*
X135509743Y-114921315D01*
X135538579Y-114940110D01*
X135583143Y-114977330D01*
X135644670Y-115034020D01*
X135724398Y-115111227D01*
X135731532Y-115118255D01*
X135794796Y-115181222D01*
X135850990Y-115238268D01*
X135896677Y-115285817D01*
X135928414Y-115320297D01*
X135942764Y-115338131D01*
X135942810Y-115338217D01*
X135944633Y-115351795D01*
X135937910Y-115373820D01*
X135920946Y-115407304D01*
X135892044Y-115455261D01*
X135849508Y-115520704D01*
X135791644Y-115606645D01*
X135781783Y-115621151D01*
X135731913Y-115694635D01*
X135687905Y-115759687D01*
X135652380Y-115812417D01*
X135627959Y-115848936D01*
X135617264Y-115865356D01*
X135616458Y-115868834D01*
X135621518Y-115894785D01*
X135636677Y-115937159D01*
X135659463Y-115988728D01*
X135690429Y-116056170D01*
X135725004Y-116136195D01*
X135754366Y-116208629D01*
X135761645Y-116227377D01*
X135780710Y-116275246D01*
X135794715Y-116308596D01*
X135801041Y-116321114D01*
X135808025Y-116322050D01*
X135839413Y-116327461D01*
X135890787Y-116336806D01*
X135956802Y-116349069D01*
X136032113Y-116363232D01*
X136111375Y-116378280D01*
X136189243Y-116393195D01*
X136260370Y-116406961D01*
X136319412Y-116418562D01*
X136361022Y-116426980D01*
X136379857Y-116431199D01*
X136382980Y-116432389D01*
X136390591Y-116438805D01*
X136396254Y-116452465D01*
X136400251Y-116476999D01*
X136402866Y-116516038D01*
X136404384Y-116573213D01*
X136405086Y-116652154D01*
X136405257Y-116756492D01*
X136405257Y-117073799D01*
X136329057Y-117088839D01*
X136319840Y-117090642D01*
X136270891Y-117099980D01*
X136203205Y-117112669D01*
X136124478Y-117127273D01*
X136042400Y-117142355D01*
X136010078Y-117148422D01*
X135937855Y-117163181D01*
X135877666Y-117177137D01*
X135835040Y-117188952D01*
X135815510Y-117197287D01*
X135806660Y-117210905D01*
X135790548Y-117246938D01*
X135774065Y-117293572D01*
X135768263Y-117311034D01*
X135746906Y-117368358D01*
X135719359Y-117436201D01*
X135690107Y-117503355D01*
X135674463Y-117538430D01*
X135652174Y-117590822D01*
X135636857Y-117630058D01*
X135631162Y-117649563D01*
X135631478Y-117651036D01*
X135642281Y-117671729D01*
X135666638Y-117711665D01*
X135702081Y-117766972D01*
X135746136Y-117833781D01*
X135796332Y-117908220D01*
X135961501Y-118150623D01*
X135744503Y-118367983D01*
X135723516Y-118388899D01*
X135659342Y-118451505D01*
X135601990Y-118505495D01*
X135554820Y-118547826D01*
X135521192Y-118575457D01*
X135504467Y-118585343D01*
X135486303Y-118577821D01*
X135448265Y-118556227D01*
X135394726Y-118523151D01*
X135329884Y-118481191D01*
X135257940Y-118432943D01*
X135187275Y-118385291D01*
X135123526Y-118343328D01*
X135071513Y-118310165D01*
X135035279Y-118288378D01*
X135018867Y-118280543D01*
X135017905Y-118280614D01*
X134996103Y-118288338D01*
X134957440Y-118306323D01*
X134909612Y-118331013D01*
X134909110Y-118331284D01*
X134845587Y-118363099D01*
X134802060Y-118378642D01*
X134775052Y-118378685D01*
X134761090Y-118364000D01*
X134755180Y-118349544D01*
X134739229Y-118310831D01*
X134714660Y-118251316D01*
X134682779Y-118174165D01*
X134644893Y-118082541D01*
X134602310Y-117979607D01*
X134556337Y-117868526D01*
X134514667Y-117767472D01*
X134472268Y-117663780D01*
X134434756Y-117571119D01*
X134403388Y-117492642D01*
X134379425Y-117431500D01*
X134364123Y-117390843D01*
X134358743Y-117373825D01*
X134369018Y-117358219D01*
X134397563Y-117332162D01*
X134437971Y-117301887D01*
X134534979Y-117222684D01*
X134621793Y-117121475D01*
X134685322Y-117010116D01*
X134725177Y-116891893D01*
X134740965Y-116770095D01*
X134732296Y-116648010D01*
X134698778Y-116528925D01*
X134640021Y-116416129D01*
X134555632Y-116312911D01*
X134511631Y-116272713D01*
X134406211Y-116201638D01*
X134293410Y-116155301D01*
X134176525Y-116132599D01*
X134058853Y-116132428D01*
X133943690Y-116153687D01*
X133834335Y-116195270D01*
X133734083Y-116256076D01*
X133646233Y-116335001D01*
X133574080Y-116430941D01*
X133520922Y-116542795D01*
X133490057Y-116669457D01*
X133484392Y-116730507D01*
X133492185Y-116862776D01*
X133527284Y-116988266D01*
X133588649Y-117104759D01*
X133675243Y-117210039D01*
X133786029Y-117301887D01*
X133824931Y-117330930D01*
X133854104Y-117357272D01*
X133865257Y-117373800D01*
X133860810Y-117388209D01*
X133846378Y-117426815D01*
X133823173Y-117486201D01*
X133792452Y-117563215D01*
X133755474Y-117654703D01*
X133713496Y-117757516D01*
X133667778Y-117868502D01*
X133626178Y-117969072D01*
X133583222Y-118072947D01*
X133544829Y-118165819D01*
X133512305Y-118244525D01*
X133486958Y-118305899D01*
X133470095Y-118346779D01*
X133463025Y-118364000D01*
X133462943Y-118364204D01*
X133448798Y-118378745D01*
X133421659Y-118378579D01*
X133378023Y-118362927D01*
X133314388Y-118331013D01*
X133309379Y-118328326D01*
X133262125Y-118304150D01*
X133224811Y-118287037D01*
X133205133Y-118280543D01*
X133189005Y-118288218D01*
X133152959Y-118309871D01*
X133101092Y-118342928D01*
X133037445Y-118384810D01*
X132966060Y-118432943D01*
X132895724Y-118480131D01*
X132830670Y-118522267D01*
X132776820Y-118555578D01*
X132738374Y-118577469D01*
X132719534Y-118585343D01*
X132716325Y-118584343D01*
X132693954Y-118568584D01*
X132655733Y-118536033D01*
X132605021Y-118489733D01*
X132545181Y-118432726D01*
X132479571Y-118368058D01*
X132262648Y-118150772D01*
X132431601Y-117902253D01*
X132600553Y-117653733D01*
X132549183Y-117542595D01*
X132549031Y-117542266D01*
X132518183Y-117471418D01*
X132486661Y-117392523D01*
X132461266Y-117322600D01*
X132457423Y-117311322D01*
X132438047Y-117258967D01*
X132420574Y-117218283D01*
X132408388Y-117197287D01*
X132403426Y-117194322D01*
X132373634Y-117184375D01*
X132323047Y-117171505D01*
X132257194Y-117157053D01*
X132181600Y-117142355D01*
X132158957Y-117138210D01*
X132077038Y-117123116D01*
X132000600Y-117108899D01*
X131937337Y-117096995D01*
X131894943Y-117088839D01*
X131818743Y-117073799D01*
X131818743Y-116756492D01*
X131818760Y-116717476D01*
X131819082Y-116622292D01*
X131820033Y-116551255D01*
X131821896Y-116500734D01*
X131824955Y-116467098D01*
X131829494Y-116446718D01*
X131835795Y-116435962D01*
X131844143Y-116431199D01*
X131852224Y-116429270D01*
X131885172Y-116422445D01*
X131937736Y-116412022D01*
X132004569Y-116399018D01*
X132080328Y-116384449D01*
X132159665Y-116369333D01*
X132237237Y-116354685D01*
X132307698Y-116341523D01*
X132365702Y-116330863D01*
X132405904Y-116323721D01*
X132422959Y-116321114D01*
X132424112Y-116319541D01*
X132433385Y-116299119D01*
X132449432Y-116260045D01*
X132469635Y-116208629D01*
X132497672Y-116139353D01*
X132532186Y-116059290D01*
X132564538Y-115988728D01*
X132571952Y-115972889D01*
X132592755Y-115923293D01*
X132605219Y-115885038D01*
X132606863Y-115865356D01*
X132606015Y-115863962D01*
X132592548Y-115843420D01*
X132565850Y-115803516D01*
X132528539Y-115748140D01*
X132483234Y-115681177D01*
X132432552Y-115606517D01*
X132375445Y-115521692D01*
X132332607Y-115455800D01*
X132303460Y-115407478D01*
X132286317Y-115373733D01*
X132279495Y-115351572D01*
X132281306Y-115338002D01*
X132281915Y-115336984D01*
X132298297Y-115317210D01*
X132331695Y-115281175D01*
X132378671Y-115232451D01*
X132435786Y-115174612D01*
X132499603Y-115111227D01*
X132565802Y-115046905D01*
X132630648Y-114986447D01*
X132678299Y-114945655D01*
X132709990Y-114923484D01*
X132726958Y-114918889D01*
X132729175Y-114919921D01*
X132752524Y-114933837D01*
X132794912Y-114961030D01*
X132852369Y-114998889D01*
X132920923Y-115044803D01*
X132996601Y-115096160D01*
X133243298Y-115264626D01*
X133354706Y-115214062D01*
X133357943Y-115212597D01*
X133426343Y-115182965D01*
X133498907Y-115153493D01*
X133560457Y-115130358D01*
X133560729Y-115130262D01*
X133609595Y-115112367D01*
X133647212Y-115097253D01*
X133665457Y-115088184D01*
X133665752Y-115087855D01*
X133671946Y-115069282D01*
X133682139Y-115027045D01*
X133695348Y-114965696D01*
X133710590Y-114889789D01*
X133726881Y-114803875D01*
X133727449Y-114800796D01*
X133743713Y-114713128D01*
X133758608Y-114633741D01*
X133771171Y-114567701D01*
X133780438Y-114520079D01*
X133785444Y-114495943D01*
X133785764Y-114494605D01*
X133789060Y-114484273D01*
X133795738Y-114476506D01*
X133809462Y-114470940D01*
X133833895Y-114467207D01*
X133872702Y-114464942D01*
X133929546Y-114463778D01*
X134008090Y-114463348D01*
X134112000Y-114463286D01*
X134125056Y-114463286D01*
X134225933Y-114463371D01*
G37*
X160677829Y-124760097D02*
X160737753Y-124782355D01*
X160762673Y-124799080D01*
X160787910Y-124823043D01*
X160805912Y-124853526D01*
X160817858Y-124895023D01*
X160824930Y-124952032D01*
X160828308Y-125029047D01*
X160829171Y-125130565D01*
X160829002Y-125183027D01*
X160828153Y-125254715D01*
X160826711Y-125311925D01*
X160824814Y-125349809D01*
X160822597Y-125363514D01*
X160808172Y-125358981D01*
X160779054Y-125346670D01*
X160778181Y-125346272D01*
X160763060Y-125338356D01*
X160752891Y-125327495D01*
X160746691Y-125308471D01*
X160743478Y-125276069D01*
X160742270Y-125225071D01*
X160742086Y-125150261D01*
X160741714Y-125102804D01*
X160737750Y-125013615D01*
X160728673Y-124948287D01*
X160713524Y-124903393D01*
X160691345Y-124875507D01*
X160661175Y-124861203D01*
X160656990Y-124860206D01*
X160600480Y-124859427D01*
X160556410Y-124884744D01*
X160525972Y-124935502D01*
X160520544Y-124950175D01*
X160508171Y-124982649D01*
X160501905Y-124997572D01*
X160489036Y-124995516D01*
X160460933Y-124984357D01*
X160434721Y-124965927D01*
X160422771Y-124931098D01*
X160426336Y-124906151D01*
X160448235Y-124855547D01*
X160483644Y-124808128D01*
X160525052Y-124775334D01*
X160542400Y-124767752D01*
X160608089Y-124755076D01*
X160677829Y-124760097D01*
G36*
X160677829Y-124760097D02*
G01*
X160737753Y-124782355D01*
X160762673Y-124799080D01*
X160787910Y-124823043D01*
X160805912Y-124853526D01*
X160817858Y-124895023D01*
X160824930Y-124952032D01*
X160828308Y-125029047D01*
X160829171Y-125130565D01*
X160829002Y-125183027D01*
X160828153Y-125254715D01*
X160826711Y-125311925D01*
X160824814Y-125349809D01*
X160822597Y-125363514D01*
X160808172Y-125358981D01*
X160779054Y-125346670D01*
X160778181Y-125346272D01*
X160763060Y-125338356D01*
X160752891Y-125327495D01*
X160746691Y-125308471D01*
X160743478Y-125276069D01*
X160742270Y-125225071D01*
X160742086Y-125150261D01*
X160741714Y-125102804D01*
X160737750Y-125013615D01*
X160728673Y-124948287D01*
X160713524Y-124903393D01*
X160691345Y-124875507D01*
X160661175Y-124861203D01*
X160656990Y-124860206D01*
X160600480Y-124859427D01*
X160556410Y-124884744D01*
X160525972Y-124935502D01*
X160520544Y-124950175D01*
X160508171Y-124982649D01*
X160501905Y-124997572D01*
X160489036Y-124995516D01*
X160460933Y-124984357D01*
X160434721Y-124965927D01*
X160422771Y-124931098D01*
X160426336Y-124906151D01*
X160448235Y-124855547D01*
X160483644Y-124808128D01*
X160525052Y-124775334D01*
X160542400Y-124767752D01*
X160608089Y-124755076D01*
X160677829Y-124760097D01*
G37*
X164626020Y-124726822D02*
X164693810Y-124758680D01*
X164749366Y-124813770D01*
X164760881Y-124831016D01*
X164770432Y-124850562D01*
X164777206Y-124875198D01*
X164781819Y-124909711D01*
X164784888Y-124958889D01*
X164787029Y-125027519D01*
X164788859Y-125120389D01*
X164793404Y-125378007D01*
X164755225Y-125363491D01*
X164720268Y-125350156D01*
X164694097Y-125337323D01*
X164677013Y-125320780D01*
X164667086Y-125295465D01*
X164662386Y-125256316D01*
X164660982Y-125198268D01*
X164660943Y-125116261D01*
X164660744Y-125050895D01*
X164659559Y-124988173D01*
X164656729Y-124945334D01*
X164651609Y-124917220D01*
X164643553Y-124898675D01*
X164631914Y-124884543D01*
X164603303Y-124864600D01*
X164555239Y-124857083D01*
X164507688Y-124876079D01*
X164504550Y-124878511D01*
X164494769Y-124889748D01*
X164487553Y-124907770D01*
X164482299Y-124937026D01*
X164478402Y-124981962D01*
X164475256Y-125047028D01*
X164472257Y-125136670D01*
X164465000Y-125376697D01*
X164403314Y-125349044D01*
X164341629Y-125321391D01*
X164341629Y-125102246D01*
X164341884Y-125042711D01*
X164344086Y-124959892D01*
X164349661Y-124898227D01*
X164359941Y-124852748D01*
X164376258Y-124818484D01*
X164399943Y-124790466D01*
X164432328Y-124763723D01*
X164478907Y-124736780D01*
X164552287Y-124719191D01*
X164626020Y-124726822D01*
G36*
X164626020Y-124726822D02*
G01*
X164693810Y-124758680D01*
X164749366Y-124813770D01*
X164760881Y-124831016D01*
X164770432Y-124850562D01*
X164777206Y-124875198D01*
X164781819Y-124909711D01*
X164784888Y-124958889D01*
X164787029Y-125027519D01*
X164788859Y-125120389D01*
X164793404Y-125378007D01*
X164755225Y-125363491D01*
X164720268Y-125350156D01*
X164694097Y-125337323D01*
X164677013Y-125320780D01*
X164667086Y-125295465D01*
X164662386Y-125256316D01*
X164660982Y-125198268D01*
X164660943Y-125116261D01*
X164660744Y-125050895D01*
X164659559Y-124988173D01*
X164656729Y-124945334D01*
X164651609Y-124917220D01*
X164643553Y-124898675D01*
X164631914Y-124884543D01*
X164603303Y-124864600D01*
X164555239Y-124857083D01*
X164507688Y-124876079D01*
X164504550Y-124878511D01*
X164494769Y-124889748D01*
X164487553Y-124907770D01*
X164482299Y-124937026D01*
X164478402Y-124981962D01*
X164475256Y-125047028D01*
X164472257Y-125136670D01*
X164465000Y-125376697D01*
X164403314Y-125349044D01*
X164341629Y-125321391D01*
X164341629Y-125102246D01*
X164341884Y-125042711D01*
X164344086Y-124959892D01*
X164349661Y-124898227D01*
X164359941Y-124852748D01*
X164376258Y-124818484D01*
X164399943Y-124790466D01*
X164432328Y-124763723D01*
X164478907Y-124736780D01*
X164552287Y-124719191D01*
X164626020Y-124726822D01*
G37*
X162802691Y-124775467D02*
X162807273Y-124778003D01*
X162844704Y-124807057D01*
X162878170Y-124844410D01*
X162884007Y-124852852D01*
X162895165Y-124872553D01*
X162903136Y-124895935D01*
X162908618Y-124928067D01*
X162912307Y-124974019D01*
X162914899Y-125038859D01*
X162917092Y-125127657D01*
X162917402Y-125142669D01*
X162918400Y-125239999D01*
X162916994Y-125308934D01*
X162913164Y-125349948D01*
X162906889Y-125363514D01*
X162887898Y-125359452D01*
X162855638Y-125347144D01*
X162848041Y-125343545D01*
X162836176Y-125335398D01*
X162827994Y-125322004D01*
X162822643Y-125298608D01*
X162819269Y-125260455D01*
X162817019Y-125202790D01*
X162815040Y-125120857D01*
X162814498Y-125096907D01*
X162812403Y-125021266D01*
X162809683Y-124968328D01*
X162805515Y-124933075D01*
X162799079Y-124910487D01*
X162789550Y-124895544D01*
X162776106Y-124883227D01*
X162736305Y-124861634D01*
X162687341Y-124857476D01*
X162643529Y-124873999D01*
X162612008Y-124908210D01*
X162599914Y-124957114D01*
X162599578Y-124970407D01*
X162592972Y-124994472D01*
X162573470Y-124998144D01*
X162535283Y-124983813D01*
X162526438Y-124979217D01*
X162502534Y-124952186D01*
X162502061Y-124911994D01*
X162524836Y-124856409D01*
X162545727Y-124826117D01*
X162599142Y-124783084D01*
X162665074Y-124758755D01*
X162735574Y-124755443D01*
X162802691Y-124775467D01*
G36*
X162802691Y-124775467D02*
G01*
X162807273Y-124778003D01*
X162844704Y-124807057D01*
X162878170Y-124844410D01*
X162884007Y-124852852D01*
X162895165Y-124872553D01*
X162903136Y-124895935D01*
X162908618Y-124928067D01*
X162912307Y-124974019D01*
X162914899Y-125038859D01*
X162917092Y-125127657D01*
X162917402Y-125142669D01*
X162918400Y-125239999D01*
X162916994Y-125308934D01*
X162913164Y-125349948D01*
X162906889Y-125363514D01*
X162887898Y-125359452D01*
X162855638Y-125347144D01*
X162848041Y-125343545D01*
X162836176Y-125335398D01*
X162827994Y-125322004D01*
X162822643Y-125298608D01*
X162819269Y-125260455D01*
X162817019Y-125202790D01*
X162815040Y-125120857D01*
X162814498Y-125096907D01*
X162812403Y-125021266D01*
X162809683Y-124968328D01*
X162805515Y-124933075D01*
X162799079Y-124910487D01*
X162789550Y-124895544D01*
X162776106Y-124883227D01*
X162736305Y-124861634D01*
X162687341Y-124857476D01*
X162643529Y-124873999D01*
X162612008Y-124908210D01*
X162599914Y-124957114D01*
X162599578Y-124970407D01*
X162592972Y-124994472D01*
X162573470Y-124998144D01*
X162535283Y-124983813D01*
X162526438Y-124979217D01*
X162502534Y-124952186D01*
X162502061Y-124911994D01*
X162524836Y-124856409D01*
X162545727Y-124826117D01*
X162599142Y-124783084D01*
X162665074Y-124758755D01*
X162735574Y-124755443D01*
X162802691Y-124775467D01*
G37*
X163873543Y-124558444D02*
X163920714Y-124578342D01*
X163920714Y-124975509D01*
X163920519Y-125078498D01*
X163919998Y-125171141D01*
X163919199Y-125249700D01*
X163918172Y-125310439D01*
X163916963Y-125349623D01*
X163915623Y-125363514D01*
X163915099Y-125363468D01*
X163897287Y-125358420D01*
X163864823Y-125347580D01*
X163819114Y-125331646D01*
X163819114Y-125127173D01*
X163818824Y-125046832D01*
X163817474Y-124988562D01*
X163814369Y-124948909D01*
X163808812Y-124922618D01*
X163800107Y-124904436D01*
X163787556Y-124889107D01*
X163778999Y-124880955D01*
X163732728Y-124858375D01*
X163681728Y-124860375D01*
X163634993Y-124887073D01*
X163628189Y-124893698D01*
X163617293Y-124907456D01*
X163609836Y-124925642D01*
X163605169Y-124953177D01*
X163602642Y-124994981D01*
X163601602Y-125055973D01*
X163601400Y-125141073D01*
X163601303Y-125184234D01*
X163600674Y-125255224D01*
X163599556Y-125312076D01*
X163598063Y-125349828D01*
X163596309Y-125363514D01*
X163595785Y-125363468D01*
X163577973Y-125358420D01*
X163545509Y-125347580D01*
X163499800Y-125331646D01*
X163499823Y-125126237D01*
X163499857Y-125107951D01*
X163501778Y-125012626D01*
X163507678Y-124940543D01*
X163519001Y-124886813D01*
X163537187Y-124846549D01*
X163563679Y-124814861D01*
X163599918Y-124786861D01*
X163635263Y-124769333D01*
X163691773Y-124755785D01*
X163747356Y-124755015D01*
X163790086Y-124768195D01*
X163793298Y-124770015D01*
X163803205Y-124769820D01*
X163809975Y-124754572D01*
X163814861Y-124719613D01*
X163819114Y-124660289D01*
X163826371Y-124538547D01*
X163873543Y-124558444D01*
G36*
X163873543Y-124558444D02*
G01*
X163920714Y-124578342D01*
X163920714Y-124975509D01*
X163920519Y-125078498D01*
X163919998Y-125171141D01*
X163919199Y-125249700D01*
X163918172Y-125310439D01*
X163916963Y-125349623D01*
X163915623Y-125363514D01*
X163915099Y-125363468D01*
X163897287Y-125358420D01*
X163864823Y-125347580D01*
X163819114Y-125331646D01*
X163819114Y-125127173D01*
X163818824Y-125046832D01*
X163817474Y-124988562D01*
X163814369Y-124948909D01*
X163808812Y-124922618D01*
X163800107Y-124904436D01*
X163787556Y-124889107D01*
X163778999Y-124880955D01*
X163732728Y-124858375D01*
X163681728Y-124860375D01*
X163634993Y-124887073D01*
X163628189Y-124893698D01*
X163617293Y-124907456D01*
X163609836Y-124925642D01*
X163605169Y-124953177D01*
X163602642Y-124994981D01*
X163601602Y-125055973D01*
X163601400Y-125141073D01*
X163601303Y-125184234D01*
X163600674Y-125255224D01*
X163599556Y-125312076D01*
X163598063Y-125349828D01*
X163596309Y-125363514D01*
X163595785Y-125363468D01*
X163577973Y-125358420D01*
X163545509Y-125347580D01*
X163499800Y-125331646D01*
X163499823Y-125126237D01*
X163499857Y-125107951D01*
X163501778Y-125012626D01*
X163507678Y-124940543D01*
X163519001Y-124886813D01*
X163537187Y-124846549D01*
X163563679Y-124814861D01*
X163599918Y-124786861D01*
X163635263Y-124769333D01*
X163691773Y-124755785D01*
X163747356Y-124755015D01*
X163790086Y-124768195D01*
X163793298Y-124770015D01*
X163803205Y-124769820D01*
X163809975Y-124754572D01*
X163814861Y-124719613D01*
X163819114Y-124660289D01*
X163826371Y-124538547D01*
X163873543Y-124558444D01*
G37*
X161848941Y-124758282D02*
X161880774Y-124770758D01*
X161917743Y-124787602D01*
X161917743Y-125274196D01*
X161871812Y-125320127D01*
X161861320Y-125330427D01*
X161832255Y-125353320D01*
X161802943Y-125360735D01*
X161759326Y-125357321D01*
X161741568Y-125355114D01*
X161695767Y-125350445D01*
X161663743Y-125348585D01*
X161654244Y-125348869D01*
X161615274Y-125351948D01*
X161568160Y-125357321D01*
X161553085Y-125359168D01*
X161515110Y-125359893D01*
X161487325Y-125348429D01*
X161455674Y-125320127D01*
X161409743Y-125274196D01*
X161409743Y-125014055D01*
X161410101Y-124937180D01*
X161411216Y-124863886D01*
X161412952Y-124805850D01*
X161415167Y-124767663D01*
X161417721Y-124753914D01*
X161418256Y-124753951D01*
X161436808Y-124760793D01*
X161468153Y-124775868D01*
X161510608Y-124797822D01*
X161514604Y-125026240D01*
X161518600Y-125254657D01*
X161605686Y-125254657D01*
X161609657Y-125004286D01*
X161610916Y-124936227D01*
X161612718Y-124863482D01*
X161614671Y-124805730D01*
X161616612Y-124767648D01*
X161618377Y-124753914D01*
X161618885Y-124753962D01*
X161636482Y-124759015D01*
X161668834Y-124769849D01*
X161714543Y-124785783D01*
X161714765Y-125005706D01*
X161714988Y-125043909D01*
X161716531Y-125118146D01*
X161719292Y-125180145D01*
X161722977Y-125224308D01*
X161727292Y-125245041D01*
X161742732Y-125256131D01*
X161774241Y-125259556D01*
X161808886Y-125254657D01*
X161812857Y-125004286D01*
X161814278Y-124940663D01*
X161817225Y-124865356D01*
X161821079Y-124806286D01*
X161825542Y-124767718D01*
X161830317Y-124753914D01*
X161848941Y-124758282D01*
G36*
X161848941Y-124758282D02*
G01*
X161880774Y-124770758D01*
X161917743Y-124787602D01*
X161917743Y-125274196D01*
X161871812Y-125320127D01*
X161861320Y-125330427D01*
X161832255Y-125353320D01*
X161802943Y-125360735D01*
X161759326Y-125357321D01*
X161741568Y-125355114D01*
X161695767Y-125350445D01*
X161663743Y-125348585D01*
X161654244Y-125348869D01*
X161615274Y-125351948D01*
X161568160Y-125357321D01*
X161553085Y-125359168D01*
X161515110Y-125359893D01*
X161487325Y-125348429D01*
X161455674Y-125320127D01*
X161409743Y-125274196D01*
X161409743Y-125014055D01*
X161410101Y-124937180D01*
X161411216Y-124863886D01*
X161412952Y-124805850D01*
X161415167Y-124767663D01*
X161417721Y-124753914D01*
X161418256Y-124753951D01*
X161436808Y-124760793D01*
X161468153Y-124775868D01*
X161510608Y-124797822D01*
X161514604Y-125026240D01*
X161518600Y-125254657D01*
X161605686Y-125254657D01*
X161609657Y-125004286D01*
X161610916Y-124936227D01*
X161612718Y-124863482D01*
X161614671Y-124805730D01*
X161616612Y-124767648D01*
X161618377Y-124753914D01*
X161618885Y-124753962D01*
X161636482Y-124759015D01*
X161668834Y-124769849D01*
X161714543Y-124785783D01*
X161714765Y-125005706D01*
X161714988Y-125043909D01*
X161716531Y-125118146D01*
X161719292Y-125180145D01*
X161722977Y-125224308D01*
X161727292Y-125245041D01*
X161742732Y-125256131D01*
X161774241Y-125259556D01*
X161808886Y-125254657D01*
X161812857Y-125004286D01*
X161814278Y-124940663D01*
X161817225Y-124865356D01*
X161821079Y-124806286D01*
X161825542Y-124767718D01*
X161830317Y-124753914D01*
X161848941Y-124758282D01*
G37*
X166460714Y-125044200D02*
X166460701Y-125059935D01*
X166459914Y-125130119D01*
X166457210Y-125179022D01*
X166451606Y-125213178D01*
X166442119Y-125239124D01*
X166427768Y-125263397D01*
X166424237Y-125268433D01*
X166386878Y-125308143D01*
X166344311Y-125338092D01*
X166322452Y-125347810D01*
X166243908Y-125364020D01*
X166166231Y-125353535D01*
X166094645Y-125317707D01*
X166034374Y-125257887D01*
X166029286Y-125249873D01*
X166012730Y-125203342D01*
X166001573Y-125138552D01*
X165996160Y-125063727D01*
X165996768Y-124994513D01*
X166143248Y-124994513D01*
X166144402Y-125090399D01*
X166144866Y-125096569D01*
X166151629Y-125149478D01*
X166163671Y-125183029D01*
X166184005Y-125206016D01*
X166218097Y-125227548D01*
X166251814Y-125228680D01*
X166286543Y-125203857D01*
X166292584Y-125197325D01*
X166304417Y-125177779D01*
X166311404Y-125149386D01*
X166314727Y-125105430D01*
X166315571Y-125039192D01*
X166314125Y-124977150D01*
X166306907Y-124918042D01*
X166292006Y-124880686D01*
X166267636Y-124861152D01*
X166232008Y-124855514D01*
X166218440Y-124856635D01*
X166180430Y-124877194D01*
X166155312Y-124923299D01*
X166143248Y-124994513D01*
X165996768Y-124994513D01*
X165996833Y-124987096D01*
X166003937Y-124916882D01*
X166017815Y-124861312D01*
X166035649Y-124824301D01*
X166085855Y-124766733D01*
X166153885Y-124730962D01*
X166237158Y-124718665D01*
X166259398Y-124719331D01*
X166324891Y-124732947D01*
X166378687Y-124767249D01*
X166428057Y-124826338D01*
X166430995Y-124830722D01*
X166444287Y-124854299D01*
X166452932Y-124880949D01*
X166457904Y-124917159D01*
X166460174Y-124969413D01*
X166460678Y-125039192D01*
X166460714Y-125044200D01*
G36*
X166460714Y-125044200D02*
G01*
X166460701Y-125059935D01*
X166459914Y-125130119D01*
X166457210Y-125179022D01*
X166451606Y-125213178D01*
X166442119Y-125239124D01*
X166427768Y-125263397D01*
X166424237Y-125268433D01*
X166386878Y-125308143D01*
X166344311Y-125338092D01*
X166322452Y-125347810D01*
X166243908Y-125364020D01*
X166166231Y-125353535D01*
X166094645Y-125317707D01*
X166034374Y-125257887D01*
X166029286Y-125249873D01*
X166012730Y-125203342D01*
X166001573Y-125138552D01*
X165996160Y-125063727D01*
X165996768Y-124994513D01*
X166143248Y-124994513D01*
X166144402Y-125090399D01*
X166144866Y-125096569D01*
X166151629Y-125149478D01*
X166163671Y-125183029D01*
X166184005Y-125206016D01*
X166218097Y-125227548D01*
X166251814Y-125228680D01*
X166286543Y-125203857D01*
X166292584Y-125197325D01*
X166304417Y-125177779D01*
X166311404Y-125149386D01*
X166314727Y-125105430D01*
X166315571Y-125039192D01*
X166314125Y-124977150D01*
X166306907Y-124918042D01*
X166292006Y-124880686D01*
X166267636Y-124861152D01*
X166232008Y-124855514D01*
X166218440Y-124856635D01*
X166180430Y-124877194D01*
X166155312Y-124923299D01*
X166143248Y-124994513D01*
X165996768Y-124994513D01*
X165996833Y-124987096D01*
X166003937Y-124916882D01*
X166017815Y-124861312D01*
X166035649Y-124824301D01*
X166085855Y-124766733D01*
X166153885Y-124730962D01*
X166237158Y-124718665D01*
X166259398Y-124719331D01*
X166324891Y-124732947D01*
X166378687Y-124767249D01*
X166428057Y-124826338D01*
X166430995Y-124830722D01*
X166444287Y-124854299D01*
X166452932Y-124880949D01*
X166457904Y-124917159D01*
X166460174Y-124969413D01*
X166460678Y-125039192D01*
X166460714Y-125044200D01*
G37*
X160335590Y-125061622D02*
X160335307Y-125100305D01*
X160331762Y-125176521D01*
X160322483Y-125232294D01*
X160305375Y-125273613D01*
X160278344Y-125306467D01*
X160239292Y-125336846D01*
X160214445Y-125350660D01*
X160174615Y-125359965D01*
X160118665Y-125359230D01*
X160087385Y-125356283D01*
X160049653Y-125347283D01*
X160019494Y-125327720D01*
X159984408Y-125291267D01*
X159979720Y-125285943D01*
X159948177Y-125244969D01*
X159933128Y-125209283D01*
X159929286Y-125166966D01*
X159929286Y-125104779D01*
X159972742Y-125121182D01*
X160004424Y-125140356D01*
X160031962Y-125185347D01*
X160037711Y-125199752D01*
X160069855Y-125240546D01*
X160113611Y-125261081D01*
X160161254Y-125259235D01*
X160205057Y-125232886D01*
X160220111Y-125216455D01*
X160233763Y-125191667D01*
X160229493Y-125169144D01*
X160204916Y-125145964D01*
X160157651Y-125119202D01*
X160085314Y-125085934D01*
X159936543Y-125020816D01*
X159932595Y-124956308D01*
X159934079Y-124915220D01*
X160031010Y-124915220D01*
X160038368Y-124940657D01*
X160071848Y-124967814D01*
X160132614Y-124998714D01*
X160142669Y-125003190D01*
X160190751Y-125024017D01*
X160226726Y-125038665D01*
X160243444Y-125044200D01*
X160245977Y-125040126D01*
X160246993Y-125015247D01*
X160243369Y-124975257D01*
X160234242Y-124936152D01*
X160205773Y-124886884D01*
X160164678Y-124859122D01*
X160115590Y-124855364D01*
X160063144Y-124878109D01*
X160048609Y-124889481D01*
X160031010Y-124915220D01*
X159934079Y-124915220D01*
X159934338Y-124908064D01*
X159956281Y-124847096D01*
X159983979Y-124813497D01*
X160041405Y-124775966D01*
X160109527Y-124757006D01*
X160179947Y-124758507D01*
X160244267Y-124782355D01*
X160258426Y-124791513D01*
X160290904Y-124819849D01*
X160313116Y-124855695D01*
X160326804Y-124904384D01*
X160333715Y-124971249D01*
X160334628Y-125015247D01*
X160335590Y-125061622D01*
G36*
X160335590Y-125061622D02*
G01*
X160335307Y-125100305D01*
X160331762Y-125176521D01*
X160322483Y-125232294D01*
X160305375Y-125273613D01*
X160278344Y-125306467D01*
X160239292Y-125336846D01*
X160214445Y-125350660D01*
X160174615Y-125359965D01*
X160118665Y-125359230D01*
X160087385Y-125356283D01*
X160049653Y-125347283D01*
X160019494Y-125327720D01*
X159984408Y-125291267D01*
X159979720Y-125285943D01*
X159948177Y-125244969D01*
X159933128Y-125209283D01*
X159929286Y-125166966D01*
X159929286Y-125104779D01*
X159972742Y-125121182D01*
X160004424Y-125140356D01*
X160031962Y-125185347D01*
X160037711Y-125199752D01*
X160069855Y-125240546D01*
X160113611Y-125261081D01*
X160161254Y-125259235D01*
X160205057Y-125232886D01*
X160220111Y-125216455D01*
X160233763Y-125191667D01*
X160229493Y-125169144D01*
X160204916Y-125145964D01*
X160157651Y-125119202D01*
X160085314Y-125085934D01*
X159936543Y-125020816D01*
X159932595Y-124956308D01*
X159934079Y-124915220D01*
X160031010Y-124915220D01*
X160038368Y-124940657D01*
X160071848Y-124967814D01*
X160132614Y-124998714D01*
X160142669Y-125003190D01*
X160190751Y-125024017D01*
X160226726Y-125038665D01*
X160243444Y-125044200D01*
X160245977Y-125040126D01*
X160246993Y-125015247D01*
X160243369Y-124975257D01*
X160234242Y-124936152D01*
X160205773Y-124886884D01*
X160164678Y-124859122D01*
X160115590Y-124855364D01*
X160063144Y-124878109D01*
X160048609Y-124889481D01*
X160031010Y-124915220D01*
X159934079Y-124915220D01*
X159934338Y-124908064D01*
X159956281Y-124847096D01*
X159983979Y-124813497D01*
X160041405Y-124775966D01*
X160109527Y-124757006D01*
X160179947Y-124758507D01*
X160244267Y-124782355D01*
X160258426Y-124791513D01*
X160290904Y-124819849D01*
X160313116Y-124855695D01*
X160326804Y-124904384D01*
X160333715Y-124971249D01*
X160334628Y-125015247D01*
X160335590Y-125061622D01*
G37*
X162425698Y-125058714D02*
X162424537Y-125115313D01*
X162416345Y-125192462D01*
X162398519Y-125250276D01*
X162368975Y-125294422D01*
X162325625Y-125330568D01*
X162284332Y-125351463D01*
X162214987Y-125363090D01*
X162145736Y-125350377D01*
X162083145Y-125314945D01*
X162033779Y-125258418D01*
X162027818Y-125247995D01*
X162019945Y-125229733D01*
X162014106Y-125206429D01*
X162009999Y-125174085D01*
X162007325Y-125128704D01*
X162005781Y-125066287D01*
X162005734Y-125060748D01*
X162106429Y-125060748D01*
X162106772Y-125113577D01*
X162108942Y-125161362D01*
X162114307Y-125192209D01*
X162124217Y-125212935D01*
X162140021Y-125230356D01*
X162143724Y-125233705D01*
X162191299Y-125258419D01*
X162241635Y-125255890D01*
X162288517Y-125226288D01*
X162302477Y-125210953D01*
X162314160Y-125190622D01*
X162320686Y-125162514D01*
X162323524Y-125119550D01*
X162324143Y-125054647D01*
X162323837Y-125005122D01*
X162321722Y-124956782D01*
X162316390Y-124925587D01*
X162306460Y-124904647D01*
X162290550Y-124887073D01*
X162281204Y-124879159D01*
X162232776Y-124857843D01*
X162182040Y-124861198D01*
X162137987Y-124889107D01*
X162128504Y-124900173D01*
X162116939Y-124921009D01*
X162110252Y-124950106D01*
X162107173Y-124994381D01*
X162106429Y-125060748D01*
X162005734Y-125060748D01*
X162005067Y-124982837D01*
X162004883Y-124874358D01*
X162004829Y-124537601D01*
X162052000Y-124557362D01*
X162064472Y-124562770D01*
X162084324Y-124574985D01*
X162095687Y-124593482D01*
X162101933Y-124625829D01*
X162106429Y-124679593D01*
X162110535Y-124727866D01*
X162115963Y-124759557D01*
X162123739Y-124771383D01*
X162135457Y-124768212D01*
X162165318Y-124757067D01*
X162218684Y-124754304D01*
X162276093Y-124764625D01*
X162325625Y-124786861D01*
X162352876Y-124807443D01*
X162387865Y-124847600D01*
X162410274Y-124899086D01*
X162422190Y-124967568D01*
X162425542Y-125054647D01*
X162425698Y-125058714D01*
G36*
X162425698Y-125058714D02*
G01*
X162424537Y-125115313D01*
X162416345Y-125192462D01*
X162398519Y-125250276D01*
X162368975Y-125294422D01*
X162325625Y-125330568D01*
X162284332Y-125351463D01*
X162214987Y-125363090D01*
X162145736Y-125350377D01*
X162083145Y-125314945D01*
X162033779Y-125258418D01*
X162027818Y-125247995D01*
X162019945Y-125229733D01*
X162014106Y-125206429D01*
X162009999Y-125174085D01*
X162007325Y-125128704D01*
X162005781Y-125066287D01*
X162005734Y-125060748D01*
X162106429Y-125060748D01*
X162106772Y-125113577D01*
X162108942Y-125161362D01*
X162114307Y-125192209D01*
X162124217Y-125212935D01*
X162140021Y-125230356D01*
X162143724Y-125233705D01*
X162191299Y-125258419D01*
X162241635Y-125255890D01*
X162288517Y-125226288D01*
X162302477Y-125210953D01*
X162314160Y-125190622D01*
X162320686Y-125162514D01*
X162323524Y-125119550D01*
X162324143Y-125054647D01*
X162323837Y-125005122D01*
X162321722Y-124956782D01*
X162316390Y-124925587D01*
X162306460Y-124904647D01*
X162290550Y-124887073D01*
X162281204Y-124879159D01*
X162232776Y-124857843D01*
X162182040Y-124861198D01*
X162137987Y-124889107D01*
X162128504Y-124900173D01*
X162116939Y-124921009D01*
X162110252Y-124950106D01*
X162107173Y-124994381D01*
X162106429Y-125060748D01*
X162005734Y-125060748D01*
X162005067Y-124982837D01*
X162004883Y-124874358D01*
X162004829Y-124537601D01*
X162052000Y-124557362D01*
X162064472Y-124562770D01*
X162084324Y-124574985D01*
X162095687Y-124593482D01*
X162101933Y-124625829D01*
X162106429Y-124679593D01*
X162110535Y-124727866D01*
X162115963Y-124759557D01*
X162123739Y-124771383D01*
X162135457Y-124768212D01*
X162165318Y-124757067D01*
X162218684Y-124754304D01*
X162276093Y-124764625D01*
X162325625Y-124786861D01*
X162352876Y-124807443D01*
X162387865Y-124847600D01*
X162410274Y-124899086D01*
X162422190Y-124967568D01*
X162425542Y-125054647D01*
X162425698Y-125058714D01*
G37*
X165357299Y-125003055D02*
X165352684Y-125113078D01*
X165350078Y-125136387D01*
X165330660Y-125219352D01*
X165295573Y-125282448D01*
X165242212Y-125330808D01*
X165239196Y-125332804D01*
X165171362Y-125361185D01*
X165100535Y-125363711D01*
X165032289Y-125342097D01*
X164972196Y-125298062D01*
X164925829Y-125233322D01*
X164925050Y-125231761D01*
X164909643Y-125191558D01*
X164898357Y-125145866D01*
X164892370Y-125102972D01*
X164892861Y-125071160D01*
X164901007Y-125058714D01*
X164908244Y-125059471D01*
X164942851Y-125073235D01*
X164982078Y-125098546D01*
X165015448Y-125127845D01*
X165032483Y-125153572D01*
X165050192Y-125188471D01*
X165086485Y-125220212D01*
X165128630Y-125232886D01*
X165144077Y-125229221D01*
X165174569Y-125210774D01*
X165201128Y-125185166D01*
X165212486Y-125161934D01*
X165212482Y-125161848D01*
X165199596Y-125151179D01*
X165165241Y-125131933D01*
X165114593Y-125106813D01*
X165052829Y-125078524D01*
X165052489Y-125078374D01*
X164985388Y-125048498D01*
X164940411Y-125026973D01*
X164913145Y-125010437D01*
X164899178Y-124995531D01*
X164894097Y-124978893D01*
X164893490Y-124957162D01*
X164897712Y-124916013D01*
X165041000Y-124916013D01*
X165055791Y-124928949D01*
X165092644Y-124948333D01*
X165093725Y-124948881D01*
X165137205Y-124969587D01*
X165176102Y-124986105D01*
X165200778Y-124993093D01*
X165210676Y-124983753D01*
X165212486Y-124951748D01*
X165204966Y-124911915D01*
X165178897Y-124875717D01*
X165141154Y-124856950D01*
X165099077Y-124858845D01*
X165060005Y-124884632D01*
X165044647Y-124902451D01*
X165041000Y-124916013D01*
X164897712Y-124916013D01*
X164898833Y-124905086D01*
X164925251Y-124834335D01*
X164969473Y-124778735D01*
X165026697Y-124740239D01*
X165092120Y-124720797D01*
X165160937Y-124722359D01*
X165228347Y-124746878D01*
X165289544Y-124796302D01*
X165323450Y-124845212D01*
X165347806Y-124915027D01*
X165351767Y-124951748D01*
X165357299Y-125003055D01*
G36*
X165357299Y-125003055D02*
G01*
X165352684Y-125113078D01*
X165350078Y-125136387D01*
X165330660Y-125219352D01*
X165295573Y-125282448D01*
X165242212Y-125330808D01*
X165239196Y-125332804D01*
X165171362Y-125361185D01*
X165100535Y-125363711D01*
X165032289Y-125342097D01*
X164972196Y-125298062D01*
X164925829Y-125233322D01*
X164925050Y-125231761D01*
X164909643Y-125191558D01*
X164898357Y-125145866D01*
X164892370Y-125102972D01*
X164892861Y-125071160D01*
X164901007Y-125058714D01*
X164908244Y-125059471D01*
X164942851Y-125073235D01*
X164982078Y-125098546D01*
X165015448Y-125127845D01*
X165032483Y-125153572D01*
X165050192Y-125188471D01*
X165086485Y-125220212D01*
X165128630Y-125232886D01*
X165144077Y-125229221D01*
X165174569Y-125210774D01*
X165201128Y-125185166D01*
X165212486Y-125161934D01*
X165212482Y-125161848D01*
X165199596Y-125151179D01*
X165165241Y-125131933D01*
X165114593Y-125106813D01*
X165052829Y-125078524D01*
X165052489Y-125078374D01*
X164985388Y-125048498D01*
X164940411Y-125026973D01*
X164913145Y-125010437D01*
X164899178Y-124995531D01*
X164894097Y-124978893D01*
X164893490Y-124957162D01*
X164897712Y-124916013D01*
X165041000Y-124916013D01*
X165055791Y-124928949D01*
X165092644Y-124948333D01*
X165093725Y-124948881D01*
X165137205Y-124969587D01*
X165176102Y-124986105D01*
X165200778Y-124993093D01*
X165210676Y-124983753D01*
X165212486Y-124951748D01*
X165204966Y-124911915D01*
X165178897Y-124875717D01*
X165141154Y-124856950D01*
X165099077Y-124858845D01*
X165060005Y-124884632D01*
X165044647Y-124902451D01*
X165041000Y-124916013D01*
X164897712Y-124916013D01*
X164898833Y-124905086D01*
X164925251Y-124834335D01*
X164969473Y-124778735D01*
X165026697Y-124740239D01*
X165092120Y-124720797D01*
X165160937Y-124722359D01*
X165228347Y-124746878D01*
X165289544Y-124796302D01*
X165323450Y-124845212D01*
X165347806Y-124915027D01*
X165351767Y-124951748D01*
X165357299Y-125003055D01*
G37*
X163284483Y-124769569D02*
X163334376Y-124798661D01*
X163356325Y-124821327D01*
X163398504Y-124889082D01*
X163412714Y-124962950D01*
X163412714Y-125013770D01*
X163365999Y-124994128D01*
X163333692Y-124974308D01*
X163308231Y-124933160D01*
X163305616Y-124924675D01*
X163277478Y-124881451D01*
X163235067Y-124858103D01*
X163186370Y-124857100D01*
X163139373Y-124880914D01*
X163132357Y-124887056D01*
X163108893Y-124913745D01*
X163105019Y-124937014D01*
X163122768Y-124959862D01*
X163164179Y-124985287D01*
X163231286Y-125016288D01*
X163235824Y-125018252D01*
X163310322Y-125052990D01*
X163361203Y-125083763D01*
X163392525Y-125114488D01*
X163408343Y-125149082D01*
X163412714Y-125191462D01*
X163406986Y-125238446D01*
X163378062Y-125298585D01*
X163327178Y-125341788D01*
X163290374Y-125354759D01*
X163238434Y-125361856D01*
X163187999Y-125360340D01*
X163151983Y-125349632D01*
X163148158Y-125346966D01*
X163137998Y-125328337D01*
X163145048Y-125295505D01*
X163157297Y-125269735D01*
X163176939Y-125259006D01*
X163214191Y-125259539D01*
X163265908Y-125256462D01*
X163299701Y-125235212D01*
X163311114Y-125195877D01*
X163311104Y-125194747D01*
X163304187Y-125171913D01*
X163280659Y-125150963D01*
X163234914Y-125126815D01*
X163172704Y-125097741D01*
X163131499Y-125081925D01*
X163107712Y-125082944D01*
X163096597Y-125103837D01*
X163093408Y-125147641D01*
X163093400Y-125217393D01*
X163093044Y-125260452D01*
X163091413Y-125313626D01*
X163088761Y-125350022D01*
X163085422Y-125363514D01*
X163084530Y-125363423D01*
X163065237Y-125356110D01*
X163033284Y-125340678D01*
X162989124Y-125317842D01*
X162994371Y-125112078D01*
X162994736Y-125098432D01*
X162998904Y-125002651D01*
X163006268Y-124930462D01*
X163018330Y-124877058D01*
X163036593Y-124837633D01*
X163062560Y-124807380D01*
X163097733Y-124781493D01*
X163098384Y-124781087D01*
X163155256Y-124759968D01*
X163221033Y-124756400D01*
X163284483Y-124769569D01*
G36*
X163284483Y-124769569D02*
G01*
X163334376Y-124798661D01*
X163356325Y-124821327D01*
X163398504Y-124889082D01*
X163412714Y-124962950D01*
X163412714Y-125013770D01*
X163365999Y-124994128D01*
X163333692Y-124974308D01*
X163308231Y-124933160D01*
X163305616Y-124924675D01*
X163277478Y-124881451D01*
X163235067Y-124858103D01*
X163186370Y-124857100D01*
X163139373Y-124880914D01*
X163132357Y-124887056D01*
X163108893Y-124913745D01*
X163105019Y-124937014D01*
X163122768Y-124959862D01*
X163164179Y-124985287D01*
X163231286Y-125016288D01*
X163235824Y-125018252D01*
X163310322Y-125052990D01*
X163361203Y-125083763D01*
X163392525Y-125114488D01*
X163408343Y-125149082D01*
X163412714Y-125191462D01*
X163406986Y-125238446D01*
X163378062Y-125298585D01*
X163327178Y-125341788D01*
X163290374Y-125354759D01*
X163238434Y-125361856D01*
X163187999Y-125360340D01*
X163151983Y-125349632D01*
X163148158Y-125346966D01*
X163137998Y-125328337D01*
X163145048Y-125295505D01*
X163157297Y-125269735D01*
X163176939Y-125259006D01*
X163214191Y-125259539D01*
X163265908Y-125256462D01*
X163299701Y-125235212D01*
X163311114Y-125195877D01*
X163311104Y-125194747D01*
X163304187Y-125171913D01*
X163280659Y-125150963D01*
X163234914Y-125126815D01*
X163172704Y-125097741D01*
X163131499Y-125081925D01*
X163107712Y-125082944D01*
X163096597Y-125103837D01*
X163093408Y-125147641D01*
X163093400Y-125217393D01*
X163093044Y-125260452D01*
X163091413Y-125313626D01*
X163088761Y-125350022D01*
X163085422Y-125363514D01*
X163084530Y-125363423D01*
X163065237Y-125356110D01*
X163033284Y-125340678D01*
X162989124Y-125317842D01*
X162994371Y-125112078D01*
X162994736Y-125098432D01*
X162998904Y-125002651D01*
X163006268Y-124930462D01*
X163018330Y-124877058D01*
X163036593Y-124837633D01*
X163062560Y-124807380D01*
X163097733Y-124781493D01*
X163098384Y-124781087D01*
X163155256Y-124759968D01*
X163221033Y-124756400D01*
X163284483Y-124769569D01*
G37*
X165904815Y-125110524D02*
X165906252Y-125222000D01*
X165906651Y-125254339D01*
X165907929Y-125362455D01*
X165908185Y-125445186D01*
X165906634Y-125505426D01*
X165902490Y-125546073D01*
X165894964Y-125570023D01*
X165883271Y-125580171D01*
X165866624Y-125579414D01*
X165844236Y-125570648D01*
X165815321Y-125556769D01*
X165809142Y-125553808D01*
X165783413Y-125539311D01*
X165769976Y-125522065D01*
X165764834Y-125493308D01*
X165763990Y-125444283D01*
X165763952Y-125356257D01*
X165673276Y-125356257D01*
X165617498Y-125353815D01*
X165573640Y-125343908D01*
X165537218Y-125323886D01*
X165534503Y-125321929D01*
X165497546Y-125288869D01*
X165471826Y-125248931D01*
X165455606Y-125196657D01*
X165447148Y-125126588D01*
X165445083Y-125047430D01*
X165589857Y-125047430D01*
X165589882Y-125060697D01*
X165591261Y-125120584D01*
X165595687Y-125159732D01*
X165604461Y-125185153D01*
X165618886Y-125203857D01*
X165619784Y-125204750D01*
X165655237Y-125228952D01*
X165689596Y-125226567D01*
X165728403Y-125197260D01*
X165737895Y-125187244D01*
X165751876Y-125166708D01*
X165759760Y-125139997D01*
X165763245Y-125099499D01*
X165764029Y-125037603D01*
X165763350Y-125000130D01*
X165755983Y-124931980D01*
X165739168Y-124887330D01*
X165711234Y-124862926D01*
X165670509Y-124855514D01*
X165653350Y-124857094D01*
X165623660Y-124872766D01*
X165604031Y-124907691D01*
X165593188Y-124964901D01*
X165589857Y-125047430D01*
X165445083Y-125047430D01*
X165444714Y-125033267D01*
X165445253Y-124965169D01*
X165447707Y-124913587D01*
X165453158Y-124877816D01*
X165462686Y-124851015D01*
X165477371Y-124826338D01*
X165490852Y-124807480D01*
X165539799Y-124756568D01*
X165595256Y-124728918D01*
X165664928Y-124720165D01*
X165744664Y-124728890D01*
X165813595Y-124760185D01*
X165868113Y-124815381D01*
X165872223Y-124821224D01*
X165881808Y-124836753D01*
X165889151Y-124854498D01*
X165894612Y-124878290D01*
X165898550Y-124911958D01*
X165901323Y-124959333D01*
X165903292Y-125024245D01*
X165903528Y-125037603D01*
X165904815Y-125110524D01*
G36*
X165904815Y-125110524D02*
G01*
X165906252Y-125222000D01*
X165906651Y-125254339D01*
X165907929Y-125362455D01*
X165908185Y-125445186D01*
X165906634Y-125505426D01*
X165902490Y-125546073D01*
X165894964Y-125570023D01*
X165883271Y-125580171D01*
X165866624Y-125579414D01*
X165844236Y-125570648D01*
X165815321Y-125556769D01*
X165809142Y-125553808D01*
X165783413Y-125539311D01*
X165769976Y-125522065D01*
X165764834Y-125493308D01*
X165763990Y-125444283D01*
X165763952Y-125356257D01*
X165673276Y-125356257D01*
X165617498Y-125353815D01*
X165573640Y-125343908D01*
X165537218Y-125323886D01*
X165534503Y-125321929D01*
X165497546Y-125288869D01*
X165471826Y-125248931D01*
X165455606Y-125196657D01*
X165447148Y-125126588D01*
X165445083Y-125047430D01*
X165589857Y-125047430D01*
X165589882Y-125060697D01*
X165591261Y-125120584D01*
X165595687Y-125159732D01*
X165604461Y-125185153D01*
X165618886Y-125203857D01*
X165619784Y-125204750D01*
X165655237Y-125228952D01*
X165689596Y-125226567D01*
X165728403Y-125197260D01*
X165737895Y-125187244D01*
X165751876Y-125166708D01*
X165759760Y-125139997D01*
X165763245Y-125099499D01*
X165764029Y-125037603D01*
X165763350Y-125000130D01*
X165755983Y-124931980D01*
X165739168Y-124887330D01*
X165711234Y-124862926D01*
X165670509Y-124855514D01*
X165653350Y-124857094D01*
X165623660Y-124872766D01*
X165604031Y-124907691D01*
X165593188Y-124964901D01*
X165589857Y-125047430D01*
X165445083Y-125047430D01*
X165444714Y-125033267D01*
X165445253Y-124965169D01*
X165447707Y-124913587D01*
X165453158Y-124877816D01*
X165462686Y-124851015D01*
X165477371Y-124826338D01*
X165490852Y-124807480D01*
X165539799Y-124756568D01*
X165595256Y-124728918D01*
X165664928Y-124720165D01*
X165744664Y-124728890D01*
X165813595Y-124760185D01*
X165868113Y-124815381D01*
X165872223Y-124821224D01*
X165881808Y-124836753D01*
X165889151Y-124854498D01*
X165894612Y-124878290D01*
X165898550Y-124911958D01*
X165901323Y-124959333D01*
X165903292Y-125024245D01*
X165903528Y-125037603D01*
X165904815Y-125110524D01*
G37*
X161162495Y-124755220D02*
X161193599Y-124763121D01*
X161222559Y-124782817D01*
X161259831Y-124819484D01*
X161283801Y-124845378D01*
X161308770Y-124878997D01*
X161320031Y-124910506D01*
X161322657Y-124950485D01*
X161322657Y-125015917D01*
X161278035Y-124992842D01*
X161242673Y-124964724D01*
X161218451Y-124926848D01*
X161214291Y-124916551D01*
X161182594Y-124876637D01*
X161138554Y-124856624D01*
X161090531Y-124858572D01*
X161046886Y-124884543D01*
X161028420Y-124905635D01*
X161017663Y-124932619D01*
X161029178Y-124956634D01*
X161064981Y-124980791D01*
X161127090Y-125008199D01*
X161136515Y-125011985D01*
X161193058Y-125036759D01*
X161241580Y-125061189D01*
X161272451Y-125080486D01*
X161303371Y-125114953D01*
X161323927Y-125169957D01*
X161321744Y-125228983D01*
X161297424Y-125284845D01*
X161251568Y-125330355D01*
X161214438Y-125349727D01*
X161142711Y-125363292D01*
X161102852Y-125361462D01*
X161065953Y-125351568D01*
X161051797Y-125330806D01*
X161057091Y-125296613D01*
X161058631Y-125292092D01*
X161070842Y-125268116D01*
X161091174Y-125259042D01*
X161129908Y-125259649D01*
X161157257Y-125260474D01*
X161189257Y-125253392D01*
X161211182Y-125232219D01*
X161223670Y-125206152D01*
X161225062Y-125178845D01*
X161224998Y-125178685D01*
X161208807Y-125163930D01*
X161174155Y-125142457D01*
X161129321Y-125118458D01*
X161082582Y-125096125D01*
X161042217Y-125079652D01*
X161016504Y-125073229D01*
X161012679Y-125079518D01*
X161007864Y-125109115D01*
X161004566Y-125157447D01*
X161003343Y-125218372D01*
X161003058Y-125260542D01*
X161001718Y-125313653D01*
X160999528Y-125350025D01*
X160996769Y-125363514D01*
X160982344Y-125358981D01*
X160953226Y-125346670D01*
X160916257Y-125329826D01*
X160916257Y-125113721D01*
X160916493Y-125058327D01*
X160918729Y-124974207D01*
X160924423Y-124911800D01*
X160934903Y-124866358D01*
X160951497Y-124833133D01*
X160975531Y-124807378D01*
X161008333Y-124784344D01*
X161050124Y-124765335D01*
X161127287Y-124753914D01*
X161162495Y-124755220D01*
G36*
X161162495Y-124755220D02*
G01*
X161193599Y-124763121D01*
X161222559Y-124782817D01*
X161259831Y-124819484D01*
X161283801Y-124845378D01*
X161308770Y-124878997D01*
X161320031Y-124910506D01*
X161322657Y-124950485D01*
X161322657Y-125015917D01*
X161278035Y-124992842D01*
X161242673Y-124964724D01*
X161218451Y-124926848D01*
X161214291Y-124916551D01*
X161182594Y-124876637D01*
X161138554Y-124856624D01*
X161090531Y-124858572D01*
X161046886Y-124884543D01*
X161028420Y-124905635D01*
X161017663Y-124932619D01*
X161029178Y-124956634D01*
X161064981Y-124980791D01*
X161127090Y-125008199D01*
X161136515Y-125011985D01*
X161193058Y-125036759D01*
X161241580Y-125061189D01*
X161272451Y-125080486D01*
X161303371Y-125114953D01*
X161323927Y-125169957D01*
X161321744Y-125228983D01*
X161297424Y-125284845D01*
X161251568Y-125330355D01*
X161214438Y-125349727D01*
X161142711Y-125363292D01*
X161102852Y-125361462D01*
X161065953Y-125351568D01*
X161051797Y-125330806D01*
X161057091Y-125296613D01*
X161058631Y-125292092D01*
X161070842Y-125268116D01*
X161091174Y-125259042D01*
X161129908Y-125259649D01*
X161157257Y-125260474D01*
X161189257Y-125253392D01*
X161211182Y-125232219D01*
X161223670Y-125206152D01*
X161225062Y-125178845D01*
X161224998Y-125178685D01*
X161208807Y-125163930D01*
X161174155Y-125142457D01*
X161129321Y-125118458D01*
X161082582Y-125096125D01*
X161042217Y-125079652D01*
X161016504Y-125073229D01*
X161012679Y-125079518D01*
X161007864Y-125109115D01*
X161004566Y-125157447D01*
X161003343Y-125218372D01*
X161003058Y-125260542D01*
X161001718Y-125313653D01*
X160999528Y-125350025D01*
X160996769Y-125363514D01*
X160982344Y-125358981D01*
X160953226Y-125346670D01*
X160916257Y-125329826D01*
X160916257Y-125113721D01*
X160916493Y-125058327D01*
X160918729Y-124974207D01*
X160924423Y-124911800D01*
X160934903Y-124866358D01*
X160951497Y-124833133D01*
X160975531Y-124807378D01*
X161008333Y-124784344D01*
X161050124Y-124765335D01*
X161127287Y-124753914D01*
X161162495Y-124755220D01*
G37*
X163308933Y-120051371D02*
X163384856Y-120051865D01*
X163439491Y-120053135D01*
X163476500Y-120055547D01*
X163499547Y-120059467D01*
X163512296Y-120065262D01*
X163518411Y-120073299D01*
X163521556Y-120083943D01*
X163521646Y-120084325D01*
X163526814Y-120109347D01*
X163536209Y-120157681D01*
X163548867Y-120224260D01*
X163563825Y-120304014D01*
X163580119Y-120391875D01*
X163581448Y-120399064D01*
X163597691Y-120484340D01*
X163612805Y-120559242D01*
X163625808Y-120619219D01*
X163635715Y-120659717D01*
X163641544Y-120676184D01*
X163641575Y-120676210D01*
X163659943Y-120685320D01*
X163697640Y-120700457D01*
X163746543Y-120718358D01*
X163749297Y-120719330D01*
X163811817Y-120742959D01*
X163884543Y-120772595D01*
X163952294Y-120802062D01*
X164063703Y-120852626D01*
X164310399Y-120684160D01*
X164327775Y-120672311D01*
X164402202Y-120621947D01*
X164468614Y-120577612D01*
X164523039Y-120541916D01*
X164561506Y-120517471D01*
X164580042Y-120506889D01*
X164592743Y-120509315D01*
X164621579Y-120528110D01*
X164666143Y-120565330D01*
X164727670Y-120622020D01*
X164807398Y-120699227D01*
X164814532Y-120706255D01*
X164877796Y-120769222D01*
X164933990Y-120826268D01*
X164979677Y-120873817D01*
X165011414Y-120908297D01*
X165025764Y-120926131D01*
X165025810Y-120926217D01*
X165027633Y-120939795D01*
X165020910Y-120961820D01*
X165003946Y-120995304D01*
X164975044Y-121043261D01*
X164932508Y-121108704D01*
X164874644Y-121194645D01*
X164864783Y-121209151D01*
X164814913Y-121282635D01*
X164770905Y-121347687D01*
X164735380Y-121400417D01*
X164710959Y-121436936D01*
X164700264Y-121453356D01*
X164699458Y-121456834D01*
X164704518Y-121482785D01*
X164719677Y-121525159D01*
X164742463Y-121576728D01*
X164773429Y-121644170D01*
X164808004Y-121724195D01*
X164837366Y-121796629D01*
X164844645Y-121815377D01*
X164863710Y-121863246D01*
X164877715Y-121896596D01*
X164884041Y-121909114D01*
X164891025Y-121910050D01*
X164922413Y-121915461D01*
X164973787Y-121924806D01*
X165039802Y-121937069D01*
X165115113Y-121951232D01*
X165194375Y-121966280D01*
X165272243Y-121981195D01*
X165343370Y-121994961D01*
X165402412Y-122006562D01*
X165444022Y-122014980D01*
X165462857Y-122019199D01*
X165465980Y-122020389D01*
X165473591Y-122026805D01*
X165479254Y-122040465D01*
X165483251Y-122064999D01*
X165485866Y-122104038D01*
X165487384Y-122161213D01*
X165488086Y-122240154D01*
X165488257Y-122344492D01*
X165488257Y-122661799D01*
X165412057Y-122676839D01*
X165402840Y-122678642D01*
X165353891Y-122687980D01*
X165286205Y-122700669D01*
X165207478Y-122715273D01*
X165125400Y-122730355D01*
X165093078Y-122736422D01*
X165020855Y-122751181D01*
X164960666Y-122765137D01*
X164918040Y-122776952D01*
X164898510Y-122785287D01*
X164889660Y-122798905D01*
X164873548Y-122834938D01*
X164857065Y-122881572D01*
X164851263Y-122899034D01*
X164829906Y-122956358D01*
X164802359Y-123024201D01*
X164773107Y-123091355D01*
X164757463Y-123126430D01*
X164735174Y-123178822D01*
X164719857Y-123218058D01*
X164714162Y-123237563D01*
X164714478Y-123239036D01*
X164725281Y-123259729D01*
X164749638Y-123299665D01*
X164785081Y-123354972D01*
X164829136Y-123421781D01*
X164879332Y-123496220D01*
X165044501Y-123738623D01*
X164827503Y-123955983D01*
X164806516Y-123976899D01*
X164742342Y-124039505D01*
X164684990Y-124093495D01*
X164637820Y-124135826D01*
X164604192Y-124163457D01*
X164587467Y-124173343D01*
X164569303Y-124165821D01*
X164531265Y-124144227D01*
X164477726Y-124111151D01*
X164412884Y-124069191D01*
X164340940Y-124020943D01*
X164270275Y-123973291D01*
X164206526Y-123931328D01*
X164154513Y-123898165D01*
X164118279Y-123876378D01*
X164101867Y-123868543D01*
X164100905Y-123868614D01*
X164079103Y-123876338D01*
X164040440Y-123894323D01*
X163992612Y-123919013D01*
X163992110Y-123919284D01*
X163928587Y-123951099D01*
X163885060Y-123966642D01*
X163858052Y-123966685D01*
X163844090Y-123952000D01*
X163838180Y-123937544D01*
X163822229Y-123898831D01*
X163797660Y-123839316D01*
X163765779Y-123762165D01*
X163727893Y-123670541D01*
X163685310Y-123567607D01*
X163639337Y-123456526D01*
X163597667Y-123355472D01*
X163555268Y-123251780D01*
X163517756Y-123159119D01*
X163486388Y-123080642D01*
X163462425Y-123019500D01*
X163447123Y-122978843D01*
X163441743Y-122961825D01*
X163452018Y-122946219D01*
X163480563Y-122920162D01*
X163520971Y-122889887D01*
X163617979Y-122810684D01*
X163704793Y-122709475D01*
X163768322Y-122598116D01*
X163808177Y-122479893D01*
X163823965Y-122358095D01*
X163815296Y-122236010D01*
X163781778Y-122116925D01*
X163723021Y-122004129D01*
X163638632Y-121900911D01*
X163594631Y-121860713D01*
X163489211Y-121789638D01*
X163376410Y-121743301D01*
X163259525Y-121720599D01*
X163141853Y-121720428D01*
X163026690Y-121741687D01*
X162917335Y-121783270D01*
X162817083Y-121844076D01*
X162729233Y-121923001D01*
X162657080Y-122018941D01*
X162603922Y-122130795D01*
X162573057Y-122257457D01*
X162567392Y-122318507D01*
X162575185Y-122450776D01*
X162610284Y-122576266D01*
X162671649Y-122692759D01*
X162758243Y-122798039D01*
X162869029Y-122889887D01*
X162907931Y-122918930D01*
X162937104Y-122945272D01*
X162948257Y-122961800D01*
X162943810Y-122976209D01*
X162929378Y-123014815D01*
X162906173Y-123074201D01*
X162875452Y-123151215D01*
X162838474Y-123242703D01*
X162796496Y-123345516D01*
X162750778Y-123456502D01*
X162709178Y-123557072D01*
X162666222Y-123660947D01*
X162627829Y-123753819D01*
X162595305Y-123832525D01*
X162569958Y-123893899D01*
X162553095Y-123934779D01*
X162546025Y-123952000D01*
X162545943Y-123952204D01*
X162531798Y-123966745D01*
X162504659Y-123966579D01*
X162461023Y-123950927D01*
X162397388Y-123919013D01*
X162392379Y-123916326D01*
X162345125Y-123892150D01*
X162307811Y-123875037D01*
X162288133Y-123868543D01*
X162272005Y-123876218D01*
X162235959Y-123897871D01*
X162184092Y-123930928D01*
X162120445Y-123972810D01*
X162049060Y-124020943D01*
X161978724Y-124068131D01*
X161913670Y-124110267D01*
X161859820Y-124143578D01*
X161821374Y-124165469D01*
X161802534Y-124173343D01*
X161799325Y-124172343D01*
X161776954Y-124156584D01*
X161738733Y-124124033D01*
X161688021Y-124077733D01*
X161628181Y-124020726D01*
X161562571Y-123956058D01*
X161345648Y-123738772D01*
X161514601Y-123490253D01*
X161683553Y-123241733D01*
X161632183Y-123130595D01*
X161632031Y-123130266D01*
X161601183Y-123059418D01*
X161569661Y-122980523D01*
X161544266Y-122910600D01*
X161540423Y-122899322D01*
X161521047Y-122846967D01*
X161503574Y-122806283D01*
X161491388Y-122785287D01*
X161486426Y-122782322D01*
X161456634Y-122772375D01*
X161406047Y-122759505D01*
X161340194Y-122745053D01*
X161264600Y-122730355D01*
X161241957Y-122726210D01*
X161160038Y-122711116D01*
X161083600Y-122696899D01*
X161020337Y-122684995D01*
X160977943Y-122676839D01*
X160901743Y-122661799D01*
X160901743Y-122344492D01*
X160901760Y-122305476D01*
X160902082Y-122210292D01*
X160903033Y-122139255D01*
X160904896Y-122088734D01*
X160907955Y-122055098D01*
X160912494Y-122034718D01*
X160918795Y-122023962D01*
X160927143Y-122019199D01*
X160935224Y-122017270D01*
X160968172Y-122010445D01*
X161020736Y-122000022D01*
X161087569Y-121987018D01*
X161163328Y-121972449D01*
X161242665Y-121957333D01*
X161320237Y-121942685D01*
X161390698Y-121929523D01*
X161448702Y-121918863D01*
X161488904Y-121911721D01*
X161505959Y-121909114D01*
X161507112Y-121907541D01*
X161516385Y-121887119D01*
X161532432Y-121848045D01*
X161552635Y-121796629D01*
X161580672Y-121727353D01*
X161615186Y-121647290D01*
X161647538Y-121576728D01*
X161654952Y-121560889D01*
X161675755Y-121511293D01*
X161688219Y-121473038D01*
X161689863Y-121453356D01*
X161689015Y-121451962D01*
X161675548Y-121431420D01*
X161648850Y-121391516D01*
X161611539Y-121336140D01*
X161566234Y-121269177D01*
X161515552Y-121194517D01*
X161458445Y-121109692D01*
X161415607Y-121043800D01*
X161386460Y-120995478D01*
X161369317Y-120961733D01*
X161362495Y-120939572D01*
X161364306Y-120926002D01*
X161364915Y-120924984D01*
X161381297Y-120905210D01*
X161414695Y-120869175D01*
X161461671Y-120820451D01*
X161518786Y-120762612D01*
X161582603Y-120699227D01*
X161648802Y-120634905D01*
X161713648Y-120574447D01*
X161761299Y-120533655D01*
X161792990Y-120511484D01*
X161809958Y-120506889D01*
X161812175Y-120507921D01*
X161835524Y-120521837D01*
X161877912Y-120549030D01*
X161935369Y-120586889D01*
X162003923Y-120632803D01*
X162079601Y-120684160D01*
X162326298Y-120852626D01*
X162437706Y-120802062D01*
X162440943Y-120800597D01*
X162509343Y-120770965D01*
X162581907Y-120741493D01*
X162643457Y-120718358D01*
X162643729Y-120718262D01*
X162692595Y-120700367D01*
X162730212Y-120685253D01*
X162748457Y-120676184D01*
X162748752Y-120675855D01*
X162754946Y-120657282D01*
X162765139Y-120615045D01*
X162778348Y-120553696D01*
X162793590Y-120477789D01*
X162809881Y-120391875D01*
X162810449Y-120388796D01*
X162826713Y-120301128D01*
X162841608Y-120221741D01*
X162854171Y-120155701D01*
X162863438Y-120108079D01*
X162868444Y-120083943D01*
X162868764Y-120082605D01*
X162872060Y-120072273D01*
X162878738Y-120064506D01*
X162892462Y-120058940D01*
X162916895Y-120055207D01*
X162955702Y-120052942D01*
X163012546Y-120051778D01*
X163091090Y-120051348D01*
X163195000Y-120051286D01*
X163208056Y-120051286D01*
X163308933Y-120051371D01*
G36*
X163308933Y-120051371D02*
G01*
X163384856Y-120051865D01*
X163439491Y-120053135D01*
X163476500Y-120055547D01*
X163499547Y-120059467D01*
X163512296Y-120065262D01*
X163518411Y-120073299D01*
X163521556Y-120083943D01*
X163521646Y-120084325D01*
X163526814Y-120109347D01*
X163536209Y-120157681D01*
X163548867Y-120224260D01*
X163563825Y-120304014D01*
X163580119Y-120391875D01*
X163581448Y-120399064D01*
X163597691Y-120484340D01*
X163612805Y-120559242D01*
X163625808Y-120619219D01*
X163635715Y-120659717D01*
X163641544Y-120676184D01*
X163641575Y-120676210D01*
X163659943Y-120685320D01*
X163697640Y-120700457D01*
X163746543Y-120718358D01*
X163749297Y-120719330D01*
X163811817Y-120742959D01*
X163884543Y-120772595D01*
X163952294Y-120802062D01*
X164063703Y-120852626D01*
X164310399Y-120684160D01*
X164327775Y-120672311D01*
X164402202Y-120621947D01*
X164468614Y-120577612D01*
X164523039Y-120541916D01*
X164561506Y-120517471D01*
X164580042Y-120506889D01*
X164592743Y-120509315D01*
X164621579Y-120528110D01*
X164666143Y-120565330D01*
X164727670Y-120622020D01*
X164807398Y-120699227D01*
X164814532Y-120706255D01*
X164877796Y-120769222D01*
X164933990Y-120826268D01*
X164979677Y-120873817D01*
X165011414Y-120908297D01*
X165025764Y-120926131D01*
X165025810Y-120926217D01*
X165027633Y-120939795D01*
X165020910Y-120961820D01*
X165003946Y-120995304D01*
X164975044Y-121043261D01*
X164932508Y-121108704D01*
X164874644Y-121194645D01*
X164864783Y-121209151D01*
X164814913Y-121282635D01*
X164770905Y-121347687D01*
X164735380Y-121400417D01*
X164710959Y-121436936D01*
X164700264Y-121453356D01*
X164699458Y-121456834D01*
X164704518Y-121482785D01*
X164719677Y-121525159D01*
X164742463Y-121576728D01*
X164773429Y-121644170D01*
X164808004Y-121724195D01*
X164837366Y-121796629D01*
X164844645Y-121815377D01*
X164863710Y-121863246D01*
X164877715Y-121896596D01*
X164884041Y-121909114D01*
X164891025Y-121910050D01*
X164922413Y-121915461D01*
X164973787Y-121924806D01*
X165039802Y-121937069D01*
X165115113Y-121951232D01*
X165194375Y-121966280D01*
X165272243Y-121981195D01*
X165343370Y-121994961D01*
X165402412Y-122006562D01*
X165444022Y-122014980D01*
X165462857Y-122019199D01*
X165465980Y-122020389D01*
X165473591Y-122026805D01*
X165479254Y-122040465D01*
X165483251Y-122064999D01*
X165485866Y-122104038D01*
X165487384Y-122161213D01*
X165488086Y-122240154D01*
X165488257Y-122344492D01*
X165488257Y-122661799D01*
X165412057Y-122676839D01*
X165402840Y-122678642D01*
X165353891Y-122687980D01*
X165286205Y-122700669D01*
X165207478Y-122715273D01*
X165125400Y-122730355D01*
X165093078Y-122736422D01*
X165020855Y-122751181D01*
X164960666Y-122765137D01*
X164918040Y-122776952D01*
X164898510Y-122785287D01*
X164889660Y-122798905D01*
X164873548Y-122834938D01*
X164857065Y-122881572D01*
X164851263Y-122899034D01*
X164829906Y-122956358D01*
X164802359Y-123024201D01*
X164773107Y-123091355D01*
X164757463Y-123126430D01*
X164735174Y-123178822D01*
X164719857Y-123218058D01*
X164714162Y-123237563D01*
X164714478Y-123239036D01*
X164725281Y-123259729D01*
X164749638Y-123299665D01*
X164785081Y-123354972D01*
X164829136Y-123421781D01*
X164879332Y-123496220D01*
X165044501Y-123738623D01*
X164827503Y-123955983D01*
X164806516Y-123976899D01*
X164742342Y-124039505D01*
X164684990Y-124093495D01*
X164637820Y-124135826D01*
X164604192Y-124163457D01*
X164587467Y-124173343D01*
X164569303Y-124165821D01*
X164531265Y-124144227D01*
X164477726Y-124111151D01*
X164412884Y-124069191D01*
X164340940Y-124020943D01*
X164270275Y-123973291D01*
X164206526Y-123931328D01*
X164154513Y-123898165D01*
X164118279Y-123876378D01*
X164101867Y-123868543D01*
X164100905Y-123868614D01*
X164079103Y-123876338D01*
X164040440Y-123894323D01*
X163992612Y-123919013D01*
X163992110Y-123919284D01*
X163928587Y-123951099D01*
X163885060Y-123966642D01*
X163858052Y-123966685D01*
X163844090Y-123952000D01*
X163838180Y-123937544D01*
X163822229Y-123898831D01*
X163797660Y-123839316D01*
X163765779Y-123762165D01*
X163727893Y-123670541D01*
X163685310Y-123567607D01*
X163639337Y-123456526D01*
X163597667Y-123355472D01*
X163555268Y-123251780D01*
X163517756Y-123159119D01*
X163486388Y-123080642D01*
X163462425Y-123019500D01*
X163447123Y-122978843D01*
X163441743Y-122961825D01*
X163452018Y-122946219D01*
X163480563Y-122920162D01*
X163520971Y-122889887D01*
X163617979Y-122810684D01*
X163704793Y-122709475D01*
X163768322Y-122598116D01*
X163808177Y-122479893D01*
X163823965Y-122358095D01*
X163815296Y-122236010D01*
X163781778Y-122116925D01*
X163723021Y-122004129D01*
X163638632Y-121900911D01*
X163594631Y-121860713D01*
X163489211Y-121789638D01*
X163376410Y-121743301D01*
X163259525Y-121720599D01*
X163141853Y-121720428D01*
X163026690Y-121741687D01*
X162917335Y-121783270D01*
X162817083Y-121844076D01*
X162729233Y-121923001D01*
X162657080Y-122018941D01*
X162603922Y-122130795D01*
X162573057Y-122257457D01*
X162567392Y-122318507D01*
X162575185Y-122450776D01*
X162610284Y-122576266D01*
X162671649Y-122692759D01*
X162758243Y-122798039D01*
X162869029Y-122889887D01*
X162907931Y-122918930D01*
X162937104Y-122945272D01*
X162948257Y-122961800D01*
X162943810Y-122976209D01*
X162929378Y-123014815D01*
X162906173Y-123074201D01*
X162875452Y-123151215D01*
X162838474Y-123242703D01*
X162796496Y-123345516D01*
X162750778Y-123456502D01*
X162709178Y-123557072D01*
X162666222Y-123660947D01*
X162627829Y-123753819D01*
X162595305Y-123832525D01*
X162569958Y-123893899D01*
X162553095Y-123934779D01*
X162546025Y-123952000D01*
X162545943Y-123952204D01*
X162531798Y-123966745D01*
X162504659Y-123966579D01*
X162461023Y-123950927D01*
X162397388Y-123919013D01*
X162392379Y-123916326D01*
X162345125Y-123892150D01*
X162307811Y-123875037D01*
X162288133Y-123868543D01*
X162272005Y-123876218D01*
X162235959Y-123897871D01*
X162184092Y-123930928D01*
X162120445Y-123972810D01*
X162049060Y-124020943D01*
X161978724Y-124068131D01*
X161913670Y-124110267D01*
X161859820Y-124143578D01*
X161821374Y-124165469D01*
X161802534Y-124173343D01*
X161799325Y-124172343D01*
X161776954Y-124156584D01*
X161738733Y-124124033D01*
X161688021Y-124077733D01*
X161628181Y-124020726D01*
X161562571Y-123956058D01*
X161345648Y-123738772D01*
X161514601Y-123490253D01*
X161683553Y-123241733D01*
X161632183Y-123130595D01*
X161632031Y-123130266D01*
X161601183Y-123059418D01*
X161569661Y-122980523D01*
X161544266Y-122910600D01*
X161540423Y-122899322D01*
X161521047Y-122846967D01*
X161503574Y-122806283D01*
X161491388Y-122785287D01*
X161486426Y-122782322D01*
X161456634Y-122772375D01*
X161406047Y-122759505D01*
X161340194Y-122745053D01*
X161264600Y-122730355D01*
X161241957Y-122726210D01*
X161160038Y-122711116D01*
X161083600Y-122696899D01*
X161020337Y-122684995D01*
X160977943Y-122676839D01*
X160901743Y-122661799D01*
X160901743Y-122344492D01*
X160901760Y-122305476D01*
X160902082Y-122210292D01*
X160903033Y-122139255D01*
X160904896Y-122088734D01*
X160907955Y-122055098D01*
X160912494Y-122034718D01*
X160918795Y-122023962D01*
X160927143Y-122019199D01*
X160935224Y-122017270D01*
X160968172Y-122010445D01*
X161020736Y-122000022D01*
X161087569Y-121987018D01*
X161163328Y-121972449D01*
X161242665Y-121957333D01*
X161320237Y-121942685D01*
X161390698Y-121929523D01*
X161448702Y-121918863D01*
X161488904Y-121911721D01*
X161505959Y-121909114D01*
X161507112Y-121907541D01*
X161516385Y-121887119D01*
X161532432Y-121848045D01*
X161552635Y-121796629D01*
X161580672Y-121727353D01*
X161615186Y-121647290D01*
X161647538Y-121576728D01*
X161654952Y-121560889D01*
X161675755Y-121511293D01*
X161688219Y-121473038D01*
X161689863Y-121453356D01*
X161689015Y-121451962D01*
X161675548Y-121431420D01*
X161648850Y-121391516D01*
X161611539Y-121336140D01*
X161566234Y-121269177D01*
X161515552Y-121194517D01*
X161458445Y-121109692D01*
X161415607Y-121043800D01*
X161386460Y-120995478D01*
X161369317Y-120961733D01*
X161362495Y-120939572D01*
X161364306Y-120926002D01*
X161364915Y-120924984D01*
X161381297Y-120905210D01*
X161414695Y-120869175D01*
X161461671Y-120820451D01*
X161518786Y-120762612D01*
X161582603Y-120699227D01*
X161648802Y-120634905D01*
X161713648Y-120574447D01*
X161761299Y-120533655D01*
X161792990Y-120511484D01*
X161809958Y-120506889D01*
X161812175Y-120507921D01*
X161835524Y-120521837D01*
X161877912Y-120549030D01*
X161935369Y-120586889D01*
X162003923Y-120632803D01*
X162079601Y-120684160D01*
X162326298Y-120852626D01*
X162437706Y-120802062D01*
X162440943Y-120800597D01*
X162509343Y-120770965D01*
X162581907Y-120741493D01*
X162643457Y-120718358D01*
X162643729Y-120718262D01*
X162692595Y-120700367D01*
X162730212Y-120685253D01*
X162748457Y-120676184D01*
X162748752Y-120675855D01*
X162754946Y-120657282D01*
X162765139Y-120615045D01*
X162778348Y-120553696D01*
X162793590Y-120477789D01*
X162809881Y-120391875D01*
X162810449Y-120388796D01*
X162826713Y-120301128D01*
X162841608Y-120221741D01*
X162854171Y-120155701D01*
X162863438Y-120108079D01*
X162868444Y-120083943D01*
X162868764Y-120082605D01*
X162872060Y-120072273D01*
X162878738Y-120064506D01*
X162892462Y-120058940D01*
X162916895Y-120055207D01*
X162955702Y-120052942D01*
X163012546Y-120051778D01*
X163091090Y-120051348D01*
X163195000Y-120051286D01*
X163208056Y-120051286D01*
X163308933Y-120051371D01*
G37*
%LPC*%
D15*
X161925000Y-68250000D03*
D16*
X161925000Y-70750000D03*
D15*
X135392800Y-69469000D03*
D16*
X132892800Y-69469000D03*
D17*
X156995400Y-118058200D03*
X156995400Y-122758200D03*
X156995400Y-127458200D03*
D16*
X135514400Y-108102400D03*
X133014400Y-108102400D03*
D18*
X135382000Y-64135000D03*
D19*
X132842000Y-64135000D03*
D18*
X163830000Y-64135000D03*
D19*
X161290000Y-64135000D03*
X158750000Y-64135000D03*
X156210000Y-64135000D03*
D16*
X135514400Y-84429600D03*
X133014400Y-84429600D03*
D18*
X135387000Y-138677800D03*
D19*
X132847000Y-138677800D03*
D16*
X160020000Y-89662000D03*
X160020000Y-87162000D03*
D20*
X149860000Y-55875000D03*
D21*
X149860000Y-58415000D03*
X147320000Y-55875000D03*
X147320000Y-58415000D03*
D16*
X135514400Y-88906000D03*
X133014400Y-88906000D03*
D18*
X163830000Y-138684000D03*
D19*
X161290000Y-138684000D03*
X158750000Y-138684000D03*
X156210000Y-138684000D03*
D15*
X135509000Y-101600000D03*
D16*
X133009000Y-101600000D03*
X154920000Y-83480000D03*
D22*
X165080000Y-83480000D03*
D15*
X135382000Y-133350000D03*
D16*
X132882000Y-133350000D03*
D23*
X160000000Y-79675000D03*
D24*
X160000000Y-77135000D03*
D16*
X154940000Y-132100000D03*
X154940000Y-134600000D03*
D20*
X149860000Y-100330000D03*
D21*
X149860000Y-102870000D03*
X147320000Y-100330000D03*
X147320000Y-102870000D03*
D20*
X143002000Y-100330000D03*
D21*
X143002000Y-102870000D03*
X140462000Y-100330000D03*
X140462000Y-102870000D03*
D16*
X154940000Y-68250000D03*
X154940000Y-70750000D03*
X154940000Y-100350000D03*
X154940000Y-102850000D03*
X155575000Y-89662000D03*
X155575000Y-87162000D03*
X135412800Y-126695200D03*
X132912800Y-126695200D03*
D20*
X143002000Y-55880000D03*
D21*
X143002000Y-58420000D03*
X140462000Y-55880000D03*
X140462000Y-58420000D03*
D16*
X164465000Y-89662000D03*
X164465000Y-87162000D03*
D25*
X154655000Y-111125000D03*
D26*
X160655000Y-111125000D03*
D27*
X157655000Y-106425000D03*
D15*
X161925000Y-132120000D03*
D16*
X161925000Y-134620000D03*
D15*
X161925000Y-100370000D03*
D16*
X161925000Y-102870000D03*
X135514400Y-93370400D03*
X133014400Y-93370400D03*
X135463600Y-76149200D03*
X132963600Y-76149200D03*
%LPD*%
M02*
